<?xml version="1.0" encoding="utf-8" standalone="no"?>
<!DOCTYPE svg PUBLIC "-//W3C//DTD SVG 1.1//EN"
  "http://www.w3.org/Graphics/SVG/1.1/DTD/svg11.dtd">
<svg xmlns:xlink="http://www.w3.org/1999/xlink" width="288pt" height="288pt" viewBox="0 0 288 288" xmlns="http://www.w3.org/2000/svg" version="1.1">
 <metadata>
  <rdf:RDF xmlns:dc="http://purl.org/dc/elements/1.1/" xmlns:cc="http://creativecommons.org/ns#" xmlns:rdf="http://www.w3.org/1999/02/22-rdf-syntax-ns#">
   <cc:Work>
    <dc:type rdf:resource="http://purl.org/dc/dcmitype/StillImage"/>
    <dc:date>2025-11-05T12:07:19.312288</dc:date>
    <dc:format>image/svg+xml</dc:format>
    <dc:creator>
     <cc:Agent>
      <dc:title>Matplotlib v3.10.7, https://matplotlib.org/</dc:title>
     </cc:Agent>
    </dc:creator>
   </cc:Work>
  </rdf:RDF>
 </metadata>
 <defs>
  <style type="text/css">*{stroke-linejoin: round; stroke-linecap: butt}</style>
 </defs>
 <g id="figure_1">
  <g id="patch_1">
   <path d="M 0 288 
L 288 288 
L 288 0 
L 0 0 
L 0 288 
z
" style="fill: none"/>
  </g>
  <g id="axes_1">
   <g id="patch_2">
    <path d="M 249.054545 145.44 
C 249.054545 132.117111 246.430227 118.923771 241.331778 106.615026 
C 236.233329 94.306282 228.759902 83.121508 219.339197 73.700803 
C 209.918492 64.280098 198.733718 56.806671 186.424974 51.708222 
C 174.116229 46.609773 160.922889 43.985455 147.6 43.985455 
C 134.277111 43.985455 121.083771 46.609773 108.775026 51.708222 
C 96.466282 56.806671 85.281508 64.280098 75.860803 73.700803 
C 66.440098 83.121508 58.966671 94.306282 53.868222 106.615026 
C 48.769773 118.923771 46.145455 132.117111 46.145455 145.44 
C 46.145455 158.762889 48.769773 171.956229 53.868222 184.264974 
C 58.966671 196.573718 66.440098 207.758492 75.860803 217.179197 
C 85.281508 226.599902 96.466282 234.073329 108.775026 239.171778 
C 121.083771 244.270227 134.277111 246.894545 147.6 246.894545 
C 160.922889 246.894545 174.116229 244.270227 186.424974 239.171778 
C 198.733718 234.073329 209.918492 226.599902 219.339197 217.179197 
C 228.759902 207.758492 236.233329 196.573718 241.331778 184.264974 
C 246.430227 171.956229 249.054545 158.762889 249.054545 145.44 
M 182.094545 145.44 
C 182.094545 149.969782 181.202277 154.455518 179.468805 158.640491 
C 177.735332 162.825464 175.194367 166.628287 171.991327 169.831327 
C 168.788287 173.034367 164.985464 175.575332 160.800491 177.308805 
C 156.615518 179.042277 152.129782 179.934545 147.6 179.934545 
C 143.070218 179.934545 138.584482 179.042277 134.399509 177.308805 
C 130.214536 175.575332 126.411713 173.034367 123.208673 169.831327 
C 120.005633 166.628287 117.464668 162.825464 115.731195 158.640491 
C 113.997723 154.455518 113.105455 149.969782 113.105455 145.44 
C 113.105455 140.910218 113.997723 136.424482 115.731195 132.239509 
C 117.464668 128.054536 120.005633 124.251713 123.208673 121.048673 
C 126.411713 117.845633 130.214536 115.304668 134.399509 113.571195 
C 138.584482 111.837723 143.070218 110.945455 147.6 110.945455 
C 152.129782 110.945455 156.615518 111.837723 160.800491 113.571195 
C 164.985464 115.304668 168.788287 117.845633 171.991327 121.048673 
C 175.194367 124.251713 177.735332 128.054536 179.468805 132.239509 
C 181.202277 136.424482 182.094545 140.910218 182.094545 145.44 
z
" style="fill: #5cb8b2; stroke: #ffffff; stroke-linejoin: miter"/>
   </g>
   <g id="matplotlib.axis_1"/>
   <g id="matplotlib.axis_2"/>
   <g id="text_1">
    <!-- Yes -->
    <g style="fill: #404040" transform="translate(138.684375 142.390125) scale(0.12 -0.12)">
     <defs>
      <path id="SourceSans3-Bold-59" d="M 1210 0 
L 1210 1485 
L -51 4173 
L 960 4173 
L 1331 3213 
Q 1421 2976 1504 2755 
Q 1587 2534 1670 2291 
L 1696 2291 
Q 1786 2534 1875 2755 
Q 1965 2976 2048 3213 
L 2426 4173 
L 3411 4173 
L 2150 1485 
L 2150 0 
L 1210 0 
z
" transform="scale(0.015625)"/>
      <path id="SourceSans3-Bold-65" d="M 1747 2528 
Q 1562 2528 1386 2403 
Q 1210 2278 1146 1952 
L 2272 1952 
Q 2272 2202 2150 2365 
Q 2029 2528 1747 2528 
z
M 1837 -77 
Q 1382 -77 1017 118 
Q 653 314 441 688 
Q 230 1062 230 1587 
Q 230 2106 444 2477 
Q 659 2848 1004 3049 
Q 1350 3251 1728 3251 
Q 2182 3251 2483 3049 
Q 2784 2848 2931 2505 
Q 3078 2163 3078 1728 
Q 3078 1606 3065 1488 
Q 3053 1370 3040 1299 
L 1146 1299 
Q 1222 928 1459 787 
Q 1696 646 1965 646 
Q 2317 646 2656 851 
L 2963 275 
Q 2726 109 2422 16 
Q 2118 -77 1837 -77 
z
" transform="scale(0.015625)"/>
      <path id="SourceSans3-Bold-73" d="M 1350 -77 
Q 1037 -77 707 44 
Q 378 166 134 397 
L 531 928 
Q 749 755 963 688 
Q 1178 621 1376 621 
Q 1587 621 1683 694 
Q 1779 768 1779 890 
Q 1779 1050 1596 1133 
Q 1414 1216 1158 1312 
Q 934 1395 739 1523 
Q 544 1651 425 1833 
Q 307 2016 307 2259 
Q 307 2701 643 2976 
Q 979 3251 1523 3251 
Q 1869 3251 2157 3139 
Q 2445 3027 2643 2848 
L 2240 2323 
Q 2067 2451 1894 2502 
Q 1722 2554 1555 2554 
Q 1370 2554 1280 2483 
Q 1190 2413 1190 2304 
Q 1190 2163 1334 2086 
Q 1478 2010 1779 1914 
Q 2144 1792 2400 1568 
Q 2656 1344 2656 947 
Q 2656 518 2323 220 
Q 1990 -77 1350 -77 
z
" transform="scale(0.015625)"/>
     </defs>
     <use xlink:href="#SourceSans3-Bold-59"/>
     <use xlink:href="#SourceSans3-Bold-65" transform="translate(52.499985 0)"/>
     <use xlink:href="#SourceSans3-Bold-73" transform="translate(104.299973 0)"/>
    </g>
    <!-- 100% -->
    <g style="fill: #404040" transform="translate(132.954375 154.692375) scale(0.12 -0.12)">
     <defs>
      <path id="SourceSans3-Bold-31" d="M 448 0 
L 448 762 
L 1331 762 
L 1331 3110 
L 570 3110 
L 570 3693 
Q 902 3757 1132 3846 
Q 1363 3936 1581 4064 
L 2272 4064 
L 2272 762 
L 3034 762 
L 3034 0 
L 448 0 
z
" transform="scale(0.015625)"/>
      <path id="SourceSans3-Bold-30" d="M 1690 -77 
Q 1037 -77 637 467 
Q 237 1011 237 2048 
Q 237 3085 637 3613 
Q 1037 4141 1690 4141 
Q 2342 4141 2742 3613 
Q 3142 3085 3142 2048 
Q 3142 1011 2742 467 
Q 2342 -77 1690 -77 
z
M 1690 653 
Q 1850 653 1978 771 
Q 2106 890 2179 1190 
Q 2253 1491 2253 2048 
Q 2253 2605 2179 2899 
Q 2106 3194 1978 3302 
Q 1850 3411 1690 3411 
Q 1536 3411 1408 3302 
Q 1280 3194 1203 2899 
Q 1126 2605 1126 2048 
Q 1126 1491 1203 1190 
Q 1280 890 1408 771 
Q 1536 653 1690 653 
z
" transform="scale(0.015625)"/>
      <path id="SourceSans3-Bold-25" d="M 1203 1600 
Q 755 1600 460 1952 
Q 166 2304 166 2931 
Q 166 3559 460 3904 
Q 755 4250 1203 4250 
Q 1658 4250 1952 3904 
Q 2246 3559 2246 2931 
Q 2246 2304 1952 1952 
Q 1658 1600 1203 1600 
z
M 1203 2125 
Q 1363 2125 1475 2304 
Q 1587 2483 1587 2931 
Q 1587 3379 1475 3552 
Q 1363 3725 1203 3725 
Q 1043 3725 931 3552 
Q 819 3379 819 2931 
Q 819 2483 931 2304 
Q 1043 2125 1203 2125 
z
M 1344 -77 
L 3597 4250 
L 4141 4250 
L 1888 -77 
L 1344 -77 
z
M 4282 -77 
Q 3834 -77 3539 275 
Q 3245 627 3245 1254 
Q 3245 1882 3539 2227 
Q 3834 2573 4282 2573 
Q 4736 2573 5030 2227 
Q 5325 1882 5325 1254 
Q 5325 627 5030 275 
Q 4736 -77 4282 -77 
z
M 4282 448 
Q 4442 448 4554 627 
Q 4666 806 4666 1254 
Q 4666 1702 4554 1875 
Q 4442 2048 4282 2048 
Q 4122 2048 4010 1875 
Q 3898 1702 3898 1254 
Q 3898 806 4010 627 
Q 4122 448 4282 448 
z
" transform="scale(0.015625)"/>
     </defs>
     <use xlink:href="#SourceSans3-Bold-31"/>
     <use xlink:href="#SourceSans3-Bold-30" transform="translate(52.799988 0)"/>
     <use xlink:href="#SourceSans3-Bold-30" transform="translate(105.599976 0)"/>
     <use xlink:href="#SourceSans3-Bold-25" transform="translate(158.399963 0)"/>
    </g>
   </g>
   <g id="text_2">
    <!-- Activities include direct assistance (n = 2) -->
    <g style="fill: #404040" transform="translate(45.434062 28.56) scale(0.12 -0.12)">
     <defs>
      <path id="SourceSans3-Regular-41" d="M 1299 2349 
L 1101 1709 
L 2362 1709 
L 2163 2349 
Q 2048 2701 1945 3049 
Q 1843 3398 1741 3763 
L 1715 3763 
Q 1619 3398 1516 3049 
Q 1414 2701 1299 2349 
z
M 19 0 
L 1440 4198 
L 2042 4198 
L 3462 0 
L 2893 0 
L 2496 1280 
L 966 1280 
L 563 0 
L 19 0 
z
" transform="scale(0.015625)"/>
      <path id="SourceSans3-Regular-63" d="M 1760 -77 
Q 1344 -77 1011 115 
Q 678 307 486 672 
Q 294 1037 294 1549 
Q 294 2074 502 2438 
Q 710 2803 1052 2995 
Q 1395 3187 1792 3187 
Q 2099 3187 2320 3084 
Q 2541 2982 2701 2822 
L 2438 2502 
Q 2317 2611 2166 2681 
Q 2016 2752 1811 2752 
Q 1536 2752 1315 2601 
Q 1094 2451 966 2179 
Q 838 1907 838 1549 
Q 838 1018 1107 688 
Q 1376 358 1805 358 
Q 2016 358 2201 441 
Q 2387 525 2528 653 
L 2758 333 
Q 2566 147 2313 35 
Q 2061 -77 1760 -77 
z
" transform="scale(0.015625)"/>
      <path id="SourceSans3-Regular-74" d="M 1504 -58 
Q 1005 -58 809 227 
Q 614 512 614 979 
L 614 2682 
L 154 2682 
L 154 3078 
L 640 3110 
L 704 4109 
L 1146 4109 
L 1146 3110 
L 1984 3110 
L 1984 2682 
L 1146 2682 
L 1146 966 
Q 1146 685 1251 528 
Q 1357 371 1626 371 
Q 1709 371 1798 387 
Q 1888 403 1978 448 
L 2086 77 
Q 1965 13 1814 -22 
Q 1664 -58 1504 -58 
z
" transform="scale(0.015625)"/>
      <path id="SourceSans3-Regular-69" d="M 525 0 
L 525 3110 
L 1050 3110 
L 1050 0 
L 525 0 
z
M 787 3750 
Q 634 3750 534 3843 
Q 435 3936 435 4096 
Q 435 4250 534 4346 
Q 634 4442 787 4442 
Q 941 4442 1040 4346 
Q 1139 4250 1139 4096 
Q 1139 3936 1040 3843 
Q 941 3750 787 3750 
z
" transform="scale(0.015625)"/>
      <path id="SourceSans3-Regular-76" d="M 1197 0 
L 77 3110 
L 621 3110 
L 1210 1344 
Q 1280 1114 1353 883 
Q 1427 653 1498 429 
L 1523 429 
Q 1594 653 1667 883 
Q 1741 1114 1805 1344 
L 2394 3110 
L 2912 3110 
L 1811 0 
L 1197 0 
z
" transform="scale(0.015625)"/>
      <path id="SourceSans3-Regular-65" d="M 1702 2758 
Q 1510 2758 1328 2665 
Q 1146 2573 1014 2368 
Q 883 2163 838 1830 
L 2458 1830 
Q 2458 2285 2259 2521 
Q 2061 2758 1702 2758 
z
M 1786 -77 
Q 1370 -77 1027 115 
Q 685 307 486 675 
Q 288 1043 288 1555 
Q 288 2061 489 2425 
Q 691 2790 1014 2988 
Q 1338 3187 1696 3187 
Q 2298 3187 2614 2790 
Q 2931 2394 2931 1728 
Q 2931 1645 2924 1568 
Q 2918 1491 2906 1414 
L 826 1414 
Q 864 890 1161 621 
Q 1459 352 1850 352 
Q 2074 352 2269 416 
Q 2464 480 2624 589 
L 2816 243 
Q 2611 102 2358 12 
Q 2106 -77 1786 -77 
z
" transform="scale(0.015625)"/>
      <path id="SourceSans3-Regular-73" d="M 1338 -77 
Q 998 -77 697 41 
Q 397 160 179 371 
L 422 678 
Q 627 512 848 422 
Q 1069 333 1357 333 
Q 1664 333 1817 477 
Q 1971 621 1971 819 
Q 1971 979 1868 1084 
Q 1766 1190 1606 1264 
Q 1446 1338 1267 1402 
Q 1037 1485 825 1597 
Q 614 1709 483 1878 
Q 352 2048 352 2304 
Q 352 2682 637 2934 
Q 922 3187 1427 3187 
Q 1715 3187 1964 3088 
Q 2214 2989 2394 2835 
L 2150 2534 
Q 1990 2650 1814 2714 
Q 1638 2778 1427 2778 
Q 1133 2778 995 2643 
Q 858 2509 858 2330 
Q 858 2118 1043 2009 
Q 1229 1901 1517 1798 
Q 1760 1715 1981 1600 
Q 2202 1485 2339 1309 
Q 2477 1133 2477 851 
Q 2477 602 2345 390 
Q 2214 179 1961 51 
Q 1709 -77 1338 -77 
z
" transform="scale(0.015625)"/>
      <path id="SourceSans3-Regular-20" transform="scale(0.015625)"/>
      <path id="SourceSans3-Regular-6e" d="M 525 0 
L 525 3110 
L 960 3110 
L 1005 2662 
L 1024 2662 
Q 1248 2886 1497 3036 
Q 1747 3187 2067 3187 
Q 2560 3187 2787 2876 
Q 3014 2566 3014 1971 
L 3014 0 
L 2490 0 
L 2490 1901 
Q 2490 2336 2349 2534 
Q 2208 2733 1901 2733 
Q 1664 2733 1475 2611 
Q 1286 2490 1050 2253 
L 1050 0 
L 525 0 
z
" transform="scale(0.015625)"/>
      <path id="SourceSans3-Regular-6c" d="M 1082 -58 
Q 787 -58 656 124 
Q 525 307 525 640 
L 525 4557 
L 1050 4557 
L 1050 602 
Q 1050 480 1094 429 
Q 1139 378 1203 378 
Q 1229 378 1251 381 
Q 1274 384 1312 390 
L 1382 -6 
Q 1267 -58 1082 -58 
z
" transform="scale(0.015625)"/>
      <path id="SourceSans3-Regular-75" d="M 1434 -77 
Q 941 -77 710 233 
Q 480 544 480 1139 
L 480 3110 
L 1011 3110 
L 1011 1210 
Q 1011 774 1148 576 
Q 1286 378 1594 378 
Q 1837 378 2025 502 
Q 2214 627 2432 902 
L 2432 3110 
L 2957 3110 
L 2957 0 
L 2522 0 
L 2477 486 
L 2458 486 
Q 2240 230 1997 76 
Q 1754 -77 1434 -77 
z
" transform="scale(0.015625)"/>
      <path id="SourceSans3-Regular-64" d="M 1587 -77 
Q 1005 -77 653 348 
Q 301 774 301 1549 
Q 301 2054 489 2422 
Q 678 2790 988 2988 
Q 1299 3187 1651 3187 
Q 1920 3187 2118 3091 
Q 2317 2995 2522 2829 
L 2496 3360 
L 2496 4557 
L 3027 4557 
L 3027 0 
L 2592 0 
L 2547 365 
L 2528 365 
Q 2349 186 2105 54 
Q 1862 -77 1587 -77 
z
M 1702 365 
Q 2112 365 2496 794 
L 2496 2419 
Q 2298 2598 2115 2672 
Q 1933 2746 1741 2746 
Q 1491 2746 1289 2595 
Q 1088 2445 966 2179 
Q 845 1914 845 1555 
Q 845 998 1069 681 
Q 1293 365 1702 365 
z
" transform="scale(0.015625)"/>
      <path id="SourceSans3-Regular-72" d="M 525 0 
L 525 3110 
L 960 3110 
L 1005 2547 
L 1024 2547 
Q 1178 2842 1408 3014 
Q 1638 3187 1907 3187 
Q 2093 3187 2240 3123 
L 2125 2675 
Q 2054 2694 1993 2704 
Q 1933 2714 1837 2714 
Q 1638 2714 1424 2554 
Q 1210 2394 1050 1997 
L 1050 0 
L 525 0 
z
" transform="scale(0.015625)"/>
      <path id="SourceSans3-Regular-61" d="M 1242 -77 
Q 851 -77 588 153 
Q 326 384 326 806 
Q 326 1331 787 1600 
Q 1248 1869 2246 1978 
Q 2246 2176 2188 2349 
Q 2131 2522 1993 2634 
Q 1856 2746 1600 2746 
Q 1331 2746 1094 2643 
Q 858 2541 672 2426 
L 467 2784 
Q 685 2931 1001 3059 
Q 1318 3187 1690 3187 
Q 2259 3187 2515 2838 
Q 2771 2490 2771 1907 
L 2771 0 
L 2336 0 
L 2291 371 
L 2272 371 
Q 2042 186 1789 54 
Q 1536 -77 1242 -77 
z
M 1389 358 
Q 1613 358 1817 460 
Q 2022 563 2246 762 
L 2246 1600 
Q 1722 1542 1414 1440 
Q 1107 1338 976 1190 
Q 845 1043 845 838 
Q 845 582 1005 470 
Q 1165 358 1389 358 
z
" transform="scale(0.015625)"/>
      <path id="SourceSans3-Regular-28" d="M 1370 -1126 
Q 973 -480 749 227 
Q 525 934 525 1779 
Q 525 2624 749 3334 
Q 973 4045 1370 4685 
L 1696 4531 
Q 1325 3923 1142 3216 
Q 960 2509 960 1779 
Q 960 1050 1142 342 
Q 1325 -365 1696 -973 
L 1370 -1126 
z
" transform="scale(0.015625)"/>
      <path id="SourceSans3-Regular-3d" d="M 218 2599 
L 218 2995 
L 2963 2995 
L 2963 2599 
L 218 2599 
z
M 218 1229 
L 218 1625 
L 2963 1625 
L 2963 1229 
L 218 1229 
z
" transform="scale(0.015625)"/>
      <path id="SourceSans3-Regular-32" d="M 256 0 
L 256 320 
Q 870 922 1299 1386 
Q 1728 1850 1952 2227 
Q 2176 2605 2176 2931 
Q 2176 3283 1984 3507 
Q 1792 3731 1402 3731 
Q 1146 3731 928 3587 
Q 710 3443 531 3238 
L 237 3526 
Q 493 3814 784 3987 
Q 1075 4160 1466 4160 
Q 2035 4160 2361 3830 
Q 2688 3501 2688 2963 
Q 2688 2566 2467 2176 
Q 2246 1786 1862 1357 
Q 1478 928 979 416 
Q 1146 429 1325 441 
Q 1504 454 1664 454 
L 2893 454 
L 2893 0 
L 256 0 
z
" transform="scale(0.015625)"/>
      <path id="SourceSans3-Regular-29" d="M 570 -1126 
L 243 -973 
Q 614 -365 796 342 
Q 979 1050 979 1779 
Q 979 2509 796 3216 
Q 614 3923 243 4531 
L 570 4685 
Q 966 4045 1190 3334 
Q 1414 2624 1414 1779 
Q 1414 934 1190 227 
Q 966 -480 570 -1126 
z
" transform="scale(0.015625)"/>
     </defs>
     <use xlink:href="#SourceSans3-Regular-41"/>
     <use xlink:href="#SourceSans3-Regular-63" transform="translate(54.399994 0)"/>
     <use xlink:href="#SourceSans3-Regular-74" transform="translate(99.999985 0)"/>
     <use xlink:href="#SourceSans3-Regular-69" transform="translate(133.799973 0)"/>
     <use xlink:href="#SourceSans3-Regular-76" transform="translate(158.399963 0)"/>
     <use xlink:href="#SourceSans3-Regular-69" transform="translate(205.09996 0)"/>
     <use xlink:href="#SourceSans3-Regular-74" transform="translate(229.699951 0)"/>
     <use xlink:href="#SourceSans3-Regular-69" transform="translate(263.499939 0)"/>
     <use xlink:href="#SourceSans3-Regular-65" transform="translate(288.09993 0)"/>
     <use xlink:href="#SourceSans3-Regular-73" transform="translate(337.699921 0)"/>
     <use xlink:href="#SourceSans3-Regular-20" transform="translate(379.599915 0)"/>
     <use xlink:href="#SourceSans3-Regular-69" transform="translate(399.599899 0)"/>
     <use xlink:href="#SourceSans3-Regular-6e" transform="translate(424.19989 0)"/>
     <use xlink:href="#SourceSans3-Regular-63" transform="translate(478.899887 0)"/>
     <use xlink:href="#SourceSans3-Regular-6c" transform="translate(524.499878 0)"/>
     <use xlink:href="#SourceSans3-Regular-75" transform="translate(549.999863 0)"/>
     <use xlink:href="#SourceSans3-Regular-64" transform="translate(604.399857 0)"/>
     <use xlink:href="#SourceSans3-Regular-65" transform="translate(659.899841 0)"/>
     <use xlink:href="#SourceSans3-Regular-20" transform="translate(709.499832 0)"/>
     <use xlink:href="#SourceSans3-Regular-64" transform="translate(729.499817 0)"/>
     <use xlink:href="#SourceSans3-Regular-69" transform="translate(784.999802 0)"/>
     <use xlink:href="#SourceSans3-Regular-72" transform="translate(809.599792 0)"/>
     <use xlink:href="#SourceSans3-Regular-65" transform="translate(844.299789 0)"/>
     <use xlink:href="#SourceSans3-Regular-63" transform="translate(893.89978 0)"/>
     <use xlink:href="#SourceSans3-Regular-74" transform="translate(939.499771 0)"/>
     <use xlink:href="#SourceSans3-Regular-20" transform="translate(973.299759 0)"/>
     <use xlink:href="#SourceSans3-Regular-61" transform="translate(993.299744 0)"/>
     <use xlink:href="#SourceSans3-Regular-73" transform="translate(1043.699738 0)"/>
     <use xlink:href="#SourceSans3-Regular-73" transform="translate(1085.599731 0)"/>
     <use xlink:href="#SourceSans3-Regular-69" transform="translate(1127.499725 0)"/>
     <use xlink:href="#SourceSans3-Regular-73" transform="translate(1152.099716 0)"/>
     <use xlink:href="#SourceSans3-Regular-74" transform="translate(1193.99971 0)"/>
     <use xlink:href="#SourceSans3-Regular-61" transform="translate(1227.799698 0)"/>
     <use xlink:href="#SourceSans3-Regular-6e" transform="translate(1278.199692 0)"/>
     <use xlink:href="#SourceSans3-Regular-63" transform="translate(1332.899689 0)"/>
     <use xlink:href="#SourceSans3-Regular-65" transform="translate(1378.49968 0)"/>
     <use xlink:href="#SourceSans3-Regular-20" transform="translate(1428.09967 0)"/>
     <use xlink:href="#SourceSans3-Regular-28" transform="translate(1448.099655 0)"/>
     <use xlink:href="#SourceSans3-Regular-6e" transform="translate(1478.399643 0)"/>
     <use xlink:href="#SourceSans3-Regular-20" transform="translate(1533.09964 0)"/>
     <use xlink:href="#SourceSans3-Regular-3d" transform="translate(1553.099625 0)"/>
     <use xlink:href="#SourceSans3-Regular-20" transform="translate(1602.799622 0)"/>
     <use xlink:href="#SourceSans3-Regular-32" transform="translate(1622.799606 0)"/>
     <use xlink:href="#SourceSans3-Regular-29" transform="translate(1672.499603 0)"/>
    </g>
   </g>
   <g id="legend_1">
    <g id="patch_3">
     <path d="M 208.290625 50.680313 
L 228.290625 50.680313 
L 228.290625 43.680313 
L 208.290625 43.680313 
z
" style="fill: #5cb8b2; stroke: #ffffff; stroke-linejoin: miter"/>
    </g>
    <g id="text_3">
     <!-- Yes -->
     <g style="fill: #404040" transform="translate(236.290625 50.680313) scale(0.1 -0.1)">
      <defs>
       <path id="SourceSans3-Regular-59" d="M 1254 0 
L 1254 1626 
L -6 4198 
L 563 4198 
L 1107 3014 
Q 1210 2784 1309 2560 
Q 1408 2336 1510 2099 
L 1536 2099 
Q 1645 2336 1753 2560 
Q 1862 2784 1958 3014 
L 2496 4198 
L 3053 4198 
L 1792 1626 
L 1792 0 
L 1254 0 
z
" transform="scale(0.015625)"/>
      </defs>
      <use xlink:href="#SourceSans3-Regular-59"/>
      <use xlink:href="#SourceSans3-Regular-65" transform="translate(47.599991 0)"/>
      <use xlink:href="#SourceSans3-Regular-73" transform="translate(97.199982 0)"/>
     </g>
    </g>
   </g>
  </g>
 </g>
</svg>
