<?xml version="1.0" encoding="utf-8" standalone="no"?>
<!DOCTYPE svg PUBLIC "-//W3C//DTD SVG 1.1//EN"
  "http://www.w3.org/Graphics/SVG/1.1/DTD/svg11.dtd">
<svg xmlns:xlink="http://www.w3.org/1999/xlink" width="485.6pt" height="340.794687pt" viewBox="0 0 485.6 340.794687" xmlns="http://www.w3.org/2000/svg" version="1.1">
 <metadata>
  <rdf:RDF xmlns:dc="http://purl.org/dc/elements/1.1/" xmlns:cc="http://creativecommons.org/ns#" xmlns:rdf="http://www.w3.org/1999/02/22-rdf-syntax-ns#">
   <cc:Work>
    <dc:type rdf:resource="http://purl.org/dc/dcmitype/StillImage"/>
    <dc:date>2025-11-10T09:43:02.773010</dc:date>
    <dc:format>image/svg+xml</dc:format>
    <dc:creator>
     <cc:Agent>
      <dc:title>Matplotlib v3.10.7, https://matplotlib.org/</dc:title>
     </cc:Agent>
    </dc:creator>
   </cc:Work>
  </rdf:RDF>
 </metadata>
 <defs>
  <style type="text/css">*{stroke-linejoin: round; stroke-linecap: butt}</style>
 </defs>
 <g id="figure_1">
  <g id="patch_1">
   <path d="M 0 340.794687 
L 485.6 340.794687 
L 485.6 0 
L 0 0 
L 0 340.794687 
z
" style="fill: none"/>
  </g>
  <g id="axes_1">
   <g id="patch_2">
    <path d="M 7.2 310.996549 
L 478.4 310.996549 
L 478.4 293.264615 
L 7.2 293.264615 
z
" clip-path="url(#p534b8b2be1)" style="fill: #5cb8b2; fill-opacity: 0.05098"/>
   </g>
   <g id="patch_3">
    <path d="M 7.2 288.831631 
L 478.4 288.831631 
L 478.4 271.099697 
L 7.2 271.099697 
L 7.2 288.831631 
z
" clip-path="url(#p534b8b2be1)" style="fill: none"/>
   </g>
   <g id="patch_4">
    <path d="M 7.2 266.666714 
L 478.4 266.666714 
L 478.4 248.93478 
L 7.2 248.93478 
z
" clip-path="url(#p534b8b2be1)" style="fill: #5cb8b2; fill-opacity: 0.05098"/>
   </g>
   <g id="patch_5">
    <path d="M 7.2 244.501796 
L 478.4 244.501796 
L 478.4 226.769862 
L 7.2 226.769862 
L 7.2 244.501796 
z
" clip-path="url(#p534b8b2be1)" style="fill: none"/>
   </g>
   <g id="patch_6">
    <path d="M 7.2 222.336879 
L 478.4 222.336879 
L 478.4 204.604945 
L 7.2 204.604945 
z
" clip-path="url(#p534b8b2be1)" style="fill: #5cb8b2; fill-opacity: 0.05098"/>
   </g>
   <g id="patch_7">
    <path d="M 7.2 200.171961 
L 478.4 200.171961 
L 478.4 182.440027 
L 7.2 182.440027 
L 7.2 200.171961 
z
" clip-path="url(#p534b8b2be1)" style="fill: none"/>
   </g>
   <g id="matplotlib.axis_1"/>
   <g id="matplotlib.axis_2">
    <g id="ytick_1"/>
    <g id="ytick_2"/>
    <g id="ytick_3"/>
    <g id="ytick_4"/>
    <g id="ytick_5"/>
    <g id="ytick_6"/>
   </g>
  </g>
  <g id="axes_2">
   <g id="matplotlib.axis_3">
    <g id="ytick_7">
     <g id="line2d_1"/>
     <g id="text_1">
      <!-- Producing registration token during distribution -->
      <g transform="translate(53.26344 305.690738) scale(0.1 -0.1)">
       <defs>
        <path id="SourceSans3-Regular-50" d="M 576 0 
L 576 4198 
L 1773 4198 
Q 2246 4198 2598 4083 
Q 2950 3968 3148 3696 
Q 3347 3424 3347 2963 
Q 3347 2304 2918 1984 
Q 2490 1664 1798 1664 
L 1107 1664 
L 1107 0 
L 576 0 
z
M 1107 2099 
L 1734 2099 
Q 2285 2099 2550 2307 
Q 2816 2515 2816 2963 
Q 2816 3418 2537 3594 
Q 2259 3770 1709 3770 
L 1107 3770 
L 1107 2099 
z
" transform="scale(0.015625)"/>
        <path id="SourceSans3-Regular-72" d="M 525 0 
L 525 3110 
L 960 3110 
L 1005 2547 
L 1024 2547 
Q 1178 2842 1408 3014 
Q 1638 3187 1907 3187 
Q 2093 3187 2240 3123 
L 2125 2675 
Q 2054 2694 1993 2704 
Q 1933 2714 1837 2714 
Q 1638 2714 1424 2554 
Q 1210 2394 1050 1997 
L 1050 0 
L 525 0 
z
" transform="scale(0.015625)"/>
        <path id="SourceSans3-Regular-6f" d="M 1734 -77 
Q 1357 -77 1027 115 
Q 698 307 496 672 
Q 294 1037 294 1549 
Q 294 2074 496 2438 
Q 698 2803 1027 2995 
Q 1357 3187 1734 3187 
Q 2118 3187 2444 2995 
Q 2771 2803 2972 2438 
Q 3174 2074 3174 1549 
Q 3174 1037 2972 672 
Q 2771 307 2444 115 
Q 2118 -77 1734 -77 
z
M 1734 358 
Q 2138 358 2384 688 
Q 2630 1018 2630 1549 
Q 2630 2086 2384 2419 
Q 2138 2752 1734 2752 
Q 1338 2752 1088 2419 
Q 838 2086 838 1549 
Q 838 1018 1088 688 
Q 1338 358 1734 358 
z
" transform="scale(0.015625)"/>
        <path id="SourceSans3-Regular-64" d="M 1587 -77 
Q 1005 -77 653 348 
Q 301 774 301 1549 
Q 301 2054 489 2422 
Q 678 2790 988 2988 
Q 1299 3187 1651 3187 
Q 1920 3187 2118 3091 
Q 2317 2995 2522 2829 
L 2496 3360 
L 2496 4557 
L 3027 4557 
L 3027 0 
L 2592 0 
L 2547 365 
L 2528 365 
Q 2349 186 2105 54 
Q 1862 -77 1587 -77 
z
M 1702 365 
Q 2112 365 2496 794 
L 2496 2419 
Q 2298 2598 2115 2672 
Q 1933 2746 1741 2746 
Q 1491 2746 1289 2595 
Q 1088 2445 966 2179 
Q 845 1914 845 1555 
Q 845 998 1069 681 
Q 1293 365 1702 365 
z
" transform="scale(0.015625)"/>
        <path id="SourceSans3-Regular-75" d="M 1434 -77 
Q 941 -77 710 233 
Q 480 544 480 1139 
L 480 3110 
L 1011 3110 
L 1011 1210 
Q 1011 774 1148 576 
Q 1286 378 1594 378 
Q 1837 378 2025 502 
Q 2214 627 2432 902 
L 2432 3110 
L 2957 3110 
L 2957 0 
L 2522 0 
L 2477 486 
L 2458 486 
Q 2240 230 1997 76 
Q 1754 -77 1434 -77 
z
" transform="scale(0.015625)"/>
        <path id="SourceSans3-Regular-63" d="M 1760 -77 
Q 1344 -77 1011 115 
Q 678 307 486 672 
Q 294 1037 294 1549 
Q 294 2074 502 2438 
Q 710 2803 1052 2995 
Q 1395 3187 1792 3187 
Q 2099 3187 2320 3084 
Q 2541 2982 2701 2822 
L 2438 2502 
Q 2317 2611 2166 2681 
Q 2016 2752 1811 2752 
Q 1536 2752 1315 2601 
Q 1094 2451 966 2179 
Q 838 1907 838 1549 
Q 838 1018 1107 688 
Q 1376 358 1805 358 
Q 2016 358 2201 441 
Q 2387 525 2528 653 
L 2758 333 
Q 2566 147 2313 35 
Q 2061 -77 1760 -77 
z
" transform="scale(0.015625)"/>
        <path id="SourceSans3-Regular-69" d="M 525 0 
L 525 3110 
L 1050 3110 
L 1050 0 
L 525 0 
z
M 787 3750 
Q 634 3750 534 3843 
Q 435 3936 435 4096 
Q 435 4250 534 4346 
Q 634 4442 787 4442 
Q 941 4442 1040 4346 
Q 1139 4250 1139 4096 
Q 1139 3936 1040 3843 
Q 941 3750 787 3750 
z
" transform="scale(0.015625)"/>
        <path id="SourceSans3-Regular-6e" d="M 525 0 
L 525 3110 
L 960 3110 
L 1005 2662 
L 1024 2662 
Q 1248 2886 1497 3036 
Q 1747 3187 2067 3187 
Q 2560 3187 2787 2876 
Q 3014 2566 3014 1971 
L 3014 0 
L 2490 0 
L 2490 1901 
Q 2490 2336 2349 2534 
Q 2208 2733 1901 2733 
Q 1664 2733 1475 2611 
Q 1286 2490 1050 2253 
L 1050 0 
L 525 0 
z
" transform="scale(0.015625)"/>
        <path id="SourceSans3-Regular-67" d="M 1574 -1434 
Q 1005 -1434 646 -1216 
Q 288 -998 288 -595 
Q 288 -397 409 -214 
Q 531 -32 742 109 
L 742 134 
Q 627 205 547 333 
Q 467 461 467 640 
Q 467 838 576 985 
Q 685 1133 806 1216 
L 806 1242 
Q 653 1370 528 1587 
Q 403 1805 403 2080 
Q 403 2419 563 2668 
Q 723 2918 992 3052 
Q 1261 3187 1574 3187 
Q 1702 3187 1817 3164 
Q 1933 3142 2016 3110 
L 3098 3110 
L 3098 2707 
L 2451 2707 
L 2451 2682 
Q 2560 2579 2637 2425 
Q 2714 2272 2714 2061 
Q 2714 1734 2560 1491 
Q 2406 1248 2150 1117 
Q 1894 986 1574 986 
Q 1325 986 1107 1094 
Q 1024 1024 966 937 
Q 909 851 909 723 
Q 909 576 1027 480 
Q 1146 384 1459 384 
L 2061 384 
Q 2605 384 2877 208 
Q 3149 32 3149 -358 
Q 3149 -646 2957 -889 
Q 2765 -1133 2413 -1283 
Q 2061 -1434 1574 -1434 
z
M 1574 1338 
Q 1843 1338 2038 1539 
Q 2234 1741 2234 2080 
Q 2234 2419 2042 2611 
Q 1850 2803 1574 2803 
Q 1299 2803 1107 2611 
Q 915 2419 915 2080 
Q 915 1741 1110 1539 
Q 1306 1338 1574 1338 
z
M 1651 -1069 
Q 2099 -1069 2368 -873 
Q 2637 -678 2637 -435 
Q 2637 -218 2473 -134 
Q 2310 -51 2010 -51 
L 1472 -51 
Q 1382 -51 1276 -38 
Q 1171 -26 1069 0 
Q 902 -122 825 -256 
Q 749 -390 749 -525 
Q 749 -774 989 -921 
Q 1229 -1069 1651 -1069 
z
" transform="scale(0.015625)"/>
        <path id="SourceSans3-Regular-20" transform="scale(0.015625)"/>
        <path id="SourceSans3-Regular-65" d="M 1702 2758 
Q 1510 2758 1328 2665 
Q 1146 2573 1014 2368 
Q 883 2163 838 1830 
L 2458 1830 
Q 2458 2285 2259 2521 
Q 2061 2758 1702 2758 
z
M 1786 -77 
Q 1370 -77 1027 115 
Q 685 307 486 675 
Q 288 1043 288 1555 
Q 288 2061 489 2425 
Q 691 2790 1014 2988 
Q 1338 3187 1696 3187 
Q 2298 3187 2614 2790 
Q 2931 2394 2931 1728 
Q 2931 1645 2924 1568 
Q 2918 1491 2906 1414 
L 826 1414 
Q 864 890 1161 621 
Q 1459 352 1850 352 
Q 2074 352 2269 416 
Q 2464 480 2624 589 
L 2816 243 
Q 2611 102 2358 12 
Q 2106 -77 1786 -77 
z
" transform="scale(0.015625)"/>
        <path id="SourceSans3-Regular-73" d="M 1338 -77 
Q 998 -77 697 41 
Q 397 160 179 371 
L 422 678 
Q 627 512 848 422 
Q 1069 333 1357 333 
Q 1664 333 1817 477 
Q 1971 621 1971 819 
Q 1971 979 1868 1084 
Q 1766 1190 1606 1264 
Q 1446 1338 1267 1402 
Q 1037 1485 825 1597 
Q 614 1709 483 1878 
Q 352 2048 352 2304 
Q 352 2682 637 2934 
Q 922 3187 1427 3187 
Q 1715 3187 1964 3088 
Q 2214 2989 2394 2835 
L 2150 2534 
Q 1990 2650 1814 2714 
Q 1638 2778 1427 2778 
Q 1133 2778 995 2643 
Q 858 2509 858 2330 
Q 858 2118 1043 2009 
Q 1229 1901 1517 1798 
Q 1760 1715 1981 1600 
Q 2202 1485 2339 1309 
Q 2477 1133 2477 851 
Q 2477 602 2345 390 
Q 2214 179 1961 51 
Q 1709 -77 1338 -77 
z
" transform="scale(0.015625)"/>
        <path id="SourceSans3-Regular-74" d="M 1504 -58 
Q 1005 -58 809 227 
Q 614 512 614 979 
L 614 2682 
L 154 2682 
L 154 3078 
L 640 3110 
L 704 4109 
L 1146 4109 
L 1146 3110 
L 1984 3110 
L 1984 2682 
L 1146 2682 
L 1146 966 
Q 1146 685 1251 528 
Q 1357 371 1626 371 
Q 1709 371 1798 387 
Q 1888 403 1978 448 
L 2086 77 
Q 1965 13 1814 -22 
Q 1664 -58 1504 -58 
z
" transform="scale(0.015625)"/>
        <path id="SourceSans3-Regular-61" d="M 1242 -77 
Q 851 -77 588 153 
Q 326 384 326 806 
Q 326 1331 787 1600 
Q 1248 1869 2246 1978 
Q 2246 2176 2188 2349 
Q 2131 2522 1993 2634 
Q 1856 2746 1600 2746 
Q 1331 2746 1094 2643 
Q 858 2541 672 2426 
L 467 2784 
Q 685 2931 1001 3059 
Q 1318 3187 1690 3187 
Q 2259 3187 2515 2838 
Q 2771 2490 2771 1907 
L 2771 0 
L 2336 0 
L 2291 371 
L 2272 371 
Q 2042 186 1789 54 
Q 1536 -77 1242 -77 
z
M 1389 358 
Q 1613 358 1817 460 
Q 2022 563 2246 762 
L 2246 1600 
Q 1722 1542 1414 1440 
Q 1107 1338 976 1190 
Q 845 1043 845 838 
Q 845 582 1005 470 
Q 1165 358 1389 358 
z
" transform="scale(0.015625)"/>
        <path id="SourceSans3-Regular-6b" d="M 525 0 
L 525 4557 
L 1050 4557 
L 1050 1478 
L 1062 1478 
L 2381 3110 
L 2970 3110 
L 1933 1856 
L 3110 0 
L 2534 0 
L 1626 1498 
L 1050 819 
L 1050 0 
L 525 0 
z
" transform="scale(0.015625)"/>
        <path id="SourceSans3-Regular-62" d="M 1901 -77 
Q 1683 -77 1449 28 
Q 1216 134 1011 320 
L 992 320 
L 947 0 
L 525 0 
L 525 4557 
L 1050 4557 
L 1050 3315 
L 1037 2752 
Q 1248 2938 1501 3062 
Q 1754 3187 2010 3187 
Q 2618 3187 2931 2758 
Q 3245 2330 3245 1606 
Q 3245 1075 3056 697 
Q 2867 320 2563 121 
Q 2259 -77 1901 -77 
z
M 1811 365 
Q 2195 365 2448 694 
Q 2701 1024 2701 1600 
Q 2701 2112 2512 2429 
Q 2323 2746 1882 2746 
Q 1683 2746 1478 2637 
Q 1274 2528 1050 2323 
L 1050 691 
Q 1254 512 1456 438 
Q 1658 365 1811 365 
z
" transform="scale(0.015625)"/>
       </defs>
       <use xlink:href="#SourceSans3-Regular-50"/>
       <use xlink:href="#SourceSans3-Regular-72" transform="translate(56.599991 0)"/>
       <use xlink:href="#SourceSans3-Regular-6f" transform="translate(91.299988 0)"/>
       <use xlink:href="#SourceSans3-Regular-64" transform="translate(145.499985 0)"/>
       <use xlink:href="#SourceSans3-Regular-75" transform="translate(200.999969 0)"/>
       <use xlink:href="#SourceSans3-Regular-63" transform="translate(255.399963 0)"/>
       <use xlink:href="#SourceSans3-Regular-69" transform="translate(300.999954 0)"/>
       <use xlink:href="#SourceSans3-Regular-6e" transform="translate(325.599945 0)"/>
       <use xlink:href="#SourceSans3-Regular-67" transform="translate(380.299942 0)"/>
       <use xlink:href="#SourceSans3-Regular-20" transform="translate(430.699936 0)"/>
       <use xlink:href="#SourceSans3-Regular-72" transform="translate(450.699921 0)"/>
       <use xlink:href="#SourceSans3-Regular-65" transform="translate(485.399918 0)"/>
       <use xlink:href="#SourceSans3-Regular-67" transform="translate(534.999908 0)"/>
       <use xlink:href="#SourceSans3-Regular-69" transform="translate(585.399902 0)"/>
       <use xlink:href="#SourceSans3-Regular-73" transform="translate(609.999893 0)"/>
       <use xlink:href="#SourceSans3-Regular-74" transform="translate(651.899887 0)"/>
       <use xlink:href="#SourceSans3-Regular-72" transform="translate(685.699875 0)"/>
       <use xlink:href="#SourceSans3-Regular-61" transform="translate(720.399872 0)"/>
       <use xlink:href="#SourceSans3-Regular-74" transform="translate(770.799866 0)"/>
       <use xlink:href="#SourceSans3-Regular-69" transform="translate(804.599854 0)"/>
       <use xlink:href="#SourceSans3-Regular-6f" transform="translate(829.199844 0)"/>
       <use xlink:href="#SourceSans3-Regular-6e" transform="translate(883.399841 0)"/>
       <use xlink:href="#SourceSans3-Regular-20" transform="translate(938.099838 0)"/>
       <use xlink:href="#SourceSans3-Regular-74" transform="translate(958.099823 0)"/>
       <use xlink:href="#SourceSans3-Regular-6f" transform="translate(991.899811 0)"/>
       <use xlink:href="#SourceSans3-Regular-6b" transform="translate(1046.099808 0)"/>
       <use xlink:href="#SourceSans3-Regular-65" transform="translate(1095.599792 0)"/>
       <use xlink:href="#SourceSans3-Regular-6e" transform="translate(1145.199783 0)"/>
       <use xlink:href="#SourceSans3-Regular-20" transform="translate(1199.89978 0)"/>
       <use xlink:href="#SourceSans3-Regular-64" transform="translate(1219.899765 0)"/>
       <use xlink:href="#SourceSans3-Regular-75" transform="translate(1275.39975 0)"/>
       <use xlink:href="#SourceSans3-Regular-72" transform="translate(1329.799744 0)"/>
       <use xlink:href="#SourceSans3-Regular-69" transform="translate(1364.499741 0)"/>
       <use xlink:href="#SourceSans3-Regular-6e" transform="translate(1389.099731 0)"/>
       <use xlink:href="#SourceSans3-Regular-67" transform="translate(1443.799728 0)"/>
       <use xlink:href="#SourceSans3-Regular-20" transform="translate(1494.199722 0)"/>
       <use xlink:href="#SourceSans3-Regular-64" transform="translate(1514.199707 0)"/>
       <use xlink:href="#SourceSans3-Regular-69" transform="translate(1569.699692 0)"/>
       <use xlink:href="#SourceSans3-Regular-73" transform="translate(1594.299683 0)"/>
       <use xlink:href="#SourceSans3-Regular-74" transform="translate(1636.199677 0)"/>
       <use xlink:href="#SourceSans3-Regular-72" transform="translate(1669.999664 0)"/>
       <use xlink:href="#SourceSans3-Regular-69" transform="translate(1704.699661 0)"/>
       <use xlink:href="#SourceSans3-Regular-62" transform="translate(1729.299652 0)"/>
       <use xlink:href="#SourceSans3-Regular-75" transform="translate(1784.59964 0)"/>
       <use xlink:href="#SourceSans3-Regular-74" transform="translate(1838.999634 0)"/>
       <use xlink:href="#SourceSans3-Regular-69" transform="translate(1872.799622 0)"/>
       <use xlink:href="#SourceSans3-Regular-6f" transform="translate(1897.399612 0)"/>
       <use xlink:href="#SourceSans3-Regular-6e" transform="translate(1951.599609 0)"/>
      </g>
     </g>
    </g>
    <g id="ytick_8">
     <g id="line2d_2"/>
     <g id="text_2">
      <!-- Biometric authentication -->
      <g transform="translate(149.116565 283.525821) scale(0.1 -0.1)">
       <defs>
        <path id="SourceSans3-Regular-42" d="M 576 0 
L 576 4198 
L 1824 4198 
Q 2253 4198 2576 4096 
Q 2899 3994 3081 3770 
Q 3264 3546 3264 3174 
Q 3264 2848 3107 2601 
Q 2950 2355 2650 2259 
L 2650 2234 
Q 3046 2163 3276 1916 
Q 3507 1670 3507 1248 
Q 3507 832 3305 553 
Q 3104 275 2745 137 
Q 2387 0 1914 0 
L 576 0 
z
M 1107 2413 
L 1728 2413 
Q 2266 2413 2502 2598 
Q 2739 2784 2739 3104 
Q 2739 3469 2492 3622 
Q 2246 3776 1754 3776 
L 1107 3776 
L 1107 2413 
z
M 1107 422 
L 1837 422 
Q 2381 422 2681 624 
Q 2982 826 2982 1248 
Q 2982 1638 2684 1820 
Q 2387 2003 1837 2003 
L 1107 2003 
L 1107 422 
z
" transform="scale(0.015625)"/>
        <path id="SourceSans3-Regular-6d" d="M 525 0 
L 525 3110 
L 960 3110 
L 1005 2662 
L 1024 2662 
Q 1229 2886 1472 3036 
Q 1715 3187 1990 3187 
Q 2349 3187 2550 3030 
Q 2752 2874 2848 2592 
Q 3091 2854 3340 3020 
Q 3590 3187 3872 3187 
Q 4352 3187 4585 2876 
Q 4819 2566 4819 1971 
L 4819 0 
L 4294 0 
L 4294 1901 
Q 4294 2336 4153 2534 
Q 4013 2733 3718 2733 
Q 3373 2733 2938 2253 
L 2938 0 
L 2413 0 
L 2413 1901 
Q 2413 2336 2272 2534 
Q 2131 2733 1830 2733 
Q 1485 2733 1050 2253 
L 1050 0 
L 525 0 
z
" transform="scale(0.015625)"/>
        <path id="SourceSans3-Regular-68" d="M 525 0 
L 525 4557 
L 1050 4557 
L 1050 3315 
L 1030 2675 
Q 1254 2886 1500 3036 
Q 1747 3187 2067 3187 
Q 2560 3187 2787 2876 
Q 3014 2566 3014 1971 
L 3014 0 
L 2490 0 
L 2490 1901 
Q 2490 2336 2349 2534 
Q 2208 2733 1901 2733 
Q 1664 2733 1475 2611 
Q 1286 2490 1050 2253 
L 1050 0 
L 525 0 
z
" transform="scale(0.015625)"/>
       </defs>
       <use xlink:href="#SourceSans3-Regular-42"/>
       <use xlink:href="#SourceSans3-Regular-69" transform="translate(58.799988 0)"/>
       <use xlink:href="#SourceSans3-Regular-6f" transform="translate(83.399979 0)"/>
       <use xlink:href="#SourceSans3-Regular-6d" transform="translate(137.599976 0)"/>
       <use xlink:href="#SourceSans3-Regular-65" transform="translate(220.499969 0)"/>
       <use xlink:href="#SourceSans3-Regular-74" transform="translate(270.09996 0)"/>
       <use xlink:href="#SourceSans3-Regular-72" transform="translate(303.899948 0)"/>
       <use xlink:href="#SourceSans3-Regular-69" transform="translate(338.599945 0)"/>
       <use xlink:href="#SourceSans3-Regular-63" transform="translate(363.199936 0)"/>
       <use xlink:href="#SourceSans3-Regular-20" transform="translate(408.799927 0)"/>
       <use xlink:href="#SourceSans3-Regular-61" transform="translate(428.799911 0)"/>
       <use xlink:href="#SourceSans3-Regular-75" transform="translate(479.199905 0)"/>
       <use xlink:href="#SourceSans3-Regular-74" transform="translate(533.599899 0)"/>
       <use xlink:href="#SourceSans3-Regular-68" transform="translate(567.399887 0)"/>
       <use xlink:href="#SourceSans3-Regular-65" transform="translate(621.799881 0)"/>
       <use xlink:href="#SourceSans3-Regular-6e" transform="translate(671.399872 0)"/>
       <use xlink:href="#SourceSans3-Regular-74" transform="translate(726.099869 0)"/>
       <use xlink:href="#SourceSans3-Regular-69" transform="translate(759.899857 0)"/>
       <use xlink:href="#SourceSans3-Regular-63" transform="translate(784.499847 0)"/>
       <use xlink:href="#SourceSans3-Regular-61" transform="translate(830.099838 0)"/>
       <use xlink:href="#SourceSans3-Regular-74" transform="translate(880.499832 0)"/>
       <use xlink:href="#SourceSans3-Regular-69" transform="translate(914.29982 0)"/>
       <use xlink:href="#SourceSans3-Regular-6f" transform="translate(938.899811 0)"/>
       <use xlink:href="#SourceSans3-Regular-6e" transform="translate(993.099808 0)"/>
      </g>
     </g>
    </g>
    <g id="ytick_9">
     <g id="line2d_3"/>
     <g id="text_3">
      <!-- Community confirmation -->
      <g transform="translate(148.402503 261.421059) scale(0.1 -0.1)">
       <defs>
        <path id="SourceSans3-Regular-43" d="M 2170 -77 
Q 1645 -77 1229 182 
Q 813 442 573 928 
Q 333 1414 333 2099 
Q 333 2778 576 3264 
Q 819 3750 1241 4012 
Q 1664 4275 2195 4275 
Q 2573 4275 2870 4124 
Q 3168 3974 3347 3757 
L 3059 3430 
Q 2893 3610 2678 3709 
Q 2464 3808 2202 3808 
Q 1811 3808 1513 3600 
Q 1216 3392 1049 3014 
Q 883 2637 883 2112 
Q 883 1587 1046 1200 
Q 1210 813 1507 601 
Q 1805 390 2208 390 
Q 2502 390 2736 502 
Q 2970 614 3168 832 
L 3443 525 
Q 3187 237 2883 80 
Q 2579 -77 2170 -77 
z
" transform="scale(0.015625)"/>
        <path id="SourceSans3-Regular-79" d="M 576 -1338 
Q 474 -1338 381 -1318 
Q 288 -1299 211 -1274 
L 326 -864 
Q 442 -902 550 -902 
Q 813 -902 985 -713 
Q 1158 -525 1254 -237 
L 1325 -6 
L 77 3110 
L 621 3110 
L 1254 1389 
Q 1325 1190 1405 960 
Q 1485 730 1555 512 
L 1581 512 
Q 1651 723 1715 953 
Q 1779 1184 1843 1389 
L 2400 3110 
L 2912 3110 
L 1741 -256 
Q 1632 -563 1481 -806 
Q 1331 -1050 1110 -1194 
Q 890 -1338 576 -1338 
z
" transform="scale(0.015625)"/>
        <path id="SourceSans3-Regular-66" d="M 614 0 
L 614 2682 
L 154 2682 
L 154 3078 
L 614 3110 
L 614 3603 
Q 614 4077 835 4355 
Q 1056 4634 1523 4634 
Q 1670 4634 1804 4605 
Q 1939 4576 2042 4531 
L 1926 4147 
Q 1734 4205 1574 4205 
Q 1139 4205 1139 3603 
L 1139 3110 
L 1798 3110 
L 1798 2682 
L 1139 2682 
L 1139 0 
L 614 0 
z
" transform="scale(0.015625)"/>
       </defs>
       <use xlink:href="#SourceSans3-Regular-43"/>
       <use xlink:href="#SourceSans3-Regular-6f" transform="translate(57.099991 0)"/>
       <use xlink:href="#SourceSans3-Regular-6d" transform="translate(111.299988 0)"/>
       <use xlink:href="#SourceSans3-Regular-6d" transform="translate(194.199982 0)"/>
       <use xlink:href="#SourceSans3-Regular-75" transform="translate(277.099976 0)"/>
       <use xlink:href="#SourceSans3-Regular-6e" transform="translate(331.499969 0)"/>
       <use xlink:href="#SourceSans3-Regular-69" transform="translate(386.199966 0)"/>
       <use xlink:href="#SourceSans3-Regular-74" transform="translate(410.799957 0)"/>
       <use xlink:href="#SourceSans3-Regular-79" transform="translate(444.599945 0)"/>
       <use xlink:href="#SourceSans3-Regular-20" transform="translate(491.299942 0)"/>
       <use xlink:href="#SourceSans3-Regular-63" transform="translate(511.299927 0)"/>
       <use xlink:href="#SourceSans3-Regular-6f" transform="translate(556.899918 0)"/>
       <use xlink:href="#SourceSans3-Regular-6e" transform="translate(611.099915 0)"/>
       <use xlink:href="#SourceSans3-Regular-66" transform="translate(665.799911 0)"/>
       <use xlink:href="#SourceSans3-Regular-69" transform="translate(694.999908 0)"/>
       <use xlink:href="#SourceSans3-Regular-72" transform="translate(719.599899 0)"/>
       <use xlink:href="#SourceSans3-Regular-6d" transform="translate(754.299896 0)"/>
       <use xlink:href="#SourceSans3-Regular-61" transform="translate(837.19989 0)"/>
       <use xlink:href="#SourceSans3-Regular-74" transform="translate(887.599884 0)"/>
       <use xlink:href="#SourceSans3-Regular-69" transform="translate(921.399872 0)"/>
       <use xlink:href="#SourceSans3-Regular-6f" transform="translate(945.999863 0)"/>
       <use xlink:href="#SourceSans3-Regular-6e" transform="translate(1000.19986 0)"/>
      </g>
     </g>
    </g>
    <g id="ytick_10">
     <g id="line2d_4"/>
     <g id="text_4">
      <!-- Identification using photo -->
      <g transform="translate(145.924378 239.256142) scale(0.1 -0.1)">
       <defs>
        <path id="SourceSans3-Regular-49" d="M 576 0 
L 576 4198 
L 1107 4198 
L 1107 0 
L 576 0 
z
" transform="scale(0.015625)"/>
        <path id="SourceSans3-Regular-70" d="M 525 -1312 
L 525 3110 
L 960 3110 
L 1005 2752 
L 1024 2752 
Q 1235 2931 1488 3059 
Q 1741 3187 2016 3187 
Q 2618 3187 2931 2755 
Q 3245 2323 3245 1600 
Q 3245 1075 3056 697 
Q 2867 320 2563 121 
Q 2259 -77 1901 -77 
Q 1683 -77 1468 19 
Q 1254 115 1037 282 
L 1050 -262 
L 1050 -1312 
L 525 -1312 
z
M 1811 365 
Q 2195 365 2448 694 
Q 2701 1024 2701 1600 
Q 2701 2112 2512 2429 
Q 2323 2746 1882 2746 
Q 1683 2746 1481 2637 
Q 1280 2528 1050 2323 
L 1050 691 
Q 1261 512 1459 438 
Q 1658 365 1811 365 
z
" transform="scale(0.015625)"/>
       </defs>
       <use xlink:href="#SourceSans3-Regular-49"/>
       <use xlink:href="#SourceSans3-Regular-64" transform="translate(26.299988 0)"/>
       <use xlink:href="#SourceSans3-Regular-65" transform="translate(81.799973 0)"/>
       <use xlink:href="#SourceSans3-Regular-6e" transform="translate(131.399963 0)"/>
       <use xlink:href="#SourceSans3-Regular-74" transform="translate(186.09996 0)"/>
       <use xlink:href="#SourceSans3-Regular-69" transform="translate(219.899948 0)"/>
       <use xlink:href="#SourceSans3-Regular-66" transform="translate(244.499939 0)"/>
       <use xlink:href="#SourceSans3-Regular-69" transform="translate(273.699936 0)"/>
       <use xlink:href="#SourceSans3-Regular-63" transform="translate(298.299927 0)"/>
       <use xlink:href="#SourceSans3-Regular-61" transform="translate(343.899918 0)"/>
       <use xlink:href="#SourceSans3-Regular-74" transform="translate(394.299911 0)"/>
       <use xlink:href="#SourceSans3-Regular-69" transform="translate(428.099899 0)"/>
       <use xlink:href="#SourceSans3-Regular-6f" transform="translate(452.69989 0)"/>
       <use xlink:href="#SourceSans3-Regular-6e" transform="translate(506.899887 0)"/>
       <use xlink:href="#SourceSans3-Regular-20" transform="translate(561.599884 0)"/>
       <use xlink:href="#SourceSans3-Regular-75" transform="translate(581.599869 0)"/>
       <use xlink:href="#SourceSans3-Regular-73" transform="translate(635.999863 0)"/>
       <use xlink:href="#SourceSans3-Regular-69" transform="translate(677.899857 0)"/>
       <use xlink:href="#SourceSans3-Regular-6e" transform="translate(702.499847 0)"/>
       <use xlink:href="#SourceSans3-Regular-67" transform="translate(757.199844 0)"/>
       <use xlink:href="#SourceSans3-Regular-20" transform="translate(807.599838 0)"/>
       <use xlink:href="#SourceSans3-Regular-70" transform="translate(827.599823 0)"/>
       <use xlink:href="#SourceSans3-Regular-68" transform="translate(883.099808 0)"/>
       <use xlink:href="#SourceSans3-Regular-6f" transform="translate(937.499802 0)"/>
       <use xlink:href="#SourceSans3-Regular-74" transform="translate(991.699799 0)"/>
       <use xlink:href="#SourceSans3-Regular-6f" transform="translate(1025.499786 0)"/>
      </g>
     </g>
    </g>
    <g id="ytick_11">
     <g id="line2d_5"/>
     <g id="text_5">
      <!-- Disbursing money directly to mobile wallet -->
      <g transform="translate(75.404065 217.031068) scale(0.1 -0.1)">
       <defs>
        <path id="SourceSans3-Regular-44" d="M 576 0 
L 576 4198 
L 1626 4198 
Q 2598 4198 3104 3657 
Q 3610 3117 3610 2118 
Q 3610 1114 3107 557 
Q 2605 0 1651 0 
L 576 0 
z
M 1107 435 
L 1587 435 
Q 2323 435 2691 880 
Q 3059 1325 3059 2118 
Q 3059 2912 2691 3337 
Q 2323 3763 1587 3763 
L 1107 3763 
L 1107 435 
z
" transform="scale(0.015625)"/>
        <path id="SourceSans3-Regular-6c" d="M 1082 -58 
Q 787 -58 656 124 
Q 525 307 525 640 
L 525 4557 
L 1050 4557 
L 1050 602 
Q 1050 480 1094 429 
Q 1139 378 1203 378 
Q 1229 378 1251 381 
Q 1274 384 1312 390 
L 1382 -6 
Q 1267 -58 1082 -58 
z
" transform="scale(0.015625)"/>
        <path id="SourceSans3-Regular-77" d="M 1018 0 
L 154 3110 
L 704 3110 
L 1158 1312 
Q 1210 1101 1254 889 
Q 1299 678 1338 429 
L 1363 429 
Q 1414 678 1462 889 
Q 1510 1101 1562 1312 
L 2022 3110 
L 2598 3110 
L 3066 1312 
Q 3123 1101 3174 889 
Q 3226 678 3270 429 
L 3296 429 
Q 3347 678 3392 889 
Q 3437 1101 3482 1312 
L 3936 3110 
L 4448 3110 
L 3610 0 
L 2925 0 
L 2509 1664 
Q 2451 1882 2406 2096 
Q 2362 2310 2310 2586 
L 2285 2586 
Q 2240 2310 2192 2092 
Q 2144 1875 2086 1664 
L 1670 0 
L 1018 0 
z
" transform="scale(0.015625)"/>
       </defs>
       <use xlink:href="#SourceSans3-Regular-44"/>
       <use xlink:href="#SourceSans3-Regular-69" transform="translate(61.499985 0)"/>
       <use xlink:href="#SourceSans3-Regular-73" transform="translate(86.099976 0)"/>
       <use xlink:href="#SourceSans3-Regular-62" transform="translate(127.999969 0)"/>
       <use xlink:href="#SourceSans3-Regular-75" transform="translate(183.299957 0)"/>
       <use xlink:href="#SourceSans3-Regular-72" transform="translate(237.699951 0)"/>
       <use xlink:href="#SourceSans3-Regular-73" transform="translate(272.399948 0)"/>
       <use xlink:href="#SourceSans3-Regular-69" transform="translate(314.299942 0)"/>
       <use xlink:href="#SourceSans3-Regular-6e" transform="translate(338.899933 0)"/>
       <use xlink:href="#SourceSans3-Regular-67" transform="translate(393.59993 0)"/>
       <use xlink:href="#SourceSans3-Regular-20" transform="translate(443.999924 0)"/>
       <use xlink:href="#SourceSans3-Regular-6d" transform="translate(463.999908 0)"/>
       <use xlink:href="#SourceSans3-Regular-6f" transform="translate(546.899902 0)"/>
       <use xlink:href="#SourceSans3-Regular-6e" transform="translate(601.099899 0)"/>
       <use xlink:href="#SourceSans3-Regular-65" transform="translate(655.799896 0)"/>
       <use xlink:href="#SourceSans3-Regular-79" transform="translate(705.399887 0)"/>
       <use xlink:href="#SourceSans3-Regular-20" transform="translate(752.099884 0)"/>
       <use xlink:href="#SourceSans3-Regular-64" transform="translate(772.099869 0)"/>
       <use xlink:href="#SourceSans3-Regular-69" transform="translate(827.599854 0)"/>
       <use xlink:href="#SourceSans3-Regular-72" transform="translate(852.199844 0)"/>
       <use xlink:href="#SourceSans3-Regular-65" transform="translate(886.899841 0)"/>
       <use xlink:href="#SourceSans3-Regular-63" transform="translate(936.499832 0)"/>
       <use xlink:href="#SourceSans3-Regular-74" transform="translate(982.099823 0)"/>
       <use xlink:href="#SourceSans3-Regular-6c" transform="translate(1015.899811 0)"/>
       <use xlink:href="#SourceSans3-Regular-79" transform="translate(1041.399796 0)"/>
       <use xlink:href="#SourceSans3-Regular-20" transform="translate(1088.099792 0)"/>
       <use xlink:href="#SourceSans3-Regular-74" transform="translate(1108.099777 0)"/>
       <use xlink:href="#SourceSans3-Regular-6f" transform="translate(1141.899765 0)"/>
       <use xlink:href="#SourceSans3-Regular-20" transform="translate(1196.099762 0)"/>
       <use xlink:href="#SourceSans3-Regular-6d" transform="translate(1216.099747 0)"/>
       <use xlink:href="#SourceSans3-Regular-6f" transform="translate(1298.999741 0)"/>
       <use xlink:href="#SourceSans3-Regular-62" transform="translate(1353.199738 0)"/>
       <use xlink:href="#SourceSans3-Regular-69" transform="translate(1408.499725 0)"/>
       <use xlink:href="#SourceSans3-Regular-6c" transform="translate(1433.099716 0)"/>
       <use xlink:href="#SourceSans3-Regular-65" transform="translate(1458.599701 0)"/>
       <use xlink:href="#SourceSans3-Regular-20" transform="translate(1508.199692 0)"/>
       <use xlink:href="#SourceSans3-Regular-77" transform="translate(1528.199677 0)"/>
       <use xlink:href="#SourceSans3-Regular-61" transform="translate(1600.09967 0)"/>
       <use xlink:href="#SourceSans3-Regular-6c" transform="translate(1650.499664 0)"/>
       <use xlink:href="#SourceSans3-Regular-6c" transform="translate(1675.999649 0)"/>
       <use xlink:href="#SourceSans3-Regular-65" transform="translate(1701.499634 0)"/>
       <use xlink:href="#SourceSans3-Regular-74" transform="translate(1751.099625 0)"/>
      </g>
     </g>
    </g>
    <g id="ytick_12">
     <g id="line2d_6"/>
     <g id="text_6">
      <!-- QRCode -->
      <g transform="translate(219.924378 194.86615) scale(0.1 -0.1)">
       <defs>
        <path id="SourceSans3-Regular-51" d="M 2125 365 
Q 2502 365 2780 579 
Q 3059 794 3212 1187 
Q 3366 1581 3366 2118 
Q 3366 2899 3027 3353 
Q 2688 3808 2125 3808 
Q 1562 3808 1222 3353 
Q 883 2899 883 2118 
Q 883 1581 1036 1187 
Q 1190 794 1472 579 
Q 1754 365 2125 365 
z
M 3411 -1056 
Q 2829 -1056 2438 -771 
Q 2048 -486 1862 -58 
Q 1408 6 1062 288 
Q 717 570 525 1037 
Q 333 1504 333 2118 
Q 333 2790 560 3273 
Q 787 3757 1193 4016 
Q 1600 4275 2125 4275 
Q 2656 4275 3059 4016 
Q 3462 3757 3692 3273 
Q 3923 2790 3923 2118 
Q 3923 1517 3737 1056 
Q 3552 595 3219 310 
Q 2886 26 2438 -51 
Q 2586 -326 2858 -467 
Q 3130 -608 3469 -608 
Q 3610 -608 3718 -592 
Q 3827 -576 3910 -550 
L 4013 -954 
Q 3917 -998 3757 -1027 
Q 3597 -1056 3411 -1056 
z
" transform="scale(0.015625)"/>
        <path id="SourceSans3-Regular-52" d="M 576 0 
L 576 4198 
L 1888 4198 
Q 2317 4198 2649 4086 
Q 2982 3974 3171 3715 
Q 3360 3456 3360 3021 
Q 3360 2534 3104 2236 
Q 2848 1939 2413 1830 
L 3482 0 
L 2880 0 
L 1869 1773 
L 1107 1773 
L 1107 0 
L 576 0 
z
M 1107 2208 
L 1811 2208 
Q 2304 2208 2566 2409 
Q 2829 2611 2829 3021 
Q 2829 3437 2566 3603 
Q 2304 3770 1811 3770 
L 1107 3770 
L 1107 2208 
z
" transform="scale(0.015625)"/>
       </defs>
       <use xlink:href="#SourceSans3-Regular-51"/>
       <use xlink:href="#SourceSans3-Regular-52" transform="translate(66.399994 0)"/>
       <use xlink:href="#SourceSans3-Regular-43" transform="translate(123.299988 0)"/>
       <use xlink:href="#SourceSans3-Regular-6f" transform="translate(180.399979 0)"/>
       <use xlink:href="#SourceSans3-Regular-64" transform="translate(234.599976 0)"/>
       <use xlink:href="#SourceSans3-Regular-65" transform="translate(290.09996 0)"/>
      </g>
     </g>
    </g>
   </g>
   <g id="LineCollection_1">
    <path d="M 269.672763 302.130582 
L 269.672763 302.130582 
" clip-path="url(#pb9f3db97d8)" style="fill: none; stroke: #5cb8b2; stroke-width: 2"/>
    <path d="M 294.228909 279.965664 
L 294.228909 279.965664 
" clip-path="url(#pb9f3db97d8)" style="fill: none; stroke: #5cb8b2; stroke-width: 2"/>
    <path d="M 318.785054 302.130582 
L 318.785054 279.965664 
" clip-path="url(#pb9f3db97d8)" style="fill: none; stroke: #5cb8b2; stroke-width: 2"/>
    <path d="M 343.3412 302.130582 
L 343.3412 257.800747 
" clip-path="url(#pb9f3db97d8)" style="fill: none; stroke: #5cb8b2; stroke-width: 2"/>
    <path d="M 367.897345 279.965664 
L 367.897345 235.635829 
" clip-path="url(#pb9f3db97d8)" style="fill: none; stroke: #5cb8b2; stroke-width: 2"/>
    <path d="M 392.453491 302.130582 
L 392.453491 235.635829 
" clip-path="url(#pb9f3db97d8)" style="fill: none; stroke: #5cb8b2; stroke-width: 2"/>
    <path d="M 417.009636 302.130582 
L 417.009636 235.635829 
" clip-path="url(#pb9f3db97d8)" style="fill: none; stroke: #5cb8b2; stroke-width: 2"/>
    <path d="M 441.565782 302.130582 
L 441.565782 213.470912 
" clip-path="url(#pb9f3db97d8)" style="fill: none; stroke: #5cb8b2; stroke-width: 2"/>
    <path d="M 466.121927 302.130582 
L 466.121927 191.305994 
" clip-path="url(#pb9f3db97d8)" style="fill: none; stroke: #5cb8b2; stroke-width: 2"/>
   </g>
   <g id="PathCollection_1">
    <defs>
     <path id="C0_0_d6a0e7bc09" d="M 0 5.6 
C 1.485137 5.6 2.909647 5.009949 3.959798 3.959798 
C 5.009949 2.909647 5.6 1.485137 5.6 -0 
C 5.6 -1.485137 5.009949 -2.909647 3.959798 -3.959798 
C 2.909647 -5.009949 1.485137 -5.6 0 -5.6 
C -1.485137 -5.6 -2.909647 -5.009949 -3.959798 -3.959798 
C -5.009949 -2.909647 -5.6 -1.485137 -5.6 0 
C -5.6 1.485137 -5.009949 2.909647 -3.959798 3.959798 
C -2.909647 5.009949 -1.485137 5.6 0 5.6 
z
"/>
    </defs>
    <g clip-path="url(#pb9f3db97d8)">
     <use xlink:href="#C0_0_d6a0e7bc09" x="269.672763" y="302.130582" style="fill: #5cb8b2; stroke: #5cb8b2"/>
    </g>
    <g clip-path="url(#pb9f3db97d8)">
     <use xlink:href="#C0_0_d6a0e7bc09" x="269.672763" y="279.965664" style="fill: #5cb8b2; fill-opacity: 0.180392"/>
    </g>
    <g clip-path="url(#pb9f3db97d8)">
     <use xlink:href="#C0_0_d6a0e7bc09" x="269.672763" y="257.800747" style="fill: #5cb8b2; fill-opacity: 0.180392"/>
    </g>
    <g clip-path="url(#pb9f3db97d8)">
     <use xlink:href="#C0_0_d6a0e7bc09" x="269.672763" y="235.635829" style="fill: #5cb8b2; fill-opacity: 0.180392"/>
    </g>
    <g clip-path="url(#pb9f3db97d8)">
     <use xlink:href="#C0_0_d6a0e7bc09" x="269.672763" y="213.470912" style="fill: #5cb8b2; fill-opacity: 0.180392"/>
    </g>
    <g clip-path="url(#pb9f3db97d8)">
     <use xlink:href="#C0_0_d6a0e7bc09" x="269.672763" y="191.305994" style="fill: #5cb8b2; fill-opacity: 0.180392"/>
    </g>
    <g clip-path="url(#pb9f3db97d8)">
     <use xlink:href="#C0_0_d6a0e7bc09" x="294.228909" y="302.130582" style="fill: #5cb8b2; fill-opacity: 0.180392"/>
    </g>
    <g clip-path="url(#pb9f3db97d8)">
     <use xlink:href="#C0_0_d6a0e7bc09" x="294.228909" y="279.965664" style="fill: #5cb8b2; stroke: #5cb8b2"/>
    </g>
    <g clip-path="url(#pb9f3db97d8)">
     <use xlink:href="#C0_0_d6a0e7bc09" x="294.228909" y="257.800747" style="fill: #5cb8b2; fill-opacity: 0.180392"/>
    </g>
    <g clip-path="url(#pb9f3db97d8)">
     <use xlink:href="#C0_0_d6a0e7bc09" x="294.228909" y="235.635829" style="fill: #5cb8b2; fill-opacity: 0.180392"/>
    </g>
    <g clip-path="url(#pb9f3db97d8)">
     <use xlink:href="#C0_0_d6a0e7bc09" x="294.228909" y="213.470912" style="fill: #5cb8b2; fill-opacity: 0.180392"/>
    </g>
    <g clip-path="url(#pb9f3db97d8)">
     <use xlink:href="#C0_0_d6a0e7bc09" x="294.228909" y="191.305994" style="fill: #5cb8b2; fill-opacity: 0.180392"/>
    </g>
    <g clip-path="url(#pb9f3db97d8)">
     <use xlink:href="#C0_0_d6a0e7bc09" x="318.785054" y="302.130582" style="fill: #5cb8b2; stroke: #5cb8b2"/>
    </g>
    <g clip-path="url(#pb9f3db97d8)">
     <use xlink:href="#C0_0_d6a0e7bc09" x="318.785054" y="279.965664" style="fill: #5cb8b2; stroke: #5cb8b2"/>
    </g>
    <g clip-path="url(#pb9f3db97d8)">
     <use xlink:href="#C0_0_d6a0e7bc09" x="318.785054" y="257.800747" style="fill: #5cb8b2; fill-opacity: 0.180392"/>
    </g>
    <g clip-path="url(#pb9f3db97d8)">
     <use xlink:href="#C0_0_d6a0e7bc09" x="318.785054" y="235.635829" style="fill: #5cb8b2; fill-opacity: 0.180392"/>
    </g>
    <g clip-path="url(#pb9f3db97d8)">
     <use xlink:href="#C0_0_d6a0e7bc09" x="318.785054" y="213.470912" style="fill: #5cb8b2; fill-opacity: 0.180392"/>
    </g>
    <g clip-path="url(#pb9f3db97d8)">
     <use xlink:href="#C0_0_d6a0e7bc09" x="318.785054" y="191.305994" style="fill: #5cb8b2; fill-opacity: 0.180392"/>
    </g>
    <g clip-path="url(#pb9f3db97d8)">
     <use xlink:href="#C0_0_d6a0e7bc09" x="343.3412" y="302.130582" style="fill: #5cb8b2; stroke: #5cb8b2"/>
    </g>
    <g clip-path="url(#pb9f3db97d8)">
     <use xlink:href="#C0_0_d6a0e7bc09" x="343.3412" y="279.965664" style="fill: #5cb8b2; fill-opacity: 0.180392"/>
    </g>
    <g clip-path="url(#pb9f3db97d8)">
     <use xlink:href="#C0_0_d6a0e7bc09" x="343.3412" y="257.800747" style="fill: #5cb8b2; stroke: #5cb8b2"/>
    </g>
    <g clip-path="url(#pb9f3db97d8)">
     <use xlink:href="#C0_0_d6a0e7bc09" x="343.3412" y="235.635829" style="fill: #5cb8b2; fill-opacity: 0.180392"/>
    </g>
    <g clip-path="url(#pb9f3db97d8)">
     <use xlink:href="#C0_0_d6a0e7bc09" x="343.3412" y="213.470912" style="fill: #5cb8b2; fill-opacity: 0.180392"/>
    </g>
    <g clip-path="url(#pb9f3db97d8)">
     <use xlink:href="#C0_0_d6a0e7bc09" x="343.3412" y="191.305994" style="fill: #5cb8b2; fill-opacity: 0.180392"/>
    </g>
    <g clip-path="url(#pb9f3db97d8)">
     <use xlink:href="#C0_0_d6a0e7bc09" x="367.897345" y="302.130582" style="fill: #5cb8b2; fill-opacity: 0.180392"/>
    </g>
    <g clip-path="url(#pb9f3db97d8)">
     <use xlink:href="#C0_0_d6a0e7bc09" x="367.897345" y="279.965664" style="fill: #5cb8b2; stroke: #5cb8b2"/>
    </g>
    <g clip-path="url(#pb9f3db97d8)">
     <use xlink:href="#C0_0_d6a0e7bc09" x="367.897345" y="257.800747" style="fill: #5cb8b2; fill-opacity: 0.180392"/>
    </g>
    <g clip-path="url(#pb9f3db97d8)">
     <use xlink:href="#C0_0_d6a0e7bc09" x="367.897345" y="235.635829" style="fill: #5cb8b2; stroke: #5cb8b2"/>
    </g>
    <g clip-path="url(#pb9f3db97d8)">
     <use xlink:href="#C0_0_d6a0e7bc09" x="367.897345" y="213.470912" style="fill: #5cb8b2; fill-opacity: 0.180392"/>
    </g>
    <g clip-path="url(#pb9f3db97d8)">
     <use xlink:href="#C0_0_d6a0e7bc09" x="367.897345" y="191.305994" style="fill: #5cb8b2; fill-opacity: 0.180392"/>
    </g>
    <g clip-path="url(#pb9f3db97d8)">
     <use xlink:href="#C0_0_d6a0e7bc09" x="392.453491" y="302.130582" style="fill: #5cb8b2; stroke: #5cb8b2"/>
    </g>
    <g clip-path="url(#pb9f3db97d8)">
     <use xlink:href="#C0_0_d6a0e7bc09" x="392.453491" y="279.965664" style="fill: #5cb8b2; stroke: #5cb8b2"/>
    </g>
    <g clip-path="url(#pb9f3db97d8)">
     <use xlink:href="#C0_0_d6a0e7bc09" x="392.453491" y="257.800747" style="fill: #5cb8b2; fill-opacity: 0.180392"/>
    </g>
    <g clip-path="url(#pb9f3db97d8)">
     <use xlink:href="#C0_0_d6a0e7bc09" x="392.453491" y="235.635829" style="fill: #5cb8b2; stroke: #5cb8b2"/>
    </g>
    <g clip-path="url(#pb9f3db97d8)">
     <use xlink:href="#C0_0_d6a0e7bc09" x="392.453491" y="213.470912" style="fill: #5cb8b2; fill-opacity: 0.180392"/>
    </g>
    <g clip-path="url(#pb9f3db97d8)">
     <use xlink:href="#C0_0_d6a0e7bc09" x="392.453491" y="191.305994" style="fill: #5cb8b2; fill-opacity: 0.180392"/>
    </g>
    <g clip-path="url(#pb9f3db97d8)">
     <use xlink:href="#C0_0_d6a0e7bc09" x="417.009636" y="302.130582" style="fill: #5cb8b2; stroke: #5cb8b2"/>
    </g>
    <g clip-path="url(#pb9f3db97d8)">
     <use xlink:href="#C0_0_d6a0e7bc09" x="417.009636" y="279.965664" style="fill: #5cb8b2; fill-opacity: 0.180392"/>
    </g>
    <g clip-path="url(#pb9f3db97d8)">
     <use xlink:href="#C0_0_d6a0e7bc09" x="417.009636" y="257.800747" style="fill: #5cb8b2; stroke: #5cb8b2"/>
    </g>
    <g clip-path="url(#pb9f3db97d8)">
     <use xlink:href="#C0_0_d6a0e7bc09" x="417.009636" y="235.635829" style="fill: #5cb8b2; stroke: #5cb8b2"/>
    </g>
    <g clip-path="url(#pb9f3db97d8)">
     <use xlink:href="#C0_0_d6a0e7bc09" x="417.009636" y="213.470912" style="fill: #5cb8b2; fill-opacity: 0.180392"/>
    </g>
    <g clip-path="url(#pb9f3db97d8)">
     <use xlink:href="#C0_0_d6a0e7bc09" x="417.009636" y="191.305994" style="fill: #5cb8b2; fill-opacity: 0.180392"/>
    </g>
    <g clip-path="url(#pb9f3db97d8)">
     <use xlink:href="#C0_0_d6a0e7bc09" x="441.565782" y="302.130582" style="fill: #5cb8b2; stroke: #5cb8b2"/>
    </g>
    <g clip-path="url(#pb9f3db97d8)">
     <use xlink:href="#C0_0_d6a0e7bc09" x="441.565782" y="279.965664" style="fill: #5cb8b2; fill-opacity: 0.180392"/>
    </g>
    <g clip-path="url(#pb9f3db97d8)">
     <use xlink:href="#C0_0_d6a0e7bc09" x="441.565782" y="257.800747" style="fill: #5cb8b2; stroke: #5cb8b2"/>
    </g>
    <g clip-path="url(#pb9f3db97d8)">
     <use xlink:href="#C0_0_d6a0e7bc09" x="441.565782" y="235.635829" style="fill: #5cb8b2; fill-opacity: 0.180392"/>
    </g>
    <g clip-path="url(#pb9f3db97d8)">
     <use xlink:href="#C0_0_d6a0e7bc09" x="441.565782" y="213.470912" style="fill: #5cb8b2; stroke: #5cb8b2"/>
    </g>
    <g clip-path="url(#pb9f3db97d8)">
     <use xlink:href="#C0_0_d6a0e7bc09" x="441.565782" y="191.305994" style="fill: #5cb8b2; fill-opacity: 0.180392"/>
    </g>
    <g clip-path="url(#pb9f3db97d8)">
     <use xlink:href="#C0_0_d6a0e7bc09" x="466.121927" y="302.130582" style="fill: #5cb8b2; stroke: #5cb8b2"/>
    </g>
    <g clip-path="url(#pb9f3db97d8)">
     <use xlink:href="#C0_0_d6a0e7bc09" x="466.121927" y="279.965664" style="fill: #5cb8b2; fill-opacity: 0.180392"/>
    </g>
    <g clip-path="url(#pb9f3db97d8)">
     <use xlink:href="#C0_0_d6a0e7bc09" x="466.121927" y="257.800747" style="fill: #5cb8b2; stroke: #5cb8b2"/>
    </g>
    <g clip-path="url(#pb9f3db97d8)">
     <use xlink:href="#C0_0_d6a0e7bc09" x="466.121927" y="235.635829" style="fill: #5cb8b2; fill-opacity: 0.180392"/>
    </g>
    <g clip-path="url(#pb9f3db97d8)">
     <use xlink:href="#C0_0_d6a0e7bc09" x="466.121927" y="213.470912" style="fill: #5cb8b2; stroke: #5cb8b2"/>
    </g>
    <g clip-path="url(#pb9f3db97d8)">
     <use xlink:href="#C0_0_d6a0e7bc09" x="466.121927" y="191.305994" style="fill: #5cb8b2; stroke: #5cb8b2"/>
    </g>
   </g>
  </g>
  <g id="axes_3">
   <g id="patch_8">
    <path d="M 53.069027 307.671811 
L 7.2 307.671811 
L 7.2 296.589353 
L 53.069027 296.589353 
z
" clip-path="url(#pb6b58faeb8)" style="fill: #5cb8b2; stroke: #5cb8b2; stroke-linejoin: miter"/>
   </g>
   <g id="patch_9">
    <path d="M 53.069027 285.506894 
L 27.586234 285.506894 
L 27.586234 274.424435 
L 53.069027 274.424435 
z
" clip-path="url(#pb6b58faeb8)" style="fill: #5cb8b2; stroke: #5cb8b2; stroke-linejoin: miter"/>
   </g>
   <g id="patch_10">
    <path d="M 53.069027 263.341976 
L 27.586234 263.341976 
L 27.586234 252.259517 
L 53.069027 252.259517 
z
" clip-path="url(#pb6b58faeb8)" style="fill: #5cb8b2; stroke: #5cb8b2; stroke-linejoin: miter"/>
   </g>
   <g id="patch_11">
    <path d="M 53.069027 241.177059 
L 32.682793 241.177059 
L 32.682793 230.0946 
L 53.069027 230.0946 
z
" clip-path="url(#pb6b58faeb8)" style="fill: #5cb8b2; stroke: #5cb8b2; stroke-linejoin: miter"/>
   </g>
   <g id="patch_12">
    <path d="M 53.069027 219.012141 
L 42.87591 219.012141 
L 42.87591 207.929682 
L 53.069027 207.929682 
z
" clip-path="url(#pb6b58faeb8)" style="fill: #5cb8b2; stroke: #5cb8b2; stroke-linejoin: miter"/>
   </g>
   <g id="patch_13">
    <path d="M 53.069027 196.847224 
L 47.972468 196.847224 
L 47.972468 185.764765 
L 53.069027 185.764765 
z
" clip-path="url(#pb6b58faeb8)" style="fill: #5cb8b2; stroke: #5cb8b2; stroke-linejoin: miter"/>
   </g>
   <g id="matplotlib.axis_4">
    <g id="xtick_1">
     <g id="line2d_7">
      <path d="M 53.069027 317.424375 
L 53.069027 176.012201 
" clip-path="url(#pb6b58faeb8)" style="fill: none; stroke: #b0b0b0; stroke-width: 0.8; stroke-linecap: square"/>
     </g>
     <g id="line2d_8">
      <defs>
       <path id="md96a4d15f1" d="M 0 0 
L 0 3.5 
" style="stroke: #000000; stroke-width: 0.8"/>
      </defs>
      <g>
       <use xlink:href="#md96a4d15f1" x="53.069027" y="317.424375" style="stroke: #000000; stroke-width: 0.8"/>
      </g>
     </g>
     <g id="text_7">
      <!-- 0 -->
      <g transform="translate(50.58387 331.544687) scale(0.1 -0.1)">
       <defs>
        <path id="SourceSans3-Regular-30" d="M 1594 -77 
Q 979 -77 630 476 
Q 282 1030 282 2054 
Q 282 3085 630 3622 
Q 979 4160 1594 4160 
Q 2202 4160 2550 3622 
Q 2899 3085 2899 2054 
Q 2899 1030 2550 476 
Q 2202 -77 1594 -77 
z
M 1594 346 
Q 1952 346 2169 752 
Q 2387 1158 2387 2054 
Q 2387 2950 2169 3344 
Q 1952 3738 1594 3738 
Q 1235 3738 1014 3344 
Q 794 2950 794 2054 
Q 794 1158 1014 752 
Q 1235 346 1594 346 
z
" transform="scale(0.015625)"/>
       </defs>
       <use xlink:href="#SourceSans3-Regular-30"/>
      </g>
     </g>
    </g>
    <g id="xtick_2">
     <g id="line2d_9">
      <path d="M 27.586234 317.424375 
L 27.586234 176.012201 
" clip-path="url(#pb6b58faeb8)" style="fill: none; stroke: #b0b0b0; stroke-width: 0.8; stroke-linecap: square"/>
     </g>
     <g id="line2d_10">
      <g>
       <use xlink:href="#md96a4d15f1" x="27.586234" y="317.424375" style="stroke: #000000; stroke-width: 0.8"/>
      </g>
     </g>
     <g id="text_8">
      <!-- 5 -->
      <g transform="translate(25.101078 331.544687) scale(0.1 -0.1)">
       <defs>
        <path id="SourceSans3-Regular-35" d="M 1498 -77 
Q 1011 -77 691 96 
Q 371 269 160 480 
L 416 826 
Q 602 646 845 502 
Q 1088 358 1446 358 
Q 1824 358 2083 611 
Q 2342 864 2342 1293 
Q 2342 1715 2105 1952 
Q 1869 2189 1472 2189 
Q 1261 2189 1110 2125 
Q 960 2061 774 1939 
L 493 2118 
L 627 4083 
L 2669 4083 
L 2669 3629 
L 1088 3629 
L 979 2419 
Q 1126 2496 1273 2541 
Q 1421 2586 1606 2586 
Q 1958 2586 2243 2448 
Q 2528 2310 2701 2028 
Q 2874 1747 2874 1306 
Q 2874 864 2678 553 
Q 2483 243 2169 83 
Q 1856 -77 1498 -77 
z
" transform="scale(0.015625)"/>
       </defs>
       <use xlink:href="#SourceSans3-Regular-35"/>
      </g>
     </g>
    </g>
   </g>
   <g id="patch_14">
    <path d="M 7.2 317.424375 
L 53.069027 317.424375 
" style="fill: none; stroke: #000000; stroke-width: 0.8; stroke-linejoin: miter; stroke-linecap: square"/>
   </g>
  </g>
  <g id="axes_4">
   <g id="patch_15">
    <path d="M 257.39469 163.156549 
L 478.4 163.156549 
L 478.4 21.744375 
L 257.39469 21.744375 
L 257.39469 163.156549 
z
" style="fill: none"/>
   </g>
   <g id="matplotlib.axis_5">
    <g id="ytick_13">
     <g id="line2d_11">
      <path d="M 257.39469 163.156549 
L 478.4 163.156549 
" clip-path="url(#p50370ca05b)" style="fill: none; stroke: #b0b0b0; stroke-width: 0.8; stroke-linecap: square"/>
     </g>
     <g id="line2d_12">
      <defs>
       <path id="mdec3b1d71b" d="M 0 0 
L -3.5 0 
" style="stroke: #000000; stroke-width: 0.8"/>
      </defs>
      <g>
       <use xlink:href="#mdec3b1d71b" x="257.39469" y="163.156549" style="stroke: #000000; stroke-width: 0.8"/>
      </g>
     </g>
     <g id="text_9">
      <!-- 0 -->
      <g transform="translate(245.424378 166.716705) scale(0.1 -0.1)">
       <use xlink:href="#SourceSans3-Regular-30"/>
      </g>
     </g>
    </g>
    <g id="ytick_14">
     <g id="line2d_13">
      <path d="M 257.39469 95.817418 
L 478.4 95.817418 
" clip-path="url(#p50370ca05b)" style="fill: none; stroke: #b0b0b0; stroke-width: 0.8; stroke-linecap: square"/>
     </g>
     <g id="line2d_14">
      <g>
       <use xlink:href="#mdec3b1d71b" x="257.39469" y="95.817418" style="stroke: #000000; stroke-width: 0.8"/>
      </g>
     </g>
     <g id="text_10">
      <!-- 1 -->
      <g transform="translate(245.424378 99.377575) scale(0.1 -0.1)">
       <defs>
        <path id="SourceSans3-Regular-31" d="M 506 0 
L 506 435 
L 1440 435 
L 1440 3443 
L 698 3443 
L 698 3782 
Q 979 3834 1187 3907 
Q 1395 3981 1562 4083 
L 1965 4083 
L 1965 435 
L 2810 435 
L 2810 0 
L 506 0 
z
" transform="scale(0.015625)"/>
       </defs>
       <use xlink:href="#SourceSans3-Regular-31"/>
      </g>
     </g>
    </g>
    <g id="ytick_15">
     <g id="line2d_15">
      <path d="M 257.39469 28.478288 
L 478.4 28.478288 
" clip-path="url(#p50370ca05b)" style="fill: none; stroke: #b0b0b0; stroke-width: 0.8; stroke-linecap: square"/>
     </g>
     <g id="line2d_16">
      <g>
       <use xlink:href="#mdec3b1d71b" x="257.39469" y="28.478288" style="stroke: #000000; stroke-width: 0.8"/>
      </g>
     </g>
     <g id="text_11">
      <!-- 2 -->
      <g transform="translate(245.424378 32.038444) scale(0.1 -0.1)">
       <defs>
        <path id="SourceSans3-Regular-32" d="M 256 0 
L 256 320 
Q 870 922 1299 1386 
Q 1728 1850 1952 2227 
Q 2176 2605 2176 2931 
Q 2176 3283 1984 3507 
Q 1792 3731 1402 3731 
Q 1146 3731 928 3587 
Q 710 3443 531 3238 
L 237 3526 
Q 493 3814 784 3987 
Q 1075 4160 1466 4160 
Q 2035 4160 2361 3830 
Q 2688 3501 2688 2963 
Q 2688 2566 2467 2176 
Q 2246 1786 1862 1357 
Q 1478 928 979 416 
Q 1146 429 1325 441 
Q 1504 454 1664 454 
L 2893 454 
L 2893 0 
L 256 0 
z
" transform="scale(0.015625)"/>
       </defs>
       <use xlink:href="#SourceSans3-Regular-32"/>
      </g>
     </g>
    </g>
    <g id="text_12">
     <!-- Intersection size -->
     <g transform="translate(239.374378 126.554368) rotate(-90) scale(0.1 -0.1)">
      <defs>
       <path id="SourceSans3-Regular-7a" d="M 198 0 
L 198 282 
L 1837 2682 
L 378 2682 
L 378 3110 
L 2502 3110 
L 2502 2829 
L 864 429 
L 2554 429 
L 2554 0 
L 198 0 
z
" transform="scale(0.015625)"/>
      </defs>
      <use xlink:href="#SourceSans3-Regular-49"/>
      <use xlink:href="#SourceSans3-Regular-6e" transform="translate(26.299988 0)"/>
      <use xlink:href="#SourceSans3-Regular-74" transform="translate(80.999985 0)"/>
      <use xlink:href="#SourceSans3-Regular-65" transform="translate(114.799973 0)"/>
      <use xlink:href="#SourceSans3-Regular-72" transform="translate(164.399963 0)"/>
      <use xlink:href="#SourceSans3-Regular-73" transform="translate(199.09996 0)"/>
      <use xlink:href="#SourceSans3-Regular-65" transform="translate(240.999954 0)"/>
      <use xlink:href="#SourceSans3-Regular-63" transform="translate(290.599945 0)"/>
      <use xlink:href="#SourceSans3-Regular-74" transform="translate(336.199936 0)"/>
      <use xlink:href="#SourceSans3-Regular-69" transform="translate(369.999924 0)"/>
      <use xlink:href="#SourceSans3-Regular-6f" transform="translate(394.599915 0)"/>
      <use xlink:href="#SourceSans3-Regular-6e" transform="translate(448.799911 0)"/>
      <use xlink:href="#SourceSans3-Regular-20" transform="translate(503.499908 0)"/>
      <use xlink:href="#SourceSans3-Regular-73" transform="translate(523.499893 0)"/>
      <use xlink:href="#SourceSans3-Regular-69" transform="translate(565.399887 0)"/>
      <use xlink:href="#SourceSans3-Regular-7a" transform="translate(589.999878 0)"/>
      <use xlink:href="#SourceSans3-Regular-65" transform="translate(632.499863 0)"/>
     </g>
    </g>
   </g>
   <g id="patch_16">
    <path d="M 257.39469 163.156549 
L 257.39469 21.744375 
" style="fill: none; stroke: #000000; stroke-width: 0.8; stroke-linejoin: miter; stroke-linecap: square"/>
   </g>
   <g id="text_13">
    <!-- Authentication Mechanism (n = 11) -->
    <g style="fill: #404040" transform="translate(281.24422 15.744375) scale(0.12 -0.12)">
     <defs>
      <path id="SourceSans3-Regular-41" d="M 1299 2349 
L 1101 1709 
L 2362 1709 
L 2163 2349 
Q 2048 2701 1945 3049 
Q 1843 3398 1741 3763 
L 1715 3763 
Q 1619 3398 1516 3049 
Q 1414 2701 1299 2349 
z
M 19 0 
L 1440 4198 
L 2042 4198 
L 3462 0 
L 2893 0 
L 2496 1280 
L 966 1280 
L 563 0 
L 19 0 
z
" transform="scale(0.015625)"/>
      <path id="SourceSans3-Regular-4d" d="M 576 0 
L 576 4198 
L 1248 4198 
L 2042 1952 
Q 2112 1734 2182 1526 
Q 2253 1318 2323 1082 
L 2349 1082 
Q 2419 1318 2480 1526 
Q 2541 1734 2618 1952 
L 3411 4198 
L 4077 4198 
L 4077 0 
L 3578 0 
L 3578 2310 
Q 3578 2496 3590 2726 
Q 3603 2957 3622 3184 
Q 3642 3411 3654 3597 
L 3629 3597 
L 3302 2586 
L 2515 416 
L 2125 416 
L 1338 2586 
L 1011 3597 
L 986 3597 
Q 1005 3411 1024 3184 
Q 1043 2957 1052 2726 
Q 1062 2496 1062 2310 
L 1062 0 
L 576 0 
z
" transform="scale(0.015625)"/>
      <path id="SourceSans3-Regular-28" d="M 1370 -1126 
Q 973 -480 749 227 
Q 525 934 525 1779 
Q 525 2624 749 3334 
Q 973 4045 1370 4685 
L 1696 4531 
Q 1325 3923 1142 3216 
Q 960 2509 960 1779 
Q 960 1050 1142 342 
Q 1325 -365 1696 -973 
L 1370 -1126 
z
" transform="scale(0.015625)"/>
      <path id="SourceSans3-Regular-3d" d="M 218 2599 
L 218 2995 
L 2963 2995 
L 2963 2599 
L 218 2599 
z
M 218 1229 
L 218 1625 
L 2963 1625 
L 2963 1229 
L 218 1229 
z
" transform="scale(0.015625)"/>
      <path id="SourceSans3-Regular-29" d="M 570 -1126 
L 243 -973 
Q 614 -365 796 342 
Q 979 1050 979 1779 
Q 979 2509 796 3216 
Q 614 3923 243 4531 
L 570 4685 
Q 966 4045 1190 3334 
Q 1414 2624 1414 1779 
Q 1414 934 1190 227 
Q 966 -480 570 -1126 
z
" transform="scale(0.015625)"/>
     </defs>
     <use xlink:href="#SourceSans3-Regular-41"/>
     <use xlink:href="#SourceSans3-Regular-75" transform="translate(54.399994 0)"/>
     <use xlink:href="#SourceSans3-Regular-74" transform="translate(108.799988 0)"/>
     <use xlink:href="#SourceSans3-Regular-68" transform="translate(142.599976 0)"/>
     <use xlink:href="#SourceSans3-Regular-65" transform="translate(196.999969 0)"/>
     <use xlink:href="#SourceSans3-Regular-6e" transform="translate(246.59996 0)"/>
     <use xlink:href="#SourceSans3-Regular-74" transform="translate(301.299957 0)"/>
     <use xlink:href="#SourceSans3-Regular-69" transform="translate(335.099945 0)"/>
     <use xlink:href="#SourceSans3-Regular-63" transform="translate(359.699936 0)"/>
     <use xlink:href="#SourceSans3-Regular-61" transform="translate(405.299927 0)"/>
     <use xlink:href="#SourceSans3-Regular-74" transform="translate(455.699921 0)"/>
     <use xlink:href="#SourceSans3-Regular-69" transform="translate(489.499908 0)"/>
     <use xlink:href="#SourceSans3-Regular-6f" transform="translate(514.099899 0)"/>
     <use xlink:href="#SourceSans3-Regular-6e" transform="translate(568.299896 0)"/>
     <use xlink:href="#SourceSans3-Regular-20" transform="translate(622.999893 0)"/>
     <use xlink:href="#SourceSans3-Regular-4d" transform="translate(642.999878 0)"/>
     <use xlink:href="#SourceSans3-Regular-65" transform="translate(715.69986 0)"/>
     <use xlink:href="#SourceSans3-Regular-63" transform="translate(765.29985 0)"/>
     <use xlink:href="#SourceSans3-Regular-68" transform="translate(810.899841 0)"/>
     <use xlink:href="#SourceSans3-Regular-61" transform="translate(865.299835 0)"/>
     <use xlink:href="#SourceSans3-Regular-6e" transform="translate(915.699829 0)"/>
     <use xlink:href="#SourceSans3-Regular-69" transform="translate(970.399826 0)"/>
     <use xlink:href="#SourceSans3-Regular-73" transform="translate(994.999817 0)"/>
     <use xlink:href="#SourceSans3-Regular-6d" transform="translate(1036.899811 0)"/>
     <use xlink:href="#SourceSans3-Regular-20" transform="translate(1119.799805 0)"/>
     <use xlink:href="#SourceSans3-Regular-28" transform="translate(1139.799789 0)"/>
     <use xlink:href="#SourceSans3-Regular-6e" transform="translate(1170.099777 0)"/>
     <use xlink:href="#SourceSans3-Regular-20" transform="translate(1224.799774 0)"/>
     <use xlink:href="#SourceSans3-Regular-3d" transform="translate(1244.799759 0)"/>
     <use xlink:href="#SourceSans3-Regular-20" transform="translate(1294.499756 0)"/>
     <use xlink:href="#SourceSans3-Regular-31" transform="translate(1314.499741 0)"/>
     <use xlink:href="#SourceSans3-Regular-31" transform="translate(1364.199738 0)"/>
     <use xlink:href="#SourceSans3-Regular-29" transform="translate(1413.899734 0)"/>
    </g>
   </g>
   <g id="patch_17">
    <path d="M 263.533727 163.156549 
L 275.811799 163.156549 
L 275.811799 95.817418 
L 263.533727 95.817418 
z
" clip-path="url(#p50370ca05b)" style="fill: #5cb8b2; stroke: #5cb8b2; stroke-linejoin: miter"/>
   </g>
   <g id="patch_18">
    <path d="M 288.089872 163.156549 
L 300.367945 163.156549 
L 300.367945 95.817418 
L 288.089872 95.817418 
z
" clip-path="url(#p50370ca05b)" style="fill: #5cb8b2; stroke: #5cb8b2; stroke-linejoin: miter"/>
   </g>
   <g id="patch_19">
    <path d="M 312.646018 163.156549 
L 324.92409 163.156549 
L 324.92409 95.817418 
L 312.646018 95.817418 
z
" clip-path="url(#p50370ca05b)" style="fill: #5cb8b2; stroke: #5cb8b2; stroke-linejoin: miter"/>
   </g>
   <g id="patch_20">
    <path d="M 337.202163 163.156549 
L 349.480236 163.156549 
L 349.480236 28.478288 
L 337.202163 28.478288 
z
" clip-path="url(#p50370ca05b)" style="fill: #5cb8b2; stroke: #5cb8b2; stroke-linejoin: miter"/>
   </g>
   <g id="patch_21">
    <path d="M 361.758309 163.156549 
L 374.036382 163.156549 
L 374.036382 95.817418 
L 361.758309 95.817418 
z
" clip-path="url(#p50370ca05b)" style="fill: #5cb8b2; stroke: #5cb8b2; stroke-linejoin: miter"/>
   </g>
   <g id="patch_22">
    <path d="M 386.314454 163.156549 
L 398.592527 163.156549 
L 398.592527 28.478288 
L 386.314454 28.478288 
z
" clip-path="url(#p50370ca05b)" style="fill: #5cb8b2; stroke: #5cb8b2; stroke-linejoin: miter"/>
   </g>
   <g id="patch_23">
    <path d="M 410.8706 163.156549 
L 423.148673 163.156549 
L 423.148673 95.817418 
L 410.8706 95.817418 
z
" clip-path="url(#p50370ca05b)" style="fill: #5cb8b2; stroke: #5cb8b2; stroke-linejoin: miter"/>
   </g>
   <g id="patch_24">
    <path d="M 435.426745 163.156549 
L 447.704818 163.156549 
L 447.704818 95.817418 
L 435.426745 95.817418 
z
" clip-path="url(#p50370ca05b)" style="fill: #5cb8b2; stroke: #5cb8b2; stroke-linejoin: miter"/>
   </g>
   <g id="patch_25">
    <path d="M 459.982891 163.156549 
L 472.260964 163.156549 
L 472.260964 95.817418 
L 459.982891 95.817418 
z
" clip-path="url(#p50370ca05b)" style="fill: #5cb8b2; stroke: #5cb8b2; stroke-linejoin: miter"/>
   </g>
  </g>
 </g>
 <defs>
  <clipPath id="p534b8b2be1">
   <rect x="7.2" y="176.012201" width="471.2" height="141.412174"/>
  </clipPath>
  <clipPath id="pb9f3db97d8">
   <rect x="257.39469" y="176.012201" width="221.00531" height="141.412174"/>
  </clipPath>
  <clipPath id="pb6b58faeb8">
   <rect x="7.2" y="176.012201" width="45.869027" height="141.412174"/>
  </clipPath>
  <clipPath id="p50370ca05b">
   <rect x="257.39469" y="21.744375" width="221.00531" height="141.412174"/>
  </clipPath>
 </defs>
</svg>
