<?xml version="1.0" encoding="utf-8" standalone="no"?>
<!DOCTYPE svg PUBLIC "-//W3C//DTD SVG 1.1//EN"
  "http://www.w3.org/Graphics/SVG/1.1/DTD/svg11.dtd">
<svg xmlns:xlink="http://www.w3.org/1999/xlink" width="288pt" height="288pt" viewBox="0 0 288 288" xmlns="http://www.w3.org/2000/svg" version="1.1">
 <metadata>
  <rdf:RDF xmlns:dc="http://purl.org/dc/elements/1.1/" xmlns:cc="http://creativecommons.org/ns#" xmlns:rdf="http://www.w3.org/1999/02/22-rdf-syntax-ns#">
   <cc:Work>
    <dc:type rdf:resource="http://purl.org/dc/dcmitype/StillImage"/>
    <dc:date>2025-11-16T14:02:16.792401</dc:date>
    <dc:format>image/svg+xml</dc:format>
    <dc:creator>
     <cc:Agent>
      <dc:title>Matplotlib v3.10.7, https://matplotlib.org/</dc:title>
     </cc:Agent>
    </dc:creator>
   </cc:Work>
  </rdf:RDF>
 </metadata>
 <defs>
  <style type="text/css">*{stroke-linejoin: round; stroke-linecap: butt}</style>
 </defs>
 <g id="figure_1">
  <g id="patch_1">
   <path d="M 0 288 
L 288 288 
L 288 0 
L 0 0 
L 0 288 
z
" style="fill: none"/>
  </g>
  <g id="axes_1">
   <g id="patch_2">
    <path d="M 147.599998 43.985457 
C 136.336976 43.985457 125.152172 45.861011 114.50524 49.53504 
C 103.858308 53.209069 93.897125 58.630544 85.031061 65.576662 
C 76.164996 72.522779 68.517192 80.897065 62.401947 90.355363 
C 56.286701 99.813662 51.788948 110.224607 49.093531 121.160346 
C 46.398114 132.096084 45.542468 143.404728 46.561759 154.621532 
C 47.58105 165.838336 50.46112 176.807509 55.083608 187.078257 
C 59.706097 197.349004 66.006801 206.778674 73.726785 214.979741 
C 81.446769 223.180808 90.478808 230.039366 100.451718 235.273553 
C 110.424629 240.50774 121.199895 244.044857 132.334691 245.739542 
C 143.469488 247.434226 154.809162 247.262941 165.887694 245.232724 
C 176.966226 243.202507 187.629744 239.341558 197.440016 233.808546 
C 207.250288 228.275535 216.071057 221.14731 223.539822 212.716818 
C 231.008586 204.286325 237.021611 194.670656 241.331782 184.264981 
C 245.641954 173.859306 248.189407 162.80815 248.869451 151.565678 
C 249.549495 140.323205 248.352684 129.045564 245.328204 118.196224 
C 242.303723 107.346885 237.49358 97.076535 231.095454 87.807251 
L 175.988453 125.844871 
C 178.163816 128.996427 179.799264 132.488346 180.827588 136.177122 
C 181.855911 139.865897 182.262827 143.700295 182.031612 147.522736 
C 181.800397 151.345177 180.934263 155.102569 179.468804 158.640499 
C 178.003346 162.178428 175.958918 165.447756 173.419538 168.314123 
C 170.880158 171.180491 167.881096 173.604087 164.545604 175.485311 
C 161.210112 177.366535 157.584515 178.679258 153.817814 179.369532 
C 150.051114 180.059805 146.195624 180.118042 142.409793 179.54185 
C 138.623963 178.965657 134.960372 177.763037 131.569583 175.983413 
C 128.178793 174.20379 125.1079 171.87188 122.483105 169.083517 
C 119.858311 166.295155 117.716071 163.089067 116.144425 159.597013 
C 114.572779 156.104959 113.593555 152.37544 113.246997 148.561726 
C 112.900438 144.748013 113.191357 140.903074 114.107799 137.184923 
C 115.024241 133.466772 116.553477 129.927051 118.63266 126.711229 
C 120.711844 123.495407 123.312097 120.64815 126.326559 118.28647 
C 129.341021 115.92479 132.727823 114.081489 136.34778 112.832319 
C 139.967737 111.583149 143.77057 110.945461 147.599998 110.945461 
z
" style="fill: #5cb8b2; stroke: #ffffff; stroke-linejoin: miter"/>
   </g>
   <g id="patch_3">
    <path d="M 231.095462 87.80726 
C 221.765458 74.290413 209.291166 63.239163 194.748266 55.606458 
C 180.205363 47.973754 164.024206 43.985457 147.600012 43.985457 
L 147.600002 110.945461 
C 153.184228 110.945461 158.685822 112.301482 163.630409 114.896601 
C 168.574995 117.491721 172.816254 121.249146 175.988456 125.844874 
z
" style="fill: #e9f4f3; stroke: #ffffff; stroke-linejoin: miter"/>
   </g>
   <g id="matplotlib.axis_1"/>
   <g id="matplotlib.axis_2"/>
   <g id="text_1">
    <!-- Yes -->
    <g style="fill: #404040" transform="translate(138.684373 142.390133) scale(0.12 -0.12)">
     <defs>
      <path id="SourceSans3-Bold-59" d="M 1210 0 
L 1210 1485 
L -51 4173 
L 960 4173 
L 1331 3213 
Q 1421 2976 1504 2755 
Q 1587 2534 1670 2291 
L 1696 2291 
Q 1786 2534 1875 2755 
Q 1965 2976 2048 3213 
L 2426 4173 
L 3411 4173 
L 2150 1485 
L 2150 0 
L 1210 0 
z
" transform="scale(0.015625)"/>
      <path id="SourceSans3-Bold-65" d="M 1747 2528 
Q 1562 2528 1386 2403 
Q 1210 2278 1146 1952 
L 2272 1952 
Q 2272 2202 2150 2365 
Q 2029 2528 1747 2528 
z
M 1837 -77 
Q 1382 -77 1017 118 
Q 653 314 441 688 
Q 230 1062 230 1587 
Q 230 2106 444 2477 
Q 659 2848 1004 3049 
Q 1350 3251 1728 3251 
Q 2182 3251 2483 3049 
Q 2784 2848 2931 2505 
Q 3078 2163 3078 1728 
Q 3078 1606 3065 1488 
Q 3053 1370 3040 1299 
L 1146 1299 
Q 1222 928 1459 787 
Q 1696 646 1965 646 
Q 2317 646 2656 851 
L 2963 275 
Q 2726 109 2422 16 
Q 2118 -77 1837 -77 
z
" transform="scale(0.015625)"/>
      <path id="SourceSans3-Bold-73" d="M 1350 -77 
Q 1037 -77 707 44 
Q 378 166 134 397 
L 531 928 
Q 749 755 963 688 
Q 1178 621 1376 621 
Q 1587 621 1683 694 
Q 1779 768 1779 890 
Q 1779 1050 1596 1133 
Q 1414 1216 1158 1312 
Q 934 1395 739 1523 
Q 544 1651 425 1833 
Q 307 2016 307 2259 
Q 307 2701 643 2976 
Q 979 3251 1523 3251 
Q 1869 3251 2157 3139 
Q 2445 3027 2643 2848 
L 2240 2323 
Q 2067 2451 1894 2502 
Q 1722 2554 1555 2554 
Q 1370 2554 1280 2483 
Q 1190 2413 1190 2304 
Q 1190 2163 1334 2086 
Q 1478 2010 1779 1914 
Q 2144 1792 2400 1568 
Q 2656 1344 2656 947 
Q 2656 518 2323 220 
Q 1990 -77 1350 -77 
z
" transform="scale(0.015625)"/>
     </defs>
     <use xlink:href="#SourceSans3-Bold-59"/>
     <use xlink:href="#SourceSans3-Bold-65" transform="translate(52.499985 0)"/>
     <use xlink:href="#SourceSans3-Bold-73" transform="translate(104.299973 0)"/>
    </g>
    <!-- 85% -->
    <g style="fill: #404040" transform="translate(136.122185 154.692383) scale(0.12 -0.12)">
     <defs>
      <path id="SourceSans3-Bold-38" d="M 1683 -77 
Q 1280 -77 960 64 
Q 640 205 454 457 
Q 269 710 269 1037 
Q 269 1408 470 1645 
Q 672 1882 960 2035 
L 960 2061 
Q 723 2240 569 2470 
Q 416 2701 416 3021 
Q 416 3366 582 3619 
Q 749 3872 1043 4006 
Q 1338 4141 1715 4141 
Q 2272 4141 2611 3837 
Q 2950 3533 2950 3027 
Q 2950 2733 2790 2505 
Q 2630 2278 2419 2138 
L 2419 2112 
Q 2714 1952 2918 1702 
Q 3123 1453 3123 1050 
Q 3123 730 2944 474 
Q 2765 218 2441 70 
Q 2118 -77 1683 -77 
z
M 1939 2368 
Q 2189 2656 2189 2963 
Q 2189 3200 2057 3344 
Q 1926 3488 1696 3488 
Q 1510 3488 1376 3373 
Q 1242 3258 1242 3021 
Q 1242 2771 1434 2630 
Q 1626 2490 1939 2368 
z
M 1702 576 
Q 1939 576 2092 701 
Q 2246 826 2246 1082 
Q 2246 1261 2137 1379 
Q 2029 1498 1837 1590 
Q 1645 1683 1389 1792 
Q 1254 1670 1164 1500 
Q 1075 1331 1075 1146 
Q 1075 877 1260 726 
Q 1446 576 1702 576 
z
" transform="scale(0.015625)"/>
      <path id="SourceSans3-Bold-35" d="M 1581 -77 
Q 1082 -77 736 89 
Q 390 256 147 493 
L 570 1088 
Q 755 922 972 803 
Q 1190 685 1446 685 
Q 1760 685 1945 845 
Q 2131 1005 2131 1318 
Q 2131 1626 1952 1786 
Q 1773 1946 1491 1946 
Q 1312 1946 1193 1901 
Q 1075 1856 890 1741 
L 467 2010 
L 582 4064 
L 2886 4064 
L 2886 3270 
L 1395 3270 
L 1325 2509 
Q 1536 2605 1779 2605 
Q 2131 2605 2422 2470 
Q 2714 2336 2893 2057 
Q 3072 1779 3072 1344 
Q 3072 896 2864 576 
Q 2656 256 2317 89 
Q 1978 -77 1581 -77 
z
" transform="scale(0.015625)"/>
      <path id="SourceSans3-Bold-25" d="M 1203 1600 
Q 755 1600 460 1952 
Q 166 2304 166 2931 
Q 166 3559 460 3904 
Q 755 4250 1203 4250 
Q 1658 4250 1952 3904 
Q 2246 3559 2246 2931 
Q 2246 2304 1952 1952 
Q 1658 1600 1203 1600 
z
M 1203 2125 
Q 1363 2125 1475 2304 
Q 1587 2483 1587 2931 
Q 1587 3379 1475 3552 
Q 1363 3725 1203 3725 
Q 1043 3725 931 3552 
Q 819 3379 819 2931 
Q 819 2483 931 2304 
Q 1043 2125 1203 2125 
z
M 1344 -77 
L 3597 4250 
L 4141 4250 
L 1888 -77 
L 1344 -77 
z
M 4282 -77 
Q 3834 -77 3539 275 
Q 3245 627 3245 1254 
Q 3245 1882 3539 2227 
Q 3834 2573 4282 2573 
Q 4736 2573 5030 2227 
Q 5325 1882 5325 1254 
Q 5325 627 5030 275 
Q 4736 -77 4282 -77 
z
M 4282 448 
Q 4442 448 4554 627 
Q 4666 806 4666 1254 
Q 4666 1702 4554 1875 
Q 4442 2048 4282 2048 
Q 4122 2048 4010 1875 
Q 3898 1702 3898 1254 
Q 3898 806 4010 627 
Q 4122 448 4282 448 
z
" transform="scale(0.015625)"/>
     </defs>
     <use xlink:href="#SourceSans3-Bold-38"/>
     <use xlink:href="#SourceSans3-Bold-35" transform="translate(52.799988 0)"/>
     <use xlink:href="#SourceSans3-Bold-25" transform="translate(105.599976 0)"/>
    </g>
   </g>
   <g id="text_2">
    <!-- Authentication before assistance (n = 13) -->
    <g style="fill: #404040" transform="translate(45.91125 28.56) scale(0.12 -0.12)">
     <defs>
      <path id="SourceSans3-Regular-41" d="M 1299 2349 
L 1101 1709 
L 2362 1709 
L 2163 2349 
Q 2048 2701 1945 3049 
Q 1843 3398 1741 3763 
L 1715 3763 
Q 1619 3398 1516 3049 
Q 1414 2701 1299 2349 
z
M 19 0 
L 1440 4198 
L 2042 4198 
L 3462 0 
L 2893 0 
L 2496 1280 
L 966 1280 
L 563 0 
L 19 0 
z
" transform="scale(0.015625)"/>
      <path id="SourceSans3-Regular-75" d="M 1434 -77 
Q 941 -77 710 233 
Q 480 544 480 1139 
L 480 3110 
L 1011 3110 
L 1011 1210 
Q 1011 774 1148 576 
Q 1286 378 1594 378 
Q 1837 378 2025 502 
Q 2214 627 2432 902 
L 2432 3110 
L 2957 3110 
L 2957 0 
L 2522 0 
L 2477 486 
L 2458 486 
Q 2240 230 1997 76 
Q 1754 -77 1434 -77 
z
" transform="scale(0.015625)"/>
      <path id="SourceSans3-Regular-74" d="M 1504 -58 
Q 1005 -58 809 227 
Q 614 512 614 979 
L 614 2682 
L 154 2682 
L 154 3078 
L 640 3110 
L 704 4109 
L 1146 4109 
L 1146 3110 
L 1984 3110 
L 1984 2682 
L 1146 2682 
L 1146 966 
Q 1146 685 1251 528 
Q 1357 371 1626 371 
Q 1709 371 1798 387 
Q 1888 403 1978 448 
L 2086 77 
Q 1965 13 1814 -22 
Q 1664 -58 1504 -58 
z
" transform="scale(0.015625)"/>
      <path id="SourceSans3-Regular-68" d="M 525 0 
L 525 4557 
L 1050 4557 
L 1050 3315 
L 1030 2675 
Q 1254 2886 1500 3036 
Q 1747 3187 2067 3187 
Q 2560 3187 2787 2876 
Q 3014 2566 3014 1971 
L 3014 0 
L 2490 0 
L 2490 1901 
Q 2490 2336 2349 2534 
Q 2208 2733 1901 2733 
Q 1664 2733 1475 2611 
Q 1286 2490 1050 2253 
L 1050 0 
L 525 0 
z
" transform="scale(0.015625)"/>
      <path id="SourceSans3-Regular-65" d="M 1702 2758 
Q 1510 2758 1328 2665 
Q 1146 2573 1014 2368 
Q 883 2163 838 1830 
L 2458 1830 
Q 2458 2285 2259 2521 
Q 2061 2758 1702 2758 
z
M 1786 -77 
Q 1370 -77 1027 115 
Q 685 307 486 675 
Q 288 1043 288 1555 
Q 288 2061 489 2425 
Q 691 2790 1014 2988 
Q 1338 3187 1696 3187 
Q 2298 3187 2614 2790 
Q 2931 2394 2931 1728 
Q 2931 1645 2924 1568 
Q 2918 1491 2906 1414 
L 826 1414 
Q 864 890 1161 621 
Q 1459 352 1850 352 
Q 2074 352 2269 416 
Q 2464 480 2624 589 
L 2816 243 
Q 2611 102 2358 12 
Q 2106 -77 1786 -77 
z
" transform="scale(0.015625)"/>
      <path id="SourceSans3-Regular-6e" d="M 525 0 
L 525 3110 
L 960 3110 
L 1005 2662 
L 1024 2662 
Q 1248 2886 1497 3036 
Q 1747 3187 2067 3187 
Q 2560 3187 2787 2876 
Q 3014 2566 3014 1971 
L 3014 0 
L 2490 0 
L 2490 1901 
Q 2490 2336 2349 2534 
Q 2208 2733 1901 2733 
Q 1664 2733 1475 2611 
Q 1286 2490 1050 2253 
L 1050 0 
L 525 0 
z
" transform="scale(0.015625)"/>
      <path id="SourceSans3-Regular-69" d="M 525 0 
L 525 3110 
L 1050 3110 
L 1050 0 
L 525 0 
z
M 787 3750 
Q 634 3750 534 3843 
Q 435 3936 435 4096 
Q 435 4250 534 4346 
Q 634 4442 787 4442 
Q 941 4442 1040 4346 
Q 1139 4250 1139 4096 
Q 1139 3936 1040 3843 
Q 941 3750 787 3750 
z
" transform="scale(0.015625)"/>
      <path id="SourceSans3-Regular-63" d="M 1760 -77 
Q 1344 -77 1011 115 
Q 678 307 486 672 
Q 294 1037 294 1549 
Q 294 2074 502 2438 
Q 710 2803 1052 2995 
Q 1395 3187 1792 3187 
Q 2099 3187 2320 3084 
Q 2541 2982 2701 2822 
L 2438 2502 
Q 2317 2611 2166 2681 
Q 2016 2752 1811 2752 
Q 1536 2752 1315 2601 
Q 1094 2451 966 2179 
Q 838 1907 838 1549 
Q 838 1018 1107 688 
Q 1376 358 1805 358 
Q 2016 358 2201 441 
Q 2387 525 2528 653 
L 2758 333 
Q 2566 147 2313 35 
Q 2061 -77 1760 -77 
z
" transform="scale(0.015625)"/>
      <path id="SourceSans3-Regular-61" d="M 1242 -77 
Q 851 -77 588 153 
Q 326 384 326 806 
Q 326 1331 787 1600 
Q 1248 1869 2246 1978 
Q 2246 2176 2188 2349 
Q 2131 2522 1993 2634 
Q 1856 2746 1600 2746 
Q 1331 2746 1094 2643 
Q 858 2541 672 2426 
L 467 2784 
Q 685 2931 1001 3059 
Q 1318 3187 1690 3187 
Q 2259 3187 2515 2838 
Q 2771 2490 2771 1907 
L 2771 0 
L 2336 0 
L 2291 371 
L 2272 371 
Q 2042 186 1789 54 
Q 1536 -77 1242 -77 
z
M 1389 358 
Q 1613 358 1817 460 
Q 2022 563 2246 762 
L 2246 1600 
Q 1722 1542 1414 1440 
Q 1107 1338 976 1190 
Q 845 1043 845 838 
Q 845 582 1005 470 
Q 1165 358 1389 358 
z
" transform="scale(0.015625)"/>
      <path id="SourceSans3-Regular-6f" d="M 1734 -77 
Q 1357 -77 1027 115 
Q 698 307 496 672 
Q 294 1037 294 1549 
Q 294 2074 496 2438 
Q 698 2803 1027 2995 
Q 1357 3187 1734 3187 
Q 2118 3187 2444 2995 
Q 2771 2803 2972 2438 
Q 3174 2074 3174 1549 
Q 3174 1037 2972 672 
Q 2771 307 2444 115 
Q 2118 -77 1734 -77 
z
M 1734 358 
Q 2138 358 2384 688 
Q 2630 1018 2630 1549 
Q 2630 2086 2384 2419 
Q 2138 2752 1734 2752 
Q 1338 2752 1088 2419 
Q 838 2086 838 1549 
Q 838 1018 1088 688 
Q 1338 358 1734 358 
z
" transform="scale(0.015625)"/>
      <path id="SourceSans3-Regular-20" transform="scale(0.015625)"/>
      <path id="SourceSans3-Regular-62" d="M 1901 -77 
Q 1683 -77 1449 28 
Q 1216 134 1011 320 
L 992 320 
L 947 0 
L 525 0 
L 525 4557 
L 1050 4557 
L 1050 3315 
L 1037 2752 
Q 1248 2938 1501 3062 
Q 1754 3187 2010 3187 
Q 2618 3187 2931 2758 
Q 3245 2330 3245 1606 
Q 3245 1075 3056 697 
Q 2867 320 2563 121 
Q 2259 -77 1901 -77 
z
M 1811 365 
Q 2195 365 2448 694 
Q 2701 1024 2701 1600 
Q 2701 2112 2512 2429 
Q 2323 2746 1882 2746 
Q 1683 2746 1478 2637 
Q 1274 2528 1050 2323 
L 1050 691 
Q 1254 512 1456 438 
Q 1658 365 1811 365 
z
" transform="scale(0.015625)"/>
      <path id="SourceSans3-Regular-66" d="M 614 0 
L 614 2682 
L 154 2682 
L 154 3078 
L 614 3110 
L 614 3603 
Q 614 4077 835 4355 
Q 1056 4634 1523 4634 
Q 1670 4634 1804 4605 
Q 1939 4576 2042 4531 
L 1926 4147 
Q 1734 4205 1574 4205 
Q 1139 4205 1139 3603 
L 1139 3110 
L 1798 3110 
L 1798 2682 
L 1139 2682 
L 1139 0 
L 614 0 
z
" transform="scale(0.015625)"/>
      <path id="SourceSans3-Regular-72" d="M 525 0 
L 525 3110 
L 960 3110 
L 1005 2547 
L 1024 2547 
Q 1178 2842 1408 3014 
Q 1638 3187 1907 3187 
Q 2093 3187 2240 3123 
L 2125 2675 
Q 2054 2694 1993 2704 
Q 1933 2714 1837 2714 
Q 1638 2714 1424 2554 
Q 1210 2394 1050 1997 
L 1050 0 
L 525 0 
z
" transform="scale(0.015625)"/>
      <path id="SourceSans3-Regular-73" d="M 1338 -77 
Q 998 -77 697 41 
Q 397 160 179 371 
L 422 678 
Q 627 512 848 422 
Q 1069 333 1357 333 
Q 1664 333 1817 477 
Q 1971 621 1971 819 
Q 1971 979 1868 1084 
Q 1766 1190 1606 1264 
Q 1446 1338 1267 1402 
Q 1037 1485 825 1597 
Q 614 1709 483 1878 
Q 352 2048 352 2304 
Q 352 2682 637 2934 
Q 922 3187 1427 3187 
Q 1715 3187 1964 3088 
Q 2214 2989 2394 2835 
L 2150 2534 
Q 1990 2650 1814 2714 
Q 1638 2778 1427 2778 
Q 1133 2778 995 2643 
Q 858 2509 858 2330 
Q 858 2118 1043 2009 
Q 1229 1901 1517 1798 
Q 1760 1715 1981 1600 
Q 2202 1485 2339 1309 
Q 2477 1133 2477 851 
Q 2477 602 2345 390 
Q 2214 179 1961 51 
Q 1709 -77 1338 -77 
z
" transform="scale(0.015625)"/>
      <path id="SourceSans3-Regular-28" d="M 1370 -1126 
Q 973 -480 749 227 
Q 525 934 525 1779 
Q 525 2624 749 3334 
Q 973 4045 1370 4685 
L 1696 4531 
Q 1325 3923 1142 3216 
Q 960 2509 960 1779 
Q 960 1050 1142 342 
Q 1325 -365 1696 -973 
L 1370 -1126 
z
" transform="scale(0.015625)"/>
      <path id="SourceSans3-Regular-3d" d="M 218 2599 
L 218 2995 
L 2963 2995 
L 2963 2599 
L 218 2599 
z
M 218 1229 
L 218 1625 
L 2963 1625 
L 2963 1229 
L 218 1229 
z
" transform="scale(0.015625)"/>
      <path id="SourceSans3-Regular-31" d="M 506 0 
L 506 435 
L 1440 435 
L 1440 3443 
L 698 3443 
L 698 3782 
Q 979 3834 1187 3907 
Q 1395 3981 1562 4083 
L 1965 4083 
L 1965 435 
L 2810 435 
L 2810 0 
L 506 0 
z
" transform="scale(0.015625)"/>
      <path id="SourceSans3-Regular-33" d="M 1510 -77 
Q 1024 -77 697 99 
Q 371 275 166 499 
L 435 845 
Q 621 653 870 505 
Q 1120 358 1478 358 
Q 1850 358 2086 563 
Q 2323 768 2323 1107 
Q 2323 1350 2198 1532 
Q 2074 1715 1789 1817 
Q 1504 1920 1018 1920 
L 1018 2323 
Q 1453 2323 1705 2425 
Q 1958 2528 2067 2701 
Q 2176 2874 2176 3085 
Q 2176 3386 1987 3558 
Q 1798 3731 1472 3731 
Q 1216 3731 1001 3616 
Q 787 3501 602 3315 
L 320 3648 
Q 557 3872 845 4016 
Q 1133 4160 1491 4160 
Q 2022 4160 2368 3888 
Q 2714 3616 2714 3123 
Q 2714 2752 2509 2515 
Q 2304 2278 1971 2150 
L 1971 2125 
Q 2342 2042 2598 1776 
Q 2854 1510 2854 1088 
Q 2854 730 2675 467 
Q 2496 205 2192 64 
Q 1888 -77 1510 -77 
z
" transform="scale(0.015625)"/>
      <path id="SourceSans3-Regular-29" d="M 570 -1126 
L 243 -973 
Q 614 -365 796 342 
Q 979 1050 979 1779 
Q 979 2509 796 3216 
Q 614 3923 243 4531 
L 570 4685 
Q 966 4045 1190 3334 
Q 1414 2624 1414 1779 
Q 1414 934 1190 227 
Q 966 -480 570 -1126 
z
" transform="scale(0.015625)"/>
     </defs>
     <use xlink:href="#SourceSans3-Regular-41"/>
     <use xlink:href="#SourceSans3-Regular-75" transform="translate(54.399994 0)"/>
     <use xlink:href="#SourceSans3-Regular-74" transform="translate(108.799988 0)"/>
     <use xlink:href="#SourceSans3-Regular-68" transform="translate(142.599976 0)"/>
     <use xlink:href="#SourceSans3-Regular-65" transform="translate(196.999969 0)"/>
     <use xlink:href="#SourceSans3-Regular-6e" transform="translate(246.59996 0)"/>
     <use xlink:href="#SourceSans3-Regular-74" transform="translate(301.299957 0)"/>
     <use xlink:href="#SourceSans3-Regular-69" transform="translate(335.099945 0)"/>
     <use xlink:href="#SourceSans3-Regular-63" transform="translate(359.699936 0)"/>
     <use xlink:href="#SourceSans3-Regular-61" transform="translate(405.299927 0)"/>
     <use xlink:href="#SourceSans3-Regular-74" transform="translate(455.699921 0)"/>
     <use xlink:href="#SourceSans3-Regular-69" transform="translate(489.499908 0)"/>
     <use xlink:href="#SourceSans3-Regular-6f" transform="translate(514.099899 0)"/>
     <use xlink:href="#SourceSans3-Regular-6e" transform="translate(568.299896 0)"/>
     <use xlink:href="#SourceSans3-Regular-20" transform="translate(622.999893 0)"/>
     <use xlink:href="#SourceSans3-Regular-62" transform="translate(642.999878 0)"/>
     <use xlink:href="#SourceSans3-Regular-65" transform="translate(698.299866 0)"/>
     <use xlink:href="#SourceSans3-Regular-66" transform="translate(747.899857 0)"/>
     <use xlink:href="#SourceSans3-Regular-6f" transform="translate(777.099854 0)"/>
     <use xlink:href="#SourceSans3-Regular-72" transform="translate(831.29985 0)"/>
     <use xlink:href="#SourceSans3-Regular-65" transform="translate(865.999847 0)"/>
     <use xlink:href="#SourceSans3-Regular-20" transform="translate(915.599838 0)"/>
     <use xlink:href="#SourceSans3-Regular-61" transform="translate(935.599823 0)"/>
     <use xlink:href="#SourceSans3-Regular-73" transform="translate(985.999817 0)"/>
     <use xlink:href="#SourceSans3-Regular-73" transform="translate(1027.899811 0)"/>
     <use xlink:href="#SourceSans3-Regular-69" transform="translate(1069.799805 0)"/>
     <use xlink:href="#SourceSans3-Regular-73" transform="translate(1094.399796 0)"/>
     <use xlink:href="#SourceSans3-Regular-74" transform="translate(1136.299789 0)"/>
     <use xlink:href="#SourceSans3-Regular-61" transform="translate(1170.099777 0)"/>
     <use xlink:href="#SourceSans3-Regular-6e" transform="translate(1220.499771 0)"/>
     <use xlink:href="#SourceSans3-Regular-63" transform="translate(1275.199768 0)"/>
     <use xlink:href="#SourceSans3-Regular-65" transform="translate(1320.799759 0)"/>
     <use xlink:href="#SourceSans3-Regular-20" transform="translate(1370.39975 0)"/>
     <use xlink:href="#SourceSans3-Regular-28" transform="translate(1390.399734 0)"/>
     <use xlink:href="#SourceSans3-Regular-6e" transform="translate(1420.699722 0)"/>
     <use xlink:href="#SourceSans3-Regular-20" transform="translate(1475.399719 0)"/>
     <use xlink:href="#SourceSans3-Regular-3d" transform="translate(1495.399704 0)"/>
     <use xlink:href="#SourceSans3-Regular-20" transform="translate(1545.099701 0)"/>
     <use xlink:href="#SourceSans3-Regular-31" transform="translate(1565.099686 0)"/>
     <use xlink:href="#SourceSans3-Regular-33" transform="translate(1614.799683 0)"/>
     <use xlink:href="#SourceSans3-Regular-29" transform="translate(1664.49968 0)"/>
    </g>
   </g>
   <g id="legend_1">
    <g id="patch_4">
     <path d="M 208.290625 50.680312 
L 228.290625 50.680312 
L 228.290625 43.680312 
L 208.290625 43.680312 
z
" style="fill: #5cb8b2; stroke: #ffffff; stroke-linejoin: miter"/>
    </g>
    <g id="text_3">
     <!-- Yes -->
     <g style="fill: #404040" transform="translate(236.290625 50.680312) scale(0.1 -0.1)">
      <defs>
       <path id="SourceSans3-Regular-59" d="M 1254 0 
L 1254 1626 
L -6 4198 
L 563 4198 
L 1107 3014 
Q 1210 2784 1309 2560 
Q 1408 2336 1510 2099 
L 1536 2099 
Q 1645 2336 1753 2560 
Q 1862 2784 1958 3014 
L 2496 4198 
L 3053 4198 
L 1792 1626 
L 1792 0 
L 1254 0 
z
" transform="scale(0.015625)"/>
      </defs>
      <use xlink:href="#SourceSans3-Regular-59"/>
      <use xlink:href="#SourceSans3-Regular-65" transform="translate(47.599991 0)"/>
      <use xlink:href="#SourceSans3-Regular-73" transform="translate(97.199982 0)"/>
     </g>
    </g>
    <g id="patch_5">
     <path d="M 208.290625 64.850625 
L 228.290625 64.850625 
L 228.290625 57.850625 
L 208.290625 57.850625 
z
" style="fill: #e9f4f3; stroke: #ffffff; stroke-linejoin: miter"/>
    </g>
    <g id="text_4">
     <!-- No -->
     <g style="fill: #404040" transform="translate(236.290625 64.850625) scale(0.1 -0.1)">
      <defs>
       <path id="SourceSans3-Regular-4e" d="M 576 0 
L 576 4198 
L 1158 4198 
L 2650 1587 
Q 2771 1376 2883 1145 
Q 2995 915 3098 685 
L 3123 685 
Q 3098 1011 3075 1350 
Q 3053 1690 3053 2016 
L 3053 4198 
L 3565 4198 
L 3565 0 
L 2982 0 
L 1491 2611 
Q 1370 2822 1254 3052 
Q 1139 3283 1037 3514 
L 1011 3514 
Q 1043 3200 1062 2867 
Q 1082 2534 1082 2195 
L 1082 0 
L 576 0 
z
" transform="scale(0.015625)"/>
      </defs>
      <use xlink:href="#SourceSans3-Regular-4e"/>
      <use xlink:href="#SourceSans3-Regular-6f" transform="translate(64.699997 0)"/>
     </g>
    </g>
   </g>
  </g>
 </g>
</svg>
