<?xml version="1.0" encoding="utf-8" standalone="no"?>
<!DOCTYPE svg PUBLIC "-//W3C//DTD SVG 1.1//EN"
  "http://www.w3.org/Graphics/SVG/1.1/DTD/svg11.dtd">
<svg xmlns:xlink="http://www.w3.org/1999/xlink" width="720pt" height="144pt" viewBox="0 0 720 144" xmlns="http://www.w3.org/2000/svg" version="1.1">
 <metadata>
  <rdf:RDF xmlns:dc="http://purl.org/dc/elements/1.1/" xmlns:cc="http://creativecommons.org/ns#" xmlns:rdf="http://www.w3.org/1999/02/22-rdf-syntax-ns#">
   <cc:Work>
    <dc:type rdf:resource="http://purl.org/dc/dcmitype/StillImage"/>
    <dc:date>2025-11-10T09:43:03.354146</dc:date>
    <dc:format>image/svg+xml</dc:format>
    <dc:creator>
     <cc:Agent>
      <dc:title>Matplotlib v3.10.7, https://matplotlib.org/</dc:title>
     </cc:Agent>
    </dc:creator>
   </cc:Work>
  </rdf:RDF>
 </metadata>
 <defs>
  <style type="text/css">*{stroke-linejoin: round; stroke-linecap: butt}</style>
 </defs>
 <g id="figure_1">
  <g id="patch_1">
   <path d="M 0 144 
L 720 144 
L 720 0 
L 0 0 
L 0 144 
z
" style="fill: none"/>
  </g>
  <g id="axes_1">
   <g id="patch_2">
    <path d="M 246.14 116.84 
L 709.2 116.84 
L 709.2 27.375 
L 246.14 27.375 
L 246.14 116.84 
z
" style="fill: none"/>
   </g>
   <g id="patch_3">
    <path d="M 246.14 31.441591 
L 393.143175 31.441591 
L 393.143175 48.564079 
L 246.14 48.564079 
z
" clip-path="url(#p8f10f51045)" style="fill: #5cb8b2"/>
   </g>
   <g id="patch_4">
    <path d="M 246.14 52.844701 
L 393.143175 52.844701 
L 393.143175 69.967189 
L 246.14 69.967189 
z
" clip-path="url(#p8f10f51045)" style="fill: #5cb8b2"/>
   </g>
   <g id="patch_5">
    <path d="M 246.14 74.247811 
L 466.644762 74.247811 
L 466.644762 91.370299 
L 246.14 91.370299 
z
" clip-path="url(#p8f10f51045)" style="fill: #5cb8b2"/>
   </g>
   <g id="patch_6">
    <path d="M 246.14 95.650921 
L 687.149524 95.650921 
L 687.149524 112.773409 
L 246.14 112.773409 
z
" clip-path="url(#p8f10f51045)" style="fill: #5cb8b2"/>
   </g>
   <g id="matplotlib.axis_1">
    <g id="xtick_1">
     <g id="line2d_1">
      <defs>
       <path id="md03d9627f3" d="M 0 0 
L 0 3.5 
" style="stroke: #666a6d; stroke-width: 0.8"/>
      </defs>
      <g>
       <use xlink:href="#md03d9627f3" x="246.14" y="116.84" style="fill: #666a6d; stroke: #666a6d; stroke-width: 0.8"/>
      </g>
     </g>
     <g id="text_1">
      <!-- 0% -->
      <g style="fill: #666a6d" transform="translate(239.534531 130.960313) scale(0.1 -0.1)">
       <defs>
        <path id="SourceSans3-Regular-30" d="M 1594 -77 
Q 979 -77 630 476 
Q 282 1030 282 2054 
Q 282 3085 630 3622 
Q 979 4160 1594 4160 
Q 2202 4160 2550 3622 
Q 2899 3085 2899 2054 
Q 2899 1030 2550 476 
Q 2202 -77 1594 -77 
z
M 1594 346 
Q 1952 346 2169 752 
Q 2387 1158 2387 2054 
Q 2387 2950 2169 3344 
Q 1952 3738 1594 3738 
Q 1235 3738 1014 3344 
Q 794 2950 794 2054 
Q 794 1158 1014 752 
Q 1235 346 1594 346 
z
" transform="scale(0.015625)"/>
        <path id="SourceSans3-Regular-25" d="M 1178 1625 
Q 749 1625 486 1970 
Q 224 2316 224 2956 
Q 224 3584 486 3929 
Q 749 4275 1178 4275 
Q 1606 4275 1868 3929 
Q 2131 3584 2131 2956 
Q 2131 2316 1868 1970 
Q 1606 1625 1178 1625 
z
M 1178 1952 
Q 1421 1952 1574 2204 
Q 1728 2457 1728 2956 
Q 1728 3456 1574 3702 
Q 1421 3948 1178 3948 
Q 928 3948 774 3702 
Q 621 3456 621 2956 
Q 621 2457 774 2204 
Q 928 1952 1178 1952 
z
M 1299 -77 
L 3616 4275 
L 3974 4275 
L 1658 -77 
L 1299 -77 
z
M 4102 -77 
Q 3674 -77 3411 268 
Q 3149 614 3149 1254 
Q 3149 1882 3411 2227 
Q 3674 2573 4102 2573 
Q 4531 2573 4793 2227 
Q 5056 1882 5056 1254 
Q 5056 614 4793 268 
Q 4531 -77 4102 -77 
z
M 4102 250 
Q 4346 250 4499 502 
Q 4653 755 4653 1254 
Q 4653 1754 4499 2000 
Q 4346 2246 4102 2246 
Q 3853 2246 3699 2000 
Q 3546 1754 3546 1254 
Q 3546 755 3699 502 
Q 3853 250 4102 250 
z
" transform="scale(0.015625)"/>
       </defs>
       <use xlink:href="#SourceSans3-Regular-30"/>
       <use xlink:href="#SourceSans3-Regular-25" transform="translate(49.699997 0)"/>
      </g>
     </g>
    </g>
    <g id="xtick_2">
     <g id="line2d_2">
      <g>
       <use xlink:href="#md03d9627f3" x="341.692063" y="116.84" style="fill: #666a6d; stroke: #666a6d; stroke-width: 0.8"/>
      </g>
     </g>
     <g id="text_2">
      <!-- 10% -->
      <g style="fill: #666a6d" transform="translate(332.601438 130.960313) scale(0.1 -0.1)">
       <defs>
        <path id="SourceSans3-Regular-31" d="M 506 0 
L 506 435 
L 1440 435 
L 1440 3443 
L 698 3443 
L 698 3782 
Q 979 3834 1187 3907 
Q 1395 3981 1562 4083 
L 1965 4083 
L 1965 435 
L 2810 435 
L 2810 0 
L 506 0 
z
" transform="scale(0.015625)"/>
       </defs>
       <use xlink:href="#SourceSans3-Regular-31"/>
       <use xlink:href="#SourceSans3-Regular-30" transform="translate(49.699997 0)"/>
       <use xlink:href="#SourceSans3-Regular-25" transform="translate(99.399994 0)"/>
      </g>
     </g>
    </g>
    <g id="xtick_3">
     <g id="line2d_3">
      <g>
       <use xlink:href="#md03d9627f3" x="437.244127" y="116.84" style="fill: #666a6d; stroke: #666a6d; stroke-width: 0.8"/>
      </g>
     </g>
     <g id="text_3">
      <!-- 20% -->
      <g style="fill: #666a6d" transform="translate(428.153502 130.960313) scale(0.1 -0.1)">
       <defs>
        <path id="SourceSans3-Regular-32" d="M 256 0 
L 256 320 
Q 870 922 1299 1386 
Q 1728 1850 1952 2227 
Q 2176 2605 2176 2931 
Q 2176 3283 1984 3507 
Q 1792 3731 1402 3731 
Q 1146 3731 928 3587 
Q 710 3443 531 3238 
L 237 3526 
Q 493 3814 784 3987 
Q 1075 4160 1466 4160 
Q 2035 4160 2361 3830 
Q 2688 3501 2688 2963 
Q 2688 2566 2467 2176 
Q 2246 1786 1862 1357 
Q 1478 928 979 416 
Q 1146 429 1325 441 
Q 1504 454 1664 454 
L 2893 454 
L 2893 0 
L 256 0 
z
" transform="scale(0.015625)"/>
       </defs>
       <use xlink:href="#SourceSans3-Regular-32"/>
       <use xlink:href="#SourceSans3-Regular-30" transform="translate(49.699997 0)"/>
       <use xlink:href="#SourceSans3-Regular-25" transform="translate(99.399994 0)"/>
      </g>
     </g>
    </g>
    <g id="xtick_4">
     <g id="line2d_4">
      <g>
       <use xlink:href="#md03d9627f3" x="532.79619" y="116.84" style="fill: #666a6d; stroke: #666a6d; stroke-width: 0.8"/>
      </g>
     </g>
     <g id="text_4">
      <!-- 30% -->
      <g style="fill: #666a6d" transform="translate(523.705565 130.960313) scale(0.1 -0.1)">
       <defs>
        <path id="SourceSans3-Regular-33" d="M 1510 -77 
Q 1024 -77 697 99 
Q 371 275 166 499 
L 435 845 
Q 621 653 870 505 
Q 1120 358 1478 358 
Q 1850 358 2086 563 
Q 2323 768 2323 1107 
Q 2323 1350 2198 1532 
Q 2074 1715 1789 1817 
Q 1504 1920 1018 1920 
L 1018 2323 
Q 1453 2323 1705 2425 
Q 1958 2528 2067 2701 
Q 2176 2874 2176 3085 
Q 2176 3386 1987 3558 
Q 1798 3731 1472 3731 
Q 1216 3731 1001 3616 
Q 787 3501 602 3315 
L 320 3648 
Q 557 3872 845 4016 
Q 1133 4160 1491 4160 
Q 2022 4160 2368 3888 
Q 2714 3616 2714 3123 
Q 2714 2752 2509 2515 
Q 2304 2278 1971 2150 
L 1971 2125 
Q 2342 2042 2598 1776 
Q 2854 1510 2854 1088 
Q 2854 730 2675 467 
Q 2496 205 2192 64 
Q 1888 -77 1510 -77 
z
" transform="scale(0.015625)"/>
       </defs>
       <use xlink:href="#SourceSans3-Regular-33"/>
       <use xlink:href="#SourceSans3-Regular-30" transform="translate(49.699997 0)"/>
       <use xlink:href="#SourceSans3-Regular-25" transform="translate(99.399994 0)"/>
      </g>
     </g>
    </g>
    <g id="xtick_5">
     <g id="line2d_5">
      <g>
       <use xlink:href="#md03d9627f3" x="628.348254" y="116.84" style="fill: #666a6d; stroke: #666a6d; stroke-width: 0.8"/>
      </g>
     </g>
     <g id="text_5">
      <!-- 40% -->
      <g style="fill: #666a6d" transform="translate(619.257629 130.960313) scale(0.1 -0.1)">
       <defs>
        <path id="SourceSans3-Regular-34" d="M 666 1549 
L 1946 1549 
L 1946 2733 
Q 1946 2899 1958 3129 
Q 1971 3360 1978 3520 
L 1952 3520 
Q 1875 3373 1792 3232 
Q 1709 3091 1619 2944 
L 666 1549 
z
M 1946 0 
L 1946 1126 
L 109 1126 
L 109 1472 
L 1856 4083 
L 2445 4083 
L 2445 1549 
L 3002 1549 
L 3002 1126 
L 2445 1126 
L 2445 0 
L 1946 0 
z
" transform="scale(0.015625)"/>
       </defs>
       <use xlink:href="#SourceSans3-Regular-34"/>
       <use xlink:href="#SourceSans3-Regular-30" transform="translate(49.699997 0)"/>
       <use xlink:href="#SourceSans3-Regular-25" transform="translate(99.399994 0)"/>
      </g>
     </g>
    </g>
   </g>
   <g id="matplotlib.axis_2">
    <g id="ytick_1">
     <g id="line2d_6"/>
     <g id="text_6">
      <!-- Yes, only to the certain partners -->
      <g transform="translate(110.679063 43.562991) scale(0.1 -0.1)">
       <defs>
        <path id="SourceSans3-Regular-59" d="M 1254 0 
L 1254 1626 
L -6 4198 
L 563 4198 
L 1107 3014 
Q 1210 2784 1309 2560 
Q 1408 2336 1510 2099 
L 1536 2099 
Q 1645 2336 1753 2560 
Q 1862 2784 1958 3014 
L 2496 4198 
L 3053 4198 
L 1792 1626 
L 1792 0 
L 1254 0 
z
" transform="scale(0.015625)"/>
        <path id="SourceSans3-Regular-65" d="M 1702 2758 
Q 1510 2758 1328 2665 
Q 1146 2573 1014 2368 
Q 883 2163 838 1830 
L 2458 1830 
Q 2458 2285 2259 2521 
Q 2061 2758 1702 2758 
z
M 1786 -77 
Q 1370 -77 1027 115 
Q 685 307 486 675 
Q 288 1043 288 1555 
Q 288 2061 489 2425 
Q 691 2790 1014 2988 
Q 1338 3187 1696 3187 
Q 2298 3187 2614 2790 
Q 2931 2394 2931 1728 
Q 2931 1645 2924 1568 
Q 2918 1491 2906 1414 
L 826 1414 
Q 864 890 1161 621 
Q 1459 352 1850 352 
Q 2074 352 2269 416 
Q 2464 480 2624 589 
L 2816 243 
Q 2611 102 2358 12 
Q 2106 -77 1786 -77 
z
" transform="scale(0.015625)"/>
        <path id="SourceSans3-Regular-73" d="M 1338 -77 
Q 998 -77 697 41 
Q 397 160 179 371 
L 422 678 
Q 627 512 848 422 
Q 1069 333 1357 333 
Q 1664 333 1817 477 
Q 1971 621 1971 819 
Q 1971 979 1868 1084 
Q 1766 1190 1606 1264 
Q 1446 1338 1267 1402 
Q 1037 1485 825 1597 
Q 614 1709 483 1878 
Q 352 2048 352 2304 
Q 352 2682 637 2934 
Q 922 3187 1427 3187 
Q 1715 3187 1964 3088 
Q 2214 2989 2394 2835 
L 2150 2534 
Q 1990 2650 1814 2714 
Q 1638 2778 1427 2778 
Q 1133 2778 995 2643 
Q 858 2509 858 2330 
Q 858 2118 1043 2009 
Q 1229 1901 1517 1798 
Q 1760 1715 1981 1600 
Q 2202 1485 2339 1309 
Q 2477 1133 2477 851 
Q 2477 602 2345 390 
Q 2214 179 1961 51 
Q 1709 -77 1338 -77 
z
" transform="scale(0.015625)"/>
        <path id="SourceSans3-Regular-2c" d="M 429 -1088 
L 301 -781 
Q 576 -659 729 -457 
Q 883 -256 877 0 
Q 864 -6 845 -6 
Q 826 -6 813 -6 
Q 659 -6 547 86 
Q 435 179 435 358 
Q 435 531 550 630 
Q 666 730 826 730 
Q 1030 730 1148 563 
Q 1267 397 1267 109 
Q 1267 -301 1043 -611 
Q 819 -922 429 -1088 
z
" transform="scale(0.015625)"/>
        <path id="SourceSans3-Regular-20" transform="scale(0.015625)"/>
        <path id="SourceSans3-Regular-6f" d="M 1734 -77 
Q 1357 -77 1027 115 
Q 698 307 496 672 
Q 294 1037 294 1549 
Q 294 2074 496 2438 
Q 698 2803 1027 2995 
Q 1357 3187 1734 3187 
Q 2118 3187 2444 2995 
Q 2771 2803 2972 2438 
Q 3174 2074 3174 1549 
Q 3174 1037 2972 672 
Q 2771 307 2444 115 
Q 2118 -77 1734 -77 
z
M 1734 358 
Q 2138 358 2384 688 
Q 2630 1018 2630 1549 
Q 2630 2086 2384 2419 
Q 2138 2752 1734 2752 
Q 1338 2752 1088 2419 
Q 838 2086 838 1549 
Q 838 1018 1088 688 
Q 1338 358 1734 358 
z
" transform="scale(0.015625)"/>
        <path id="SourceSans3-Regular-6e" d="M 525 0 
L 525 3110 
L 960 3110 
L 1005 2662 
L 1024 2662 
Q 1248 2886 1497 3036 
Q 1747 3187 2067 3187 
Q 2560 3187 2787 2876 
Q 3014 2566 3014 1971 
L 3014 0 
L 2490 0 
L 2490 1901 
Q 2490 2336 2349 2534 
Q 2208 2733 1901 2733 
Q 1664 2733 1475 2611 
Q 1286 2490 1050 2253 
L 1050 0 
L 525 0 
z
" transform="scale(0.015625)"/>
        <path id="SourceSans3-Regular-6c" d="M 1082 -58 
Q 787 -58 656 124 
Q 525 307 525 640 
L 525 4557 
L 1050 4557 
L 1050 602 
Q 1050 480 1094 429 
Q 1139 378 1203 378 
Q 1229 378 1251 381 
Q 1274 384 1312 390 
L 1382 -6 
Q 1267 -58 1082 -58 
z
" transform="scale(0.015625)"/>
        <path id="SourceSans3-Regular-79" d="M 576 -1338 
Q 474 -1338 381 -1318 
Q 288 -1299 211 -1274 
L 326 -864 
Q 442 -902 550 -902 
Q 813 -902 985 -713 
Q 1158 -525 1254 -237 
L 1325 -6 
L 77 3110 
L 621 3110 
L 1254 1389 
Q 1325 1190 1405 960 
Q 1485 730 1555 512 
L 1581 512 
Q 1651 723 1715 953 
Q 1779 1184 1843 1389 
L 2400 3110 
L 2912 3110 
L 1741 -256 
Q 1632 -563 1481 -806 
Q 1331 -1050 1110 -1194 
Q 890 -1338 576 -1338 
z
" transform="scale(0.015625)"/>
        <path id="SourceSans3-Regular-74" d="M 1504 -58 
Q 1005 -58 809 227 
Q 614 512 614 979 
L 614 2682 
L 154 2682 
L 154 3078 
L 640 3110 
L 704 4109 
L 1146 4109 
L 1146 3110 
L 1984 3110 
L 1984 2682 
L 1146 2682 
L 1146 966 
Q 1146 685 1251 528 
Q 1357 371 1626 371 
Q 1709 371 1798 387 
Q 1888 403 1978 448 
L 2086 77 
Q 1965 13 1814 -22 
Q 1664 -58 1504 -58 
z
" transform="scale(0.015625)"/>
        <path id="SourceSans3-Regular-68" d="M 525 0 
L 525 4557 
L 1050 4557 
L 1050 3315 
L 1030 2675 
Q 1254 2886 1500 3036 
Q 1747 3187 2067 3187 
Q 2560 3187 2787 2876 
Q 3014 2566 3014 1971 
L 3014 0 
L 2490 0 
L 2490 1901 
Q 2490 2336 2349 2534 
Q 2208 2733 1901 2733 
Q 1664 2733 1475 2611 
Q 1286 2490 1050 2253 
L 1050 0 
L 525 0 
z
" transform="scale(0.015625)"/>
        <path id="SourceSans3-Regular-63" d="M 1760 -77 
Q 1344 -77 1011 115 
Q 678 307 486 672 
Q 294 1037 294 1549 
Q 294 2074 502 2438 
Q 710 2803 1052 2995 
Q 1395 3187 1792 3187 
Q 2099 3187 2320 3084 
Q 2541 2982 2701 2822 
L 2438 2502 
Q 2317 2611 2166 2681 
Q 2016 2752 1811 2752 
Q 1536 2752 1315 2601 
Q 1094 2451 966 2179 
Q 838 1907 838 1549 
Q 838 1018 1107 688 
Q 1376 358 1805 358 
Q 2016 358 2201 441 
Q 2387 525 2528 653 
L 2758 333 
Q 2566 147 2313 35 
Q 2061 -77 1760 -77 
z
" transform="scale(0.015625)"/>
        <path id="SourceSans3-Regular-72" d="M 525 0 
L 525 3110 
L 960 3110 
L 1005 2547 
L 1024 2547 
Q 1178 2842 1408 3014 
Q 1638 3187 1907 3187 
Q 2093 3187 2240 3123 
L 2125 2675 
Q 2054 2694 1993 2704 
Q 1933 2714 1837 2714 
Q 1638 2714 1424 2554 
Q 1210 2394 1050 1997 
L 1050 0 
L 525 0 
z
" transform="scale(0.015625)"/>
        <path id="SourceSans3-Regular-61" d="M 1242 -77 
Q 851 -77 588 153 
Q 326 384 326 806 
Q 326 1331 787 1600 
Q 1248 1869 2246 1978 
Q 2246 2176 2188 2349 
Q 2131 2522 1993 2634 
Q 1856 2746 1600 2746 
Q 1331 2746 1094 2643 
Q 858 2541 672 2426 
L 467 2784 
Q 685 2931 1001 3059 
Q 1318 3187 1690 3187 
Q 2259 3187 2515 2838 
Q 2771 2490 2771 1907 
L 2771 0 
L 2336 0 
L 2291 371 
L 2272 371 
Q 2042 186 1789 54 
Q 1536 -77 1242 -77 
z
M 1389 358 
Q 1613 358 1817 460 
Q 2022 563 2246 762 
L 2246 1600 
Q 1722 1542 1414 1440 
Q 1107 1338 976 1190 
Q 845 1043 845 838 
Q 845 582 1005 470 
Q 1165 358 1389 358 
z
" transform="scale(0.015625)"/>
        <path id="SourceSans3-Regular-69" d="M 525 0 
L 525 3110 
L 1050 3110 
L 1050 0 
L 525 0 
z
M 787 3750 
Q 634 3750 534 3843 
Q 435 3936 435 4096 
Q 435 4250 534 4346 
Q 634 4442 787 4442 
Q 941 4442 1040 4346 
Q 1139 4250 1139 4096 
Q 1139 3936 1040 3843 
Q 941 3750 787 3750 
z
" transform="scale(0.015625)"/>
        <path id="SourceSans3-Regular-70" d="M 525 -1312 
L 525 3110 
L 960 3110 
L 1005 2752 
L 1024 2752 
Q 1235 2931 1488 3059 
Q 1741 3187 2016 3187 
Q 2618 3187 2931 2755 
Q 3245 2323 3245 1600 
Q 3245 1075 3056 697 
Q 2867 320 2563 121 
Q 2259 -77 1901 -77 
Q 1683 -77 1468 19 
Q 1254 115 1037 282 
L 1050 -262 
L 1050 -1312 
L 525 -1312 
z
M 1811 365 
Q 2195 365 2448 694 
Q 2701 1024 2701 1600 
Q 2701 2112 2512 2429 
Q 2323 2746 1882 2746 
Q 1683 2746 1481 2637 
Q 1280 2528 1050 2323 
L 1050 691 
Q 1261 512 1459 438 
Q 1658 365 1811 365 
z
" transform="scale(0.015625)"/>
       </defs>
       <use xlink:href="#SourceSans3-Regular-59"/>
       <use xlink:href="#SourceSans3-Regular-65" transform="translate(47.599991 0)"/>
       <use xlink:href="#SourceSans3-Regular-73" transform="translate(97.199982 0)"/>
       <use xlink:href="#SourceSans3-Regular-2c" transform="translate(139.099976 0)"/>
       <use xlink:href="#SourceSans3-Regular-20" transform="translate(163.999969 0)"/>
       <use xlink:href="#SourceSans3-Regular-6f" transform="translate(183.999954 0)"/>
       <use xlink:href="#SourceSans3-Regular-6e" transform="translate(238.199951 0)"/>
       <use xlink:href="#SourceSans3-Regular-6c" transform="translate(292.899948 0)"/>
       <use xlink:href="#SourceSans3-Regular-79" transform="translate(318.399933 0)"/>
       <use xlink:href="#SourceSans3-Regular-20" transform="translate(365.09993 0)"/>
       <use xlink:href="#SourceSans3-Regular-74" transform="translate(385.099915 0)"/>
       <use xlink:href="#SourceSans3-Regular-6f" transform="translate(418.899902 0)"/>
       <use xlink:href="#SourceSans3-Regular-20" transform="translate(473.099899 0)"/>
       <use xlink:href="#SourceSans3-Regular-74" transform="translate(493.099884 0)"/>
       <use xlink:href="#SourceSans3-Regular-68" transform="translate(526.899872 0)"/>
       <use xlink:href="#SourceSans3-Regular-65" transform="translate(581.299866 0)"/>
       <use xlink:href="#SourceSans3-Regular-20" transform="translate(630.899857 0)"/>
       <use xlink:href="#SourceSans3-Regular-63" transform="translate(650.899841 0)"/>
       <use xlink:href="#SourceSans3-Regular-65" transform="translate(696.499832 0)"/>
       <use xlink:href="#SourceSans3-Regular-72" transform="translate(746.099823 0)"/>
       <use xlink:href="#SourceSans3-Regular-74" transform="translate(780.79982 0)"/>
       <use xlink:href="#SourceSans3-Regular-61" transform="translate(814.599808 0)"/>
       <use xlink:href="#SourceSans3-Regular-69" transform="translate(864.999802 0)"/>
       <use xlink:href="#SourceSans3-Regular-6e" transform="translate(889.599792 0)"/>
       <use xlink:href="#SourceSans3-Regular-20" transform="translate(944.299789 0)"/>
       <use xlink:href="#SourceSans3-Regular-70" transform="translate(964.299774 0)"/>
       <use xlink:href="#SourceSans3-Regular-61" transform="translate(1019.799759 0)"/>
       <use xlink:href="#SourceSans3-Regular-72" transform="translate(1070.199753 0)"/>
       <use xlink:href="#SourceSans3-Regular-74" transform="translate(1104.89975 0)"/>
       <use xlink:href="#SourceSans3-Regular-6e" transform="translate(1138.699738 0)"/>
       <use xlink:href="#SourceSans3-Regular-65" transform="translate(1193.399734 0)"/>
       <use xlink:href="#SourceSans3-Regular-72" transform="translate(1242.999725 0)"/>
       <use xlink:href="#SourceSans3-Regular-73" transform="translate(1277.699722 0)"/>
      </g>
     </g>
    </g>
    <g id="ytick_2">
     <g id="line2d_7"/>
     <g id="text_7">
      <!-- No, it is not supported by the organizational policy -->
      <g transform="translate(32.286875 64.966101) scale(0.1 -0.1)">
       <defs>
        <path id="SourceSans3-Regular-4e" d="M 576 0 
L 576 4198 
L 1158 4198 
L 2650 1587 
Q 2771 1376 2883 1145 
Q 2995 915 3098 685 
L 3123 685 
Q 3098 1011 3075 1350 
Q 3053 1690 3053 2016 
L 3053 4198 
L 3565 4198 
L 3565 0 
L 2982 0 
L 1491 2611 
Q 1370 2822 1254 3052 
Q 1139 3283 1037 3514 
L 1011 3514 
Q 1043 3200 1062 2867 
Q 1082 2534 1082 2195 
L 1082 0 
L 576 0 
z
" transform="scale(0.015625)"/>
        <path id="SourceSans3-Regular-75" d="M 1434 -77 
Q 941 -77 710 233 
Q 480 544 480 1139 
L 480 3110 
L 1011 3110 
L 1011 1210 
Q 1011 774 1148 576 
Q 1286 378 1594 378 
Q 1837 378 2025 502 
Q 2214 627 2432 902 
L 2432 3110 
L 2957 3110 
L 2957 0 
L 2522 0 
L 2477 486 
L 2458 486 
Q 2240 230 1997 76 
Q 1754 -77 1434 -77 
z
" transform="scale(0.015625)"/>
        <path id="SourceSans3-Regular-64" d="M 1587 -77 
Q 1005 -77 653 348 
Q 301 774 301 1549 
Q 301 2054 489 2422 
Q 678 2790 988 2988 
Q 1299 3187 1651 3187 
Q 1920 3187 2118 3091 
Q 2317 2995 2522 2829 
L 2496 3360 
L 2496 4557 
L 3027 4557 
L 3027 0 
L 2592 0 
L 2547 365 
L 2528 365 
Q 2349 186 2105 54 
Q 1862 -77 1587 -77 
z
M 1702 365 
Q 2112 365 2496 794 
L 2496 2419 
Q 2298 2598 2115 2672 
Q 1933 2746 1741 2746 
Q 1491 2746 1289 2595 
Q 1088 2445 966 2179 
Q 845 1914 845 1555 
Q 845 998 1069 681 
Q 1293 365 1702 365 
z
" transform="scale(0.015625)"/>
        <path id="SourceSans3-Regular-62" d="M 1901 -77 
Q 1683 -77 1449 28 
Q 1216 134 1011 320 
L 992 320 
L 947 0 
L 525 0 
L 525 4557 
L 1050 4557 
L 1050 3315 
L 1037 2752 
Q 1248 2938 1501 3062 
Q 1754 3187 2010 3187 
Q 2618 3187 2931 2758 
Q 3245 2330 3245 1606 
Q 3245 1075 3056 697 
Q 2867 320 2563 121 
Q 2259 -77 1901 -77 
z
M 1811 365 
Q 2195 365 2448 694 
Q 2701 1024 2701 1600 
Q 2701 2112 2512 2429 
Q 2323 2746 1882 2746 
Q 1683 2746 1478 2637 
Q 1274 2528 1050 2323 
L 1050 691 
Q 1254 512 1456 438 
Q 1658 365 1811 365 
z
" transform="scale(0.015625)"/>
        <path id="SourceSans3-Regular-67" d="M 1574 -1434 
Q 1005 -1434 646 -1216 
Q 288 -998 288 -595 
Q 288 -397 409 -214 
Q 531 -32 742 109 
L 742 134 
Q 627 205 547 333 
Q 467 461 467 640 
Q 467 838 576 985 
Q 685 1133 806 1216 
L 806 1242 
Q 653 1370 528 1587 
Q 403 1805 403 2080 
Q 403 2419 563 2668 
Q 723 2918 992 3052 
Q 1261 3187 1574 3187 
Q 1702 3187 1817 3164 
Q 1933 3142 2016 3110 
L 3098 3110 
L 3098 2707 
L 2451 2707 
L 2451 2682 
Q 2560 2579 2637 2425 
Q 2714 2272 2714 2061 
Q 2714 1734 2560 1491 
Q 2406 1248 2150 1117 
Q 1894 986 1574 986 
Q 1325 986 1107 1094 
Q 1024 1024 966 937 
Q 909 851 909 723 
Q 909 576 1027 480 
Q 1146 384 1459 384 
L 2061 384 
Q 2605 384 2877 208 
Q 3149 32 3149 -358 
Q 3149 -646 2957 -889 
Q 2765 -1133 2413 -1283 
Q 2061 -1434 1574 -1434 
z
M 1574 1338 
Q 1843 1338 2038 1539 
Q 2234 1741 2234 2080 
Q 2234 2419 2042 2611 
Q 1850 2803 1574 2803 
Q 1299 2803 1107 2611 
Q 915 2419 915 2080 
Q 915 1741 1110 1539 
Q 1306 1338 1574 1338 
z
M 1651 -1069 
Q 2099 -1069 2368 -873 
Q 2637 -678 2637 -435 
Q 2637 -218 2473 -134 
Q 2310 -51 2010 -51 
L 1472 -51 
Q 1382 -51 1276 -38 
Q 1171 -26 1069 0 
Q 902 -122 825 -256 
Q 749 -390 749 -525 
Q 749 -774 989 -921 
Q 1229 -1069 1651 -1069 
z
" transform="scale(0.015625)"/>
        <path id="SourceSans3-Regular-7a" d="M 198 0 
L 198 282 
L 1837 2682 
L 378 2682 
L 378 3110 
L 2502 3110 
L 2502 2829 
L 864 429 
L 2554 429 
L 2554 0 
L 198 0 
z
" transform="scale(0.015625)"/>
       </defs>
       <use xlink:href="#SourceSans3-Regular-4e"/>
       <use xlink:href="#SourceSans3-Regular-6f" transform="translate(64.699997 0)"/>
       <use xlink:href="#SourceSans3-Regular-2c" transform="translate(118.899994 0)"/>
       <use xlink:href="#SourceSans3-Regular-20" transform="translate(143.799988 0)"/>
       <use xlink:href="#SourceSans3-Regular-69" transform="translate(163.799973 0)"/>
       <use xlink:href="#SourceSans3-Regular-74" transform="translate(188.399963 0)"/>
       <use xlink:href="#SourceSans3-Regular-20" transform="translate(222.199951 0)"/>
       <use xlink:href="#SourceSans3-Regular-69" transform="translate(242.199936 0)"/>
       <use xlink:href="#SourceSans3-Regular-73" transform="translate(266.799927 0)"/>
       <use xlink:href="#SourceSans3-Regular-20" transform="translate(308.699921 0)"/>
       <use xlink:href="#SourceSans3-Regular-6e" transform="translate(328.699905 0)"/>
       <use xlink:href="#SourceSans3-Regular-6f" transform="translate(383.399902 0)"/>
       <use xlink:href="#SourceSans3-Regular-74" transform="translate(437.599899 0)"/>
       <use xlink:href="#SourceSans3-Regular-20" transform="translate(471.399887 0)"/>
       <use xlink:href="#SourceSans3-Regular-73" transform="translate(491.399872 0)"/>
       <use xlink:href="#SourceSans3-Regular-75" transform="translate(533.299866 0)"/>
       <use xlink:href="#SourceSans3-Regular-70" transform="translate(587.69986 0)"/>
       <use xlink:href="#SourceSans3-Regular-70" transform="translate(643.199844 0)"/>
       <use xlink:href="#SourceSans3-Regular-6f" transform="translate(698.699829 0)"/>
       <use xlink:href="#SourceSans3-Regular-72" transform="translate(752.899826 0)"/>
       <use xlink:href="#SourceSans3-Regular-74" transform="translate(787.599823 0)"/>
       <use xlink:href="#SourceSans3-Regular-65" transform="translate(821.399811 0)"/>
       <use xlink:href="#SourceSans3-Regular-64" transform="translate(870.999802 0)"/>
       <use xlink:href="#SourceSans3-Regular-20" transform="translate(926.499786 0)"/>
       <use xlink:href="#SourceSans3-Regular-62" transform="translate(946.499771 0)"/>
       <use xlink:href="#SourceSans3-Regular-79" transform="translate(1001.799759 0)"/>
       <use xlink:href="#SourceSans3-Regular-20" transform="translate(1048.499756 0)"/>
       <use xlink:href="#SourceSans3-Regular-74" transform="translate(1068.499741 0)"/>
       <use xlink:href="#SourceSans3-Regular-68" transform="translate(1102.299728 0)"/>
       <use xlink:href="#SourceSans3-Regular-65" transform="translate(1156.699722 0)"/>
       <use xlink:href="#SourceSans3-Regular-20" transform="translate(1206.299713 0)"/>
       <use xlink:href="#SourceSans3-Regular-6f" transform="translate(1226.299698 0)"/>
       <use xlink:href="#SourceSans3-Regular-72" transform="translate(1280.499695 0)"/>
       <use xlink:href="#SourceSans3-Regular-67" transform="translate(1315.199692 0)"/>
       <use xlink:href="#SourceSans3-Regular-61" transform="translate(1365.599686 0)"/>
       <use xlink:href="#SourceSans3-Regular-6e" transform="translate(1415.99968 0)"/>
       <use xlink:href="#SourceSans3-Regular-69" transform="translate(1470.699677 0)"/>
       <use xlink:href="#SourceSans3-Regular-7a" transform="translate(1495.299667 0)"/>
       <use xlink:href="#SourceSans3-Regular-61" transform="translate(1537.799652 0)"/>
       <use xlink:href="#SourceSans3-Regular-74" transform="translate(1588.199646 0)"/>
       <use xlink:href="#SourceSans3-Regular-69" transform="translate(1621.999634 0)"/>
       <use xlink:href="#SourceSans3-Regular-6f" transform="translate(1646.599625 0)"/>
       <use xlink:href="#SourceSans3-Regular-6e" transform="translate(1700.799622 0)"/>
       <use xlink:href="#SourceSans3-Regular-61" transform="translate(1755.499619 0)"/>
       <use xlink:href="#SourceSans3-Regular-6c" transform="translate(1805.899612 0)"/>
       <use xlink:href="#SourceSans3-Regular-20" transform="translate(1831.399597 0)"/>
       <use xlink:href="#SourceSans3-Regular-70" transform="translate(1851.399582 0)"/>
       <use xlink:href="#SourceSans3-Regular-6f" transform="translate(1906.899567 0)"/>
       <use xlink:href="#SourceSans3-Regular-6c" transform="translate(1961.099564 0)"/>
       <use xlink:href="#SourceSans3-Regular-69" transform="translate(1986.599548 0)"/>
       <use xlink:href="#SourceSans3-Regular-63" transform="translate(2011.199539 0)"/>
       <use xlink:href="#SourceSans3-Regular-79" transform="translate(2056.79953 0)"/>
      </g>
     </g>
    </g>
    <g id="ytick_3">
     <g id="line2d_8"/>
     <g id="text_8">
      <!-- Yes, only a written request from the requester is needed -->
      <g transform="translate(10.469688 86.429368) scale(0.1 -0.1)">
       <defs>
        <path id="SourceSans3-Regular-77" d="M 1018 0 
L 154 3110 
L 704 3110 
L 1158 1312 
Q 1210 1101 1254 889 
Q 1299 678 1338 429 
L 1363 429 
Q 1414 678 1462 889 
Q 1510 1101 1562 1312 
L 2022 3110 
L 2598 3110 
L 3066 1312 
Q 3123 1101 3174 889 
Q 3226 678 3270 429 
L 3296 429 
Q 3347 678 3392 889 
Q 3437 1101 3482 1312 
L 3936 3110 
L 4448 3110 
L 3610 0 
L 2925 0 
L 2509 1664 
Q 2451 1882 2406 2096 
Q 2362 2310 2310 2586 
L 2285 2586 
Q 2240 2310 2192 2092 
Q 2144 1875 2086 1664 
L 1670 0 
L 1018 0 
z
" transform="scale(0.015625)"/>
        <path id="SourceSans3-Regular-71" d="M 2496 -1312 
L 2496 -205 
L 2522 358 
Q 2336 179 2096 51 
Q 1856 -77 1587 -77 
Q 1005 -77 653 348 
Q 301 774 301 1549 
Q 301 2054 489 2422 
Q 678 2790 988 2988 
Q 1299 3187 1651 3187 
Q 1920 3187 2125 3094 
Q 2330 3002 2541 2816 
L 2554 2816 
L 2605 3110 
L 3027 3110 
L 3027 -1312 
L 2496 -1312 
z
M 1702 365 
Q 2112 365 2496 794 
L 2496 2419 
Q 2298 2598 2115 2672 
Q 1933 2746 1741 2746 
Q 1491 2746 1289 2595 
Q 1088 2445 966 2179 
Q 845 1914 845 1555 
Q 845 998 1069 681 
Q 1293 365 1702 365 
z
" transform="scale(0.015625)"/>
        <path id="SourceSans3-Regular-66" d="M 614 0 
L 614 2682 
L 154 2682 
L 154 3078 
L 614 3110 
L 614 3603 
Q 614 4077 835 4355 
Q 1056 4634 1523 4634 
Q 1670 4634 1804 4605 
Q 1939 4576 2042 4531 
L 1926 4147 
Q 1734 4205 1574 4205 
Q 1139 4205 1139 3603 
L 1139 3110 
L 1798 3110 
L 1798 2682 
L 1139 2682 
L 1139 0 
L 614 0 
z
" transform="scale(0.015625)"/>
        <path id="SourceSans3-Regular-6d" d="M 525 0 
L 525 3110 
L 960 3110 
L 1005 2662 
L 1024 2662 
Q 1229 2886 1472 3036 
Q 1715 3187 1990 3187 
Q 2349 3187 2550 3030 
Q 2752 2874 2848 2592 
Q 3091 2854 3340 3020 
Q 3590 3187 3872 3187 
Q 4352 3187 4585 2876 
Q 4819 2566 4819 1971 
L 4819 0 
L 4294 0 
L 4294 1901 
Q 4294 2336 4153 2534 
Q 4013 2733 3718 2733 
Q 3373 2733 2938 2253 
L 2938 0 
L 2413 0 
L 2413 1901 
Q 2413 2336 2272 2534 
Q 2131 2733 1830 2733 
Q 1485 2733 1050 2253 
L 1050 0 
L 525 0 
z
" transform="scale(0.015625)"/>
       </defs>
       <use xlink:href="#SourceSans3-Regular-59"/>
       <use xlink:href="#SourceSans3-Regular-65" transform="translate(47.599991 0)"/>
       <use xlink:href="#SourceSans3-Regular-73" transform="translate(97.199982 0)"/>
       <use xlink:href="#SourceSans3-Regular-2c" transform="translate(139.099976 0)"/>
       <use xlink:href="#SourceSans3-Regular-20" transform="translate(163.999969 0)"/>
       <use xlink:href="#SourceSans3-Regular-6f" transform="translate(183.999954 0)"/>
       <use xlink:href="#SourceSans3-Regular-6e" transform="translate(238.199951 0)"/>
       <use xlink:href="#SourceSans3-Regular-6c" transform="translate(292.899948 0)"/>
       <use xlink:href="#SourceSans3-Regular-79" transform="translate(318.399933 0)"/>
       <use xlink:href="#SourceSans3-Regular-20" transform="translate(365.09993 0)"/>
       <use xlink:href="#SourceSans3-Regular-61" transform="translate(385.099915 0)"/>
       <use xlink:href="#SourceSans3-Regular-20" transform="translate(435.499908 0)"/>
       <use xlink:href="#SourceSans3-Regular-77" transform="translate(455.499893 0)"/>
       <use xlink:href="#SourceSans3-Regular-72" transform="translate(527.399887 0)"/>
       <use xlink:href="#SourceSans3-Regular-69" transform="translate(562.099884 0)"/>
       <use xlink:href="#SourceSans3-Regular-74" transform="translate(586.699875 0)"/>
       <use xlink:href="#SourceSans3-Regular-74" transform="translate(620.499863 0)"/>
       <use xlink:href="#SourceSans3-Regular-65" transform="translate(654.29985 0)"/>
       <use xlink:href="#SourceSans3-Regular-6e" transform="translate(703.899841 0)"/>
       <use xlink:href="#SourceSans3-Regular-20" transform="translate(758.599838 0)"/>
       <use xlink:href="#SourceSans3-Regular-72" transform="translate(778.599823 0)"/>
       <use xlink:href="#SourceSans3-Regular-65" transform="translate(813.29982 0)"/>
       <use xlink:href="#SourceSans3-Regular-71" transform="translate(862.899811 0)"/>
       <use xlink:href="#SourceSans3-Regular-75" transform="translate(918.399796 0)"/>
       <use xlink:href="#SourceSans3-Regular-65" transform="translate(972.799789 0)"/>
       <use xlink:href="#SourceSans3-Regular-73" transform="translate(1022.39978 0)"/>
       <use xlink:href="#SourceSans3-Regular-74" transform="translate(1064.299774 0)"/>
       <use xlink:href="#SourceSans3-Regular-20" transform="translate(1098.099762 0)"/>
       <use xlink:href="#SourceSans3-Regular-66" transform="translate(1118.099747 0)"/>
       <use xlink:href="#SourceSans3-Regular-72" transform="translate(1147.299744 0)"/>
       <use xlink:href="#SourceSans3-Regular-6f" transform="translate(1181.999741 0)"/>
       <use xlink:href="#SourceSans3-Regular-6d" transform="translate(1236.199738 0)"/>
       <use xlink:href="#SourceSans3-Regular-20" transform="translate(1319.099731 0)"/>
       <use xlink:href="#SourceSans3-Regular-74" transform="translate(1339.099716 0)"/>
       <use xlink:href="#SourceSans3-Regular-68" transform="translate(1372.899704 0)"/>
       <use xlink:href="#SourceSans3-Regular-65" transform="translate(1427.299698 0)"/>
       <use xlink:href="#SourceSans3-Regular-20" transform="translate(1476.899689 0)"/>
       <use xlink:href="#SourceSans3-Regular-72" transform="translate(1496.899673 0)"/>
       <use xlink:href="#SourceSans3-Regular-65" transform="translate(1531.59967 0)"/>
       <use xlink:href="#SourceSans3-Regular-71" transform="translate(1581.199661 0)"/>
       <use xlink:href="#SourceSans3-Regular-75" transform="translate(1636.699646 0)"/>
       <use xlink:href="#SourceSans3-Regular-65" transform="translate(1691.09964 0)"/>
       <use xlink:href="#SourceSans3-Regular-73" transform="translate(1740.699631 0)"/>
       <use xlink:href="#SourceSans3-Regular-74" transform="translate(1782.599625 0)"/>
       <use xlink:href="#SourceSans3-Regular-65" transform="translate(1816.399612 0)"/>
       <use xlink:href="#SourceSans3-Regular-72" transform="translate(1865.999603 0)"/>
       <use xlink:href="#SourceSans3-Regular-20" transform="translate(1900.6996 0)"/>
       <use xlink:href="#SourceSans3-Regular-69" transform="translate(1920.699585 0)"/>
       <use xlink:href="#SourceSans3-Regular-73" transform="translate(1945.299576 0)"/>
       <use xlink:href="#SourceSans3-Regular-20" transform="translate(1987.19957 0)"/>
       <use xlink:href="#SourceSans3-Regular-6e" transform="translate(2007.199554 0)"/>
       <use xlink:href="#SourceSans3-Regular-65" transform="translate(2061.899551 0)"/>
       <use xlink:href="#SourceSans3-Regular-65" transform="translate(2111.499542 0)"/>
       <use xlink:href="#SourceSans3-Regular-64" transform="translate(2161.099533 0)"/>
       <use xlink:href="#SourceSans3-Regular-65" transform="translate(2216.599518 0)"/>
       <use xlink:href="#SourceSans3-Regular-64" transform="translate(2266.199509 0)"/>
      </g>
     </g>
    </g>
    <g id="ytick_4">
     <g id="line2d_9"/>
     <g id="text_9">
      <!-- Yes, subjected to signing a data sharing agreement -->
      <g transform="translate(31.535313 107.772321) scale(0.1 -0.1)">
       <defs>
        <path id="SourceSans3-Regular-6a" d="M 205 -1389 
Q 64 -1389 -54 -1363 
Q -173 -1338 -256 -1299 
L -147 -909 
Q -90 -928 -10 -944 
Q 70 -960 147 -960 
Q 378 -960 454 -797 
Q 531 -634 531 -352 
L 531 3110 
L 1056 3110 
L 1056 -352 
Q 1056 -826 864 -1107 
Q 672 -1389 205 -1389 
z
M 787 3750 
Q 634 3750 534 3843 
Q 435 3936 435 4096 
Q 435 4250 534 4346 
Q 634 4442 787 4442 
Q 941 4442 1040 4346 
Q 1139 4250 1139 4096 
Q 1139 3936 1040 3843 
Q 941 3750 787 3750 
z
" transform="scale(0.015625)"/>
       </defs>
       <use xlink:href="#SourceSans3-Regular-59"/>
       <use xlink:href="#SourceSans3-Regular-65" transform="translate(47.599991 0)"/>
       <use xlink:href="#SourceSans3-Regular-73" transform="translate(97.199982 0)"/>
       <use xlink:href="#SourceSans3-Regular-2c" transform="translate(139.099976 0)"/>
       <use xlink:href="#SourceSans3-Regular-20" transform="translate(163.999969 0)"/>
       <use xlink:href="#SourceSans3-Regular-73" transform="translate(183.999954 0)"/>
       <use xlink:href="#SourceSans3-Regular-75" transform="translate(225.899948 0)"/>
       <use xlink:href="#SourceSans3-Regular-62" transform="translate(280.299942 0)"/>
       <use xlink:href="#SourceSans3-Regular-6a" transform="translate(335.59993 0)"/>
       <use xlink:href="#SourceSans3-Regular-65" transform="translate(360.299927 0)"/>
       <use xlink:href="#SourceSans3-Regular-63" transform="translate(409.899918 0)"/>
       <use xlink:href="#SourceSans3-Regular-74" transform="translate(455.499908 0)"/>
       <use xlink:href="#SourceSans3-Regular-65" transform="translate(489.299896 0)"/>
       <use xlink:href="#SourceSans3-Regular-64" transform="translate(538.899887 0)"/>
       <use xlink:href="#SourceSans3-Regular-20" transform="translate(594.399872 0)"/>
       <use xlink:href="#SourceSans3-Regular-74" transform="translate(614.399857 0)"/>
       <use xlink:href="#SourceSans3-Regular-6f" transform="translate(648.199844 0)"/>
       <use xlink:href="#SourceSans3-Regular-20" transform="translate(702.399841 0)"/>
       <use xlink:href="#SourceSans3-Regular-73" transform="translate(722.399826 0)"/>
       <use xlink:href="#SourceSans3-Regular-69" transform="translate(764.29982 0)"/>
       <use xlink:href="#SourceSans3-Regular-67" transform="translate(788.899811 0)"/>
       <use xlink:href="#SourceSans3-Regular-6e" transform="translate(839.299805 0)"/>
       <use xlink:href="#SourceSans3-Regular-69" transform="translate(893.999802 0)"/>
       <use xlink:href="#SourceSans3-Regular-6e" transform="translate(918.599792 0)"/>
       <use xlink:href="#SourceSans3-Regular-67" transform="translate(973.299789 0)"/>
       <use xlink:href="#SourceSans3-Regular-20" transform="translate(1023.699783 0)"/>
       <use xlink:href="#SourceSans3-Regular-61" transform="translate(1043.699768 0)"/>
       <use xlink:href="#SourceSans3-Regular-20" transform="translate(1094.099762 0)"/>
       <use xlink:href="#SourceSans3-Regular-64" transform="translate(1114.099747 0)"/>
       <use xlink:href="#SourceSans3-Regular-61" transform="translate(1169.599731 0)"/>
       <use xlink:href="#SourceSans3-Regular-74" transform="translate(1219.999725 0)"/>
       <use xlink:href="#SourceSans3-Regular-61" transform="translate(1253.799713 0)"/>
       <use xlink:href="#SourceSans3-Regular-20" transform="translate(1304.199707 0)"/>
       <use xlink:href="#SourceSans3-Regular-73" transform="translate(1324.199692 0)"/>
       <use xlink:href="#SourceSans3-Regular-68" transform="translate(1366.099686 0)"/>
       <use xlink:href="#SourceSans3-Regular-61" transform="translate(1420.49968 0)"/>
       <use xlink:href="#SourceSans3-Regular-72" transform="translate(1470.899673 0)"/>
       <use xlink:href="#SourceSans3-Regular-69" transform="translate(1505.59967 0)"/>
       <use xlink:href="#SourceSans3-Regular-6e" transform="translate(1530.199661 0)"/>
       <use xlink:href="#SourceSans3-Regular-67" transform="translate(1584.899658 0)"/>
       <use xlink:href="#SourceSans3-Regular-20" transform="translate(1635.299652 0)"/>
       <use xlink:href="#SourceSans3-Regular-61" transform="translate(1655.299637 0)"/>
       <use xlink:href="#SourceSans3-Regular-67" transform="translate(1705.699631 0)"/>
       <use xlink:href="#SourceSans3-Regular-72" transform="translate(1756.099625 0)"/>
       <use xlink:href="#SourceSans3-Regular-65" transform="translate(1790.799622 0)"/>
       <use xlink:href="#SourceSans3-Regular-65" transform="translate(1840.399612 0)"/>
       <use xlink:href="#SourceSans3-Regular-6d" transform="translate(1889.999603 0)"/>
       <use xlink:href="#SourceSans3-Regular-65" transform="translate(1972.899597 0)"/>
       <use xlink:href="#SourceSans3-Regular-6e" transform="translate(2022.499588 0)"/>
       <use xlink:href="#SourceSans3-Regular-74" transform="translate(2077.199585 0)"/>
      </g>
     </g>
    </g>
   </g>
   <g id="text_10">
    <!-- 2 (15%) -->
    <g style="fill: #ffffff" transform="translate(358.143175 42.284476) scale(0.09 -0.09)">
     <defs>
      <path id="SourceSans3-Regular-28" d="M 1370 -1126 
Q 973 -480 749 227 
Q 525 934 525 1779 
Q 525 2624 749 3334 
Q 973 4045 1370 4685 
L 1696 4531 
Q 1325 3923 1142 3216 
Q 960 2509 960 1779 
Q 960 1050 1142 342 
Q 1325 -365 1696 -973 
L 1370 -1126 
z
" transform="scale(0.015625)"/>
      <path id="SourceSans3-Regular-35" d="M 1498 -77 
Q 1011 -77 691 96 
Q 371 269 160 480 
L 416 826 
Q 602 646 845 502 
Q 1088 358 1446 358 
Q 1824 358 2083 611 
Q 2342 864 2342 1293 
Q 2342 1715 2105 1952 
Q 1869 2189 1472 2189 
Q 1261 2189 1110 2125 
Q 960 2061 774 1939 
L 493 2118 
L 627 4083 
L 2669 4083 
L 2669 3629 
L 1088 3629 
L 979 2419 
Q 1126 2496 1273 2541 
Q 1421 2586 1606 2586 
Q 1958 2586 2243 2448 
Q 2528 2310 2701 2028 
Q 2874 1747 2874 1306 
Q 2874 864 2678 553 
Q 2483 243 2169 83 
Q 1856 -77 1498 -77 
z
" transform="scale(0.015625)"/>
      <path id="SourceSans3-Regular-29" d="M 570 -1126 
L 243 -973 
Q 614 -365 796 342 
Q 979 1050 979 1779 
Q 979 2509 796 3216 
Q 614 3923 243 4531 
L 570 4685 
Q 966 4045 1190 3334 
Q 1414 2624 1414 1779 
Q 1414 934 1190 227 
Q 966 -480 570 -1126 
z
" transform="scale(0.015625)"/>
     </defs>
     <use xlink:href="#SourceSans3-Regular-32"/>
     <use xlink:href="#SourceSans3-Regular-20" transform="translate(49.699997 0)"/>
     <use xlink:href="#SourceSans3-Regular-28" transform="translate(69.699982 0)"/>
     <use xlink:href="#SourceSans3-Regular-31" transform="translate(99.999969 0)"/>
     <use xlink:href="#SourceSans3-Regular-35" transform="translate(149.699966 0)"/>
     <use xlink:href="#SourceSans3-Regular-25" transform="translate(199.399963 0)"/>
     <use xlink:href="#SourceSans3-Regular-29" transform="translate(281.799957 0)"/>
    </g>
   </g>
   <g id="text_11">
    <!-- 2 (15%) -->
    <g style="fill: #ffffff" transform="translate(358.143175 63.687586) scale(0.09 -0.09)">
     <use xlink:href="#SourceSans3-Regular-32"/>
     <use xlink:href="#SourceSans3-Regular-20" transform="translate(49.699997 0)"/>
     <use xlink:href="#SourceSans3-Regular-28" transform="translate(69.699982 0)"/>
     <use xlink:href="#SourceSans3-Regular-31" transform="translate(99.999969 0)"/>
     <use xlink:href="#SourceSans3-Regular-35" transform="translate(149.699966 0)"/>
     <use xlink:href="#SourceSans3-Regular-25" transform="translate(199.399963 0)"/>
     <use xlink:href="#SourceSans3-Regular-29" transform="translate(281.799957 0)"/>
    </g>
   </g>
   <g id="text_12">
    <!-- 3 (23%) -->
    <g style="fill: #ffffff" transform="translate(431.644762 85.090696) scale(0.09 -0.09)">
     <use xlink:href="#SourceSans3-Regular-33"/>
     <use xlink:href="#SourceSans3-Regular-20" transform="translate(49.699997 0)"/>
     <use xlink:href="#SourceSans3-Regular-28" transform="translate(69.699982 0)"/>
     <use xlink:href="#SourceSans3-Regular-32" transform="translate(99.999969 0)"/>
     <use xlink:href="#SourceSans3-Regular-33" transform="translate(149.699966 0)"/>
     <use xlink:href="#SourceSans3-Regular-25" transform="translate(199.399963 0)"/>
     <use xlink:href="#SourceSans3-Regular-29" transform="translate(281.799957 0)"/>
    </g>
   </g>
   <g id="text_13">
    <!-- 6 (46%) -->
    <g style="fill: #ffffff" transform="translate(652.149524 106.493806) scale(0.09 -0.09)">
     <defs>
      <path id="SourceSans3-Regular-36" d="M 1670 2099 
Q 1472 2099 1241 1971 
Q 1011 1843 819 1562 
Q 870 966 1097 652 
Q 1325 339 1715 339 
Q 2016 339 2221 585 
Q 2426 832 2426 1235 
Q 2426 1632 2237 1865 
Q 2048 2099 1670 2099 
z
M 1715 -77 
Q 1318 -77 998 140 
Q 678 358 492 796 
Q 307 1235 307 1888 
Q 307 2707 528 3206 
Q 749 3706 1104 3933 
Q 1459 4160 1862 4160 
Q 2195 4160 2435 4035 
Q 2675 3910 2848 3725 
L 2554 3398 
Q 2432 3546 2253 3632 
Q 2074 3718 1882 3718 
Q 1594 3718 1357 3555 
Q 1120 3392 969 3011 
Q 819 2630 806 1984 
Q 998 2221 1254 2358 
Q 1510 2496 1760 2496 
Q 2291 2496 2608 2179 
Q 2925 1862 2925 1235 
Q 2925 845 2758 550 
Q 2592 256 2320 89 
Q 2048 -77 1715 -77 
z
" transform="scale(0.015625)"/>
     </defs>
     <use xlink:href="#SourceSans3-Regular-36"/>
     <use xlink:href="#SourceSans3-Regular-20" transform="translate(49.699997 0)"/>
     <use xlink:href="#SourceSans3-Regular-28" transform="translate(69.699982 0)"/>
     <use xlink:href="#SourceSans3-Regular-34" transform="translate(99.999969 0)"/>
     <use xlink:href="#SourceSans3-Regular-36" transform="translate(149.699966 0)"/>
     <use xlink:href="#SourceSans3-Regular-25" transform="translate(199.399963 0)"/>
     <use xlink:href="#SourceSans3-Regular-29" transform="translate(281.799957 0)"/>
    </g>
   </g>
   <g id="text_14">
    <!-- Data accessible for other agencies (n = 13) -->
    <g style="fill: #404040" transform="translate(355.722344 21.375) scale(0.14 -0.14)">
     <defs>
      <path id="SourceSans3-Regular-44" d="M 576 0 
L 576 4198 
L 1626 4198 
Q 2598 4198 3104 3657 
Q 3610 3117 3610 2118 
Q 3610 1114 3107 557 
Q 2605 0 1651 0 
L 576 0 
z
M 1107 435 
L 1587 435 
Q 2323 435 2691 880 
Q 3059 1325 3059 2118 
Q 3059 2912 2691 3337 
Q 2323 3763 1587 3763 
L 1107 3763 
L 1107 435 
z
" transform="scale(0.015625)"/>
      <path id="SourceSans3-Regular-3d" d="M 218 2599 
L 218 2995 
L 2963 2995 
L 2963 2599 
L 218 2599 
z
M 218 1229 
L 218 1625 
L 2963 1625 
L 2963 1229 
L 218 1229 
z
" transform="scale(0.015625)"/>
     </defs>
     <use xlink:href="#SourceSans3-Regular-44"/>
     <use xlink:href="#SourceSans3-Regular-61" transform="translate(61.499985 0)"/>
     <use xlink:href="#SourceSans3-Regular-74" transform="translate(111.899979 0)"/>
     <use xlink:href="#SourceSans3-Regular-61" transform="translate(145.699966 0)"/>
     <use xlink:href="#SourceSans3-Regular-20" transform="translate(196.09996 0)"/>
     <use xlink:href="#SourceSans3-Regular-61" transform="translate(216.099945 0)"/>
     <use xlink:href="#SourceSans3-Regular-63" transform="translate(266.499939 0)"/>
     <use xlink:href="#SourceSans3-Regular-63" transform="translate(312.09993 0)"/>
     <use xlink:href="#SourceSans3-Regular-65" transform="translate(357.699921 0)"/>
     <use xlink:href="#SourceSans3-Regular-73" transform="translate(407.299911 0)"/>
     <use xlink:href="#SourceSans3-Regular-73" transform="translate(449.199905 0)"/>
     <use xlink:href="#SourceSans3-Regular-69" transform="translate(491.099899 0)"/>
     <use xlink:href="#SourceSans3-Regular-62" transform="translate(515.69989 0)"/>
     <use xlink:href="#SourceSans3-Regular-6c" transform="translate(570.999878 0)"/>
     <use xlink:href="#SourceSans3-Regular-65" transform="translate(596.499863 0)"/>
     <use xlink:href="#SourceSans3-Regular-20" transform="translate(646.099854 0)"/>
     <use xlink:href="#SourceSans3-Regular-66" transform="translate(666.099838 0)"/>
     <use xlink:href="#SourceSans3-Regular-6f" transform="translate(695.299835 0)"/>
     <use xlink:href="#SourceSans3-Regular-72" transform="translate(749.499832 0)"/>
     <use xlink:href="#SourceSans3-Regular-20" transform="translate(784.199829 0)"/>
     <use xlink:href="#SourceSans3-Regular-6f" transform="translate(804.199814 0)"/>
     <use xlink:href="#SourceSans3-Regular-74" transform="translate(858.399811 0)"/>
     <use xlink:href="#SourceSans3-Regular-68" transform="translate(892.199799 0)"/>
     <use xlink:href="#SourceSans3-Regular-65" transform="translate(946.599792 0)"/>
     <use xlink:href="#SourceSans3-Regular-72" transform="translate(996.199783 0)"/>
     <use xlink:href="#SourceSans3-Regular-20" transform="translate(1030.89978 0)"/>
     <use xlink:href="#SourceSans3-Regular-61" transform="translate(1050.899765 0)"/>
     <use xlink:href="#SourceSans3-Regular-67" transform="translate(1101.299759 0)"/>
     <use xlink:href="#SourceSans3-Regular-65" transform="translate(1151.699753 0)"/>
     <use xlink:href="#SourceSans3-Regular-6e" transform="translate(1201.299744 0)"/>
     <use xlink:href="#SourceSans3-Regular-63" transform="translate(1255.999741 0)"/>
     <use xlink:href="#SourceSans3-Regular-69" transform="translate(1301.599731 0)"/>
     <use xlink:href="#SourceSans3-Regular-65" transform="translate(1326.199722 0)"/>
     <use xlink:href="#SourceSans3-Regular-73" transform="translate(1375.799713 0)"/>
     <use xlink:href="#SourceSans3-Regular-20" transform="translate(1417.699707 0)"/>
     <use xlink:href="#SourceSans3-Regular-28" transform="translate(1437.699692 0)"/>
     <use xlink:href="#SourceSans3-Regular-6e" transform="translate(1467.99968 0)"/>
     <use xlink:href="#SourceSans3-Regular-20" transform="translate(1522.699677 0)"/>
     <use xlink:href="#SourceSans3-Regular-3d" transform="translate(1542.699661 0)"/>
     <use xlink:href="#SourceSans3-Regular-20" transform="translate(1592.399658 0)"/>
     <use xlink:href="#SourceSans3-Regular-31" transform="translate(1612.399643 0)"/>
     <use xlink:href="#SourceSans3-Regular-33" transform="translate(1662.09964 0)"/>
     <use xlink:href="#SourceSans3-Regular-29" transform="translate(1711.799637 0)"/>
    </g>
   </g>
  </g>
 </g>
 <defs>
  <clipPath id="p8f10f51045">
   <rect x="246.14" y="27.375" width="463.06" height="89.465"/>
  </clipPath>
 </defs>
</svg>
