<?xml version="1.0" encoding="UTF-8" standalone="no"?><!DOCTYPE svg PUBLIC "-//W3C//DTD SVG 1.1//EN" "http://www.w3.org/Graphics/SVG/1.1/DTD/svg11.dtd"><svg width="100%" height="100%" viewBox="0 0 288 288" version="1.1" xmlns="http://www.w3.org/2000/svg" xmlns:xlink="http://www.w3.org/1999/xlink" xml:space="preserve" xmlns:serif="http://www.serif.com/" style="fill-rule:evenodd;clip-rule:evenodd;"><g id="figure_1"><g id="patch_1"><rect x="0" y="0" width="288" height="288" style="fill:none;fill-rule:nonzero;"/></g><g id="axes_1"><g id="patch_2"><path d="M249.055,145.44c-0,-13.323 -2.625,-26.516 -7.723,-38.825c-5.099,-12.309 -12.572,-23.493 -21.993,-32.914c-9.421,-9.421 -20.605,-16.894 -32.914,-21.993c-12.309,-5.098 -25.502,-7.723 -38.825,-7.723c-13.323,0 -26.516,2.625 -38.825,7.723c-12.309,5.099 -23.493,12.572 -32.914,21.993c-9.421,9.421 -16.894,20.605 -21.993,32.914c-5.098,12.309 -7.723,25.502 -7.723,38.825c0,13.323 2.625,26.516 7.723,38.825c5.099,12.309 12.572,23.493 21.993,32.914c9.421,9.421 20.605,16.894 32.914,21.993c12.309,5.098 25.502,7.723 38.825,7.723c13.323,-0 26.516,-2.625 38.825,-7.723c12.309,-5.099 23.493,-12.572 32.914,-21.993c9.421,-9.421 16.894,-20.605 21.993,-32.914c5.098,-12.309 7.723,-25.502 7.723,-38.825m-66.96,0c-0,4.53 -0.893,9.016 -2.626,13.2c-1.734,4.185 -4.275,7.988 -7.478,11.191c-3.203,3.203 -7.006,5.744 -11.191,7.478c-4.184,1.733 -8.67,2.626 -13.2,2.626c-4.53,-0 -9.016,-0.893 -13.2,-2.626c-4.185,-1.734 -7.988,-4.275 -11.191,-7.478c-3.203,-3.203 -5.744,-7.006 -7.478,-11.191c-1.733,-4.184 -2.626,-8.67 -2.626,-13.2c0,-4.53 0.893,-9.016 2.626,-13.2c1.734,-4.185 4.275,-7.988 7.478,-11.191c3.203,-3.203 7.006,-5.744 11.191,-7.478c4.184,-1.733 8.67,-2.626 13.2,-2.626c4.53,0 9.016,0.893 13.2,2.626c4.185,1.734 7.988,4.275 11.191,7.478c3.203,3.203 5.744,7.006 7.478,11.191c1.733,4.184 2.626,8.67 2.626,13.2Z" style="fill:#5cb8b2;fill-rule:nonzero;stroke:#fff;stroke-width:1px;"/></g><g id="text_1"><g><path id="SourceSans3-Bold-59" d="M140.953,142.39l0,-2.784l-2.364,-5.04l1.895,-0l0.696,1.8c0.112,0.296 0.221,0.582 0.324,0.858c0.104,0.277 0.208,0.567 0.312,0.87l0.048,0c0.113,-0.303 0.225,-0.593 0.336,-0.87c0.112,-0.276 0.221,-0.562 0.324,-0.858l0.709,-1.8l1.847,-0l-2.364,5.04l-0,2.784l-1.763,0Z" style="fill:#404040;fill-rule:nonzero;"/><path id="SourceSans3-Bold-65" d="M148.26,137.65c-0.231,0 -0.457,0.078 -0.677,0.234c-0.22,0.157 -0.37,0.439 -0.45,0.846l2.111,0c0,-0.312 -0.076,-0.571 -0.228,-0.774c-0.152,-0.204 -0.404,-0.306 -0.756,-0.306Zm0.169,4.885c-0.569,-0 -1.082,-0.122 -1.538,-0.366c-0.455,-0.245 -0.815,-0.601 -1.08,-1.069c-0.264,-0.467 -0.395,-1.029 -0.395,-1.685c-0,-0.649 0.133,-1.205 0.401,-1.669c0.269,-0.464 0.619,-0.821 1.05,-1.073c0.432,-0.252 0.885,-0.378 1.357,-0.378c0.568,-0 1.04,0.126 1.416,0.378c0.376,0.252 0.656,0.592 0.84,1.02c0.184,0.428 0.276,0.913 0.276,1.457c-0,0.153 -0.009,0.303 -0.025,0.45c-0.015,0.148 -0.03,0.266 -0.047,0.355l-3.551,-0c0.095,0.463 0.291,0.783 0.587,0.96c0.296,0.176 0.612,0.264 0.949,0.264c0.44,-0 0.872,-0.128 1.295,-0.384l0.576,1.08c-0.296,0.207 -0.634,0.369 -1.014,0.485c-0.38,0.116 -0.746,0.174 -1.097,0.174Z" style="fill:#404040;fill-rule:nonzero;"/><path id="SourceSans3-Bold-73" d="M153.732,142.535c-0.392,-0 -0.794,-0.076 -1.206,-0.227c-0.411,-0.153 -0.769,-0.373 -1.074,-0.662l0.744,-0.996c0.272,0.216 0.542,0.366 0.81,0.45c0.269,0.084 0.527,0.126 0.774,0.126c0.264,-0 0.456,-0.046 0.576,-0.137c0.12,-0.093 0.18,-0.215 0.18,-0.368c-0,-0.2 -0.114,-0.351 -0.343,-0.455c-0.228,-0.104 -0.501,-0.216 -0.821,-0.336c-0.28,-0.104 -0.542,-0.235 -0.786,-0.395c-0.244,-0.16 -0.44,-0.354 -0.589,-0.582c-0.147,-0.228 -0.221,-0.495 -0.221,-0.798c-0,-0.553 0.21,-1.001 0.63,-1.345c0.42,-0.344 0.97,-0.515 1.65,-0.515c0.432,-0 0.829,0.07 1.189,0.21c0.36,0.14 0.663,0.321 0.911,0.545l-0.756,0.985c-0.216,-0.16 -0.432,-0.272 -0.648,-0.336c-0.215,-0.065 -0.427,-0.098 -0.636,-0.098c-0.231,0 -0.403,0.045 -0.516,0.134c-0.112,0.087 -0.168,0.199 -0.168,0.335c-0,0.176 0.09,0.313 0.27,0.409c0.18,0.095 0.458,0.202 0.834,0.322c0.456,0.153 0.844,0.369 1.164,0.649c0.32,0.28 0.48,0.668 0.48,1.165c0,0.536 -0.208,0.99 -0.624,1.363c-0.416,0.371 -1.024,0.557 -1.824,0.557Z" style="fill:#404040;fill-rule:nonzero;"/></g><g><path id="SourceSans3-Bold-31" d="M133.794,154.692l0,-1.428l1.656,-0l-0,-4.403l-1.427,0l0,-1.093c0.415,-0.08 0.766,-0.176 1.054,-0.287c0.289,-0.112 0.569,-0.249 0.842,-0.409l1.295,0l0,6.192l1.429,-0l0,1.428l-4.849,0Z" style="fill:#404040;fill-rule:nonzero;"/><path id="SourceSans3-Bold-30" d="M142.459,154.837c-0.816,-0 -1.474,-0.34 -1.974,-1.02c-0.5,-0.68 -0.75,-1.668 -0.75,-2.965c-0,-1.296 0.25,-2.274 0.75,-2.934c0.5,-0.66 1.158,-0.99 1.974,-0.99c0.815,0 1.473,0.33 1.973,0.99c0.5,0.66 0.75,1.638 0.75,2.934c-0,1.297 -0.25,2.285 -0.75,2.965c-0.5,0.68 -1.158,1.02 -1.973,1.02Zm0,-1.369c0.2,0 0.38,-0.074 0.54,-0.221c0.16,-0.149 0.286,-0.411 0.377,-0.786c0.092,-0.376 0.139,-0.912 0.139,-1.609c-0,-0.696 -0.047,-1.228 -0.139,-1.595c-0.091,-0.369 -0.217,-0.621 -0.377,-0.756c-0.16,-0.136 -0.34,-0.204 -0.54,-0.204c-0.192,-0 -0.369,0.068 -0.529,0.204c-0.16,0.135 -0.288,0.387 -0.384,0.756c-0.096,0.367 -0.144,0.899 -0.144,1.595c-0,0.697 0.048,1.233 0.144,1.609c0.096,0.375 0.224,0.637 0.384,0.786c0.16,0.147 0.337,0.221 0.529,0.221Z" style="fill:#404040;fill-rule:nonzero;"/><path id="SourceSans3-Bold-301" serif:id="SourceSans3-Bold-30" d="M148.795,154.837c-0.816,-0 -1.474,-0.34 -1.974,-1.02c-0.5,-0.68 -0.75,-1.668 -0.75,-2.965c-0,-1.296 0.25,-2.274 0.75,-2.934c0.5,-0.66 1.158,-0.99 1.974,-0.99c0.815,0 1.473,0.33 1.973,0.99c0.5,0.66 0.75,1.638 0.75,2.934c-0,1.297 -0.25,2.285 -0.75,2.965c-0.5,0.68 -1.158,1.02 -1.973,1.02Zm0,-1.369c0.2,0 0.38,-0.074 0.54,-0.221c0.16,-0.149 0.286,-0.411 0.377,-0.786c0.092,-0.376 0.139,-0.912 0.139,-1.609c-0,-0.696 -0.047,-1.228 -0.139,-1.595c-0.091,-0.369 -0.217,-0.621 -0.377,-0.756c-0.16,-0.136 -0.34,-0.204 -0.54,-0.204c-0.192,-0 -0.369,0.068 -0.529,0.204c-0.16,0.135 -0.288,0.387 -0.384,0.756c-0.096,0.367 -0.144,0.899 -0.144,1.595c-0,0.697 0.048,1.233 0.144,1.609c0.096,0.375 0.224,0.637 0.384,0.786c0.16,0.147 0.337,0.221 0.529,0.221Z" style="fill:#404040;fill-rule:nonzero;"/><path id="SourceSans3-Bold-25" d="M154.218,151.692c-0.56,0 -1.024,-0.22 -1.393,-0.66c-0.368,-0.44 -0.551,-1.052 -0.551,-1.835c-0,-0.785 0.183,-1.393 0.551,-1.825c0.369,-0.432 0.833,-0.648 1.393,-0.648c0.569,-0 1.037,0.216 1.404,0.648c0.368,0.432 0.552,1.04 0.552,1.825c-0,0.784 -0.184,1.395 -0.552,1.835c-0.367,0.44 -0.835,0.66 -1.404,0.66Zm-0,-0.984c0.2,0 0.37,-0.112 0.51,-0.336c0.14,-0.223 0.21,-0.615 0.21,-1.175c-0,-0.56 -0.07,-0.948 -0.21,-1.165c-0.14,-0.216 -0.31,-0.324 -0.51,-0.324c-0.2,0 -0.37,0.108 -0.51,0.324c-0.14,0.217 -0.21,0.605 -0.21,1.165c-0,0.56 0.07,0.952 0.21,1.175c0.14,0.224 0.31,0.336 0.51,0.336Zm0.264,4.129l4.225,-8.113l1.02,-0l-4.225,8.113l-1.02,-0Zm5.509,-0c-0.56,-0 -1.024,-0.22 -1.393,-0.66c-0.368,-0.44 -0.551,-1.052 -0.551,-1.836c-0,-0.785 0.183,-1.393 0.551,-1.824c0.369,-0.433 0.833,-0.649 1.393,-0.649c0.568,0 1.035,0.216 1.403,0.649c0.368,0.431 0.553,1.039 0.553,1.824c-0,0.784 -0.185,1.396 -0.553,1.836c-0.368,0.44 -0.835,0.66 -1.403,0.66Zm0,-0.985c0.2,0 0.37,-0.111 0.51,-0.335c0.14,-0.224 0.21,-0.616 0.21,-1.176c0,-0.56 -0.07,-0.948 -0.21,-1.164c-0.14,-0.216 -0.31,-0.325 -0.51,-0.325c-0.2,0 -0.37,0.108 -0.51,0.325c-0.14,0.216 -0.21,0.604 -0.21,1.164c0,0.56 0.07,0.952 0.21,1.176c0.14,0.224 0.31,0.335 0.51,0.335Z" style="fill:#404040;fill-rule:nonzero;"/></g></g><g id="text_2"></g><text x="58.677px" y="26.625px" style="font-family:'ArialMT', 'Arial', sans-serif;font-size:12px;">Activities include direct assistance</text><g id="legend_1"><g id="patch_3"><rect x="208.291" y="43.68" width="20" height="7" style="fill:#5cb8b2;fill-rule:nonzero;stroke:#fff;stroke-width:1px;"/></g><g id="text_3"><g><path id="SourceSans3-Regular-59" d="M238.25,50.68l0,-2.54l-1.969,-4.019l0.889,-0l0.85,1.85c0.108,0.24 0.213,0.476 0.316,0.709c0.103,0.234 0.208,0.474 0.314,0.721l0.041,-0c0.113,-0.247 0.226,-0.487 0.339,-0.721c0.113,-0.233 0.22,-0.469 0.32,-0.709l0.841,-1.85l0.87,-0l-1.97,4.019l-0,2.54l-0.841,0Z" style="fill:#404040;fill-rule:nonzero;"/><path id="SourceSans3-Regular-65" d="M243.71,46.371c-0.2,-0 -0.395,0.048 -0.584,0.145c-0.19,0.096 -0.354,0.251 -0.491,0.464c-0.136,0.214 -0.228,0.494 -0.275,0.841l2.531,-0c0,-0.474 -0.103,-0.834 -0.311,-1.08c-0.206,-0.247 -0.496,-0.37 -0.87,-0.37Zm0.131,4.43c-0.433,-0 -0.828,-0.1 -1.186,-0.3c-0.356,-0.2 -0.638,-0.492 -0.845,-0.875c-0.206,-0.384 -0.309,-0.842 -0.309,-1.375c-0,-0.527 0.104,-0.981 0.314,-1.36c0.21,-0.38 0.484,-0.673 0.82,-0.879c0.337,-0.208 0.693,-0.311 1.066,-0.311c0.627,-0 1.105,0.206 1.434,0.62c0.33,0.412 0.495,0.966 0.495,1.659c0,0.087 -0.003,0.17 -0.011,0.25c-0.006,0.081 -0.015,0.161 -0.028,0.241l-3.25,-0c0.04,0.546 0.214,0.959 0.524,1.239c0.31,0.28 0.669,0.42 1.076,0.42c0.234,0 0.452,-0.033 0.655,-0.1c0.203,-0.066 0.388,-0.156 0.555,-0.27l0.3,0.541c-0.214,0.147 -0.452,0.267 -0.716,0.361c-0.263,0.092 -0.56,0.139 -0.894,0.139Z" style="fill:#404040;fill-rule:nonzero;"/><path id="SourceSans3-Regular-73" d="M248.101,50.801c-0.354,-0 -0.688,-0.062 -1.001,-0.185c-0.313,-0.124 -0.583,-0.296 -0.81,-0.515l0.38,-0.48c0.214,0.173 0.435,0.306 0.666,0.4c0.23,0.093 0.495,0.139 0.795,0.139c0.32,0 0.559,-0.075 0.719,-0.225c0.16,-0.15 0.24,-0.328 0.24,-0.534c0,-0.167 -0.053,-0.305 -0.161,-0.414c-0.106,-0.111 -0.242,-0.205 -0.409,-0.282c-0.167,-0.077 -0.343,-0.149 -0.53,-0.215c-0.239,-0.087 -0.469,-0.188 -0.69,-0.305c-0.22,-0.117 -0.398,-0.263 -0.535,-0.439c-0.136,-0.177 -0.204,-0.399 -0.204,-0.666c-0,-0.393 0.148,-0.722 0.445,-0.984c0.297,-0.264 0.708,-0.395 1.234,-0.395c0.3,-0 0.58,0.051 0.839,0.154c0.261,0.103 0.485,0.235 0.672,0.396l-0.381,0.47c-0.167,-0.121 -0.342,-0.215 -0.525,-0.281c-0.183,-0.067 -0.385,-0.1 -0.605,-0.1c-0.306,-0 -0.531,0.07 -0.675,0.211c-0.142,0.139 -0.214,0.302 -0.214,0.489c0,0.221 0.097,0.388 0.289,0.501c0.194,0.113 0.441,0.223 0.741,0.33c0.253,0.086 0.495,0.19 0.725,0.309c0.23,0.12 0.417,0.272 0.559,0.455c0.144,0.183 0.216,0.422 0.216,0.716c-0,0.259 -0.069,0.499 -0.206,0.72c-0.137,0.22 -0.337,0.396 -0.6,0.53c-0.263,0.133 -0.587,0.2 -0.974,0.2Z" style="fill:#404040;fill-rule:nonzero;"/></g></g></g></g></g></svg>