<?xml version="1.0" encoding="UTF-8" standalone="no"?><!DOCTYPE svg PUBLIC "-//W3C//DTD SVG 1.1//EN" "http://www.w3.org/Graphics/SVG/1.1/DTD/svg11.dtd"><svg width="100%" height="100%" viewBox="0 0 288 288" version="1.1" xmlns="http://www.w3.org/2000/svg" xmlns:xlink="http://www.w3.org/1999/xlink" xml:space="preserve" xmlns:serif="http://www.serif.com/" style="fill-rule:evenodd;clip-rule:evenodd;"><g id="figure_1"><g id="patch_1"><rect x="0" y="0" width="288" height="288" style="fill:none;fill-rule:nonzero;"/></g><g id="axes_1"><g id="patch_2"><path d="M120.831,243.299c13.846,3.788 28.34,4.594 42.521,2.365c14.181,-2.228 27.728,-7.442 39.745,-15.294c12.017,-7.853 22.232,-18.167 29.967,-30.259c7.736,-12.093 12.817,-25.691 14.908,-39.892c2.092,-14.202 1.145,-28.688 -2.777,-42.497c-3.922,-13.809 -10.73,-26.629 -19.974,-37.612c-9.244,-10.983 -20.714,-19.88 -33.651,-26.101c-12.936,-6.222 -27.047,-9.627 -41.398,-9.991l-1.697,66.938c4.879,0.124 9.676,1.282 14.075,3.397c4.398,2.116 8.298,5.141 11.441,8.875c3.143,3.734 5.458,8.093 6.791,12.788c1.334,4.695 1.656,9.62 0.945,14.449c-0.711,4.828 -2.439,9.452 -5.069,13.563c-2.63,4.111 -6.103,7.618 -10.189,10.288c-4.086,2.67 -8.692,4.442 -13.513,5.2c-4.822,0.758 -9.75,0.484 -14.458,-0.804l-17.667,64.587Z" style="fill:#e5e4e2;fill-rule:nonzero;stroke:#fff;stroke-width:1px;"/></g><g id="patch_3"><path d="M150.172,44.018c-20.579,-0.522 -40.837,5.232 -58.069,16.492c-17.233,11.261 -30.637,27.504 -38.422,46.56c-7.786,19.057 -9.59,40.039 -5.172,60.144c4.419,20.106 14.853,38.399 29.91,52.436l45.66,-48.979c-5.12,-4.772 -8.668,-10.992 -10.17,-17.828c-1.502,-6.836 -0.889,-13.97 1.758,-20.449c2.647,-6.479 7.205,-12.002 13.064,-15.83c5.859,-3.829 12.747,-5.785 19.744,-5.608l1.697,-66.938Z" style="fill:#5cb8b2;fill-rule:nonzero;stroke:#fff;stroke-width:1px;"/></g><g id="patch_4"><path d="M78.419,219.65c5.985,5.579 12.624,10.414 19.77,14.399c7.147,3.985 14.749,7.091 22.642,9.25l17.667,-64.587c-2.683,-0.734 -5.268,-1.79 -7.698,-3.145c-2.43,-1.355 -4.687,-2.999 -6.721,-4.896l-45.66,48.979Z" style="fill:#e9f4f3;fill-rule:nonzero;stroke:#fff;stroke-width:1px;"/></g><g id="text_1"><g><path id="SourceSans3-Bold-59" d="M140.953,142.39l0,-2.784l-2.364,-5.04l1.895,-0l0.696,1.8c0.113,0.296 0.221,0.582 0.324,0.859c0.104,0.276 0.208,0.566 0.312,0.87l0.048,-0c0.113,-0.304 0.225,-0.594 0.336,-0.87c0.113,-0.277 0.221,-0.563 0.324,-0.859l0.709,-1.8l1.847,-0l-2.364,5.04l-0,2.784l-1.763,0Z" style="fill:#404040;fill-rule:nonzero;"/><path id="SourceSans3-Bold-65" d="M148.26,137.65c-0.231,0 -0.457,0.078 -0.677,0.235c-0.22,0.156 -0.37,0.438 -0.45,0.845l2.111,0c0,-0.312 -0.076,-0.57 -0.228,-0.774c-0.152,-0.204 -0.403,-0.306 -0.756,-0.306Zm0.169,4.885c-0.569,-0 -1.081,-0.122 -1.538,-0.366c-0.455,-0.245 -0.815,-0.601 -1.08,-1.069c-0.263,-0.467 -0.395,-1.029 -0.395,-1.685c-0,-0.649 0.133,-1.205 0.401,-1.669c0.269,-0.464 0.619,-0.821 1.05,-1.073c0.432,-0.252 0.885,-0.378 1.357,-0.378c0.568,-0 1.04,0.126 1.416,0.378c0.376,0.252 0.656,0.592 0.84,1.02c0.184,0.428 0.276,0.913 0.276,1.457c-0,0.153 -0.008,0.303 -0.025,0.45c-0.015,0.148 -0.03,0.266 -0.047,0.355l-3.551,-0c0.095,0.463 0.291,0.783 0.587,0.96c0.296,0.176 0.613,0.264 0.949,0.264c0.44,-0 0.872,-0.128 1.295,-0.384l0.576,1.08c-0.296,0.207 -0.634,0.369 -1.014,0.485c-0.38,0.116 -0.746,0.175 -1.097,0.175Z" style="fill:#404040;fill-rule:nonzero;"/><path id="SourceSans3-Bold-73" d="M153.732,142.535c-0.392,-0 -0.793,-0.076 -1.206,-0.227c-0.411,-0.153 -0.769,-0.373 -1.074,-0.662l0.744,-0.996c0.273,0.216 0.543,0.366 0.81,0.45c0.269,0.084 0.527,0.126 0.774,0.126c0.264,-0 0.456,-0.046 0.576,-0.137c0.12,-0.093 0.18,-0.215 0.18,-0.368c0,-0.2 -0.114,-0.351 -0.343,-0.455c-0.228,-0.104 -0.501,-0.216 -0.821,-0.336c-0.28,-0.104 -0.542,-0.235 -0.786,-0.395c-0.244,-0.16 -0.44,-0.354 -0.589,-0.582c-0.147,-0.228 -0.221,-0.495 -0.221,-0.798c0,-0.553 0.21,-1.001 0.63,-1.345c0.42,-0.344 0.97,-0.515 1.65,-0.515c0.433,-0 0.829,0.07 1.189,0.21c0.36,0.14 0.664,0.321 0.911,0.545l-0.756,0.985c-0.216,-0.16 -0.432,-0.272 -0.648,-0.336c-0.215,-0.065 -0.427,-0.098 -0.636,-0.098c-0.231,0 -0.403,0.045 -0.516,0.134c-0.112,0.087 -0.168,0.199 -0.168,0.335c-0,0.176 0.09,0.313 0.27,0.409c0.18,0.095 0.458,0.202 0.834,0.322c0.456,0.153 0.844,0.369 1.164,0.649c0.32,0.28 0.48,0.668 0.48,1.165c0,0.536 -0.208,0.99 -0.624,1.363c-0.416,0.371 -1.024,0.557 -1.824,0.557Z" style="fill:#404040;fill-rule:nonzero;"/></g><g><path id="SourceSans3-Bold-33" d="M139.038,154.837c-0.616,-0 -1.143,-0.1 -1.579,-0.3c-0.435,-0.2 -0.792,-0.46 -1.072,-0.78l0.815,-1.116c0.233,0.224 0.489,0.408 0.769,0.551c0.28,0.144 0.58,0.216 0.9,0.216c0.375,0 0.674,-0.077 0.898,-0.232c0.225,-0.157 0.338,-0.379 0.338,-0.668c-0,-0.224 -0.057,-0.417 -0.169,-0.581c-0.111,-0.164 -0.315,-0.29 -0.611,-0.377c-0.297,-0.089 -0.721,-0.133 -1.274,-0.133l0,-1.249c0.689,0 1.161,-0.094 1.416,-0.281c0.256,-0.189 0.384,-0.435 0.384,-0.739c0,-0.264 -0.08,-0.469 -0.24,-0.617c-0.16,-0.149 -0.391,-0.223 -0.695,-0.223c-0.271,0 -0.517,0.06 -0.737,0.18c-0.22,0.12 -0.45,0.284 -0.69,0.493l-0.889,-1.08c0.353,-0.305 0.725,-0.543 1.116,-0.714c0.392,-0.173 0.82,-0.259 1.284,-0.259c0.784,0 1.418,0.183 1.901,0.548c0.485,0.363 0.728,0.877 0.728,1.541c-0,0.391 -0.11,0.727 -0.33,1.007c-0.22,0.28 -0.534,0.508 -0.943,0.684l-0,0.049c0.44,0.127 0.802,0.345 1.085,0.654c0.285,0.308 0.428,0.71 0.428,1.206c-0,0.471 -0.13,0.873 -0.39,1.205c-0.26,0.333 -0.604,0.585 -1.033,0.758c-0.428,0.171 -0.898,0.257 -1.41,0.257Z" style="fill:#404040;fill-rule:nonzero;"/><path id="SourceSans3-Bold-38" d="M145.614,154.837c-0.504,-0 -0.956,-0.088 -1.356,-0.265c-0.4,-0.176 -0.716,-0.421 -0.949,-0.736c-0.231,-0.317 -0.346,-0.679 -0.346,-1.088c-0,-0.464 0.125,-0.844 0.376,-1.14c0.253,-0.296 0.559,-0.54 0.919,-0.731l0,-0.049c-0.296,-0.224 -0.54,-0.479 -0.733,-0.767c-0.191,-0.289 -0.287,-0.633 -0.287,-1.033c0,-0.431 0.104,-0.805 0.311,-1.121c0.209,-0.316 0.497,-0.558 0.865,-0.726c0.369,-0.169 0.789,-0.253 1.26,-0.253c0.696,0 1.256,0.19 1.68,0.57c0.424,0.38 0.635,0.886 0.635,1.519c0,0.367 -0.1,0.694 -0.3,0.979c-0.2,0.283 -0.431,0.513 -0.695,0.688l-0,0.048c0.369,0.2 0.68,0.457 0.935,0.769c0.257,0.311 0.385,0.719 0.385,1.223c-0,0.4 -0.112,0.76 -0.336,1.08c-0.224,0.32 -0.538,0.572 -0.943,0.757c-0.404,0.184 -0.877,0.276 -1.421,0.276Zm0.48,-4.585c0.312,-0.36 0.469,-0.731 0.469,-1.115c-0,-0.296 -0.083,-0.535 -0.248,-0.715c-0.164,-0.18 -0.389,-0.27 -0.677,-0.27c-0.232,0 -0.432,0.072 -0.6,0.216c-0.167,0.144 -0.251,0.364 -0.251,0.66c-0,0.313 0.12,0.557 0.36,0.733c0.24,0.175 0.556,0.339 0.947,0.491Zm-0.445,3.36c0.297,0 0.54,-0.078 0.732,-0.234c0.192,-0.156 0.288,-0.394 0.288,-0.714c0,-0.224 -0.068,-0.41 -0.204,-0.557c-0.135,-0.149 -0.322,-0.281 -0.562,-0.396c-0.24,-0.116 -0.52,-0.242 -0.84,-0.379c-0.169,0.153 -0.31,0.335 -0.422,0.548c-0.112,0.211 -0.167,0.432 -0.167,0.664c-0,0.336 0.115,0.598 0.347,0.787c0.232,0.188 0.508,0.281 0.828,0.281Z" style="fill:#404040;fill-rule:nonzero;"/><path id="SourceSans3-Bold-25" d="M151.05,151.692c-0.56,0 -1.025,-0.22 -1.393,-0.66c-0.368,-0.44 -0.552,-1.051 -0.552,-1.835c0,-0.785 0.184,-1.393 0.552,-1.825c0.368,-0.432 0.833,-0.648 1.393,-0.648c0.569,-0 1.037,0.216 1.404,0.648c0.368,0.432 0.551,1.04 0.551,1.825c0,0.784 -0.183,1.395 -0.551,1.835c-0.367,0.44 -0.835,0.66 -1.404,0.66Zm-0,-0.984c0.2,0 0.37,-0.112 0.51,-0.336c0.14,-0.223 0.21,-0.615 0.21,-1.175c-0,-0.56 -0.07,-0.948 -0.21,-1.165c-0.14,-0.216 -0.31,-0.324 -0.51,-0.324c-0.2,0 -0.37,0.108 -0.51,0.324c-0.14,0.217 -0.21,0.605 -0.21,1.165c-0,0.56 0.07,0.952 0.21,1.175c0.14,0.224 0.31,0.336 0.51,0.336Zm0.264,4.129l4.225,-8.113l1.02,-0l-4.225,8.113l-1.02,-0Zm5.509,-0c-0.56,-0 -1.024,-0.22 -1.393,-0.66c-0.368,-0.44 -0.551,-1.052 -0.551,-1.836c-0,-0.785 0.183,-1.393 0.551,-1.824c0.369,-0.433 0.833,-0.649 1.393,-0.649c0.567,0 1.035,0.216 1.402,0.649c0.369,0.431 0.554,1.039 0.554,1.824c-0,0.784 -0.185,1.396 -0.554,1.836c-0.367,0.44 -0.835,0.66 -1.402,0.66Zm-0,-0.985c0.2,0 0.37,-0.111 0.51,-0.335c0.14,-0.224 0.21,-0.616 0.21,-1.176c-0,-0.56 -0.07,-0.948 -0.21,-1.164c-0.14,-0.216 -0.31,-0.325 -0.51,-0.325c-0.2,0 -0.37,0.109 -0.51,0.325c-0.14,0.216 -0.21,0.604 -0.21,1.164c-0,0.56 0.07,0.952 0.21,1.176c0.14,0.224 0.31,0.335 0.51,0.335Z" style="fill:#404040;fill-rule:nonzero;"/></g></g><g id="text_2"><g><path id="SourceSans3-Regular-46" d="M38.751,28.56l-0,-7.871l4.535,-0l0,0.84l-3.54,-0l0,2.662l3,0l0,0.84l-3,0l0,3.529l-0.995,0Z" style="fill:#404040;fill-rule:nonzero;"/><path id="SourceSans3-Regular-6f" d="M46.85,28.704c-0.471,0 -0.913,-0.12 -1.326,-0.36c-0.411,-0.24 -0.743,-0.588 -0.995,-1.044c-0.253,-0.456 -0.379,-1.004 -0.379,-1.644c-0,-0.657 0.126,-1.212 0.379,-1.667c0.252,-0.456 0.584,-0.805 0.995,-1.045c0.413,-0.24 0.855,-0.36 1.326,-0.36c0.48,0 0.924,0.12 1.331,0.36c0.409,0.24 0.739,0.589 0.99,1.045c0.253,0.455 0.379,1.01 0.379,1.667c-0,0.64 -0.126,1.188 -0.379,1.644c-0.251,0.456 -0.581,0.804 -0.99,1.044c-0.407,0.24 -0.851,0.36 -1.331,0.36Zm-0,-0.815c0.505,-0 0.911,-0.206 1.219,-0.619c0.307,-0.412 0.461,-0.951 0.461,-1.614c-0,-0.672 -0.154,-1.215 -0.461,-1.632c-0.308,-0.416 -0.714,-0.624 -1.219,-0.624c-0.495,0 -0.899,0.208 -1.211,0.624c-0.313,0.417 -0.469,0.96 -0.469,1.632c-0,0.663 0.156,1.202 0.469,1.614c0.312,0.413 0.716,0.619 1.211,0.619Z" style="fill:#404040;fill-rule:nonzero;"/><path id="SourceSans3-Regular-72" d="M51.087,28.56l-0,-5.831l0.816,-0l0.084,1.055l0.036,0c0.192,-0.368 0.432,-0.66 0.72,-0.875c0.287,-0.217 0.599,-0.325 0.935,-0.325c0.233,0 0.441,0.04 0.625,0.12l-0.216,0.84c-0.089,-0.023 -0.171,-0.042 -0.248,-0.054c-0.075,-0.013 -0.172,-0.019 -0.292,-0.019c-0.249,0 -0.507,0.1 -0.774,0.3c-0.268,0.2 -0.502,0.548 -0.702,1.045l0,3.744l-0.984,-0Z" style="fill:#404040;fill-rule:nonzero;"/><path id="SourceSans3-Regular-6d" d="M55.251,28.56l-0,-5.831l0.816,-0l0.084,0.84l0.036,-0c0.256,-0.28 0.536,-0.514 0.84,-0.702c0.303,-0.188 0.627,-0.283 0.971,-0.283c0.449,0 0.799,0.098 1.05,0.295c0.252,0.195 0.439,0.468 0.559,0.821c0.303,-0.328 0.611,-0.595 0.922,-0.803c0.313,-0.208 0.645,-0.313 0.998,-0.313c0.6,0 1.045,0.195 1.336,0.583c0.293,0.388 0.439,0.954 0.439,1.697l0,3.696l-0.984,-0l-0,-3.564c-0,-0.544 -0.088,-0.94 -0.265,-1.187c-0.175,-0.249 -0.446,-0.373 -0.815,-0.373c-0.431,-0 -0.919,0.3 -1.463,0.9l0,4.224l-0.984,0l-0,-3.564c-0,-0.544 -0.088,-0.94 -0.264,-1.187c-0.177,-0.249 -0.453,-0.373 -0.829,-0.373c-0.431,-0 -0.919,0.3 -1.463,0.9l0,4.224l-0.984,0Z" style="fill:#404040;fill-rule:nonzero;"/><path id="SourceSans3-Regular-61" d="M66.543,28.704c-0.488,0 -0.897,-0.143 -1.226,-0.431c-0.327,-0.289 -0.491,-0.697 -0.491,-1.224c-0,-0.657 0.288,-1.153 0.864,-1.489c0.576,-0.336 1.488,-0.573 2.736,-0.709c-0,-0.247 -0.036,-0.479 -0.109,-0.695c-0.071,-0.217 -0.193,-0.395 -0.366,-0.535c-0.171,-0.14 -0.416,-0.21 -0.736,-0.21c-0.337,0 -0.653,0.065 -0.949,0.193c-0.295,0.128 -0.559,0.264 -0.791,0.407l-0.385,-0.671c0.273,-0.184 0.606,-0.356 1.001,-0.516c0.397,-0.16 0.827,-0.24 1.292,-0.24c0.712,0 1.227,0.218 1.547,0.655c0.32,0.435 0.48,1.017 0.48,1.745l0,3.576l-0.815,-0l-0.085,-0.696l-0.035,0c-0.288,0.232 -0.59,0.43 -0.906,0.595c-0.316,0.163 -0.658,0.245 -1.026,0.245Zm0.276,-0.815c0.28,-0 0.547,-0.064 0.802,-0.192c0.257,-0.128 0.525,-0.317 0.805,-0.566l-0,-1.571c-0.655,0.073 -1.175,0.172 -1.56,0.3c-0.384,0.127 -0.658,0.284 -0.821,0.469c-0.164,0.183 -0.246,0.403 -0.246,0.66c-0,0.32 0.1,0.55 0.3,0.69c0.2,0.14 0.44,0.21 0.72,0.21Z" style="fill:#404040;fill-rule:nonzero;"/><path id="SourceSans3-Regular-6c" d="M72.291,28.669c-0.368,-0 -0.635,-0.114 -0.798,-0.342c-0.164,-0.228 -0.246,-0.551 -0.246,-0.967l-0,-7.344l0.984,-0l0,7.415c0,0.153 0.028,0.261 0.083,0.325c0.056,0.063 0.124,0.095 0.204,0.095c0.033,0 0.063,-0.002 0.09,-0.005c0.029,-0.004 0.067,-0.01 0.115,-0.017l0.131,0.742c-0.144,0.065 -0.331,0.098 -0.563,0.098Z" style="fill:#404040;fill-rule:nonzero;"/><path id="SourceSans3-Regular-69" d="M74.307,28.56l-0,-5.831l0.984,-0l0,5.831l-0.984,-0Zm0.491,-7.031c-0.191,-0 -0.349,-0.058 -0.474,-0.175c-0.124,-0.116 -0.186,-0.274 -0.186,-0.474c0,-0.193 0.062,-0.349 0.186,-0.469c0.125,-0.12 0.283,-0.18 0.474,-0.18c0.193,0 0.351,0.06 0.475,0.18c0.123,0.12 0.185,0.276 0.185,0.469c0,0.2 -0.062,0.358 -0.185,0.474c-0.124,0.117 -0.282,0.175 -0.475,0.175Z" style="fill:#404040;fill-rule:nonzero;"/><path id="SourceSans3-Regular-7a" d="M76.646,28.56l-0,-0.529l3.073,-4.5l-2.736,0l0,-0.802l3.983,-0l-0,0.527l-3.071,4.5l3.168,-0l0,0.804l-4.417,-0Z" style="fill:#404040;fill-rule:nonzero;"/><path id="SourceSans3-Regular-65" d="M84.566,23.389c-0.24,-0 -0.474,0.058 -0.701,0.174c-0.228,0.115 -0.424,0.301 -0.589,0.557c-0.164,0.256 -0.274,0.593 -0.33,1.009l3.037,-0c0,-0.569 -0.124,-1.001 -0.373,-1.296c-0.247,-0.296 -0.595,-0.444 -1.044,-0.444Zm0.157,5.315c-0.52,0 -0.994,-0.12 -1.423,-0.36c-0.427,-0.24 -0.765,-0.59 -1.014,-1.05c-0.248,-0.46 -0.371,-1.01 -0.371,-1.65c-0,-0.632 0.125,-1.176 0.376,-1.631c0.253,-0.456 0.581,-0.808 0.985,-1.056c0.405,-0.248 0.831,-0.373 1.279,-0.373c0.752,0 1.326,0.248 1.721,0.745c0.396,0.495 0.594,1.158 0.594,1.991c0,0.104 -0.004,0.204 -0.013,0.3c-0.007,0.096 -0.019,0.192 -0.034,0.289l-3.9,-0c0.048,0.655 0.257,1.15 0.628,1.487c0.373,0.336 0.804,0.504 1.292,0.504c0.28,-0 0.542,-0.04 0.786,-0.12c0.244,-0.08 0.466,-0.188 0.666,-0.324l0.36,0.648c-0.257,0.177 -0.543,0.321 -0.859,0.433c-0.315,0.112 -0.673,0.167 -1.073,0.167Z" style="fill:#404040;fill-rule:nonzero;"/><path id="SourceSans3-Regular-64" d="M90.302,28.704c-0.727,0 -1.311,-0.265 -1.751,-0.797c-0.44,-0.532 -0.66,-1.283 -0.66,-2.251c-0,-0.632 0.117,-1.177 0.352,-1.637c0.237,-0.46 0.549,-0.814 0.936,-1.061c0.389,-0.249 0.803,-0.374 1.243,-0.374c0.336,0 0.628,0.06 0.876,0.18c0.249,0.12 0.501,0.284 0.757,0.492l-0.048,-0.996l-0,-2.244l0.995,-0l0,8.544l-0.815,-0l-0.085,-0.684l-0.035,-0c-0.224,0.223 -0.489,0.418 -0.794,0.583c-0.303,0.163 -0.627,0.245 -0.971,0.245Zm0.216,-0.828c0.512,-0 1.009,-0.269 1.489,-0.805l-0,-3.047c-0.248,-0.223 -0.486,-0.382 -0.715,-0.474c-0.227,-0.093 -0.461,-0.139 -0.701,-0.139c-0.313,0 -0.595,0.095 -0.848,0.283c-0.251,0.188 -0.453,0.448 -0.605,0.78c-0.151,0.332 -0.227,0.722 -0.227,1.17c-0,0.697 0.14,1.243 0.42,1.639c0.28,0.395 0.676,0.593 1.187,0.593Z" style="fill:#404040;fill-rule:nonzero;"/><path id="SourceSans3-Regular-44" d="M97.467,28.56l-0,-7.871l1.968,-0c1.215,-0 2.139,0.338 2.772,1.014c0.632,0.675 0.948,1.637 0.948,2.886c0,1.255 -0.314,2.23 -0.943,2.927c-0.627,0.696 -1.537,1.044 -2.73,1.044l-2.015,0Zm0.995,-0.816l0.9,0c0.92,0 1.61,-0.278 2.07,-0.834c0.46,-0.556 0.69,-1.33 0.69,-2.321c0,-0.993 -0.23,-1.755 -0.69,-2.286c-0.46,-0.532 -1.15,-0.799 -2.07,-0.799l-0.9,0l0,6.24Z" style="fill:#404040;fill-rule:nonzero;"/><path id="SourceSans3-Regular-611" serif:id="SourceSans3-Regular-61" d="M106.095,28.704c-0.488,0 -0.897,-0.143 -1.226,-0.431c-0.327,-0.289 -0.491,-0.697 -0.491,-1.224c-0,-0.657 0.288,-1.153 0.864,-1.489c0.576,-0.336 1.488,-0.573 2.736,-0.709c-0,-0.247 -0.036,-0.479 -0.109,-0.695c-0.071,-0.217 -0.193,-0.395 -0.366,-0.535c-0.171,-0.14 -0.416,-0.21 -0.736,-0.21c-0.337,0 -0.653,0.065 -0.949,0.193c-0.295,0.128 -0.559,0.264 -0.791,0.407l-0.385,-0.671c0.273,-0.184 0.606,-0.356 1.001,-0.516c0.397,-0.16 0.827,-0.24 1.292,-0.24c0.712,0 1.227,0.218 1.547,0.655c0.32,0.435 0.48,1.017 0.48,1.745l0,3.576l-0.815,-0l-0.085,-0.696l-0.035,0c-0.288,0.232 -0.59,0.43 -0.906,0.595c-0.316,0.163 -0.658,0.245 -1.026,0.245Zm0.276,-0.815c0.28,-0 0.547,-0.064 0.802,-0.192c0.257,-0.128 0.525,-0.317 0.805,-0.566l-0,-1.571c-0.655,0.073 -1.175,0.172 -1.56,0.3c-0.384,0.127 -0.658,0.284 -0.821,0.469c-0.164,0.183 -0.246,0.403 -0.246,0.66c-0,0.32 0.1,0.55 0.3,0.69c0.2,0.14 0.44,0.21 0.72,0.21Z" style="fill:#404040;fill-rule:nonzero;"/><path id="SourceSans3-Regular-74" d="M112.635,28.669c-0.624,-0 -1.059,-0.178 -1.304,-0.535c-0.243,-0.356 -0.365,-0.826 -0.365,-1.41l-0,-3.193l-0.863,0l0,-0.742l0.912,-0.06l0.12,-1.873l0.828,-0l0,1.873l1.572,-0l-0,0.802l-1.572,0l0,3.218c0,0.351 0.066,0.625 0.197,0.821c0.133,0.196 0.367,0.294 0.703,0.294c0.104,0 0.212,-0.01 0.323,-0.03c0.112,-0.02 0.225,-0.058 0.337,-0.114l0.203,0.696c-0.151,0.08 -0.321,0.141 -0.51,0.185c-0.188,0.045 -0.381,0.068 -0.581,0.068Z" style="fill:#404040;fill-rule:nonzero;"/><path id="SourceSans3-Regular-612" serif:id="SourceSans3-Regular-61" d="M116.199,28.704c-0.488,0 -0.897,-0.143 -1.226,-0.431c-0.327,-0.289 -0.491,-0.697 -0.491,-1.224c-0,-0.657 0.288,-1.153 0.864,-1.489c0.576,-0.336 1.488,-0.573 2.736,-0.709c-0,-0.247 -0.036,-0.479 -0.109,-0.695c-0.071,-0.217 -0.193,-0.395 -0.366,-0.535c-0.171,-0.14 -0.416,-0.21 -0.736,-0.21c-0.337,0 -0.653,0.065 -0.949,0.193c-0.295,0.128 -0.559,0.264 -0.791,0.407l-0.385,-0.671c0.273,-0.184 0.606,-0.356 1.001,-0.516c0.397,-0.16 0.827,-0.24 1.292,-0.24c0.712,0 1.227,0.218 1.547,0.655c0.32,0.435 0.48,1.017 0.48,1.745l0,3.576l-0.815,-0l-0.085,-0.696l-0.035,0c-0.288,0.232 -0.59,0.43 -0.906,0.595c-0.316,0.163 -0.658,0.245 -1.026,0.245Zm0.276,-0.815c0.28,-0 0.547,-0.064 0.802,-0.192c0.257,-0.128 0.525,-0.317 0.805,-0.566l-0,-1.571c-0.655,0.073 -1.175,0.172 -1.56,0.3c-0.384,0.127 -0.658,0.284 -0.821,0.469c-0.164,0.183 -0.246,0.403 -0.246,0.66c-0,0.32 0.1,0.55 0.3,0.69c0.2,0.14 0.44,0.21 0.72,0.21Z" style="fill:#404040;fill-rule:nonzero;"/><path id="SourceSans3-Regular-53" d="M125.583,28.704c-0.56,0 -1.074,-0.103 -1.543,-0.311c-0.468,-0.209 -0.873,-0.497 -1.217,-0.864l0.564,-0.649c0.28,0.296 0.614,0.529 1.002,0.698c0.387,0.167 0.789,0.251 1.205,0.251c0.52,-0 0.924,-0.118 1.211,-0.355c0.289,-0.236 0.434,-0.546 0.434,-0.93c-0,-0.272 -0.059,-0.488 -0.175,-0.648c-0.116,-0.16 -0.272,-0.296 -0.469,-0.407c-0.195,-0.113 -0.416,-0.225 -0.665,-0.338l-1.127,-0.491c-0.249,-0.113 -0.497,-0.253 -0.744,-0.42c-0.248,-0.168 -0.452,-0.383 -0.612,-0.647c-0.16,-0.265 -0.24,-0.585 -0.24,-0.962c0,-0.4 0.106,-0.757 0.317,-1.072c0.213,-0.317 0.505,-0.565 0.876,-0.745c0.372,-0.18 0.799,-0.27 1.279,-0.27c0.48,0 0.92,0.088 1.32,0.265c0.4,0.175 0.736,0.402 1.008,0.682l-0.54,0.649c-0.248,-0.216 -0.521,-0.39 -0.817,-0.521c-0.295,-0.133 -0.619,-0.199 -0.971,-0.199c-0.44,0 -0.795,0.104 -1.064,0.313c-0.267,0.208 -0.401,0.487 -0.401,0.838c0,0.249 0.066,0.455 0.197,0.619c0.133,0.164 0.299,0.298 0.499,0.403c0.2,0.104 0.404,0.2 0.613,0.287l1.116,0.48c0.472,0.2 0.86,0.454 1.164,0.763c0.304,0.308 0.456,0.753 0.456,1.337c-0,0.416 -0.109,0.794 -0.325,1.134c-0.216,0.34 -0.522,0.61 -0.919,0.81c-0.395,0.2 -0.872,0.3 -1.432,0.3Z" style="fill:#404040;fill-rule:nonzero;"/><path id="SourceSans3-Regular-68" d="M129.711,28.56l-0,-8.544l0.984,-0l0,2.328l-0.037,1.2c0.28,-0.263 0.574,-0.489 0.881,-0.677c0.309,-0.188 0.663,-0.283 1.063,-0.283c0.616,0 1.066,0.195 1.35,0.583c0.284,0.388 0.426,0.954 0.426,1.697l-0,3.696l-0.983,0l0,-3.564c0,-0.544 -0.088,-0.94 -0.264,-1.187c-0.176,-0.249 -0.456,-0.373 -0.84,-0.373c-0.296,-0 -0.563,0.076 -0.799,0.228c-0.236,0.152 -0.502,0.375 -0.797,0.672l0,4.224l-0.984,0Z" style="fill:#404040;fill-rule:nonzero;"/><path id="SourceSans3-Regular-613" serif:id="SourceSans3-Regular-61" d="M137.583,28.704c-0.488,0 -0.897,-0.143 -1.226,-0.431c-0.327,-0.289 -0.491,-0.697 -0.491,-1.224c-0,-0.657 0.288,-1.153 0.864,-1.489c0.576,-0.336 1.488,-0.573 2.736,-0.709c-0,-0.247 -0.036,-0.479 -0.109,-0.695c-0.071,-0.217 -0.193,-0.395 -0.366,-0.535c-0.171,-0.14 -0.416,-0.21 -0.736,-0.21c-0.337,0 -0.653,0.065 -0.949,0.193c-0.295,0.128 -0.559,0.264 -0.791,0.407l-0.385,-0.671c0.273,-0.184 0.606,-0.356 1.001,-0.516c0.397,-0.16 0.827,-0.24 1.292,-0.24c0.712,0 1.227,0.218 1.547,0.655c0.32,0.435 0.48,1.017 0.48,1.745l0,3.576l-0.815,-0l-0.085,-0.696l-0.035,0c-0.288,0.232 -0.59,0.43 -0.906,0.595c-0.316,0.163 -0.658,0.245 -1.026,0.245Zm0.276,-0.815c0.28,-0 0.547,-0.064 0.802,-0.192c0.257,-0.128 0.525,-0.317 0.805,-0.566l-0,-1.571c-0.655,0.073 -1.175,0.172 -1.56,0.3c-0.384,0.127 -0.658,0.284 -0.821,0.469c-0.164,0.183 -0.246,0.403 -0.246,0.66c-0,0.32 0.1,0.55 0.3,0.69c0.2,0.14 0.44,0.21 0.72,0.21Z" style="fill:#404040;fill-rule:nonzero;"/><path id="SourceSans3-Regular-721" serif:id="SourceSans3-Regular-72" d="M142.287,28.56l-0,-5.831l0.816,-0l0.084,1.055l0.036,0c0.192,-0.368 0.432,-0.66 0.72,-0.875c0.287,-0.217 0.599,-0.325 0.935,-0.325c0.233,0 0.441,0.04 0.625,0.12l-0.216,0.84c-0.089,-0.023 -0.171,-0.042 -0.248,-0.054c-0.075,-0.013 -0.172,-0.019 -0.292,-0.019c-0.249,0 -0.507,0.1 -0.774,0.3c-0.268,0.2 -0.502,0.548 -0.702,1.045l0,3.744l-0.984,-0Z" style="fill:#404040;fill-rule:nonzero;"/><path id="SourceSans3-Regular-691" serif:id="SourceSans3-Regular-69" d="M146.451,28.56l-0,-5.831l0.984,-0l0,5.831l-0.984,-0Zm0.491,-7.031c-0.191,-0 -0.349,-0.058 -0.474,-0.175c-0.124,-0.116 -0.186,-0.274 -0.186,-0.474c0,-0.193 0.062,-0.349 0.186,-0.469c0.125,-0.12 0.283,-0.18 0.474,-0.18c0.193,0 0.351,0.06 0.475,0.18c0.123,0.12 0.185,0.276 0.185,0.469c0,0.2 -0.062,0.358 -0.185,0.474c-0.124,0.117 -0.282,0.175 -0.475,0.175Z" style="fill:#404040;fill-rule:nonzero;"/><path id="SourceSans3-Regular-6e" d="M149.403,28.56l-0,-5.831l0.816,-0l0.084,0.84l0.036,-0c0.28,-0.28 0.575,-0.514 0.886,-0.702c0.313,-0.188 0.669,-0.283 1.069,-0.283c0.616,0 1.066,0.195 1.35,0.583c0.284,0.388 0.426,0.954 0.426,1.697l-0,3.696l-0.983,0l0,-3.564c0,-0.544 -0.088,-0.94 -0.264,-1.187c-0.176,-0.249 -0.456,-0.373 -0.84,-0.373c-0.296,-0 -0.563,0.076 -0.799,0.228c-0.236,0.152 -0.502,0.375 -0.797,0.672l0,4.224l-0.984,0Z" style="fill:#404040;fill-rule:nonzero;"/><path id="SourceSans3-Regular-67" d="M157.934,31.249c-0.711,-0 -1.291,-0.137 -1.74,-0.409c-0.448,-0.273 -0.671,-0.661 -0.671,-1.164c-0,-0.248 0.075,-0.486 0.226,-0.715c0.153,-0.227 0.361,-0.429 0.625,-0.605l-0,-0.047c-0.144,-0.089 -0.266,-0.213 -0.366,-0.373c-0.1,-0.16 -0.15,-0.352 -0.15,-0.576c0,-0.248 0.068,-0.463 0.205,-0.647c0.136,-0.185 0.28,-0.329 0.431,-0.433l-0,-0.049c-0.191,-0.16 -0.365,-0.375 -0.521,-0.647c-0.157,-0.272 -0.235,-0.58 -0.235,-0.924c0,-0.424 0.1,-0.791 0.3,-1.103c0.2,-0.312 0.468,-0.552 0.805,-0.72c0.336,-0.168 0.7,-0.253 1.091,-0.253c0.16,0 0.312,0.015 0.455,0.043c0.145,0.028 0.27,0.062 0.374,0.102l2.028,-0l0,0.755l-1.213,0l0,0.047c0.136,0.129 0.253,0.29 0.349,0.482c0.096,0.191 0.144,0.419 0.144,0.683c0,0.408 -0.096,0.765 -0.288,1.068c-0.193,0.304 -0.449,0.538 -0.769,0.702c-0.32,0.163 -0.68,0.245 -1.08,0.245c-0.311,0 -0.603,-0.067 -0.876,-0.202c-0.104,0.087 -0.192,0.185 -0.264,0.294c-0.071,0.108 -0.107,0.241 -0.107,0.401c-0,0.184 0.074,0.336 0.221,0.456c0.149,0.12 0.419,0.18 0.81,0.18l1.129,-0c0.68,-0 1.19,0.11 1.53,0.33c0.34,0.22 0.51,0.574 0.51,1.061c-0,0.36 -0.12,0.692 -0.36,0.996c-0.24,0.305 -0.58,0.551 -1.02,0.739c-0.44,0.188 -0.964,0.283 -1.573,0.283Zm-0,-5.198c0.336,0 0.626,-0.125 0.87,-0.377c0.245,-0.252 0.367,-0.59 0.367,-1.014c0,-0.424 -0.12,-0.756 -0.36,-0.996c-0.24,-0.24 -0.532,-0.36 -0.877,-0.36c-0.344,0 -0.636,0.12 -0.876,0.36c-0.24,0.24 -0.36,0.572 -0.36,0.996c0,0.424 0.122,0.762 0.366,1.014c0.245,0.252 0.535,0.377 0.87,0.377Zm0.144,4.513c0.56,0 1.008,-0.122 1.345,-0.367c0.336,-0.244 0.504,-0.518 0.504,-0.821c-0,-0.272 -0.103,-0.46 -0.308,-0.565c-0.203,-0.103 -0.493,-0.155 -0.868,-0.155l-1.008,-0c-0.113,-0 -0.235,-0.008 -0.368,-0.025c-0.131,-0.015 -0.261,-0.038 -0.388,-0.071c-0.209,0.153 -0.361,0.313 -0.458,0.48c-0.095,0.168 -0.142,0.336 -0.142,0.504c-0,0.312 0.15,0.559 0.45,0.743c0.3,0.185 0.714,0.277 1.241,0.277Z" style="fill:#404040;fill-rule:nonzero;"/><path id="SourceSans3-Regular-41" d="M165.866,24.156l-0.371,1.2l2.364,-0l-0.373,-1.2c-0.144,-0.44 -0.28,-0.878 -0.409,-1.313c-0.127,-0.436 -0.255,-0.882 -0.382,-1.339l-0.049,0c-0.12,0.457 -0.244,0.903 -0.373,1.339c-0.127,0.435 -0.263,0.873 -0.407,1.313Zm-2.4,4.404l2.665,-7.871l1.128,-0l2.663,7.871l-1.067,-0l-0.744,-2.4l-2.869,-0l-0.756,2.4l-1.02,-0Z" style="fill:#404040;fill-rule:nonzero;"/><path id="SourceSans3-Regular-671" serif:id="SourceSans3-Regular-67" d="M172.91,31.249c-0.711,-0 -1.291,-0.137 -1.74,-0.409c-0.448,-0.273 -0.671,-0.661 -0.671,-1.164c-0,-0.248 0.075,-0.486 0.226,-0.715c0.153,-0.227 0.361,-0.429 0.625,-0.605l-0,-0.047c-0.144,-0.089 -0.266,-0.213 -0.366,-0.373c-0.1,-0.16 -0.15,-0.352 -0.15,-0.576c0,-0.248 0.068,-0.463 0.205,-0.647c0.136,-0.185 0.28,-0.329 0.431,-0.433l-0,-0.049c-0.191,-0.16 -0.365,-0.375 -0.521,-0.647c-0.157,-0.272 -0.235,-0.58 -0.235,-0.924c0,-0.424 0.1,-0.791 0.3,-1.103c0.2,-0.312 0.468,-0.552 0.805,-0.72c0.336,-0.168 0.7,-0.253 1.091,-0.253c0.16,0 0.312,0.015 0.455,0.043c0.145,0.028 0.27,0.062 0.374,0.102l2.028,-0l0,0.755l-1.213,0l0,0.047c0.136,0.129 0.253,0.29 0.349,0.482c0.096,0.191 0.144,0.419 0.144,0.683c0,0.408 -0.096,0.765 -0.288,1.068c-0.193,0.304 -0.449,0.538 -0.769,0.702c-0.32,0.163 -0.68,0.245 -1.08,0.245c-0.311,0 -0.603,-0.067 -0.876,-0.202c-0.104,0.087 -0.192,0.185 -0.264,0.294c-0.071,0.108 -0.107,0.241 -0.107,0.401c-0,0.184 0.074,0.336 0.221,0.456c0.149,0.12 0.419,0.18 0.81,0.18l1.129,-0c0.68,-0 1.19,0.11 1.53,0.33c0.34,0.22 0.51,0.574 0.51,1.061c-0,0.36 -0.12,0.692 -0.36,0.996c-0.24,0.305 -0.58,0.551 -1.02,0.739c-0.44,0.188 -0.964,0.283 -1.573,0.283Zm-0,-5.198c0.336,0 0.626,-0.125 0.87,-0.377c0.245,-0.252 0.367,-0.59 0.367,-1.014c0,-0.424 -0.12,-0.756 -0.36,-0.996c-0.24,-0.24 -0.532,-0.36 -0.877,-0.36c-0.344,0 -0.636,0.12 -0.876,0.36c-0.24,0.24 -0.36,0.572 -0.36,0.996c0,0.424 0.122,0.762 0.366,1.014c0.245,0.252 0.535,0.377 0.87,0.377Zm0.144,4.513c0.56,0 1.008,-0.122 1.345,-0.367c0.336,-0.244 0.504,-0.518 0.504,-0.821c-0,-0.272 -0.103,-0.46 -0.308,-0.565c-0.203,-0.103 -0.493,-0.155 -0.868,-0.155l-1.008,-0c-0.113,-0 -0.235,-0.008 -0.368,-0.025c-0.131,-0.015 -0.261,-0.038 -0.388,-0.071c-0.209,0.153 -0.361,0.313 -0.458,0.48c-0.095,0.168 -0.142,0.336 -0.142,0.504c-0,0.312 0.15,0.559 0.45,0.743c0.3,0.185 0.714,0.277 1.241,0.277Z" style="fill:#404040;fill-rule:nonzero;"/><path id="SourceSans3-Regular-722" serif:id="SourceSans3-Regular-72" d="M176.991,28.56l-0,-5.831l0.816,-0l0.084,1.055l0.036,0c0.192,-0.368 0.432,-0.66 0.72,-0.875c0.287,-0.217 0.599,-0.325 0.935,-0.325c0.233,0 0.441,0.04 0.625,0.12l-0.216,0.84c-0.089,-0.023 -0.171,-0.042 -0.248,-0.054c-0.075,-0.013 -0.172,-0.019 -0.292,-0.019c-0.249,0 -0.507,0.1 -0.774,0.3c-0.268,0.2 -0.502,0.548 -0.702,1.045l0,3.744l-0.984,-0Z" style="fill:#404040;fill-rule:nonzero;"/><path id="SourceSans3-Regular-651" serif:id="SourceSans3-Regular-65" d="M183.362,23.389c-0.24,-0 -0.474,0.058 -0.701,0.174c-0.228,0.115 -0.424,0.301 -0.589,0.557c-0.164,0.256 -0.274,0.593 -0.33,1.009l3.037,-0c0,-0.569 -0.124,-1.001 -0.373,-1.296c-0.247,-0.296 -0.595,-0.444 -1.044,-0.444Zm0.157,5.315c-0.52,0 -0.994,-0.12 -1.423,-0.36c-0.427,-0.24 -0.765,-0.59 -1.014,-1.05c-0.248,-0.46 -0.371,-1.01 -0.371,-1.65c-0,-0.632 0.125,-1.176 0.376,-1.631c0.253,-0.456 0.581,-0.808 0.985,-1.056c0.405,-0.248 0.831,-0.373 1.279,-0.373c0.752,0 1.326,0.248 1.721,0.745c0.396,0.495 0.594,1.158 0.594,1.991c0,0.104 -0.004,0.204 -0.013,0.3c-0.007,0.096 -0.019,0.192 -0.034,0.289l-3.9,-0c0.048,0.655 0.257,1.15 0.628,1.487c0.373,0.336 0.804,0.504 1.292,0.504c0.28,-0 0.542,-0.04 0.786,-0.12c0.244,-0.08 0.466,-0.188 0.666,-0.324l0.36,0.648c-0.257,0.177 -0.543,0.321 -0.859,0.433c-0.315,0.112 -0.673,0.167 -1.073,0.167Z" style="fill:#404040;fill-rule:nonzero;"/><path id="SourceSans3-Regular-652" serif:id="SourceSans3-Regular-65" d="M189.314,23.389c-0.24,-0 -0.474,0.058 -0.701,0.174c-0.228,0.115 -0.424,0.301 -0.589,0.557c-0.164,0.256 -0.274,0.593 -0.33,1.009l3.037,-0c0,-0.569 -0.124,-1.001 -0.373,-1.296c-0.247,-0.296 -0.595,-0.444 -1.044,-0.444Zm0.157,5.315c-0.52,0 -0.994,-0.12 -1.423,-0.36c-0.427,-0.24 -0.765,-0.59 -1.014,-1.05c-0.248,-0.46 -0.371,-1.01 -0.371,-1.65c-0,-0.632 0.125,-1.176 0.376,-1.631c0.253,-0.456 0.581,-0.808 0.985,-1.056c0.405,-0.248 0.831,-0.373 1.279,-0.373c0.752,0 1.326,0.248 1.721,0.745c0.396,0.495 0.594,1.158 0.594,1.991c0,0.104 -0.004,0.204 -0.013,0.3c-0.007,0.096 -0.019,0.192 -0.034,0.289l-3.9,-0c0.048,0.655 0.257,1.15 0.628,1.487c0.373,0.336 0.804,0.504 1.292,0.504c0.28,-0 0.542,-0.04 0.786,-0.12c0.244,-0.08 0.466,-0.188 0.666,-0.324l0.36,0.648c-0.257,0.177 -0.543,0.321 -0.859,0.433c-0.315,0.112 -0.673,0.167 -1.073,0.167Z" style="fill:#404040;fill-rule:nonzero;"/><path id="SourceSans3-Regular-6d1" serif:id="SourceSans3-Regular-6d" d="M193.059,28.56l-0,-5.831l0.816,-0l0.084,0.84l0.036,-0c0.256,-0.28 0.536,-0.514 0.84,-0.702c0.303,-0.188 0.627,-0.283 0.971,-0.283c0.449,0 0.799,0.098 1.05,0.295c0.252,0.195 0.439,0.468 0.559,0.821c0.303,-0.328 0.611,-0.595 0.922,-0.803c0.313,-0.208 0.645,-0.313 0.998,-0.313c0.6,0 1.045,0.195 1.336,0.583c0.293,0.388 0.439,0.954 0.439,1.697l0,3.696l-0.984,-0l-0,-3.564c-0,-0.544 -0.088,-0.94 -0.265,-1.187c-0.175,-0.249 -0.446,-0.373 -0.815,-0.373c-0.431,-0 -0.919,0.3 -1.463,0.9l0,4.224l-0.984,0l-0,-3.564c-0,-0.544 -0.088,-0.94 -0.264,-1.187c-0.177,-0.249 -0.453,-0.373 -0.829,-0.373c-0.431,-0 -0.919,0.3 -1.463,0.9l0,4.224l-0.984,0Z" style="fill:#404040;fill-rule:nonzero;"/><path id="SourceSans3-Regular-653" serif:id="SourceSans3-Regular-65" d="M205.214,23.389c-0.24,-0 -0.474,0.058 -0.701,0.174c-0.228,0.115 -0.424,0.301 -0.589,0.557c-0.164,0.256 -0.274,0.593 -0.33,1.009l3.037,-0c0,-0.569 -0.124,-1.001 -0.373,-1.296c-0.247,-0.296 -0.595,-0.444 -1.044,-0.444Zm0.157,5.315c-0.52,0 -0.994,-0.12 -1.423,-0.36c-0.427,-0.24 -0.765,-0.59 -1.014,-1.05c-0.248,-0.46 -0.371,-1.01 -0.371,-1.65c-0,-0.632 0.125,-1.176 0.376,-1.631c0.253,-0.456 0.581,-0.808 0.985,-1.056c0.405,-0.248 0.831,-0.373 1.279,-0.373c0.752,0 1.326,0.248 1.721,0.745c0.396,0.495 0.594,1.158 0.594,1.991c0,0.104 -0.004,0.204 -0.013,0.3c-0.007,0.096 -0.019,0.192 -0.034,0.289l-3.9,-0c0.048,0.655 0.257,1.15 0.628,1.487c0.373,0.336 0.804,0.504 1.292,0.504c0.28,-0 0.542,-0.04 0.786,-0.12c0.244,-0.08 0.466,-0.188 0.666,-0.324l0.36,0.648c-0.257,0.177 -0.543,0.321 -0.859,0.433c-0.315,0.112 -0.673,0.167 -1.073,0.167Z" style="fill:#404040;fill-rule:nonzero;"/><path id="SourceSans3-Regular-6e1" serif:id="SourceSans3-Regular-6e" d="M208.959,28.56l-0,-5.831l0.816,-0l0.084,0.84l0.036,-0c0.28,-0.28 0.575,-0.514 0.886,-0.702c0.313,-0.188 0.669,-0.283 1.069,-0.283c0.616,0 1.066,0.195 1.35,0.583c0.284,0.388 0.426,0.954 0.426,1.697l-0,3.696l-0.983,0l0,-3.564c0,-0.544 -0.088,-0.94 -0.264,-1.187c-0.176,-0.249 -0.456,-0.373 -0.84,-0.373c-0.296,-0 -0.563,0.076 -0.799,0.228c-0.236,0.152 -0.502,0.375 -0.797,0.672l0,4.224l-0.984,0Z" style="fill:#404040;fill-rule:nonzero;"/><path id="SourceSans3-Regular-741" serif:id="SourceSans3-Regular-74" d="M217.359,28.669c-0.624,-0 -1.059,-0.178 -1.304,-0.535c-0.243,-0.356 -0.365,-0.826 -0.365,-1.41l-0,-3.193l-0.863,0l0,-0.742l0.912,-0.06l0.12,-1.873l0.828,-0l0,1.873l1.572,-0l-0,0.802l-1.572,0l0,3.218c0,0.351 0.066,0.625 0.197,0.821c0.133,0.196 0.367,0.294 0.703,0.294c0.104,0 0.212,-0.01 0.323,-0.03c0.112,-0.02 0.225,-0.058 0.337,-0.114l0.203,0.696c-0.151,0.08 -0.321,0.141 -0.51,0.185c-0.188,0.045 -0.381,0.068 -0.581,0.068Z" style="fill:#404040;fill-rule:nonzero;"/><path id="SourceSans3-Regular-28" d="M223.563,30.671c-0.496,-0.807 -0.884,-1.653 -1.164,-2.537c-0.28,-0.883 -0.42,-1.853 -0.42,-2.91c-0,-1.056 0.14,-2.028 0.42,-2.915c0.28,-0.889 0.668,-1.733 1.164,-2.533l0.612,0.288c-0.464,0.76 -0.81,1.582 -1.039,2.466c-0.228,0.884 -0.341,1.782 -0.341,2.694c-0,0.912 0.113,1.81 0.341,2.695c0.229,0.883 0.575,1.705 1.039,2.465l-0.612,0.287Z" style="fill:#404040;fill-rule:nonzero;"/><path id="SourceSans3-Regular-6e2" serif:id="SourceSans3-Regular-6e" d="M225.615,28.56l-0,-5.831l0.816,-0l0.084,0.84l0.036,-0c0.28,-0.28 0.575,-0.514 0.886,-0.702c0.313,-0.188 0.669,-0.283 1.069,-0.283c0.616,0 1.066,0.195 1.35,0.583c0.284,0.388 0.426,0.954 0.426,1.697l-0,3.696l-0.983,0l0,-3.564c0,-0.544 -0.088,-0.94 -0.264,-1.187c-0.176,-0.249 -0.456,-0.373 -0.84,-0.373c-0.296,-0 -0.563,0.076 -0.799,0.228c-0.236,0.152 -0.502,0.375 -0.797,0.672l0,4.224l-0.984,0Z" style="fill:#404040;fill-rule:nonzero;"/><path id="SourceSans3-Regular-3d" d="M234.003,23.687l0,-0.743l5.147,0l0,0.743l-5.147,-0Zm0,2.569l0,-0.743l5.147,0l0,0.743l-5.147,-0Z" style="fill:#404040;fill-rule:nonzero;"/><path id="SourceSans3-Regular-31" d="M242.907,28.56l0,-0.816l1.752,0l-0,-5.64l-1.392,0l0,-0.635c0.352,-0.065 0.657,-0.143 0.917,-0.235c0.26,-0.092 0.495,-0.202 0.703,-0.33l0.756,0l-0,6.84l1.584,0l0,0.816l-4.32,-0Z" style="fill:#404040;fill-rule:nonzero;"/><path id="SourceSans3-Regular-33" d="M250.754,28.704c-0.608,0 -1.116,-0.11 -1.525,-0.33c-0.407,-0.22 -0.739,-0.47 -0.995,-0.75l0.504,-0.648c0.233,0.24 0.505,0.452 0.816,0.637c0.312,0.184 0.692,0.276 1.14,0.276c0.465,-0 0.845,-0.128 1.14,-0.385c0.296,-0.256 0.444,-0.596 0.444,-1.02c0,-0.303 -0.078,-0.569 -0.234,-0.797c-0.155,-0.228 -0.411,-0.406 -0.767,-0.534c-0.356,-0.129 -0.838,-0.193 -1.446,-0.193l0,-0.756c0.544,0 0.973,-0.063 1.288,-0.191c0.317,-0.129 0.543,-0.301 0.679,-0.517c0.136,-0.217 0.205,-0.457 0.205,-0.72c-0,-0.377 -0.119,-0.672 -0.355,-0.887c-0.236,-0.217 -0.558,-0.325 -0.965,-0.325c-0.32,0 -0.615,0.072 -0.884,0.216c-0.267,0.144 -0.516,0.332 -0.748,0.564l-0.528,-0.624c0.296,-0.28 0.624,-0.51 0.984,-0.69c0.36,-0.18 0.764,-0.27 1.211,-0.27c0.664,-0 1.212,0.17 1.645,0.51c0.432,0.34 0.648,0.818 0.648,1.434c0,0.464 -0.128,0.844 -0.384,1.14c-0.256,0.297 -0.593,0.525 -1.009,0.685l0,0.047c0.464,0.103 0.856,0.321 1.176,0.654c0.32,0.332 0.48,0.762 0.48,1.29c-0,0.447 -0.112,0.836 -0.336,1.164c-0.224,0.328 -0.525,0.58 -0.905,0.756c-0.38,0.176 -0.807,0.264 -1.279,0.264Z" style="fill:#404040;fill-rule:nonzero;"/><path id="SourceSans3-Regular-29" d="M254.955,30.671l-0.613,-0.287c0.464,-0.76 0.81,-1.582 1.037,-2.465c0.229,-0.885 0.343,-1.783 0.343,-2.695c0,-0.912 -0.114,-1.81 -0.343,-2.694c-0.227,-0.884 -0.573,-1.706 -1.037,-2.466l0.613,-0.288c0.495,0.8 0.883,1.644 1.163,2.533c0.28,0.887 0.42,1.859 0.42,2.915c-0,1.057 -0.14,2.027 -0.42,2.91c-0.28,0.884 -0.668,1.73 -1.163,2.537Z" style="fill:#404040;fill-rule:nonzero;"/></g></g><g id="legend_1"><g id="patch_5"><rect x="221.83" y="37.936" width="20" height="7" style="fill:#5cb8b2;fill-rule:nonzero;stroke:#fff;stroke-width:1px;"/></g><g id="patch_6"><rect x="221.83" y="52.106" width="20" height="7" style="fill:#e9f4f3;fill-rule:nonzero;stroke:#fff;stroke-width:1px;"/></g><g id="text_3"><g><path id="SourceSans3-Regular-59" d="M249.302,44.801l0,-2.541l-1.969,-4.019l0.889,0l0.85,1.85c0.108,0.24 0.213,0.476 0.316,0.71c0.103,0.233 0.208,0.473 0.314,0.72l0.041,-0c0.113,-0.247 0.226,-0.487 0.339,-0.72c0.113,-0.234 0.22,-0.47 0.32,-0.71l0.841,-1.85l0.87,0l-1.97,4.019l-0,2.541l-0.841,-0Z" style="fill:#404040;fill-rule:nonzero;"/><path id="SourceSans3-Regular-654" serif:id="SourceSans3-Regular-65" d="M254.762,40.491c-0.2,0 -0.395,0.049 -0.584,0.145c-0.19,0.096 -0.353,0.251 -0.491,0.465c-0.136,0.213 -0.228,0.493 -0.275,0.84l2.531,0c0,-0.474 -0.103,-0.834 -0.311,-1.08c-0.206,-0.246 -0.496,-0.37 -0.87,-0.37Zm0.131,4.43c-0.433,-0 -0.828,-0.1 -1.186,-0.3c-0.356,-0.2 -0.638,-0.492 -0.845,-0.875c-0.206,-0.383 -0.309,-0.842 -0.309,-1.375c-0,-0.527 0.104,-0.98 0.314,-1.36c0.21,-0.38 0.484,-0.673 0.82,-0.879c0.338,-0.208 0.693,-0.311 1.066,-0.311c0.627,-0 1.105,0.207 1.434,0.62c0.33,0.413 0.495,0.966 0.495,1.66c0,0.086 -0.003,0.169 -0.01,0.25c-0.007,0.08 -0.016,0.16 -0.029,0.24l-3.25,0c0.04,0.546 0.214,0.959 0.524,1.239c0.31,0.28 0.669,0.421 1.076,0.421c0.234,-0 0.452,-0.034 0.655,-0.1c0.203,-0.067 0.388,-0.157 0.555,-0.271l0.3,0.541c-0.214,0.147 -0.452,0.267 -0.716,0.361c-0.262,0.092 -0.56,0.139 -0.894,0.139Z" style="fill:#404040;fill-rule:nonzero;"/><path id="SourceSans3-Regular-73" d="M259.153,44.921c-0.354,-0 -0.688,-0.062 -1.001,-0.185c-0.313,-0.123 -0.582,-0.295 -0.81,-0.515l0.38,-0.48c0.214,0.173 0.436,0.306 0.666,0.4c0.23,0.093 0.495,0.139 0.795,0.139c0.32,0 0.559,-0.075 0.719,-0.225c0.16,-0.15 0.24,-0.328 0.24,-0.534c0,-0.167 -0.053,-0.305 -0.16,-0.414c-0.107,-0.111 -0.243,-0.204 -0.41,-0.281c-0.167,-0.078 -0.343,-0.149 -0.53,-0.216c-0.239,-0.087 -0.469,-0.188 -0.69,-0.305c-0.22,-0.116 -0.398,-0.263 -0.535,-0.439c-0.136,-0.177 -0.204,-0.399 -0.204,-0.665c-0,-0.394 0.148,-0.722 0.445,-0.985c0.297,-0.263 0.708,-0.395 1.234,-0.395c0.3,-0 0.58,0.051 0.84,0.155c0.26,0.103 0.484,0.234 0.671,0.395l-0.381,0.47c-0.167,-0.121 -0.342,-0.214 -0.525,-0.281c-0.183,-0.067 -0.385,-0.1 -0.605,-0.1c-0.306,-0 -0.531,0.07 -0.675,0.211c-0.142,0.139 -0.214,0.302 -0.214,0.489c0,0.221 0.097,0.388 0.289,0.501c0.194,0.113 0.441,0.223 0.741,0.33c0.253,0.087 0.495,0.19 0.725,0.31c0.23,0.119 0.417,0.271 0.559,0.454c0.144,0.184 0.216,0.422 0.216,0.716c0,0.259 -0.069,0.499 -0.206,0.72c-0.137,0.22 -0.337,0.397 -0.6,0.53c-0.263,0.133 -0.587,0.2 -0.974,0.2Z" style="fill:#404040;fill-rule:nonzero;"/></g></g><g id="patch_7"><rect x="221.83" y="66.277" width="20" height="7" style="fill:#e5e4e2;fill-rule:nonzero;stroke:#fff;stroke-width:1px;"/></g><g id="text_4"><g><path id="SourceSans3-Regular-4e" d="M248.869,59.825l-0,-6.559l0.909,0l2.331,4.08c0.126,0.22 0.248,0.45 0.364,0.69c0.117,0.24 0.229,0.48 0.336,0.719l0.039,0c-0.026,-0.339 -0.051,-0.686 -0.075,-1.039c-0.023,-0.354 -0.034,-0.701 -0.034,-1.041l-0,-3.409l0.8,0l-0,6.559l-0.911,0l-2.33,-4.079c-0.126,-0.22 -0.249,-0.45 -0.37,-0.689c-0.12,-0.241 -0.233,-0.482 -0.339,-0.722l-0.041,-0c0.034,0.327 0.06,0.664 0.08,1.011c0.021,0.347 0.031,0.697 0.031,1.05l0,3.429l-0.79,0Z" style="fill:#404040;fill-rule:nonzero;"/><path id="SourceSans3-Regular-6f1" serif:id="SourceSans3-Regular-6f" d="M257.148,59.946c-0.393,-0 -0.761,-0.1 -1.105,-0.3c-0.342,-0.2 -0.619,-0.49 -0.829,-0.871c-0.211,-0.38 -0.316,-0.837 -0.316,-1.37c-0,-0.547 0.105,-1.01 0.316,-1.389c0.21,-0.38 0.487,-0.67 0.829,-0.87c0.344,-0.2 0.712,-0.3 1.105,-0.3c0.4,-0 0.77,0.1 1.109,0.3c0.341,0.2 0.616,0.49 0.825,0.87c0.211,0.379 0.316,0.842 0.316,1.389c-0,0.533 -0.105,0.99 -0.316,1.37c-0.209,0.381 -0.484,0.671 -0.825,0.871c-0.339,0.2 -0.709,0.3 -1.109,0.3Zm-0,-0.68c0.421,0 0.759,-0.172 1.016,-0.516c0.256,-0.343 0.384,-0.792 0.384,-1.345c-0,-0.559 -0.128,-1.012 -0.384,-1.359c-0.257,-0.347 -0.595,-0.521 -1.016,-0.521c-0.413,0 -0.749,0.174 -1.009,0.521c-0.261,0.347 -0.391,0.8 -0.391,1.359c-0,0.553 0.13,1.002 0.391,1.345c0.26,0.344 0.596,0.516 1.009,0.516Z" style="fill:#404040;fill-rule:nonzero;"/></g></g><g id="text_41" serif:id="text_4"></g></g></g><g transform="matrix(9,0,0,9,259.531,72.6847)"></g><text x="248.812px" y="72.685px" style="font-family:'SourceSans3-Regular', 'Source Sans 3', sans-serif;font-size:9px;">NA</text></g></svg>