<?xml version="1.0" encoding="utf-8" standalone="no"?>
<!DOCTYPE svg PUBLIC "-//W3C//DTD SVG 1.1//EN"
  "http://www.w3.org/Graphics/SVG/1.1/DTD/svg11.dtd">
<svg xmlns:xlink="http://www.w3.org/1999/xlink" width="720pt" height="216pt" viewBox="0 0 720 216" xmlns="http://www.w3.org/2000/svg" version="1.1">
 <metadata>
  <rdf:RDF xmlns:dc="http://purl.org/dc/elements/1.1/" xmlns:cc="http://creativecommons.org/ns#" xmlns:rdf="http://www.w3.org/1999/02/22-rdf-syntax-ns#">
   <cc:Work>
    <dc:type rdf:resource="http://purl.org/dc/dcmitype/StillImage"/>
    <dc:date>2025-11-10T09:43:05.020423</dc:date>
    <dc:format>image/svg+xml</dc:format>
    <dc:creator>
     <cc:Agent>
      <dc:title>Matplotlib v3.10.7, https://matplotlib.org/</dc:title>
     </cc:Agent>
    </dc:creator>
   </cc:Work>
  </rdf:RDF>
 </metadata>
 <defs>
  <style type="text/css">*{stroke-linejoin: round; stroke-linecap: butt}</style>
 </defs>
 <g id="figure_1">
  <g id="patch_1">
   <path d="M 0 216 
L 720 216 
L 720 0 
L 0 0 
L 0 216 
z
" style="fill: none"/>
  </g>
  <g id="axes_1">
   <g id="patch_2">
    <path d="M 353.6 188.84 
L 700.11 188.84 
L 700.11 27.375 
L 353.6 27.375 
L 353.6 188.84 
z
" style="fill: none"/>
   </g>
   <g id="patch_3">
    <path d="M 353.6 34.714318 
L 683.609524 34.714318 
L 683.609524 76.653279 
L 353.6 76.653279 
z
" clip-path="url(#p553b130ec6)" style="fill: #5cb8b2"/>
   </g>
   <g id="patch_4">
    <path d="M 353.6 87.138019 
L 683.609524 87.138019 
L 683.609524 129.076981 
L 353.6 129.076981 
z
" clip-path="url(#p553b130ec6)" style="fill: #5cb8b2"/>
   </g>
   <g id="patch_5">
    <path d="M 353.6 139.561721 
L 683.609524 139.561721 
L 683.609524 181.500682 
L 353.6 181.500682 
z
" clip-path="url(#p553b130ec6)" style="fill: #5cb8b2"/>
   </g>
   <g id="matplotlib.axis_1">
    <g id="xtick_1">
     <g id="line2d_1">
      <defs>
       <path id="mcfc3628e38" d="M 0 0 
L 0 3.5 
" style="stroke: #666a6d; stroke-width: 0.8"/>
      </defs>
      <g>
       <use xlink:href="#mcfc3628e38" x="353.6" y="188.84" style="fill: #666a6d; stroke: #666a6d; stroke-width: 0.8"/>
      </g>
     </g>
     <g id="text_1">
      <!-- 0% -->
      <g style="fill: #666a6d" transform="translate(346.994531 202.960313) scale(0.1 -0.1)">
       <defs>
        <path id="SourceSans3-Regular-30" d="M 1594 -77 
Q 979 -77 630 476 
Q 282 1030 282 2054 
Q 282 3085 630 3622 
Q 979 4160 1594 4160 
Q 2202 4160 2550 3622 
Q 2899 3085 2899 2054 
Q 2899 1030 2550 476 
Q 2202 -77 1594 -77 
z
M 1594 346 
Q 1952 346 2169 752 
Q 2387 1158 2387 2054 
Q 2387 2950 2169 3344 
Q 1952 3738 1594 3738 
Q 1235 3738 1014 3344 
Q 794 2950 794 2054 
Q 794 1158 1014 752 
Q 1235 346 1594 346 
z
" transform="scale(0.015625)"/>
        <path id="SourceSans3-Regular-25" d="M 1178 1625 
Q 749 1625 486 1970 
Q 224 2316 224 2956 
Q 224 3584 486 3929 
Q 749 4275 1178 4275 
Q 1606 4275 1868 3929 
Q 2131 3584 2131 2956 
Q 2131 2316 1868 1970 
Q 1606 1625 1178 1625 
z
M 1178 1952 
Q 1421 1952 1574 2204 
Q 1728 2457 1728 2956 
Q 1728 3456 1574 3702 
Q 1421 3948 1178 3948 
Q 928 3948 774 3702 
Q 621 3456 621 2956 
Q 621 2457 774 2204 
Q 928 1952 1178 1952 
z
M 1299 -77 
L 3616 4275 
L 3974 4275 
L 1658 -77 
L 1299 -77 
z
M 4102 -77 
Q 3674 -77 3411 268 
Q 3149 614 3149 1254 
Q 3149 1882 3411 2227 
Q 3674 2573 4102 2573 
Q 4531 2573 4793 2227 
Q 5056 1882 5056 1254 
Q 5056 614 4793 268 
Q 4531 -77 4102 -77 
z
M 4102 250 
Q 4346 250 4499 502 
Q 4653 755 4653 1254 
Q 4653 1754 4499 2000 
Q 4346 2246 4102 2246 
Q 3853 2246 3699 2000 
Q 3546 1754 3546 1254 
Q 3546 755 3699 502 
Q 3853 250 4102 250 
z
" transform="scale(0.015625)"/>
       </defs>
       <use xlink:href="#SourceSans3-Regular-30"/>
       <use xlink:href="#SourceSans3-Regular-25" transform="translate(49.699997 0)"/>
      </g>
     </g>
    </g>
    <g id="xtick_2">
     <g id="line2d_2">
      <g>
       <use xlink:href="#mcfc3628e38" x="403.101429" y="188.84" style="fill: #666a6d; stroke: #666a6d; stroke-width: 0.8"/>
      </g>
     </g>
     <g id="text_2">
      <!-- 5% -->
      <g style="fill: #666a6d" transform="translate(396.49596 202.960313) scale(0.1 -0.1)">
       <defs>
        <path id="SourceSans3-Regular-35" d="M 1498 -77 
Q 1011 -77 691 96 
Q 371 269 160 480 
L 416 826 
Q 602 646 845 502 
Q 1088 358 1446 358 
Q 1824 358 2083 611 
Q 2342 864 2342 1293 
Q 2342 1715 2105 1952 
Q 1869 2189 1472 2189 
Q 1261 2189 1110 2125 
Q 960 2061 774 1939 
L 493 2118 
L 627 4083 
L 2669 4083 
L 2669 3629 
L 1088 3629 
L 979 2419 
Q 1126 2496 1273 2541 
Q 1421 2586 1606 2586 
Q 1958 2586 2243 2448 
Q 2528 2310 2701 2028 
Q 2874 1747 2874 1306 
Q 2874 864 2678 553 
Q 2483 243 2169 83 
Q 1856 -77 1498 -77 
z
" transform="scale(0.015625)"/>
       </defs>
       <use xlink:href="#SourceSans3-Regular-35"/>
       <use xlink:href="#SourceSans3-Regular-25" transform="translate(49.699997 0)"/>
      </g>
     </g>
    </g>
    <g id="xtick_3">
     <g id="line2d_3">
      <g>
       <use xlink:href="#mcfc3628e38" x="452.602857" y="188.84" style="fill: #666a6d; stroke: #666a6d; stroke-width: 0.8"/>
      </g>
     </g>
     <g id="text_3">
      <!-- 10% -->
      <g style="fill: #666a6d" transform="translate(443.512232 202.960313) scale(0.1 -0.1)">
       <defs>
        <path id="SourceSans3-Regular-31" d="M 506 0 
L 506 435 
L 1440 435 
L 1440 3443 
L 698 3443 
L 698 3782 
Q 979 3834 1187 3907 
Q 1395 3981 1562 4083 
L 1965 4083 
L 1965 435 
L 2810 435 
L 2810 0 
L 506 0 
z
" transform="scale(0.015625)"/>
       </defs>
       <use xlink:href="#SourceSans3-Regular-31"/>
       <use xlink:href="#SourceSans3-Regular-30" transform="translate(49.699997 0)"/>
       <use xlink:href="#SourceSans3-Regular-25" transform="translate(99.399994 0)"/>
      </g>
     </g>
    </g>
    <g id="xtick_4">
     <g id="line2d_4">
      <g>
       <use xlink:href="#mcfc3628e38" x="502.104286" y="188.84" style="fill: #666a6d; stroke: #666a6d; stroke-width: 0.8"/>
      </g>
     </g>
     <g id="text_4">
      <!-- 15% -->
      <g style="fill: #666a6d" transform="translate(493.013661 202.960313) scale(0.1 -0.1)">
       <use xlink:href="#SourceSans3-Regular-31"/>
       <use xlink:href="#SourceSans3-Regular-35" transform="translate(49.699997 0)"/>
       <use xlink:href="#SourceSans3-Regular-25" transform="translate(99.399994 0)"/>
      </g>
     </g>
    </g>
    <g id="xtick_5">
     <g id="line2d_5">
      <g>
       <use xlink:href="#mcfc3628e38" x="551.605714" y="188.84" style="fill: #666a6d; stroke: #666a6d; stroke-width: 0.8"/>
      </g>
     </g>
     <g id="text_5">
      <!-- 20% -->
      <g style="fill: #666a6d" transform="translate(542.515089 202.960313) scale(0.1 -0.1)">
       <defs>
        <path id="SourceSans3-Regular-32" d="M 256 0 
L 256 320 
Q 870 922 1299 1386 
Q 1728 1850 1952 2227 
Q 2176 2605 2176 2931 
Q 2176 3283 1984 3507 
Q 1792 3731 1402 3731 
Q 1146 3731 928 3587 
Q 710 3443 531 3238 
L 237 3526 
Q 493 3814 784 3987 
Q 1075 4160 1466 4160 
Q 2035 4160 2361 3830 
Q 2688 3501 2688 2963 
Q 2688 2566 2467 2176 
Q 2246 1786 1862 1357 
Q 1478 928 979 416 
Q 1146 429 1325 441 
Q 1504 454 1664 454 
L 2893 454 
L 2893 0 
L 256 0 
z
" transform="scale(0.015625)"/>
       </defs>
       <use xlink:href="#SourceSans3-Regular-32"/>
       <use xlink:href="#SourceSans3-Regular-30" transform="translate(49.699997 0)"/>
       <use xlink:href="#SourceSans3-Regular-25" transform="translate(99.399994 0)"/>
      </g>
     </g>
    </g>
    <g id="xtick_6">
     <g id="line2d_6">
      <g>
       <use xlink:href="#mcfc3628e38" x="601.107143" y="188.84" style="fill: #666a6d; stroke: #666a6d; stroke-width: 0.8"/>
      </g>
     </g>
     <g id="text_6">
      <!-- 25% -->
      <g style="fill: #666a6d" transform="translate(592.016518 202.960313) scale(0.1 -0.1)">
       <use xlink:href="#SourceSans3-Regular-32"/>
       <use xlink:href="#SourceSans3-Regular-35" transform="translate(49.699997 0)"/>
       <use xlink:href="#SourceSans3-Regular-25" transform="translate(99.399994 0)"/>
      </g>
     </g>
    </g>
    <g id="xtick_7">
     <g id="line2d_7">
      <g>
       <use xlink:href="#mcfc3628e38" x="650.608571" y="188.84" style="fill: #666a6d; stroke: #666a6d; stroke-width: 0.8"/>
      </g>
     </g>
     <g id="text_7">
      <!-- 30% -->
      <g style="fill: #666a6d" transform="translate(641.517946 202.960313) scale(0.1 -0.1)">
       <defs>
        <path id="SourceSans3-Regular-33" d="M 1510 -77 
Q 1024 -77 697 99 
Q 371 275 166 499 
L 435 845 
Q 621 653 870 505 
Q 1120 358 1478 358 
Q 1850 358 2086 563 
Q 2323 768 2323 1107 
Q 2323 1350 2198 1532 
Q 2074 1715 1789 1817 
Q 1504 1920 1018 1920 
L 1018 2323 
Q 1453 2323 1705 2425 
Q 1958 2528 2067 2701 
Q 2176 2874 2176 3085 
Q 2176 3386 1987 3558 
Q 1798 3731 1472 3731 
Q 1216 3731 1001 3616 
Q 787 3501 602 3315 
L 320 3648 
Q 557 3872 845 4016 
Q 1133 4160 1491 4160 
Q 2022 4160 2368 3888 
Q 2714 3616 2714 3123 
Q 2714 2752 2509 2515 
Q 2304 2278 1971 2150 
L 1971 2125 
Q 2342 2042 2598 1776 
Q 2854 1510 2854 1088 
Q 2854 730 2675 467 
Q 2496 205 2192 64 
Q 1888 -77 1510 -77 
z
" transform="scale(0.015625)"/>
       </defs>
       <use xlink:href="#SourceSans3-Regular-33"/>
       <use xlink:href="#SourceSans3-Regular-30" transform="translate(49.699997 0)"/>
       <use xlink:href="#SourceSans3-Regular-25" transform="translate(99.399994 0)"/>
      </g>
     </g>
    </g>
    <g id="xtick_8">
     <g id="line2d_8">
      <g>
       <use xlink:href="#mcfc3628e38" x="700.11" y="188.84" style="fill: #666a6d; stroke: #666a6d; stroke-width: 0.8"/>
      </g>
     </g>
     <g id="text_8">
      <!-- 35% -->
      <g style="fill: #666a6d" transform="translate(691.019375 202.960313) scale(0.1 -0.1)">
       <use xlink:href="#SourceSans3-Regular-33"/>
       <use xlink:href="#SourceSans3-Regular-35" transform="translate(49.699997 0)"/>
       <use xlink:href="#SourceSans3-Regular-25" transform="translate(99.399994 0)"/>
      </g>
     </g>
    </g>
   </g>
   <g id="matplotlib.axis_2">
    <g id="ytick_1">
     <g id="line2d_9"/>
     <g id="text_9">
      <!-- Kobo  -->
      <g transform="translate(325.939063 59.243955) scale(0.1 -0.1)">
       <defs>
        <path id="SourceSans3-Regular-4b" d="M 576 0 
L 576 4198 
L 1107 4198 
L 1107 2093 
L 1126 2093 
L 2874 4198 
L 3475 4198 
L 2163 2598 
L 3680 0 
L 3085 0 
L 1830 2182 
L 1107 1331 
L 1107 0 
L 576 0 
z
" transform="scale(0.015625)"/>
        <path id="SourceSans3-Regular-6f" d="M 1734 -77 
Q 1357 -77 1027 115 
Q 698 307 496 672 
Q 294 1037 294 1549 
Q 294 2074 496 2438 
Q 698 2803 1027 2995 
Q 1357 3187 1734 3187 
Q 2118 3187 2444 2995 
Q 2771 2803 2972 2438 
Q 3174 2074 3174 1549 
Q 3174 1037 2972 672 
Q 2771 307 2444 115 
Q 2118 -77 1734 -77 
z
M 1734 358 
Q 2138 358 2384 688 
Q 2630 1018 2630 1549 
Q 2630 2086 2384 2419 
Q 2138 2752 1734 2752 
Q 1338 2752 1088 2419 
Q 838 2086 838 1549 
Q 838 1018 1088 688 
Q 1338 358 1734 358 
z
" transform="scale(0.015625)"/>
        <path id="SourceSans3-Regular-62" d="M 1901 -77 
Q 1683 -77 1449 28 
Q 1216 134 1011 320 
L 992 320 
L 947 0 
L 525 0 
L 525 4557 
L 1050 4557 
L 1050 3315 
L 1037 2752 
Q 1248 2938 1501 3062 
Q 1754 3187 2010 3187 
Q 2618 3187 2931 2758 
Q 3245 2330 3245 1606 
Q 3245 1075 3056 697 
Q 2867 320 2563 121 
Q 2259 -77 1901 -77 
z
M 1811 365 
Q 2195 365 2448 694 
Q 2701 1024 2701 1600 
Q 2701 2112 2512 2429 
Q 2323 2746 1882 2746 
Q 1683 2746 1478 2637 
Q 1274 2528 1050 2323 
L 1050 691 
Q 1254 512 1456 438 
Q 1658 365 1811 365 
z
" transform="scale(0.015625)"/>
        <path id="SourceSans3-Regular-20" transform="scale(0.015625)"/>
       </defs>
       <use xlink:href="#SourceSans3-Regular-4b"/>
       <use xlink:href="#SourceSans3-Regular-6f" transform="translate(57.899994 0)"/>
       <use xlink:href="#SourceSans3-Regular-62" transform="translate(112.099991 0)"/>
       <use xlink:href="#SourceSans3-Regular-6f" transform="translate(167.399979 0)"/>
       <use xlink:href="#SourceSans3-Regular-20" transform="translate(221.599976 0)"/>
      </g>
     </g>
    </g>
    <g id="ytick_2">
     <g id="line2d_10"/>
     <g id="text_10">
      <!-- An API has been built to allow other platforms to consume data from FARM MAGIC -->
      <g transform="translate(10.66875 111.727812) scale(0.1 -0.1)">
       <defs>
        <path id="SourceSans3-Regular-41" d="M 1299 2349 
L 1101 1709 
L 2362 1709 
L 2163 2349 
Q 2048 2701 1945 3049 
Q 1843 3398 1741 3763 
L 1715 3763 
Q 1619 3398 1516 3049 
Q 1414 2701 1299 2349 
z
M 19 0 
L 1440 4198 
L 2042 4198 
L 3462 0 
L 2893 0 
L 2496 1280 
L 966 1280 
L 563 0 
L 19 0 
z
" transform="scale(0.015625)"/>
        <path id="SourceSans3-Regular-6e" d="M 525 0 
L 525 3110 
L 960 3110 
L 1005 2662 
L 1024 2662 
Q 1248 2886 1497 3036 
Q 1747 3187 2067 3187 
Q 2560 3187 2787 2876 
Q 3014 2566 3014 1971 
L 3014 0 
L 2490 0 
L 2490 1901 
Q 2490 2336 2349 2534 
Q 2208 2733 1901 2733 
Q 1664 2733 1475 2611 
Q 1286 2490 1050 2253 
L 1050 0 
L 525 0 
z
" transform="scale(0.015625)"/>
        <path id="SourceSans3-Regular-50" d="M 576 0 
L 576 4198 
L 1773 4198 
Q 2246 4198 2598 4083 
Q 2950 3968 3148 3696 
Q 3347 3424 3347 2963 
Q 3347 2304 2918 1984 
Q 2490 1664 1798 1664 
L 1107 1664 
L 1107 0 
L 576 0 
z
M 1107 2099 
L 1734 2099 
Q 2285 2099 2550 2307 
Q 2816 2515 2816 2963 
Q 2816 3418 2537 3594 
Q 2259 3770 1709 3770 
L 1107 3770 
L 1107 2099 
z
" transform="scale(0.015625)"/>
        <path id="SourceSans3-Regular-49" d="M 576 0 
L 576 4198 
L 1107 4198 
L 1107 0 
L 576 0 
z
" transform="scale(0.015625)"/>
        <path id="SourceSans3-Regular-68" d="M 525 0 
L 525 4557 
L 1050 4557 
L 1050 3315 
L 1030 2675 
Q 1254 2886 1500 3036 
Q 1747 3187 2067 3187 
Q 2560 3187 2787 2876 
Q 3014 2566 3014 1971 
L 3014 0 
L 2490 0 
L 2490 1901 
Q 2490 2336 2349 2534 
Q 2208 2733 1901 2733 
Q 1664 2733 1475 2611 
Q 1286 2490 1050 2253 
L 1050 0 
L 525 0 
z
" transform="scale(0.015625)"/>
        <path id="SourceSans3-Regular-61" d="M 1242 -77 
Q 851 -77 588 153 
Q 326 384 326 806 
Q 326 1331 787 1600 
Q 1248 1869 2246 1978 
Q 2246 2176 2188 2349 
Q 2131 2522 1993 2634 
Q 1856 2746 1600 2746 
Q 1331 2746 1094 2643 
Q 858 2541 672 2426 
L 467 2784 
Q 685 2931 1001 3059 
Q 1318 3187 1690 3187 
Q 2259 3187 2515 2838 
Q 2771 2490 2771 1907 
L 2771 0 
L 2336 0 
L 2291 371 
L 2272 371 
Q 2042 186 1789 54 
Q 1536 -77 1242 -77 
z
M 1389 358 
Q 1613 358 1817 460 
Q 2022 563 2246 762 
L 2246 1600 
Q 1722 1542 1414 1440 
Q 1107 1338 976 1190 
Q 845 1043 845 838 
Q 845 582 1005 470 
Q 1165 358 1389 358 
z
" transform="scale(0.015625)"/>
        <path id="SourceSans3-Regular-73" d="M 1338 -77 
Q 998 -77 697 41 
Q 397 160 179 371 
L 422 678 
Q 627 512 848 422 
Q 1069 333 1357 333 
Q 1664 333 1817 477 
Q 1971 621 1971 819 
Q 1971 979 1868 1084 
Q 1766 1190 1606 1264 
Q 1446 1338 1267 1402 
Q 1037 1485 825 1597 
Q 614 1709 483 1878 
Q 352 2048 352 2304 
Q 352 2682 637 2934 
Q 922 3187 1427 3187 
Q 1715 3187 1964 3088 
Q 2214 2989 2394 2835 
L 2150 2534 
Q 1990 2650 1814 2714 
Q 1638 2778 1427 2778 
Q 1133 2778 995 2643 
Q 858 2509 858 2330 
Q 858 2118 1043 2009 
Q 1229 1901 1517 1798 
Q 1760 1715 1981 1600 
Q 2202 1485 2339 1309 
Q 2477 1133 2477 851 
Q 2477 602 2345 390 
Q 2214 179 1961 51 
Q 1709 -77 1338 -77 
z
" transform="scale(0.015625)"/>
        <path id="SourceSans3-Regular-65" d="M 1702 2758 
Q 1510 2758 1328 2665 
Q 1146 2573 1014 2368 
Q 883 2163 838 1830 
L 2458 1830 
Q 2458 2285 2259 2521 
Q 2061 2758 1702 2758 
z
M 1786 -77 
Q 1370 -77 1027 115 
Q 685 307 486 675 
Q 288 1043 288 1555 
Q 288 2061 489 2425 
Q 691 2790 1014 2988 
Q 1338 3187 1696 3187 
Q 2298 3187 2614 2790 
Q 2931 2394 2931 1728 
Q 2931 1645 2924 1568 
Q 2918 1491 2906 1414 
L 826 1414 
Q 864 890 1161 621 
Q 1459 352 1850 352 
Q 2074 352 2269 416 
Q 2464 480 2624 589 
L 2816 243 
Q 2611 102 2358 12 
Q 2106 -77 1786 -77 
z
" transform="scale(0.015625)"/>
        <path id="SourceSans3-Regular-75" d="M 1434 -77 
Q 941 -77 710 233 
Q 480 544 480 1139 
L 480 3110 
L 1011 3110 
L 1011 1210 
Q 1011 774 1148 576 
Q 1286 378 1594 378 
Q 1837 378 2025 502 
Q 2214 627 2432 902 
L 2432 3110 
L 2957 3110 
L 2957 0 
L 2522 0 
L 2477 486 
L 2458 486 
Q 2240 230 1997 76 
Q 1754 -77 1434 -77 
z
" transform="scale(0.015625)"/>
        <path id="SourceSans3-Regular-69" d="M 525 0 
L 525 3110 
L 1050 3110 
L 1050 0 
L 525 0 
z
M 787 3750 
Q 634 3750 534 3843 
Q 435 3936 435 4096 
Q 435 4250 534 4346 
Q 634 4442 787 4442 
Q 941 4442 1040 4346 
Q 1139 4250 1139 4096 
Q 1139 3936 1040 3843 
Q 941 3750 787 3750 
z
" transform="scale(0.015625)"/>
        <path id="SourceSans3-Regular-6c" d="M 1082 -58 
Q 787 -58 656 124 
Q 525 307 525 640 
L 525 4557 
L 1050 4557 
L 1050 602 
Q 1050 480 1094 429 
Q 1139 378 1203 378 
Q 1229 378 1251 381 
Q 1274 384 1312 390 
L 1382 -6 
Q 1267 -58 1082 -58 
z
" transform="scale(0.015625)"/>
        <path id="SourceSans3-Regular-74" d="M 1504 -58 
Q 1005 -58 809 227 
Q 614 512 614 979 
L 614 2682 
L 154 2682 
L 154 3078 
L 640 3110 
L 704 4109 
L 1146 4109 
L 1146 3110 
L 1984 3110 
L 1984 2682 
L 1146 2682 
L 1146 966 
Q 1146 685 1251 528 
Q 1357 371 1626 371 
Q 1709 371 1798 387 
Q 1888 403 1978 448 
L 2086 77 
Q 1965 13 1814 -22 
Q 1664 -58 1504 -58 
z
" transform="scale(0.015625)"/>
        <path id="SourceSans3-Regular-77" d="M 1018 0 
L 154 3110 
L 704 3110 
L 1158 1312 
Q 1210 1101 1254 889 
Q 1299 678 1338 429 
L 1363 429 
Q 1414 678 1462 889 
Q 1510 1101 1562 1312 
L 2022 3110 
L 2598 3110 
L 3066 1312 
Q 3123 1101 3174 889 
Q 3226 678 3270 429 
L 3296 429 
Q 3347 678 3392 889 
Q 3437 1101 3482 1312 
L 3936 3110 
L 4448 3110 
L 3610 0 
L 2925 0 
L 2509 1664 
Q 2451 1882 2406 2096 
Q 2362 2310 2310 2586 
L 2285 2586 
Q 2240 2310 2192 2092 
Q 2144 1875 2086 1664 
L 1670 0 
L 1018 0 
z
" transform="scale(0.015625)"/>
        <path id="SourceSans3-Regular-72" d="M 525 0 
L 525 3110 
L 960 3110 
L 1005 2547 
L 1024 2547 
Q 1178 2842 1408 3014 
Q 1638 3187 1907 3187 
Q 2093 3187 2240 3123 
L 2125 2675 
Q 2054 2694 1993 2704 
Q 1933 2714 1837 2714 
Q 1638 2714 1424 2554 
Q 1210 2394 1050 1997 
L 1050 0 
L 525 0 
z
" transform="scale(0.015625)"/>
        <path id="SourceSans3-Regular-70" d="M 525 -1312 
L 525 3110 
L 960 3110 
L 1005 2752 
L 1024 2752 
Q 1235 2931 1488 3059 
Q 1741 3187 2016 3187 
Q 2618 3187 2931 2755 
Q 3245 2323 3245 1600 
Q 3245 1075 3056 697 
Q 2867 320 2563 121 
Q 2259 -77 1901 -77 
Q 1683 -77 1468 19 
Q 1254 115 1037 282 
L 1050 -262 
L 1050 -1312 
L 525 -1312 
z
M 1811 365 
Q 2195 365 2448 694 
Q 2701 1024 2701 1600 
Q 2701 2112 2512 2429 
Q 2323 2746 1882 2746 
Q 1683 2746 1481 2637 
Q 1280 2528 1050 2323 
L 1050 691 
Q 1261 512 1459 438 
Q 1658 365 1811 365 
z
" transform="scale(0.015625)"/>
        <path id="SourceSans3-Regular-66" d="M 614 0 
L 614 2682 
L 154 2682 
L 154 3078 
L 614 3110 
L 614 3603 
Q 614 4077 835 4355 
Q 1056 4634 1523 4634 
Q 1670 4634 1804 4605 
Q 1939 4576 2042 4531 
L 1926 4147 
Q 1734 4205 1574 4205 
Q 1139 4205 1139 3603 
L 1139 3110 
L 1798 3110 
L 1798 2682 
L 1139 2682 
L 1139 0 
L 614 0 
z
" transform="scale(0.015625)"/>
        <path id="SourceSans3-Regular-6d" d="M 525 0 
L 525 3110 
L 960 3110 
L 1005 2662 
L 1024 2662 
Q 1229 2886 1472 3036 
Q 1715 3187 1990 3187 
Q 2349 3187 2550 3030 
Q 2752 2874 2848 2592 
Q 3091 2854 3340 3020 
Q 3590 3187 3872 3187 
Q 4352 3187 4585 2876 
Q 4819 2566 4819 1971 
L 4819 0 
L 4294 0 
L 4294 1901 
Q 4294 2336 4153 2534 
Q 4013 2733 3718 2733 
Q 3373 2733 2938 2253 
L 2938 0 
L 2413 0 
L 2413 1901 
Q 2413 2336 2272 2534 
Q 2131 2733 1830 2733 
Q 1485 2733 1050 2253 
L 1050 0 
L 525 0 
z
" transform="scale(0.015625)"/>
        <path id="SourceSans3-Regular-63" d="M 1760 -77 
Q 1344 -77 1011 115 
Q 678 307 486 672 
Q 294 1037 294 1549 
Q 294 2074 502 2438 
Q 710 2803 1052 2995 
Q 1395 3187 1792 3187 
Q 2099 3187 2320 3084 
Q 2541 2982 2701 2822 
L 2438 2502 
Q 2317 2611 2166 2681 
Q 2016 2752 1811 2752 
Q 1536 2752 1315 2601 
Q 1094 2451 966 2179 
Q 838 1907 838 1549 
Q 838 1018 1107 688 
Q 1376 358 1805 358 
Q 2016 358 2201 441 
Q 2387 525 2528 653 
L 2758 333 
Q 2566 147 2313 35 
Q 2061 -77 1760 -77 
z
" transform="scale(0.015625)"/>
        <path id="SourceSans3-Regular-64" d="M 1587 -77 
Q 1005 -77 653 348 
Q 301 774 301 1549 
Q 301 2054 489 2422 
Q 678 2790 988 2988 
Q 1299 3187 1651 3187 
Q 1920 3187 2118 3091 
Q 2317 2995 2522 2829 
L 2496 3360 
L 2496 4557 
L 3027 4557 
L 3027 0 
L 2592 0 
L 2547 365 
L 2528 365 
Q 2349 186 2105 54 
Q 1862 -77 1587 -77 
z
M 1702 365 
Q 2112 365 2496 794 
L 2496 2419 
Q 2298 2598 2115 2672 
Q 1933 2746 1741 2746 
Q 1491 2746 1289 2595 
Q 1088 2445 966 2179 
Q 845 1914 845 1555 
Q 845 998 1069 681 
Q 1293 365 1702 365 
z
" transform="scale(0.015625)"/>
        <path id="SourceSans3-Regular-46" d="M 576 0 
L 576 4198 
L 2995 4198 
L 2995 3750 
L 1107 3750 
L 1107 2330 
L 2707 2330 
L 2707 1882 
L 1107 1882 
L 1107 0 
L 576 0 
z
" transform="scale(0.015625)"/>
        <path id="SourceSans3-Regular-52" d="M 576 0 
L 576 4198 
L 1888 4198 
Q 2317 4198 2649 4086 
Q 2982 3974 3171 3715 
Q 3360 3456 3360 3021 
Q 3360 2534 3104 2236 
Q 2848 1939 2413 1830 
L 3482 0 
L 2880 0 
L 1869 1773 
L 1107 1773 
L 1107 0 
L 576 0 
z
M 1107 2208 
L 1811 2208 
Q 2304 2208 2566 2409 
Q 2829 2611 2829 3021 
Q 2829 3437 2566 3603 
Q 2304 3770 1811 3770 
L 1107 3770 
L 1107 2208 
z
" transform="scale(0.015625)"/>
        <path id="SourceSans3-Regular-4d" d="M 576 0 
L 576 4198 
L 1248 4198 
L 2042 1952 
Q 2112 1734 2182 1526 
Q 2253 1318 2323 1082 
L 2349 1082 
Q 2419 1318 2480 1526 
Q 2541 1734 2618 1952 
L 3411 4198 
L 4077 4198 
L 4077 0 
L 3578 0 
L 3578 2310 
Q 3578 2496 3590 2726 
Q 3603 2957 3622 3184 
Q 3642 3411 3654 3597 
L 3629 3597 
L 3302 2586 
L 2515 416 
L 2125 416 
L 1338 2586 
L 1011 3597 
L 986 3597 
Q 1005 3411 1024 3184 
Q 1043 2957 1052 2726 
Q 1062 2496 1062 2310 
L 1062 0 
L 576 0 
z
" transform="scale(0.015625)"/>
        <path id="SourceSans3-Regular-47" d="M 2227 -77 
Q 1677 -77 1248 182 
Q 819 442 576 928 
Q 333 1414 333 2099 
Q 333 2778 582 3264 
Q 832 3750 1267 4012 
Q 1702 4275 2259 4275 
Q 2694 4275 2992 4115 
Q 3290 3955 3469 3757 
L 3174 3424 
Q 3014 3590 2803 3699 
Q 2592 3808 2272 3808 
Q 1850 3808 1536 3600 
Q 1222 3392 1052 3014 
Q 883 2637 883 2112 
Q 883 1318 1244 854 
Q 1606 390 2278 390 
Q 2502 390 2707 457 
Q 2912 525 3034 640 
L 3034 1734 
L 2144 1734 
L 2144 2176 
L 3520 2176 
L 3520 410 
Q 3322 198 2986 60 
Q 2650 -77 2227 -77 
z
" transform="scale(0.015625)"/>
        <path id="SourceSans3-Regular-43" d="M 2170 -77 
Q 1645 -77 1229 182 
Q 813 442 573 928 
Q 333 1414 333 2099 
Q 333 2778 576 3264 
Q 819 3750 1241 4012 
Q 1664 4275 2195 4275 
Q 2573 4275 2870 4124 
Q 3168 3974 3347 3757 
L 3059 3430 
Q 2893 3610 2678 3709 
Q 2464 3808 2202 3808 
Q 1811 3808 1513 3600 
Q 1216 3392 1049 3014 
Q 883 2637 883 2112 
Q 883 1587 1046 1200 
Q 1210 813 1507 601 
Q 1805 390 2208 390 
Q 2502 390 2736 502 
Q 2970 614 3168 832 
L 3443 525 
Q 3187 237 2883 80 
Q 2579 -77 2170 -77 
z
" transform="scale(0.015625)"/>
       </defs>
       <use xlink:href="#SourceSans3-Regular-41"/>
       <use xlink:href="#SourceSans3-Regular-6e" transform="translate(54.399994 0)"/>
       <use xlink:href="#SourceSans3-Regular-20" transform="translate(109.099991 0)"/>
       <use xlink:href="#SourceSans3-Regular-41" transform="translate(129.099976 0)"/>
       <use xlink:href="#SourceSans3-Regular-50" transform="translate(183.499969 0)"/>
       <use xlink:href="#SourceSans3-Regular-49" transform="translate(240.09996 0)"/>
       <use xlink:href="#SourceSans3-Regular-20" transform="translate(266.399948 0)"/>
       <use xlink:href="#SourceSans3-Regular-68" transform="translate(286.399933 0)"/>
       <use xlink:href="#SourceSans3-Regular-61" transform="translate(340.799927 0)"/>
       <use xlink:href="#SourceSans3-Regular-73" transform="translate(391.199921 0)"/>
       <use xlink:href="#SourceSans3-Regular-20" transform="translate(433.099915 0)"/>
       <use xlink:href="#SourceSans3-Regular-62" transform="translate(453.099899 0)"/>
       <use xlink:href="#SourceSans3-Regular-65" transform="translate(508.399887 0)"/>
       <use xlink:href="#SourceSans3-Regular-65" transform="translate(557.999878 0)"/>
       <use xlink:href="#SourceSans3-Regular-6e" transform="translate(607.599869 0)"/>
       <use xlink:href="#SourceSans3-Regular-20" transform="translate(662.299866 0)"/>
       <use xlink:href="#SourceSans3-Regular-62" transform="translate(682.29985 0)"/>
       <use xlink:href="#SourceSans3-Regular-75" transform="translate(737.599838 0)"/>
       <use xlink:href="#SourceSans3-Regular-69" transform="translate(791.999832 0)"/>
       <use xlink:href="#SourceSans3-Regular-6c" transform="translate(816.599823 0)"/>
       <use xlink:href="#SourceSans3-Regular-74" transform="translate(842.099808 0)"/>
       <use xlink:href="#SourceSans3-Regular-20" transform="translate(875.899796 0)"/>
       <use xlink:href="#SourceSans3-Regular-74" transform="translate(895.89978 0)"/>
       <use xlink:href="#SourceSans3-Regular-6f" transform="translate(929.699768 0)"/>
       <use xlink:href="#SourceSans3-Regular-20" transform="translate(983.899765 0)"/>
       <use xlink:href="#SourceSans3-Regular-61" transform="translate(1003.89975 0)"/>
       <use xlink:href="#SourceSans3-Regular-6c" transform="translate(1054.299744 0)"/>
       <use xlink:href="#SourceSans3-Regular-6c" transform="translate(1079.799728 0)"/>
       <use xlink:href="#SourceSans3-Regular-6f" transform="translate(1105.299713 0)"/>
       <use xlink:href="#SourceSans3-Regular-77" transform="translate(1159.49971 0)"/>
       <use xlink:href="#SourceSans3-Regular-20" transform="translate(1231.399704 0)"/>
       <use xlink:href="#SourceSans3-Regular-6f" transform="translate(1251.399689 0)"/>
       <use xlink:href="#SourceSans3-Regular-74" transform="translate(1305.599686 0)"/>
       <use xlink:href="#SourceSans3-Regular-68" transform="translate(1339.399673 0)"/>
       <use xlink:href="#SourceSans3-Regular-65" transform="translate(1393.799667 0)"/>
       <use xlink:href="#SourceSans3-Regular-72" transform="translate(1443.399658 0)"/>
       <use xlink:href="#SourceSans3-Regular-20" transform="translate(1478.099655 0)"/>
       <use xlink:href="#SourceSans3-Regular-70" transform="translate(1498.09964 0)"/>
       <use xlink:href="#SourceSans3-Regular-6c" transform="translate(1553.599625 0)"/>
       <use xlink:href="#SourceSans3-Regular-61" transform="translate(1579.099609 0)"/>
       <use xlink:href="#SourceSans3-Regular-74" transform="translate(1629.499603 0)"/>
       <use xlink:href="#SourceSans3-Regular-66" transform="translate(1663.299591 0)"/>
       <use xlink:href="#SourceSans3-Regular-6f" transform="translate(1692.499588 0)"/>
       <use xlink:href="#SourceSans3-Regular-72" transform="translate(1746.699585 0)"/>
       <use xlink:href="#SourceSans3-Regular-6d" transform="translate(1781.399582 0)"/>
       <use xlink:href="#SourceSans3-Regular-73" transform="translate(1864.299576 0)"/>
       <use xlink:href="#SourceSans3-Regular-20" transform="translate(1906.19957 0)"/>
       <use xlink:href="#SourceSans3-Regular-74" transform="translate(1926.199554 0)"/>
       <use xlink:href="#SourceSans3-Regular-6f" transform="translate(1959.999542 0)"/>
       <use xlink:href="#SourceSans3-Regular-20" transform="translate(2014.199539 0)"/>
       <use xlink:href="#SourceSans3-Regular-63" transform="translate(2034.199524 0)"/>
       <use xlink:href="#SourceSans3-Regular-6f" transform="translate(2079.799515 0)"/>
       <use xlink:href="#SourceSans3-Regular-6e" transform="translate(2133.999512 0)"/>
       <use xlink:href="#SourceSans3-Regular-73" transform="translate(2188.699509 0)"/>
       <use xlink:href="#SourceSans3-Regular-75" transform="translate(2230.599503 0)"/>
       <use xlink:href="#SourceSans3-Regular-6d" transform="translate(2284.999496 0)"/>
       <use xlink:href="#SourceSans3-Regular-65" transform="translate(2367.89949 0)"/>
       <use xlink:href="#SourceSans3-Regular-20" transform="translate(2417.499481 0)"/>
       <use xlink:href="#SourceSans3-Regular-64" transform="translate(2437.499466 0)"/>
       <use xlink:href="#SourceSans3-Regular-61" transform="translate(2492.999451 0)"/>
       <use xlink:href="#SourceSans3-Regular-74" transform="translate(2543.399445 0)"/>
       <use xlink:href="#SourceSans3-Regular-61" transform="translate(2577.199432 0)"/>
       <use xlink:href="#SourceSans3-Regular-20" transform="translate(2627.599426 0)"/>
       <use xlink:href="#SourceSans3-Regular-66" transform="translate(2647.599411 0)"/>
       <use xlink:href="#SourceSans3-Regular-72" transform="translate(2676.799408 0)"/>
       <use xlink:href="#SourceSans3-Regular-6f" transform="translate(2711.499405 0)"/>
       <use xlink:href="#SourceSans3-Regular-6d" transform="translate(2765.699402 0)"/>
       <use xlink:href="#SourceSans3-Regular-20" transform="translate(2848.599396 0)"/>
       <use xlink:href="#SourceSans3-Regular-46" transform="translate(2868.59938 0)"/>
       <use xlink:href="#SourceSans3-Regular-41" transform="translate(2917.999374 0)"/>
       <use xlink:href="#SourceSans3-Regular-52" transform="translate(2972.399368 0)"/>
       <use xlink:href="#SourceSans3-Regular-4d" transform="translate(3029.299362 0)"/>
       <use xlink:href="#SourceSans3-Regular-20" transform="translate(3101.999344 0)"/>
       <use xlink:href="#SourceSans3-Regular-4d" transform="translate(3121.999329 0)"/>
       <use xlink:href="#SourceSans3-Regular-41" transform="translate(3194.69931 0)"/>
       <use xlink:href="#SourceSans3-Regular-47" transform="translate(3249.099304 0)"/>
       <use xlink:href="#SourceSans3-Regular-49" transform="translate(3310.799301 0)"/>
       <use xlink:href="#SourceSans3-Regular-43" transform="translate(3337.099289 0)"/>
      </g>
     </g>
    </g>
    <g id="ytick_3">
     <g id="line2d_11"/>
     <g id="text_11">
      <!-- WFP SCOPE -->
      <g transform="translate(301.020313 164.091358) scale(0.1 -0.1)">
       <defs>
        <path id="SourceSans3-Regular-57" d="M 1018 0 
L 147 4198 
L 717 4198 
L 1146 1914 
Q 1210 1574 1267 1235 
Q 1325 896 1376 538 
L 1402 538 
Q 1472 896 1542 1238 
Q 1613 1581 1690 1914 
L 2259 4198 
L 2797 4198 
L 3347 1914 
Q 3424 1581 3501 1238 
Q 3578 896 3648 538 
L 3674 538 
Q 3725 896 3779 1238 
Q 3834 1581 3898 1914 
L 4339 4198 
L 4883 4198 
L 4006 0 
L 3322 0 
L 2720 2522 
Q 2669 2765 2624 2998 
Q 2579 3232 2528 3507 
L 2502 3507 
Q 2464 3232 2416 2998 
Q 2368 2765 2317 2522 
L 1702 0 
L 1018 0 
z
" transform="scale(0.015625)"/>
        <path id="SourceSans3-Regular-53" d="M 1741 -77 
Q 1293 -77 918 89 
Q 544 256 269 550 
L 570 896 
Q 794 659 1104 524 
Q 1414 390 1747 390 
Q 2163 390 2393 579 
Q 2624 768 2624 1075 
Q 2624 1293 2531 1421 
Q 2438 1549 2281 1638 
Q 2125 1728 1926 1818 
L 1325 2080 
Q 1126 2170 928 2304 
Q 730 2438 602 2649 
Q 474 2861 474 3162 
Q 474 3482 643 3734 
Q 813 3987 1110 4131 
Q 1408 4275 1792 4275 
Q 2176 4275 2496 4134 
Q 2816 3994 3034 3770 
L 2746 3424 
Q 2547 3597 2310 3702 
Q 2074 3808 1792 3808 
Q 1440 3808 1225 3641 
Q 1011 3475 1011 3194 
Q 1011 2995 1116 2864 
Q 1222 2733 1382 2649 
Q 1542 2566 1709 2496 
L 2304 2240 
Q 2682 2080 2925 1833 
Q 3168 1587 3168 1120 
Q 3168 787 2995 515 
Q 2822 243 2505 83 
Q 2189 -77 1741 -77 
z
" transform="scale(0.015625)"/>
        <path id="SourceSans3-Regular-4f" d="M 2125 -77 
Q 1600 -77 1193 192 
Q 787 461 560 953 
Q 333 1446 333 2118 
Q 333 2790 560 3273 
Q 787 3757 1193 4016 
Q 1600 4275 2125 4275 
Q 2656 4275 3059 4016 
Q 3462 3757 3692 3273 
Q 3923 2790 3923 2118 
Q 3923 1446 3692 953 
Q 3462 461 3059 192 
Q 2656 -77 2125 -77 
z
M 2125 390 
Q 2502 390 2780 604 
Q 3059 819 3212 1206 
Q 3366 1594 3366 2118 
Q 3366 2899 3027 3353 
Q 2688 3808 2125 3808 
Q 1562 3808 1222 3353 
Q 883 2899 883 2118 
Q 883 1594 1036 1206 
Q 1190 819 1472 604 
Q 1754 390 2125 390 
z
" transform="scale(0.015625)"/>
        <path id="SourceSans3-Regular-45" d="M 576 0 
L 576 4198 
L 2995 4198 
L 2995 3750 
L 1107 3750 
L 1107 2432 
L 2701 2432 
L 2701 1978 
L 1107 1978 
L 1107 454 
L 3059 454 
L 3059 0 
L 576 0 
z
" transform="scale(0.015625)"/>
       </defs>
       <use xlink:href="#SourceSans3-Regular-57"/>
       <use xlink:href="#SourceSans3-Regular-46" transform="translate(78.599991 0)"/>
       <use xlink:href="#SourceSans3-Regular-50" transform="translate(127.999985 0)"/>
       <use xlink:href="#SourceSans3-Regular-20" transform="translate(184.599976 0)"/>
       <use xlink:href="#SourceSans3-Regular-53" transform="translate(204.59996 0)"/>
       <use xlink:href="#SourceSans3-Regular-43" transform="translate(257.999954 0)"/>
       <use xlink:href="#SourceSans3-Regular-4f" transform="translate(315.099945 0)"/>
       <use xlink:href="#SourceSans3-Regular-50" transform="translate(381.499939 0)"/>
       <use xlink:href="#SourceSans3-Regular-45" transform="translate(438.09993 0)"/>
      </g>
     </g>
    </g>
   </g>
   <g id="text_12">
    <!-- 1 (33%) -->
    <g style="fill: #ffffff" transform="translate(648.609524 57.965439) scale(0.09 -0.09)">
     <defs>
      <path id="SourceSans3-Regular-28" d="M 1370 -1126 
Q 973 -480 749 227 
Q 525 934 525 1779 
Q 525 2624 749 3334 
Q 973 4045 1370 4685 
L 1696 4531 
Q 1325 3923 1142 3216 
Q 960 2509 960 1779 
Q 960 1050 1142 342 
Q 1325 -365 1696 -973 
L 1370 -1126 
z
" transform="scale(0.015625)"/>
      <path id="SourceSans3-Regular-29" d="M 570 -1126 
L 243 -973 
Q 614 -365 796 342 
Q 979 1050 979 1779 
Q 979 2509 796 3216 
Q 614 3923 243 4531 
L 570 4685 
Q 966 4045 1190 3334 
Q 1414 2624 1414 1779 
Q 1414 934 1190 227 
Q 966 -480 570 -1126 
z
" transform="scale(0.015625)"/>
     </defs>
     <use xlink:href="#SourceSans3-Regular-31"/>
     <use xlink:href="#SourceSans3-Regular-20" transform="translate(49.699997 0)"/>
     <use xlink:href="#SourceSans3-Regular-28" transform="translate(69.699982 0)"/>
     <use xlink:href="#SourceSans3-Regular-33" transform="translate(99.999969 0)"/>
     <use xlink:href="#SourceSans3-Regular-33" transform="translate(149.699966 0)"/>
     <use xlink:href="#SourceSans3-Regular-25" transform="translate(199.399963 0)"/>
     <use xlink:href="#SourceSans3-Regular-29" transform="translate(281.799957 0)"/>
    </g>
   </g>
   <g id="text_13">
    <!-- 1 (33%) -->
    <g style="fill: #ffffff" transform="translate(648.609524 110.389141) scale(0.09 -0.09)">
     <use xlink:href="#SourceSans3-Regular-31"/>
     <use xlink:href="#SourceSans3-Regular-20" transform="translate(49.699997 0)"/>
     <use xlink:href="#SourceSans3-Regular-28" transform="translate(69.699982 0)"/>
     <use xlink:href="#SourceSans3-Regular-33" transform="translate(99.999969 0)"/>
     <use xlink:href="#SourceSans3-Regular-33" transform="translate(149.699966 0)"/>
     <use xlink:href="#SourceSans3-Regular-25" transform="translate(199.399963 0)"/>
     <use xlink:href="#SourceSans3-Regular-29" transform="translate(281.799957 0)"/>
    </g>
   </g>
   <g id="text_14">
    <!-- 1 (33%) -->
    <g style="fill: #ffffff" transform="translate(648.609524 162.812842) scale(0.09 -0.09)">
     <use xlink:href="#SourceSans3-Regular-31"/>
     <use xlink:href="#SourceSans3-Regular-20" transform="translate(49.699997 0)"/>
     <use xlink:href="#SourceSans3-Regular-28" transform="translate(69.699982 0)"/>
     <use xlink:href="#SourceSans3-Regular-33" transform="translate(99.999969 0)"/>
     <use xlink:href="#SourceSans3-Regular-33" transform="translate(149.699966 0)"/>
     <use xlink:href="#SourceSans3-Regular-25" transform="translate(199.399963 0)"/>
     <use xlink:href="#SourceSans3-Regular-29" transform="translate(281.799957 0)"/>
    </g>
   </g>
   <g id="text_15">
    <!-- Interoperable system (n = 3) -->
    <g style="fill: #404040" transform="translate(445.276563 21.375) scale(0.14 -0.14)">
     <defs>
      <path id="SourceSans3-Regular-79" d="M 576 -1338 
Q 474 -1338 381 -1318 
Q 288 -1299 211 -1274 
L 326 -864 
Q 442 -902 550 -902 
Q 813 -902 985 -713 
Q 1158 -525 1254 -237 
L 1325 -6 
L 77 3110 
L 621 3110 
L 1254 1389 
Q 1325 1190 1405 960 
Q 1485 730 1555 512 
L 1581 512 
Q 1651 723 1715 953 
Q 1779 1184 1843 1389 
L 2400 3110 
L 2912 3110 
L 1741 -256 
Q 1632 -563 1481 -806 
Q 1331 -1050 1110 -1194 
Q 890 -1338 576 -1338 
z
" transform="scale(0.015625)"/>
      <path id="SourceSans3-Regular-3d" d="M 218 2599 
L 218 2995 
L 2963 2995 
L 2963 2599 
L 218 2599 
z
M 218 1229 
L 218 1625 
L 2963 1625 
L 2963 1229 
L 218 1229 
z
" transform="scale(0.015625)"/>
     </defs>
     <use xlink:href="#SourceSans3-Regular-49"/>
     <use xlink:href="#SourceSans3-Regular-6e" transform="translate(26.299988 0)"/>
     <use xlink:href="#SourceSans3-Regular-74" transform="translate(80.999985 0)"/>
     <use xlink:href="#SourceSans3-Regular-65" transform="translate(114.799973 0)"/>
     <use xlink:href="#SourceSans3-Regular-72" transform="translate(164.399963 0)"/>
     <use xlink:href="#SourceSans3-Regular-6f" transform="translate(199.09996 0)"/>
     <use xlink:href="#SourceSans3-Regular-70" transform="translate(253.299957 0)"/>
     <use xlink:href="#SourceSans3-Regular-65" transform="translate(308.799942 0)"/>
     <use xlink:href="#SourceSans3-Regular-72" transform="translate(358.399933 0)"/>
     <use xlink:href="#SourceSans3-Regular-61" transform="translate(393.09993 0)"/>
     <use xlink:href="#SourceSans3-Regular-62" transform="translate(443.499924 0)"/>
     <use xlink:href="#SourceSans3-Regular-6c" transform="translate(498.799911 0)"/>
     <use xlink:href="#SourceSans3-Regular-65" transform="translate(524.299896 0)"/>
     <use xlink:href="#SourceSans3-Regular-20" transform="translate(573.899887 0)"/>
     <use xlink:href="#SourceSans3-Regular-73" transform="translate(593.899872 0)"/>
     <use xlink:href="#SourceSans3-Regular-79" transform="translate(635.799866 0)"/>
     <use xlink:href="#SourceSans3-Regular-73" transform="translate(682.499863 0)"/>
     <use xlink:href="#SourceSans3-Regular-74" transform="translate(724.399857 0)"/>
     <use xlink:href="#SourceSans3-Regular-65" transform="translate(758.199844 0)"/>
     <use xlink:href="#SourceSans3-Regular-6d" transform="translate(807.799835 0)"/>
     <use xlink:href="#SourceSans3-Regular-20" transform="translate(890.699829 0)"/>
     <use xlink:href="#SourceSans3-Regular-28" transform="translate(910.699814 0)"/>
     <use xlink:href="#SourceSans3-Regular-6e" transform="translate(940.999802 0)"/>
     <use xlink:href="#SourceSans3-Regular-20" transform="translate(995.699799 0)"/>
     <use xlink:href="#SourceSans3-Regular-3d" transform="translate(1015.699783 0)"/>
     <use xlink:href="#SourceSans3-Regular-20" transform="translate(1065.39978 0)"/>
     <use xlink:href="#SourceSans3-Regular-33" transform="translate(1085.399765 0)"/>
     <use xlink:href="#SourceSans3-Regular-29" transform="translate(1135.099762 0)"/>
    </g>
   </g>
  </g>
 </g>
 <defs>
  <clipPath id="p553b130ec6">
   <rect x="353.6" y="27.375" width="346.51" height="161.465"/>
  </clipPath>
 </defs>
</svg>
