<?xml version="1.0" encoding="utf-8" standalone="no"?>
<!DOCTYPE svg PUBLIC "-//W3C//DTD SVG 1.1//EN"
  "http://www.w3.org/Graphics/SVG/1.1/DTD/svg11.dtd">
<svg xmlns:xlink="http://www.w3.org/1999/xlink" width="288pt" height="288pt" viewBox="0 0 288 288" xmlns="http://www.w3.org/2000/svg" version="1.1">
 <metadata>
  <rdf:RDF xmlns:dc="http://purl.org/dc/elements/1.1/" xmlns:cc="http://creativecommons.org/ns#" xmlns:rdf="http://www.w3.org/1999/02/22-rdf-syntax-ns#">
   <cc:Work>
    <dc:type rdf:resource="http://purl.org/dc/dcmitype/StillImage"/>
    <dc:date>2025-11-10T09:42:58.446683</dc:date>
    <dc:format>image/svg+xml</dc:format>
    <dc:creator>
     <cc:Agent>
      <dc:title>Matplotlib v3.10.7, https://matplotlib.org/</dc:title>
     </cc:Agent>
    </dc:creator>
   </cc:Work>
  </rdf:RDF>
 </metadata>
 <defs>
  <style type="text/css">*{stroke-linejoin: round; stroke-linecap: butt}</style>
 </defs>
 <g id="figure_1">
  <g id="patch_1">
   <path d="M 0 288 
L 288 288 
L 288 0 
L 0 0 
L 0 288 
z
" style="fill: none"/>
  </g>
  <g id="axes_1">
   <g id="patch_2">
    <path d="M 147.600023 43.985464 
C 129.099312 43.985464 110.946289 49.045999 95.113727 58.617117 
C 79.281166 68.188234 66.364154 81.91019 57.766446 98.291757 
C 49.168737 114.673323 45.213488 133.098774 46.330533 151.565732 
C 47.447579 170.032689 53.594934 187.847045 64.104536 203.072832 
C 74.614139 218.298618 89.09097 230.363551 105.961766 237.956479 
C 122.832562 245.549407 141.463209 248.384938 159.829029 246.154923 
C 178.194849 243.924907 195.605535 236.713163 210.168989 225.303425 
C 224.732442 213.893686 235.901274 198.714804 242.461715 181.416338 
L 179.852998 157.67199 
C 177.622448 163.553468 173.825046 168.714288 168.873472 172.593599 
C 163.921898 176.472911 158.002264 178.924904 151.757885 179.683109 
C 145.513507 180.441314 139.179086 179.477233 133.443016 176.895638 
C 127.706945 174.314042 122.784823 170.211965 119.211558 165.035198 
C 115.638293 159.85843 113.548192 153.801549 113.168397 147.522784 
C 112.788601 141.244018 114.133386 134.979365 117.056607 129.409632 
C 119.979828 123.8399 124.371612 119.174435 129.754683 115.920255 
C 135.137754 112.666075 141.309782 110.945493 147.600023 110.945493 
z
" style="fill: #5cb8b2; stroke: #ffffff; stroke-linejoin: miter"/>
   </g>
   <g id="patch_3">
    <path d="M 242.461715 181.416344 
C 248.285818 166.05945 250.294607 149.51553 248.314899 133.21108 
C 246.335184 116.90663 240.425526 101.324136 231.095519 87.807284 
C 221.765511 74.290431 209.291214 63.239177 194.748309 55.60647 
C 180.205401 47.973763 164.024238 43.985464 147.600038 43.985464 
L 147.600028 110.945493 
C 153.184256 110.945493 158.685852 112.301514 163.630441 114.896635 
C 168.575028 117.491755 172.816289 121.249182 175.988492 125.844911 
C 179.160694 130.440641 181.169978 135.738689 181.843081 141.282202 
C 182.516182 146.825715 181.833194 152.450648 179.852999 157.671992 
z
" style="fill: #e9f4f3; stroke: #ffffff; stroke-linejoin: miter"/>
   </g>
   <g id="matplotlib.axis_1"/>
   <g id="matplotlib.axis_2"/>
   <g id="text_1">
    <!-- Yes -->
    <g style="fill: #404040" transform="translate(138.684398 142.390178) scale(0.12 -0.12)">
     <defs>
      <path id="SourceSans3-Bold-59" d="M 1210 0 
L 1210 1485 
L -51 4173 
L 960 4173 
L 1331 3213 
Q 1421 2976 1504 2755 
Q 1587 2534 1670 2291 
L 1696 2291 
Q 1786 2534 1875 2755 
Q 1965 2976 2048 3213 
L 2426 4173 
L 3411 4173 
L 2150 1485 
L 2150 0 
L 1210 0 
z
" transform="scale(0.015625)"/>
      <path id="SourceSans3-Bold-65" d="M 1747 2528 
Q 1562 2528 1386 2403 
Q 1210 2278 1146 1952 
L 2272 1952 
Q 2272 2202 2150 2365 
Q 2029 2528 1747 2528 
z
M 1837 -77 
Q 1382 -77 1017 118 
Q 653 314 441 688 
Q 230 1062 230 1587 
Q 230 2106 444 2477 
Q 659 2848 1004 3049 
Q 1350 3251 1728 3251 
Q 2182 3251 2483 3049 
Q 2784 2848 2931 2505 
Q 3078 2163 3078 1728 
Q 3078 1606 3065 1488 
Q 3053 1370 3040 1299 
L 1146 1299 
Q 1222 928 1459 787 
Q 1696 646 1965 646 
Q 2317 646 2656 851 
L 2963 275 
Q 2726 109 2422 16 
Q 2118 -77 1837 -77 
z
" transform="scale(0.015625)"/>
      <path id="SourceSans3-Bold-73" d="M 1350 -77 
Q 1037 -77 707 44 
Q 378 166 134 397 
L 531 928 
Q 749 755 963 688 
Q 1178 621 1376 621 
Q 1587 621 1683 694 
Q 1779 768 1779 890 
Q 1779 1050 1596 1133 
Q 1414 1216 1158 1312 
Q 934 1395 739 1523 
Q 544 1651 425 1833 
Q 307 2016 307 2259 
Q 307 2701 643 2976 
Q 979 3251 1523 3251 
Q 1869 3251 2157 3139 
Q 2445 3027 2643 2848 
L 2240 2323 
Q 2067 2451 1894 2502 
Q 1722 2554 1555 2554 
Q 1370 2554 1280 2483 
Q 1190 2413 1190 2304 
Q 1190 2163 1334 2086 
Q 1478 2010 1779 1914 
Q 2144 1792 2400 1568 
Q 2656 1344 2656 947 
Q 2656 518 2323 220 
Q 1990 -77 1350 -77 
z
" transform="scale(0.015625)"/>
     </defs>
     <use xlink:href="#SourceSans3-Bold-59"/>
     <use xlink:href="#SourceSans3-Bold-65" transform="translate(52.499985 0)"/>
     <use xlink:href="#SourceSans3-Bold-73" transform="translate(104.299973 0)"/>
    </g>
    <!-- 31% -->
    <g style="fill: #404040" transform="translate(136.122211 154.692428) scale(0.12 -0.12)">
     <defs>
      <path id="SourceSans3-Bold-33" d="M 1555 -77 
Q 1062 -77 713 83 
Q 365 243 141 499 
L 576 1094 
Q 762 915 986 800 
Q 1210 685 1466 685 
Q 1766 685 1945 809 
Q 2125 934 2125 1165 
Q 2125 1344 2035 1475 
Q 1946 1606 1709 1676 
Q 1472 1747 1030 1747 
L 1030 2413 
Q 1581 2413 1785 2563 
Q 1990 2714 1990 2957 
Q 1990 3168 1862 3286 
Q 1734 3405 1491 3405 
Q 1274 3405 1098 3309 
Q 922 3213 730 3046 
L 256 3622 
Q 538 3866 851 4003 
Q 1165 4141 1536 4141 
Q 2163 4141 2550 3849 
Q 2938 3558 2938 3027 
Q 2938 2714 2762 2490 
Q 2586 2266 2259 2125 
L 2259 2099 
Q 2611 1997 2838 1750 
Q 3066 1504 3066 1107 
Q 3066 730 2858 464 
Q 2650 198 2307 60 
Q 1965 -77 1555 -77 
z
" transform="scale(0.015625)"/>
      <path id="SourceSans3-Bold-31" d="M 448 0 
L 448 762 
L 1331 762 
L 1331 3110 
L 570 3110 
L 570 3693 
Q 902 3757 1132 3846 
Q 1363 3936 1581 4064 
L 2272 4064 
L 2272 762 
L 3034 762 
L 3034 0 
L 448 0 
z
" transform="scale(0.015625)"/>
      <path id="SourceSans3-Bold-25" d="M 1203 1600 
Q 755 1600 460 1952 
Q 166 2304 166 2931 
Q 166 3559 460 3904 
Q 755 4250 1203 4250 
Q 1658 4250 1952 3904 
Q 2246 3559 2246 2931 
Q 2246 2304 1952 1952 
Q 1658 1600 1203 1600 
z
M 1203 2125 
Q 1363 2125 1475 2304 
Q 1587 2483 1587 2931 
Q 1587 3379 1475 3552 
Q 1363 3725 1203 3725 
Q 1043 3725 931 3552 
Q 819 3379 819 2931 
Q 819 2483 931 2304 
Q 1043 2125 1203 2125 
z
M 1344 -77 
L 3597 4250 
L 4141 4250 
L 1888 -77 
L 1344 -77 
z
M 4282 -77 
Q 3834 -77 3539 275 
Q 3245 627 3245 1254 
Q 3245 1882 3539 2227 
Q 3834 2573 4282 2573 
Q 4736 2573 5030 2227 
Q 5325 1882 5325 1254 
Q 5325 627 5030 275 
Q 4736 -77 4282 -77 
z
M 4282 448 
Q 4442 448 4554 627 
Q 4666 806 4666 1254 
Q 4666 1702 4554 1875 
Q 4442 2048 4282 2048 
Q 4122 2048 4010 1875 
Q 3898 1702 3898 1254 
Q 3898 806 4010 627 
Q 4122 448 4282 448 
z
" transform="scale(0.015625)"/>
     </defs>
     <use xlink:href="#SourceSans3-Bold-33"/>
     <use xlink:href="#SourceSans3-Bold-31" transform="translate(52.799988 0)"/>
     <use xlink:href="#SourceSans3-Bold-25" transform="translate(105.599976 0)"/>
    </g>
   </g>
   <g id="text_2">
    <!-- Is it inter-agency (n = 13) -->
    <g style="fill: #404040" transform="translate(86.586562 28.56) scale(0.12 -0.12)">
     <defs>
      <path id="SourceSans3-Regular-49" d="M 576 0 
L 576 4198 
L 1107 4198 
L 1107 0 
L 576 0 
z
" transform="scale(0.015625)"/>
      <path id="SourceSans3-Regular-73" d="M 1338 -77 
Q 998 -77 697 41 
Q 397 160 179 371 
L 422 678 
Q 627 512 848 422 
Q 1069 333 1357 333 
Q 1664 333 1817 477 
Q 1971 621 1971 819 
Q 1971 979 1868 1084 
Q 1766 1190 1606 1264 
Q 1446 1338 1267 1402 
Q 1037 1485 825 1597 
Q 614 1709 483 1878 
Q 352 2048 352 2304 
Q 352 2682 637 2934 
Q 922 3187 1427 3187 
Q 1715 3187 1964 3088 
Q 2214 2989 2394 2835 
L 2150 2534 
Q 1990 2650 1814 2714 
Q 1638 2778 1427 2778 
Q 1133 2778 995 2643 
Q 858 2509 858 2330 
Q 858 2118 1043 2009 
Q 1229 1901 1517 1798 
Q 1760 1715 1981 1600 
Q 2202 1485 2339 1309 
Q 2477 1133 2477 851 
Q 2477 602 2345 390 
Q 2214 179 1961 51 
Q 1709 -77 1338 -77 
z
" transform="scale(0.015625)"/>
      <path id="SourceSans3-Regular-20" transform="scale(0.015625)"/>
      <path id="SourceSans3-Regular-69" d="M 525 0 
L 525 3110 
L 1050 3110 
L 1050 0 
L 525 0 
z
M 787 3750 
Q 634 3750 534 3843 
Q 435 3936 435 4096 
Q 435 4250 534 4346 
Q 634 4442 787 4442 
Q 941 4442 1040 4346 
Q 1139 4250 1139 4096 
Q 1139 3936 1040 3843 
Q 941 3750 787 3750 
z
" transform="scale(0.015625)"/>
      <path id="SourceSans3-Regular-74" d="M 1504 -58 
Q 1005 -58 809 227 
Q 614 512 614 979 
L 614 2682 
L 154 2682 
L 154 3078 
L 640 3110 
L 704 4109 
L 1146 4109 
L 1146 3110 
L 1984 3110 
L 1984 2682 
L 1146 2682 
L 1146 966 
Q 1146 685 1251 528 
Q 1357 371 1626 371 
Q 1709 371 1798 387 
Q 1888 403 1978 448 
L 2086 77 
Q 1965 13 1814 -22 
Q 1664 -58 1504 -58 
z
" transform="scale(0.015625)"/>
      <path id="SourceSans3-Regular-6e" d="M 525 0 
L 525 3110 
L 960 3110 
L 1005 2662 
L 1024 2662 
Q 1248 2886 1497 3036 
Q 1747 3187 2067 3187 
Q 2560 3187 2787 2876 
Q 3014 2566 3014 1971 
L 3014 0 
L 2490 0 
L 2490 1901 
Q 2490 2336 2349 2534 
Q 2208 2733 1901 2733 
Q 1664 2733 1475 2611 
Q 1286 2490 1050 2253 
L 1050 0 
L 525 0 
z
" transform="scale(0.015625)"/>
      <path id="SourceSans3-Regular-65" d="M 1702 2758 
Q 1510 2758 1328 2665 
Q 1146 2573 1014 2368 
Q 883 2163 838 1830 
L 2458 1830 
Q 2458 2285 2259 2521 
Q 2061 2758 1702 2758 
z
M 1786 -77 
Q 1370 -77 1027 115 
Q 685 307 486 675 
Q 288 1043 288 1555 
Q 288 2061 489 2425 
Q 691 2790 1014 2988 
Q 1338 3187 1696 3187 
Q 2298 3187 2614 2790 
Q 2931 2394 2931 1728 
Q 2931 1645 2924 1568 
Q 2918 1491 2906 1414 
L 826 1414 
Q 864 890 1161 621 
Q 1459 352 1850 352 
Q 2074 352 2269 416 
Q 2464 480 2624 589 
L 2816 243 
Q 2611 102 2358 12 
Q 2106 -77 1786 -77 
z
" transform="scale(0.015625)"/>
      <path id="SourceSans3-Regular-72" d="M 525 0 
L 525 3110 
L 960 3110 
L 1005 2547 
L 1024 2547 
Q 1178 2842 1408 3014 
Q 1638 3187 1907 3187 
Q 2093 3187 2240 3123 
L 2125 2675 
Q 2054 2694 1993 2704 
Q 1933 2714 1837 2714 
Q 1638 2714 1424 2554 
Q 1210 2394 1050 1997 
L 1050 0 
L 525 0 
z
" transform="scale(0.015625)"/>
      <path id="SourceSans3-Regular-2d" d="M 262 1402 
L 262 1805 
L 1734 1805 
L 1734 1402 
L 262 1402 
z
" transform="scale(0.015625)"/>
      <path id="SourceSans3-Regular-61" d="M 1242 -77 
Q 851 -77 588 153 
Q 326 384 326 806 
Q 326 1331 787 1600 
Q 1248 1869 2246 1978 
Q 2246 2176 2188 2349 
Q 2131 2522 1993 2634 
Q 1856 2746 1600 2746 
Q 1331 2746 1094 2643 
Q 858 2541 672 2426 
L 467 2784 
Q 685 2931 1001 3059 
Q 1318 3187 1690 3187 
Q 2259 3187 2515 2838 
Q 2771 2490 2771 1907 
L 2771 0 
L 2336 0 
L 2291 371 
L 2272 371 
Q 2042 186 1789 54 
Q 1536 -77 1242 -77 
z
M 1389 358 
Q 1613 358 1817 460 
Q 2022 563 2246 762 
L 2246 1600 
Q 1722 1542 1414 1440 
Q 1107 1338 976 1190 
Q 845 1043 845 838 
Q 845 582 1005 470 
Q 1165 358 1389 358 
z
" transform="scale(0.015625)"/>
      <path id="SourceSans3-Regular-67" d="M 1574 -1434 
Q 1005 -1434 646 -1216 
Q 288 -998 288 -595 
Q 288 -397 409 -214 
Q 531 -32 742 109 
L 742 134 
Q 627 205 547 333 
Q 467 461 467 640 
Q 467 838 576 985 
Q 685 1133 806 1216 
L 806 1242 
Q 653 1370 528 1587 
Q 403 1805 403 2080 
Q 403 2419 563 2668 
Q 723 2918 992 3052 
Q 1261 3187 1574 3187 
Q 1702 3187 1817 3164 
Q 1933 3142 2016 3110 
L 3098 3110 
L 3098 2707 
L 2451 2707 
L 2451 2682 
Q 2560 2579 2637 2425 
Q 2714 2272 2714 2061 
Q 2714 1734 2560 1491 
Q 2406 1248 2150 1117 
Q 1894 986 1574 986 
Q 1325 986 1107 1094 
Q 1024 1024 966 937 
Q 909 851 909 723 
Q 909 576 1027 480 
Q 1146 384 1459 384 
L 2061 384 
Q 2605 384 2877 208 
Q 3149 32 3149 -358 
Q 3149 -646 2957 -889 
Q 2765 -1133 2413 -1283 
Q 2061 -1434 1574 -1434 
z
M 1574 1338 
Q 1843 1338 2038 1539 
Q 2234 1741 2234 2080 
Q 2234 2419 2042 2611 
Q 1850 2803 1574 2803 
Q 1299 2803 1107 2611 
Q 915 2419 915 2080 
Q 915 1741 1110 1539 
Q 1306 1338 1574 1338 
z
M 1651 -1069 
Q 2099 -1069 2368 -873 
Q 2637 -678 2637 -435 
Q 2637 -218 2473 -134 
Q 2310 -51 2010 -51 
L 1472 -51 
Q 1382 -51 1276 -38 
Q 1171 -26 1069 0 
Q 902 -122 825 -256 
Q 749 -390 749 -525 
Q 749 -774 989 -921 
Q 1229 -1069 1651 -1069 
z
" transform="scale(0.015625)"/>
      <path id="SourceSans3-Regular-63" d="M 1760 -77 
Q 1344 -77 1011 115 
Q 678 307 486 672 
Q 294 1037 294 1549 
Q 294 2074 502 2438 
Q 710 2803 1052 2995 
Q 1395 3187 1792 3187 
Q 2099 3187 2320 3084 
Q 2541 2982 2701 2822 
L 2438 2502 
Q 2317 2611 2166 2681 
Q 2016 2752 1811 2752 
Q 1536 2752 1315 2601 
Q 1094 2451 966 2179 
Q 838 1907 838 1549 
Q 838 1018 1107 688 
Q 1376 358 1805 358 
Q 2016 358 2201 441 
Q 2387 525 2528 653 
L 2758 333 
Q 2566 147 2313 35 
Q 2061 -77 1760 -77 
z
" transform="scale(0.015625)"/>
      <path id="SourceSans3-Regular-79" d="M 576 -1338 
Q 474 -1338 381 -1318 
Q 288 -1299 211 -1274 
L 326 -864 
Q 442 -902 550 -902 
Q 813 -902 985 -713 
Q 1158 -525 1254 -237 
L 1325 -6 
L 77 3110 
L 621 3110 
L 1254 1389 
Q 1325 1190 1405 960 
Q 1485 730 1555 512 
L 1581 512 
Q 1651 723 1715 953 
Q 1779 1184 1843 1389 
L 2400 3110 
L 2912 3110 
L 1741 -256 
Q 1632 -563 1481 -806 
Q 1331 -1050 1110 -1194 
Q 890 -1338 576 -1338 
z
" transform="scale(0.015625)"/>
      <path id="SourceSans3-Regular-28" d="M 1370 -1126 
Q 973 -480 749 227 
Q 525 934 525 1779 
Q 525 2624 749 3334 
Q 973 4045 1370 4685 
L 1696 4531 
Q 1325 3923 1142 3216 
Q 960 2509 960 1779 
Q 960 1050 1142 342 
Q 1325 -365 1696 -973 
L 1370 -1126 
z
" transform="scale(0.015625)"/>
      <path id="SourceSans3-Regular-3d" d="M 218 2599 
L 218 2995 
L 2963 2995 
L 2963 2599 
L 218 2599 
z
M 218 1229 
L 218 1625 
L 2963 1625 
L 2963 1229 
L 218 1229 
z
" transform="scale(0.015625)"/>
      <path id="SourceSans3-Regular-31" d="M 506 0 
L 506 435 
L 1440 435 
L 1440 3443 
L 698 3443 
L 698 3782 
Q 979 3834 1187 3907 
Q 1395 3981 1562 4083 
L 1965 4083 
L 1965 435 
L 2810 435 
L 2810 0 
L 506 0 
z
" transform="scale(0.015625)"/>
      <path id="SourceSans3-Regular-33" d="M 1510 -77 
Q 1024 -77 697 99 
Q 371 275 166 499 
L 435 845 
Q 621 653 870 505 
Q 1120 358 1478 358 
Q 1850 358 2086 563 
Q 2323 768 2323 1107 
Q 2323 1350 2198 1532 
Q 2074 1715 1789 1817 
Q 1504 1920 1018 1920 
L 1018 2323 
Q 1453 2323 1705 2425 
Q 1958 2528 2067 2701 
Q 2176 2874 2176 3085 
Q 2176 3386 1987 3558 
Q 1798 3731 1472 3731 
Q 1216 3731 1001 3616 
Q 787 3501 602 3315 
L 320 3648 
Q 557 3872 845 4016 
Q 1133 4160 1491 4160 
Q 2022 4160 2368 3888 
Q 2714 3616 2714 3123 
Q 2714 2752 2509 2515 
Q 2304 2278 1971 2150 
L 1971 2125 
Q 2342 2042 2598 1776 
Q 2854 1510 2854 1088 
Q 2854 730 2675 467 
Q 2496 205 2192 64 
Q 1888 -77 1510 -77 
z
" transform="scale(0.015625)"/>
      <path id="SourceSans3-Regular-29" d="M 570 -1126 
L 243 -973 
Q 614 -365 796 342 
Q 979 1050 979 1779 
Q 979 2509 796 3216 
Q 614 3923 243 4531 
L 570 4685 
Q 966 4045 1190 3334 
Q 1414 2624 1414 1779 
Q 1414 934 1190 227 
Q 966 -480 570 -1126 
z
" transform="scale(0.015625)"/>
     </defs>
     <use xlink:href="#SourceSans3-Regular-49"/>
     <use xlink:href="#SourceSans3-Regular-73" transform="translate(26.299988 0)"/>
     <use xlink:href="#SourceSans3-Regular-20" transform="translate(68.199982 0)"/>
     <use xlink:href="#SourceSans3-Regular-69" transform="translate(88.199966 0)"/>
     <use xlink:href="#SourceSans3-Regular-74" transform="translate(112.799957 0)"/>
     <use xlink:href="#SourceSans3-Regular-20" transform="translate(146.599945 0)"/>
     <use xlink:href="#SourceSans3-Regular-69" transform="translate(166.59993 0)"/>
     <use xlink:href="#SourceSans3-Regular-6e" transform="translate(191.199921 0)"/>
     <use xlink:href="#SourceSans3-Regular-74" transform="translate(245.899918 0)"/>
     <use xlink:href="#SourceSans3-Regular-65" transform="translate(279.699905 0)"/>
     <use xlink:href="#SourceSans3-Regular-72" transform="translate(329.299896 0)"/>
     <use xlink:href="#SourceSans3-Regular-2d" transform="translate(363.999893 0)"/>
     <use xlink:href="#SourceSans3-Regular-61" transform="translate(395.099884 0)"/>
     <use xlink:href="#SourceSans3-Regular-67" transform="translate(445.499878 0)"/>
     <use xlink:href="#SourceSans3-Regular-65" transform="translate(495.899872 0)"/>
     <use xlink:href="#SourceSans3-Regular-6e" transform="translate(545.499863 0)"/>
     <use xlink:href="#SourceSans3-Regular-63" transform="translate(600.19986 0)"/>
     <use xlink:href="#SourceSans3-Regular-79" transform="translate(645.79985 0)"/>
     <use xlink:href="#SourceSans3-Regular-20" transform="translate(692.499847 0)"/>
     <use xlink:href="#SourceSans3-Regular-28" transform="translate(712.499832 0)"/>
     <use xlink:href="#SourceSans3-Regular-6e" transform="translate(742.79982 0)"/>
     <use xlink:href="#SourceSans3-Regular-20" transform="translate(797.499817 0)"/>
     <use xlink:href="#SourceSans3-Regular-3d" transform="translate(817.499802 0)"/>
     <use xlink:href="#SourceSans3-Regular-20" transform="translate(867.199799 0)"/>
     <use xlink:href="#SourceSans3-Regular-31" transform="translate(887.199783 0)"/>
     <use xlink:href="#SourceSans3-Regular-33" transform="translate(936.89978 0)"/>
     <use xlink:href="#SourceSans3-Regular-29" transform="translate(986.599777 0)"/>
    </g>
   </g>
   <g id="legend_1">
    <g id="patch_4">
     <path d="M 208.290625 50.680312 
L 228.290625 50.680312 
L 228.290625 43.680312 
L 208.290625 43.680312 
z
" style="fill: #5cb8b2; stroke: #ffffff; stroke-linejoin: miter"/>
    </g>
    <g id="text_3">
     <!-- No -->
     <g style="fill: #404040" transform="translate(236.290625 50.680312) scale(0.1 -0.1)">
      <defs>
       <path id="SourceSans3-Regular-4e" d="M 576 0 
L 576 4198 
L 1158 4198 
L 2650 1587 
Q 2771 1376 2883 1145 
Q 2995 915 3098 685 
L 3123 685 
Q 3098 1011 3075 1350 
Q 3053 1690 3053 2016 
L 3053 4198 
L 3565 4198 
L 3565 0 
L 2982 0 
L 1491 2611 
Q 1370 2822 1254 3052 
Q 1139 3283 1037 3514 
L 1011 3514 
Q 1043 3200 1062 2867 
Q 1082 2534 1082 2195 
L 1082 0 
L 576 0 
z
" transform="scale(0.015625)"/>
       <path id="SourceSans3-Regular-6f" d="M 1734 -77 
Q 1357 -77 1027 115 
Q 698 307 496 672 
Q 294 1037 294 1549 
Q 294 2074 496 2438 
Q 698 2803 1027 2995 
Q 1357 3187 1734 3187 
Q 2118 3187 2444 2995 
Q 2771 2803 2972 2438 
Q 3174 2074 3174 1549 
Q 3174 1037 2972 672 
Q 2771 307 2444 115 
Q 2118 -77 1734 -77 
z
M 1734 358 
Q 2138 358 2384 688 
Q 2630 1018 2630 1549 
Q 2630 2086 2384 2419 
Q 2138 2752 1734 2752 
Q 1338 2752 1088 2419 
Q 838 2086 838 1549 
Q 838 1018 1088 688 
Q 1338 358 1734 358 
z
" transform="scale(0.015625)"/>
      </defs>
      <use xlink:href="#SourceSans3-Regular-4e"/>
      <use xlink:href="#SourceSans3-Regular-6f" transform="translate(64.699997 0)"/>
     </g>
    </g>
    <g id="patch_5">
     <path d="M 208.290625 64.850625 
L 228.290625 64.850625 
L 228.290625 57.850625 
L 208.290625 57.850625 
z
" style="fill: #e9f4f3; stroke: #ffffff; stroke-linejoin: miter"/>
    </g>
    <g id="text_4">
     <!-- Yes -->
     <g style="fill: #404040" transform="translate(236.290625 64.850625) scale(0.1 -0.1)">
      <defs>
       <path id="SourceSans3-Regular-59" d="M 1254 0 
L 1254 1626 
L -6 4198 
L 563 4198 
L 1107 3014 
Q 1210 2784 1309 2560 
Q 1408 2336 1510 2099 
L 1536 2099 
Q 1645 2336 1753 2560 
Q 1862 2784 1958 3014 
L 2496 4198 
L 3053 4198 
L 1792 1626 
L 1792 0 
L 1254 0 
z
" transform="scale(0.015625)"/>
      </defs>
      <use xlink:href="#SourceSans3-Regular-59"/>
      <use xlink:href="#SourceSans3-Regular-65" transform="translate(47.599991 0)"/>
      <use xlink:href="#SourceSans3-Regular-73" transform="translate(97.199982 0)"/>
     </g>
    </g>
   </g>
  </g>
 </g>
</svg>
