<?xml version="1.0" encoding="UTF-8" standalone="no"?><!DOCTYPE svg PUBLIC "-//W3C//DTD SVG 1.1//EN" "http://www.w3.org/Graphics/SVG/1.1/DTD/svg11.dtd"><svg width="100%" height="100%" viewBox="0 0 288 288" version="1.1" xmlns="http://www.w3.org/2000/svg" xmlns:xlink="http://www.w3.org/1999/xlink" xml:space="preserve" xmlns:serif="http://www.serif.com/" style="fill-rule:evenodd;clip-rule:evenodd;"><g id="figure_1"><g id="patch_1"><rect x="0" y="0" width="288" height="288" style="fill:none;fill-rule:nonzero;"/></g><g id="axes_1"><g id="patch_2"><path d="M53.372,183.045c6.857,17.183 18.286,32.167 33.044,43.324c14.758,11.157 32.29,18.068 50.692,19.982c18.401,1.913 36.98,-1.243 53.718,-9.126c16.737,-7.882 31.004,-20.194 41.25,-35.599c10.246,-15.404 16.085,-33.322 16.884,-51.806c0.799,-18.483 -3.473,-36.838 -12.352,-53.069c-8.878,-16.231 -22.03,-29.728 -38.025,-39.025c-15.995,-9.297 -34.232,-14.044 -52.73,-13.726l1.153,66.951c6.289,-0.109 12.49,1.505 17.928,4.666c5.439,3.161 9.91,7.75 12.929,13.269c3.019,5.518 4.471,11.759 4.199,18.043c-0.271,6.285 -2.257,12.377 -5.74,17.614c-3.484,5.238 -8.335,9.424 -14.025,12.104c-5.691,2.68 -12.008,3.753 -18.264,3.103c-6.257,-0.651 -12.218,-3.001 -17.236,-6.794c-5.017,-3.794 -8.903,-8.888 -11.234,-14.73l-62.191,24.819Z" style="fill:#e9f4f3;fill-rule:nonzero;stroke:#fff;stroke-width:1px;"/></g><g id="patch_3"><path d="M145.853,44c-16.422,0.283 -32.532,4.55 -46.942,12.432c-14.409,7.882 -26.691,19.146 -35.787,32.822c-9.096,13.675 -14.736,29.357 -16.435,45.693c-1.698,16.337 0.595,32.843 6.683,48.098l62.191,-24.819c-2.07,-5.187 -2.85,-10.799 -2.273,-16.353c0.578,-5.555 2.496,-10.887 5.588,-15.536c3.093,-4.65 7.269,-8.48 12.168,-11.16c4.899,-2.68 10.377,-4.13 15.96,-4.226l-1.153,-66.951Z" style="fill:#5cb8b2;fill-rule:nonzero;stroke:#fff;stroke-width:1px;"/></g><g id="text_1"><g><path id="SourceSans3-Bold-59" d="M140.953,142.39l0,-2.784l-2.364,-5.04l1.895,-0l0.696,1.8c0.113,0.296 0.221,0.582 0.324,0.859c0.104,0.276 0.208,0.566 0.312,0.87l0.048,-0c0.113,-0.304 0.225,-0.594 0.336,-0.87c0.113,-0.277 0.221,-0.563 0.324,-0.859l0.709,-1.8l1.847,-0l-2.364,5.04l-0,2.784l-1.763,0Z" style="fill:#404040;fill-rule:nonzero;"/><path id="SourceSans3-Bold-65" d="M148.26,137.65c-0.231,0 -0.457,0.078 -0.677,0.235c-0.22,0.156 -0.37,0.438 -0.45,0.845l2.111,0c0,-0.312 -0.076,-0.57 -0.228,-0.774c-0.152,-0.204 -0.403,-0.306 -0.756,-0.306Zm0.169,4.885c-0.569,-0 -1.081,-0.122 -1.538,-0.366c-0.455,-0.245 -0.815,-0.601 -1.08,-1.069c-0.263,-0.467 -0.395,-1.029 -0.395,-1.685c-0,-0.649 0.133,-1.205 0.401,-1.669c0.269,-0.464 0.619,-0.821 1.05,-1.073c0.432,-0.252 0.885,-0.378 1.357,-0.378c0.568,-0 1.04,0.126 1.416,0.378c0.376,0.252 0.656,0.592 0.84,1.02c0.184,0.428 0.276,0.913 0.276,1.457c-0,0.153 -0.008,0.303 -0.025,0.45c-0.015,0.148 -0.03,0.266 -0.047,0.355l-3.551,-0c0.095,0.463 0.291,0.783 0.587,0.96c0.296,0.176 0.613,0.264 0.949,0.264c0.44,-0 0.872,-0.128 1.295,-0.384l0.576,1.08c-0.296,0.207 -0.634,0.369 -1.014,0.485c-0.38,0.116 -0.746,0.175 -1.097,0.175Z" style="fill:#404040;fill-rule:nonzero;"/><path id="SourceSans3-Bold-73" d="M153.732,142.535c-0.392,-0 -0.793,-0.076 -1.206,-0.227c-0.411,-0.153 -0.769,-0.373 -1.074,-0.662l0.744,-0.996c0.273,0.216 0.543,0.366 0.81,0.45c0.269,0.084 0.527,0.126 0.774,0.126c0.264,-0 0.456,-0.046 0.576,-0.137c0.12,-0.093 0.18,-0.215 0.18,-0.368c0,-0.2 -0.114,-0.351 -0.343,-0.455c-0.228,-0.104 -0.501,-0.216 -0.821,-0.336c-0.28,-0.104 -0.542,-0.235 -0.786,-0.395c-0.244,-0.16 -0.44,-0.354 -0.589,-0.582c-0.147,-0.228 -0.221,-0.495 -0.221,-0.798c0,-0.553 0.21,-1.001 0.63,-1.345c0.42,-0.344 0.97,-0.515 1.65,-0.515c0.433,-0 0.829,0.07 1.189,0.21c0.36,0.14 0.664,0.321 0.911,0.545l-0.756,0.985c-0.216,-0.16 -0.432,-0.272 -0.648,-0.336c-0.215,-0.065 -0.427,-0.098 -0.636,-0.098c-0.231,0 -0.403,0.045 -0.516,0.134c-0.112,0.087 -0.168,0.199 -0.168,0.335c-0,0.176 0.09,0.313 0.27,0.409c0.18,0.095 0.458,0.202 0.834,0.322c0.456,0.153 0.844,0.369 1.164,0.649c0.32,0.28 0.48,0.668 0.48,1.165c0,0.536 -0.208,0.99 -0.624,1.363c-0.416,0.371 -1.024,0.557 -1.824,0.557Z" style="fill:#404040;fill-rule:nonzero;"/></g><g><path id="SourceSans3-Bold-33" d="M139.038,154.837c-0.616,-0 -1.143,-0.1 -1.579,-0.3c-0.435,-0.2 -0.792,-0.46 -1.072,-0.78l0.815,-1.116c0.233,0.224 0.489,0.408 0.769,0.551c0.28,0.144 0.58,0.216 0.9,0.216c0.375,0 0.674,-0.077 0.898,-0.232c0.225,-0.157 0.338,-0.379 0.338,-0.668c-0,-0.224 -0.057,-0.417 -0.169,-0.581c-0.111,-0.164 -0.315,-0.29 -0.611,-0.377c-0.297,-0.089 -0.721,-0.133 -1.274,-0.133l0,-1.249c0.689,0 1.161,-0.094 1.416,-0.281c0.256,-0.189 0.384,-0.435 0.384,-0.739c0,-0.264 -0.08,-0.469 -0.24,-0.617c-0.16,-0.149 -0.391,-0.223 -0.695,-0.223c-0.271,0 -0.517,0.06 -0.737,0.18c-0.22,0.12 -0.45,0.284 -0.69,0.493l-0.889,-1.08c0.353,-0.305 0.725,-0.543 1.116,-0.714c0.392,-0.173 0.82,-0.259 1.284,-0.259c0.784,0 1.418,0.183 1.901,0.548c0.485,0.363 0.728,0.877 0.728,1.541c-0,0.391 -0.11,0.727 -0.33,1.007c-0.22,0.28 -0.534,0.508 -0.943,0.684l-0,0.049c0.44,0.127 0.802,0.345 1.085,0.654c0.285,0.308 0.428,0.71 0.428,1.206c-0,0.471 -0.13,0.873 -0.39,1.205c-0.26,0.333 -0.604,0.585 -1.033,0.758c-0.428,0.171 -0.898,0.257 -1.41,0.257Z" style="fill:#404040;fill-rule:nonzero;"/><path id="SourceSans3-Bold-31" d="M143.298,154.692l0,-1.428l1.656,-0l-0,-4.403l-1.427,0l-0,-1.093c0.415,-0.08 0.766,-0.176 1.054,-0.287c0.288,-0.112 0.569,-0.249 0.842,-0.409l1.295,0l0,6.192l1.429,-0l-0,1.428l-4.849,0Z" style="fill:#404040;fill-rule:nonzero;"/><path id="SourceSans3-Bold-25" d="M151.05,151.692c-0.56,0 -1.025,-0.22 -1.393,-0.66c-0.368,-0.44 -0.552,-1.051 -0.552,-1.835c0,-0.785 0.184,-1.393 0.552,-1.825c0.368,-0.432 0.833,-0.648 1.393,-0.648c0.569,-0 1.037,0.216 1.404,0.648c0.368,0.432 0.551,1.04 0.551,1.825c0,0.784 -0.183,1.395 -0.551,1.835c-0.367,0.44 -0.835,0.66 -1.404,0.66Zm-0,-0.984c0.2,0 0.37,-0.112 0.51,-0.336c0.14,-0.223 0.21,-0.615 0.21,-1.175c-0,-0.56 -0.07,-0.948 -0.21,-1.165c-0.14,-0.216 -0.31,-0.324 -0.51,-0.324c-0.2,0 -0.37,0.108 -0.51,0.324c-0.14,0.217 -0.21,0.605 -0.21,1.165c-0,0.56 0.07,0.952 0.21,1.175c0.14,0.224 0.31,0.336 0.51,0.336Zm0.264,4.129l4.225,-8.113l1.02,-0l-4.225,8.113l-1.02,-0Zm5.509,-0c-0.56,-0 -1.024,-0.22 -1.393,-0.66c-0.368,-0.44 -0.551,-1.052 -0.551,-1.836c-0,-0.785 0.183,-1.393 0.551,-1.824c0.369,-0.433 0.833,-0.649 1.393,-0.649c0.567,0 1.035,0.216 1.402,0.649c0.369,0.431 0.554,1.039 0.554,1.824c-0,0.784 -0.185,1.396 -0.554,1.836c-0.367,0.44 -0.835,0.66 -1.402,0.66Zm-0,-0.985c0.2,0 0.37,-0.111 0.51,-0.335c0.14,-0.224 0.21,-0.616 0.21,-1.176c-0,-0.56 -0.07,-0.948 -0.21,-1.164c-0.14,-0.216 -0.31,-0.325 -0.51,-0.325c-0.2,0 -0.37,0.109 -0.51,0.325c-0.14,0.216 -0.21,0.604 -0.21,1.164c-0,0.56 0.07,0.952 0.21,1.176c0.14,0.224 0.31,0.335 0.51,0.335Z" style="fill:#404040;fill-rule:nonzero;"/></g></g><g id="text_2"><g><rect id="SourceSans3-Regular-49" x="87.667" y="20.689" width="0.996" height="7.871" style="fill:#404040;fill-rule:nonzero;"/><path id="SourceSans3-Regular-73" d="M92.251,28.704c-0.425,0 -0.825,-0.073 -1.202,-0.221c-0.375,-0.149 -0.698,-0.355 -0.971,-0.619l0.456,-0.575c0.256,0.207 0.522,0.367 0.799,0.48c0.276,0.111 0.594,0.167 0.954,0.167c0.384,-0 0.671,-0.09 0.862,-0.27c0.193,-0.18 0.289,-0.394 0.289,-0.642c0,-0.2 -0.064,-0.365 -0.193,-0.497c-0.127,-0.132 -0.291,-0.245 -0.491,-0.337c-0.2,-0.093 -0.412,-0.179 -0.636,-0.259c-0.287,-0.104 -0.564,-0.225 -0.829,-0.365c-0.263,-0.14 -0.477,-0.316 -0.641,-0.527c-0.164,-0.213 -0.245,-0.479 -0.245,-0.799c-0,-0.473 0.178,-0.866 0.534,-1.181c0.356,-0.317 0.85,-0.475 1.481,-0.475c0.36,0 0.696,0.062 1.007,0.186c0.313,0.124 0.581,0.282 0.806,0.474l-0.457,0.565c-0.2,-0.145 -0.41,-0.258 -0.63,-0.338c-0.22,-0.08 -0.462,-0.12 -0.726,-0.12c-0.367,0 -0.637,0.085 -0.81,0.253c-0.171,0.168 -0.257,0.363 -0.257,0.587c0,0.265 0.116,0.466 0.347,0.602c0.233,0.135 0.529,0.267 0.889,0.396c0.304,0.103 0.594,0.227 0.87,0.371c0.276,0.144 0.5,0.326 0.671,0.546c0.173,0.22 0.259,0.506 0.259,0.858c-0,0.312 -0.083,0.6 -0.248,0.865c-0.163,0.263 -0.403,0.475 -0.72,0.635c-0.315,0.16 -0.704,0.24 -1.168,0.24Z" style="fill:#404040;fill-rule:nonzero;"/><path id="SourceSans3-Regular-69" d="M98.155,28.56l-0,-5.831l0.984,-0l0,5.831l-0.984,-0Zm0.491,-7.031c-0.191,-0 -0.349,-0.058 -0.474,-0.175c-0.124,-0.116 -0.186,-0.274 -0.186,-0.474c0,-0.193 0.062,-0.349 0.186,-0.469c0.125,-0.12 0.283,-0.18 0.474,-0.18c0.193,0 0.351,0.06 0.475,0.18c0.123,0.12 0.185,0.276 0.185,0.469c0,0.2 -0.062,0.358 -0.185,0.474c-0.124,0.117 -0.282,0.175 -0.475,0.175Z" style="fill:#404040;fill-rule:nonzero;"/><path id="SourceSans3-Regular-74" d="M102.943,28.669c-0.624,-0 -1.059,-0.178 -1.304,-0.535c-0.243,-0.356 -0.365,-0.826 -0.365,-1.41l-0,-3.193l-0.863,0l0,-0.742l0.912,-0.06l0.12,-1.873l0.828,-0l0,1.873l1.572,-0l-0,0.802l-1.572,0l0,3.218c0,0.351 0.066,0.625 0.197,0.821c0.133,0.196 0.367,0.294 0.703,0.294c0.104,0 0.212,-0.01 0.323,-0.03c0.112,-0.02 0.225,-0.058 0.337,-0.114l0.203,0.696c-0.151,0.08 -0.321,0.141 -0.51,0.185c-0.188,0.045 -0.381,0.068 -0.581,0.068Z" style="fill:#404040;fill-rule:nonzero;"/><path id="SourceSans3-Regular-691" serif:id="SourceSans3-Regular-69" d="M107.563,28.56l-0,-5.831l0.984,-0l0,5.831l-0.984,-0Zm0.491,-7.031c-0.191,-0 -0.349,-0.058 -0.474,-0.175c-0.124,-0.116 -0.186,-0.274 -0.186,-0.474c0,-0.193 0.062,-0.349 0.186,-0.469c0.125,-0.12 0.283,-0.18 0.474,-0.18c0.193,0 0.351,0.06 0.475,0.18c0.123,0.12 0.185,0.276 0.185,0.469c0,0.2 -0.062,0.358 -0.185,0.474c-0.124,0.117 -0.282,0.175 -0.475,0.175Z" style="fill:#404040;fill-rule:nonzero;"/><path id="SourceSans3-Regular-6e" d="M110.515,28.56l-0,-5.831l0.816,-0l0.084,0.84l0.036,-0c0.28,-0.28 0.575,-0.514 0.886,-0.702c0.313,-0.188 0.669,-0.283 1.069,-0.283c0.616,0 1.066,0.195 1.35,0.583c0.284,0.388 0.426,0.954 0.426,1.697l-0,3.696l-0.983,0l0,-3.564c0,-0.544 -0.088,-0.94 -0.264,-1.187c-0.176,-0.249 -0.456,-0.373 -0.84,-0.373c-0.296,-0 -0.563,0.076 -0.799,0.228c-0.236,0.152 -0.502,0.375 -0.797,0.672l0,4.224l-0.984,0Z" style="fill:#404040;fill-rule:nonzero;"/><path id="SourceSans3-Regular-741" serif:id="SourceSans3-Regular-74" d="M118.915,28.669c-0.624,-0 -1.059,-0.178 -1.304,-0.535c-0.243,-0.356 -0.365,-0.826 -0.365,-1.41l-0,-3.193l-0.863,0l0,-0.742l0.912,-0.06l0.12,-1.873l0.828,-0l0,1.873l1.572,-0l-0,0.802l-1.572,0l0,3.218c0,0.351 0.066,0.625 0.197,0.821c0.133,0.196 0.367,0.294 0.703,0.294c0.104,0 0.212,-0.01 0.323,-0.03c0.112,-0.02 0.225,-0.058 0.337,-0.114l0.203,0.696c-0.151,0.08 -0.321,0.141 -0.51,0.185c-0.188,0.045 -0.381,0.068 -0.581,0.068Z" style="fill:#404040;fill-rule:nonzero;"/><path id="SourceSans3-Regular-65" d="M123.342,23.389c-0.24,-0 -0.474,0.058 -0.701,0.174c-0.228,0.115 -0.424,0.301 -0.589,0.557c-0.164,0.256 -0.274,0.593 -0.33,1.009l3.037,-0c0,-0.569 -0.124,-1.001 -0.373,-1.296c-0.247,-0.296 -0.595,-0.444 -1.044,-0.444Zm0.157,5.315c-0.52,0 -0.994,-0.12 -1.423,-0.36c-0.427,-0.24 -0.765,-0.59 -1.014,-1.05c-0.248,-0.46 -0.371,-1.01 -0.371,-1.65c-0,-0.632 0.125,-1.176 0.376,-1.631c0.253,-0.456 0.581,-0.808 0.985,-1.056c0.405,-0.248 0.831,-0.373 1.279,-0.373c0.752,0 1.326,0.248 1.721,0.745c0.396,0.495 0.594,1.158 0.594,1.991c0,0.104 -0.004,0.204 -0.013,0.3c-0.007,0.096 -0.019,0.192 -0.034,0.289l-3.9,-0c0.048,0.655 0.257,1.15 0.628,1.487c0.373,0.336 0.804,0.504 1.292,0.504c0.28,-0 0.542,-0.04 0.786,-0.12c0.244,-0.08 0.466,-0.188 0.666,-0.324l0.36,0.648c-0.257,0.177 -0.543,0.321 -0.859,0.433c-0.315,0.112 -0.673,0.167 -1.073,0.167Z" style="fill:#404040;fill-rule:nonzero;"/><path id="SourceSans3-Regular-72" d="M127.087,28.56l-0,-5.831l0.816,-0l0.084,1.055l0.036,0c0.192,-0.368 0.432,-0.66 0.72,-0.875c0.287,-0.217 0.599,-0.325 0.935,-0.325c0.233,0 0.441,0.04 0.625,0.12l-0.216,0.84c-0.089,-0.023 -0.171,-0.042 -0.248,-0.054c-0.075,-0.013 -0.172,-0.019 -0.292,-0.019c-0.249,0 -0.507,0.1 -0.774,0.3c-0.268,0.2 -0.502,0.548 -0.702,1.045l0,3.744l-0.984,-0Z" style="fill:#404040;fill-rule:nonzero;"/><rect id="SourceSans3-Regular-2d" x="130.758" y="25.176" width="2.76" height="0.756" style="fill:#404040;fill-rule:nonzero;"/><path id="SourceSans3-Regular-61" d="M136.327,28.704c-0.488,0 -0.897,-0.143 -1.226,-0.431c-0.327,-0.289 -0.491,-0.697 -0.491,-1.224c-0,-0.657 0.288,-1.153 0.864,-1.489c0.576,-0.336 1.488,-0.573 2.736,-0.709c-0,-0.247 -0.036,-0.479 -0.109,-0.695c-0.071,-0.217 -0.193,-0.395 -0.366,-0.535c-0.171,-0.14 -0.416,-0.21 -0.736,-0.21c-0.337,0 -0.653,0.065 -0.949,0.193c-0.295,0.128 -0.559,0.264 -0.791,0.407l-0.385,-0.671c0.273,-0.184 0.606,-0.356 1.001,-0.516c0.397,-0.16 0.827,-0.24 1.292,-0.24c0.712,0 1.227,0.218 1.547,0.655c0.32,0.435 0.48,1.017 0.48,1.745l0,3.576l-0.815,-0l-0.085,-0.696l-0.035,0c-0.288,0.232 -0.59,0.43 -0.906,0.595c-0.316,0.163 -0.658,0.245 -1.026,0.245Zm0.276,-0.815c0.28,-0 0.547,-0.064 0.802,-0.192c0.257,-0.128 0.525,-0.317 0.805,-0.566l-0,-1.571c-0.655,0.073 -1.175,0.172 -1.56,0.3c-0.384,0.127 -0.658,0.284 -0.821,0.469c-0.164,0.183 -0.246,0.403 -0.246,0.66c-0,0.32 0.1,0.55 0.3,0.69c0.2,0.14 0.44,0.21 0.72,0.21Z" style="fill:#404040;fill-rule:nonzero;"/><path id="SourceSans3-Regular-67" d="M142.998,31.249c-0.711,-0 -1.291,-0.137 -1.74,-0.409c-0.448,-0.273 -0.671,-0.661 -0.671,-1.164c-0,-0.248 0.075,-0.486 0.226,-0.715c0.153,-0.227 0.361,-0.429 0.625,-0.605l-0,-0.047c-0.144,-0.089 -0.266,-0.213 -0.366,-0.373c-0.1,-0.16 -0.15,-0.352 -0.15,-0.576c0,-0.248 0.068,-0.463 0.205,-0.647c0.136,-0.185 0.28,-0.329 0.431,-0.433l-0,-0.049c-0.191,-0.16 -0.365,-0.375 -0.521,-0.647c-0.157,-0.272 -0.235,-0.58 -0.235,-0.924c0,-0.424 0.1,-0.791 0.3,-1.103c0.2,-0.312 0.468,-0.552 0.805,-0.72c0.336,-0.168 0.7,-0.253 1.091,-0.253c0.16,0 0.312,0.015 0.455,0.043c0.145,0.028 0.27,0.062 0.374,0.102l2.028,-0l0,0.755l-1.213,0l0,0.047c0.136,0.129 0.253,0.29 0.349,0.482c0.096,0.191 0.144,0.419 0.144,0.683c0,0.408 -0.096,0.765 -0.288,1.068c-0.193,0.304 -0.449,0.538 -0.769,0.702c-0.32,0.163 -0.68,0.245 -1.08,0.245c-0.311,0 -0.603,-0.067 -0.876,-0.202c-0.104,0.087 -0.192,0.185 -0.264,0.294c-0.071,0.108 -0.107,0.241 -0.107,0.401c-0,0.184 0.074,0.336 0.221,0.456c0.149,0.12 0.419,0.18 0.81,0.18l1.129,-0c0.68,-0 1.19,0.11 1.53,0.33c0.34,0.22 0.51,0.574 0.51,1.061c-0,0.36 -0.12,0.692 -0.36,0.996c-0.24,0.305 -0.58,0.551 -1.02,0.739c-0.44,0.188 -0.964,0.283 -1.573,0.283Zm-0,-5.198c0.336,0 0.626,-0.125 0.87,-0.377c0.245,-0.252 0.367,-0.59 0.367,-1.014c0,-0.424 -0.12,-0.756 -0.36,-0.996c-0.24,-0.24 -0.532,-0.36 -0.877,-0.36c-0.344,0 -0.636,0.12 -0.876,0.36c-0.24,0.24 -0.36,0.572 -0.36,0.996c0,0.424 0.122,0.762 0.366,1.014c0.245,0.252 0.535,0.377 0.87,0.377Zm0.144,4.513c0.56,0 1.008,-0.122 1.345,-0.367c0.336,-0.244 0.504,-0.518 0.504,-0.821c-0,-0.272 -0.103,-0.46 -0.308,-0.565c-0.203,-0.103 -0.493,-0.155 -0.868,-0.155l-1.008,-0c-0.113,-0 -0.235,-0.008 -0.368,-0.025c-0.131,-0.015 -0.261,-0.038 -0.388,-0.071c-0.209,0.153 -0.361,0.313 -0.458,0.48c-0.095,0.168 -0.142,0.336 -0.142,0.504c-0,0.312 0.15,0.559 0.45,0.743c0.3,0.185 0.714,0.277 1.241,0.277Z" style="fill:#404040;fill-rule:nonzero;"/><path id="SourceSans3-Regular-651" serif:id="SourceSans3-Regular-65" d="M149.286,23.389c-0.24,-0 -0.474,0.058 -0.701,0.174c-0.228,0.115 -0.424,0.301 -0.589,0.557c-0.164,0.256 -0.274,0.593 -0.33,1.009l3.037,-0c0,-0.569 -0.124,-1.001 -0.373,-1.296c-0.247,-0.296 -0.595,-0.444 -1.044,-0.444Zm0.157,5.315c-0.52,0 -0.994,-0.12 -1.423,-0.36c-0.427,-0.24 -0.765,-0.59 -1.014,-1.05c-0.248,-0.46 -0.371,-1.01 -0.371,-1.65c-0,-0.632 0.125,-1.176 0.376,-1.631c0.253,-0.456 0.581,-0.808 0.985,-1.056c0.405,-0.248 0.831,-0.373 1.279,-0.373c0.752,0 1.326,0.248 1.721,0.745c0.396,0.495 0.594,1.158 0.594,1.991c0,0.104 -0.004,0.204 -0.013,0.3c-0.007,0.096 -0.019,0.192 -0.034,0.289l-3.9,-0c0.048,0.655 0.257,1.15 0.628,1.487c0.373,0.336 0.804,0.504 1.292,0.504c0.28,-0 0.542,-0.04 0.786,-0.12c0.244,-0.08 0.466,-0.188 0.666,-0.324l0.36,0.648c-0.257,0.177 -0.543,0.321 -0.859,0.433c-0.315,0.112 -0.673,0.167 -1.073,0.167Z" style="fill:#404040;fill-rule:nonzero;"/><path id="SourceSans3-Regular-6e1" serif:id="SourceSans3-Regular-6e" d="M153.031,28.56l-0,-5.831l0.816,-0l0.084,0.84l0.036,-0c0.28,-0.28 0.575,-0.514 0.886,-0.702c0.313,-0.188 0.669,-0.283 1.069,-0.283c0.616,0 1.066,0.195 1.35,0.583c0.284,0.388 0.426,0.954 0.426,1.697l-0,3.696l-0.983,0l0,-3.564c0,-0.544 -0.088,-0.94 -0.264,-1.187c-0.176,-0.249 -0.456,-0.373 -0.84,-0.373c-0.296,-0 -0.563,0.076 -0.799,0.228c-0.236,0.152 -0.502,0.375 -0.797,0.672l0,4.224l-0.984,0Z" style="fill:#404040;fill-rule:nonzero;"/><path id="SourceSans3-Regular-63" d="M161.911,28.704c-0.52,0 -0.989,-0.12 -1.405,-0.36c-0.416,-0.24 -0.744,-0.588 -0.984,-1.044c-0.24,-0.456 -0.36,-1.004 -0.36,-1.644c-0,-0.657 0.13,-1.212 0.39,-1.667c0.26,-0.456 0.604,-0.805 1.031,-1.045c0.429,-0.24 0.891,-0.36 1.388,-0.36c0.383,0 0.713,0.065 0.99,0.194c0.276,0.127 0.514,0.291 0.714,0.491l-0.493,0.6c-0.151,-0.136 -0.321,-0.248 -0.51,-0.336c-0.188,-0.089 -0.41,-0.133 -0.666,-0.133c-0.344,0 -0.654,0.094 -0.93,0.283c-0.276,0.188 -0.494,0.451 -0.654,0.791c-0.16,0.34 -0.24,0.734 -0.24,1.182c-0,0.663 0.168,1.201 0.504,1.614c0.336,0.412 0.773,0.619 1.309,0.619c0.264,-0 0.511,-0.052 0.742,-0.156c0.233,-0.105 0.437,-0.237 0.614,-0.397l0.431,0.6c-0.24,0.232 -0.518,0.418 -0.835,0.558c-0.315,0.14 -0.66,0.21 -1.036,0.21Z" style="fill:#404040;fill-rule:nonzero;"/><path id="SourceSans3-Regular-79" d="M165.163,31.069c-0.128,-0 -0.25,-0.013 -0.366,-0.038c-0.116,-0.023 -0.223,-0.051 -0.319,-0.082l0.216,-0.769c0.145,0.047 0.285,0.071 0.42,0.071c0.329,0 0.6,-0.118 0.815,-0.354c0.217,-0.235 0.385,-0.533 0.505,-0.893l0.133,-0.433l-2.34,-5.842l1.02,-0l1.187,3.227c0.089,0.248 0.183,0.517 0.283,0.804c0.1,0.288 0.194,0.568 0.281,0.84l0.049,0c0.087,-0.264 0.171,-0.539 0.251,-0.827c0.08,-0.289 0.16,-0.561 0.24,-0.817l1.045,-3.227l0.96,-0l-2.196,6.311c-0.136,0.384 -0.299,0.728 -0.488,1.031c-0.187,0.305 -0.419,0.548 -0.695,0.728c-0.275,0.18 -0.609,0.27 -1.001,0.27Z" style="fill:#404040;fill-rule:nonzero;"/><path id="SourceSans3-Regular-28" d="M174.655,30.671c-0.496,-0.807 -0.884,-1.653 -1.164,-2.537c-0.28,-0.883 -0.42,-1.853 -0.42,-2.91c-0,-1.056 0.14,-2.028 0.42,-2.915c0.28,-0.889 0.668,-1.733 1.164,-2.533l0.612,0.288c-0.464,0.76 -0.81,1.582 -1.039,2.466c-0.228,0.884 -0.341,1.782 -0.341,2.694c-0,0.912 0.113,1.81 0.341,2.695c0.229,0.883 0.575,1.705 1.039,2.465l-0.612,0.287Z" style="fill:#404040;fill-rule:nonzero;"/><path id="SourceSans3-Regular-6e2" serif:id="SourceSans3-Regular-6e" d="M176.707,28.56l-0,-5.831l0.816,-0l0.084,0.84l0.036,-0c0.28,-0.28 0.575,-0.514 0.886,-0.702c0.313,-0.188 0.669,-0.283 1.069,-0.283c0.616,0 1.066,0.195 1.35,0.583c0.284,0.388 0.426,0.954 0.426,1.697l-0,3.696l-0.983,0l0,-3.564c0,-0.544 -0.088,-0.94 -0.264,-1.187c-0.176,-0.249 -0.456,-0.373 -0.84,-0.373c-0.296,-0 -0.563,0.076 -0.799,0.228c-0.236,0.152 -0.502,0.375 -0.797,0.672l0,4.224l-0.984,0Z" style="fill:#404040;fill-rule:nonzero;"/><path id="SourceSans3-Regular-3d" d="M185.095,23.687l0,-0.743l5.147,0l0,0.743l-5.147,-0Zm0,2.569l0,-0.743l5.147,0l0,0.743l-5.147,-0Z" style="fill:#404040;fill-rule:nonzero;"/><path id="SourceSans3-Regular-31" d="M193.999,28.56l0,-0.816l1.752,0l-0,-5.64l-1.392,0l0,-0.635c0.352,-0.065 0.657,-0.143 0.917,-0.235c0.26,-0.092 0.495,-0.202 0.703,-0.33l0.756,0l-0,6.84l1.584,0l0,0.816l-4.32,-0Z" style="fill:#404040;fill-rule:nonzero;"/><path id="SourceSans3-Regular-33" d="M201.846,28.704c-0.608,0 -1.116,-0.11 -1.525,-0.33c-0.407,-0.22 -0.739,-0.47 -0.995,-0.75l0.504,-0.648c0.233,0.24 0.505,0.452 0.816,0.637c0.312,0.184 0.692,0.276 1.14,0.276c0.465,-0 0.845,-0.128 1.14,-0.385c0.296,-0.256 0.444,-0.596 0.444,-1.02c0,-0.303 -0.078,-0.569 -0.234,-0.797c-0.155,-0.228 -0.411,-0.406 -0.767,-0.534c-0.356,-0.129 -0.838,-0.193 -1.446,-0.193l0,-0.756c0.544,0 0.973,-0.063 1.288,-0.191c0.317,-0.129 0.543,-0.301 0.679,-0.517c0.136,-0.217 0.205,-0.457 0.205,-0.72c-0,-0.377 -0.119,-0.672 -0.355,-0.887c-0.236,-0.217 -0.558,-0.325 -0.965,-0.325c-0.32,0 -0.615,0.072 -0.884,0.216c-0.267,0.144 -0.516,0.332 -0.748,0.564l-0.528,-0.624c0.296,-0.28 0.624,-0.51 0.984,-0.69c0.36,-0.18 0.764,-0.27 1.211,-0.27c0.664,-0 1.212,0.17 1.645,0.51c0.432,0.34 0.648,0.818 0.648,1.434c0,0.464 -0.128,0.844 -0.384,1.14c-0.256,0.297 -0.593,0.525 -1.009,0.685l0,0.047c0.464,0.103 0.856,0.321 1.176,0.654c0.32,0.332 0.48,0.762 0.48,1.29c-0,0.447 -0.112,0.836 -0.336,1.164c-0.224,0.328 -0.525,0.58 -0.905,0.756c-0.38,0.176 -0.807,0.264 -1.279,0.264Z" style="fill:#404040;fill-rule:nonzero;"/><path id="SourceSans3-Regular-29" d="M206.047,30.671l-0.613,-0.287c0.464,-0.76 0.81,-1.582 1.037,-2.465c0.229,-0.885 0.343,-1.783 0.343,-2.695c0,-0.912 -0.114,-1.81 -0.343,-2.694c-0.227,-0.884 -0.573,-1.706 -1.037,-2.466l0.613,-0.288c0.495,0.8 0.883,1.644 1.163,2.533c0.28,0.887 0.42,1.859 0.42,2.915c-0,1.057 -0.14,2.027 -0.42,2.91c-0.28,0.884 -0.668,1.73 -1.163,2.537Z" style="fill:#404040;fill-rule:nonzero;"/></g></g><g id="legend_1"><g id="patch_4"><rect x="208.291" y="43.68" width="20" height="7" style="fill:#5cb8b2;fill-rule:nonzero;stroke:#fff;stroke-width:1px;"/></g><g id="text_3"><g><path id="SourceSans3-Regular-4e" d="M237.197,64.3l0,-6.559l0.909,-0l2.332,4.079c0.126,0.22 0.247,0.45 0.364,0.691c0.116,0.239 0.228,0.479 0.336,0.719l0.039,-0c-0.026,-0.34 -0.051,-0.686 -0.075,-1.039c-0.023,-0.355 -0.035,-0.702 -0.035,-1.041l0,-3.409l0.8,-0l0,6.559l-0.911,-0l-2.329,-4.08c-0.126,-0.22 -0.25,-0.449 -0.371,-0.689c-0.119,-0.24 -0.232,-0.481 -0.339,-0.722l-0.04,0c0.033,0.327 0.06,0.664 0.079,1.011c0.021,0.347 0.032,0.697 0.032,1.05l-0,3.43l-0.791,-0Z" style="fill:#404040;fill-rule:nonzero;"/><path id="SourceSans3-Regular-6f" d="M245.476,64.42c-0.392,0 -0.761,-0.1 -1.104,-0.3c-0.343,-0.2 -0.62,-0.49 -0.83,-0.87c-0.21,-0.38 -0.316,-0.837 -0.316,-1.37c0,-0.547 0.106,-1.01 0.316,-1.389c0.21,-0.381 0.487,-0.671 0.83,-0.871c0.343,-0.2 0.712,-0.3 1.104,-0.3c0.4,0 0.77,0.1 1.11,0.3c0.34,0.2 0.615,0.49 0.825,0.871c0.21,0.379 0.315,0.842 0.315,1.389c0,0.533 -0.105,0.99 -0.315,1.37c-0.21,0.38 -0.485,0.67 -0.825,0.87c-0.34,0.2 -0.71,0.3 -1.11,0.3Zm0,-0.679c0.421,-0 0.76,-0.172 1.016,-0.516c0.256,-0.344 0.384,-0.792 0.384,-1.345c0,-0.56 -0.128,-1.013 -0.384,-1.36c-0.256,-0.347 -0.595,-0.52 -1.016,-0.52c-0.412,-0 -0.749,0.173 -1.009,0.52c-0.26,0.347 -0.391,0.8 -0.391,1.36c0,0.553 0.131,1.001 0.391,1.345c0.26,0.344 0.597,0.516 1.009,0.516Z" style="fill:#404040;fill-rule:nonzero;"/></g></g><g id="patch_5"><rect x="208.291" y="57.851" width="20" height="7" style="fill:#e9f4f3;fill-rule:nonzero;stroke:#fff;stroke-width:1px;"/></g><g id="text_4"><g><path id="SourceSans3-Regular-59" d="M239.166,50.56l-0,-2.541l-1.969,-4.018l0.889,-0l0.85,1.85c0.107,0.239 0.213,0.476 0.316,0.709c0.103,0.233 0.208,0.473 0.314,0.72l0.04,0c0.114,-0.247 0.227,-0.487 0.339,-0.72c0.114,-0.233 0.221,-0.47 0.321,-0.709l0.84,-1.85l0.871,-0l-1.971,4.018l0,2.541l-0.84,-0Z" style="fill:#404040;fill-rule:nonzero;"/><path id="SourceSans3-Regular-652" serif:id="SourceSans3-Regular-65" d="M244.626,46.251c-0.2,-0 -0.395,0.048 -0.585,0.145c-0.189,0.096 -0.353,0.25 -0.49,0.464c-0.137,0.214 -0.228,0.494 -0.275,0.841l2.531,-0c0,-0.474 -0.104,-0.834 -0.311,-1.08c-0.206,-0.247 -0.496,-0.37 -0.87,-0.37Zm0.131,4.429c-0.433,0 -0.829,-0.1 -1.186,-0.3c-0.356,-0.2 -0.638,-0.491 -0.845,-0.875c-0.206,-0.383 -0.31,-0.841 -0.31,-1.375c0,-0.527 0.105,-0.98 0.314,-1.359c0.211,-0.38 0.484,-0.674 0.821,-0.88c0.337,-0.207 0.692,-0.311 1.065,-0.311c0.627,0 1.106,0.207 1.435,0.621c0.33,0.412 0.495,0.965 0.495,1.659c0,0.086 -0.004,0.17 -0.011,0.25c-0.006,0.08 -0.015,0.16 -0.028,0.241l-3.25,-0c0.04,0.545 0.214,0.958 0.523,1.239c0.311,0.28 0.67,0.42 1.077,0.42c0.233,-0 0.452,-0.033 0.655,-0.1c0.203,-0.067 0.388,-0.157 0.554,-0.27l0.3,0.54c-0.213,0.147 -0.452,0.267 -0.715,0.361c-0.263,0.093 -0.561,0.139 -0.894,0.139Z" style="fill:#404040;fill-rule:nonzero;"/><path id="SourceSans3-Regular-731" serif:id="SourceSans3-Regular-73" d="M249.017,50.68c-0.354,0 -0.688,-0.061 -1.002,-0.184c-0.312,-0.124 -0.582,-0.296 -0.809,-0.516l0.38,-0.479c0.213,0.173 0.435,0.306 0.665,0.4c0.231,0.092 0.496,0.139 0.796,0.139c0.32,-0 0.559,-0.075 0.718,-0.225c0.161,-0.15 0.241,-0.328 0.241,-0.535c0,-0.166 -0.054,-0.304 -0.161,-0.414c-0.106,-0.11 -0.243,-0.204 -0.409,-0.281c-0.167,-0.077 -0.343,-0.149 -0.53,-0.216c-0.239,-0.086 -0.47,-0.188 -0.691,-0.304c-0.219,-0.117 -0.397,-0.263 -0.534,-0.439c-0.136,-0.177 -0.205,-0.399 -0.205,-0.666c0,-0.394 0.149,-0.722 0.446,-0.984c0.297,-0.264 0.708,-0.396 1.234,-0.396c0.3,0 0.58,0.052 0.839,0.155c0.261,0.103 0.485,0.235 0.672,0.395l-0.381,0.471c-0.167,-0.121 -0.342,-0.215 -0.525,-0.282c-0.184,-0.066 -0.385,-0.1 -0.605,-0.1c-0.306,0 -0.531,0.071 -0.675,0.211c-0.143,0.14 -0.214,0.303 -0.214,0.489c0,0.221 0.096,0.388 0.289,0.502c0.194,0.112 0.441,0.222 0.741,0.33c0.253,0.086 0.495,0.189 0.725,0.309c0.23,0.12 0.416,0.271 0.559,0.455c0.144,0.183 0.216,0.422 0.216,0.715c-0,0.26 -0.069,0.5 -0.207,0.721c-0.136,0.219 -0.336,0.396 -0.6,0.529c-0.262,0.134 -0.587,0.2 -0.973,0.2Z" style="fill:#404040;fill-rule:nonzero;"/></g></g></g></g></g></svg>