<?xml version="1.0" encoding="UTF-8" standalone="no"?><!DOCTYPE svg PUBLIC "-//W3C//DTD SVG 1.1//EN" "http://www.w3.org/Graphics/SVG/1.1/DTD/svg11.dtd"><svg width="100%" height="100%" viewBox="0 0 288 288" version="1.1" xmlns="http://www.w3.org/2000/svg" xmlns:xlink="http://www.w3.org/1999/xlink" xml:space="preserve" xmlns:serif="http://www.serif.com/" style="fill-rule:evenodd;clip-rule:evenodd;"><g id="figure_1"><g id="patch_1"><rect x="0" y="0" width="288" height="288" style="fill:none;fill-rule:nonzero;"/></g><g id="axes_1"><g id="patch_2"><path d="M147.6,43.985c-19.612,0 -38.809,5.687 -55.256,16.368c-16.448,10.681 -29.451,25.906 -37.428,43.822c-7.976,17.916 -10.59,37.766 -7.522,57.136c3.068,19.37 11.688,37.441 24.81,52.016c13.123,14.574 30.194,25.035 49.138,30.111c18.943,5.076 38.958,4.552 57.609,-1.509c18.652,-6.06 35.152,-17.4 47.494,-32.641c12.342,-15.241 20.004,-33.739 22.054,-53.243l-66.593,-6.999c-0.697,6.631 -3.302,12.92 -7.499,18.102c-4.196,5.182 -9.806,9.038 -16.148,11.099c-6.341,2.06 -13.146,2.238 -19.587,0.512c-6.441,-1.725 -12.245,-5.282 -16.707,-10.237c-4.461,-4.956 -7.392,-11.1 -8.435,-17.686c-1.043,-6.585 -0.155,-13.335 2.558,-19.426c2.712,-6.091 7.133,-11.268 12.725,-14.899c5.592,-3.632 12.119,-5.565 18.787,-5.565l-0,-66.961Z" style="fill:#5cb8b2;fill-rule:nonzero;stroke:#fff;stroke-width:1px;"/></g><g id="patch_3"><path d="M248.499,156.045c2.239,-21.304 -2.326,-42.78 -13.037,-61.332c-10.711,-18.552 -27.027,-33.243 -46.597,-41.956l-27.235,61.171c6.654,2.962 12.201,7.957 15.843,14.265c3.642,6.308 5.194,13.609 4.433,20.853l66.593,6.999Z" style="fill:#e9f4f3;fill-rule:nonzero;stroke:#fff;stroke-width:1px;"/></g><g id="patch_4"><path d="M188.865,52.757c-6.476,-2.884 -13.237,-5.081 -20.171,-6.554c-6.935,-1.474 -14.005,-2.218 -21.094,-2.218l-0,66.961c2.41,-0 4.814,0.252 7.172,0.753c2.357,0.502 4.656,1.248 6.858,2.229l27.235,-61.171Z" style="fill:#e5e4e2;fill-rule:nonzero;stroke:#fff;stroke-width:1px;"/></g><g id="text_1"><g><path id="SourceSans3-Bold-59" d="M140.953,142.39l0,-2.784l-2.364,-5.04l1.895,-0l0.696,1.8c0.112,0.296 0.221,0.582 0.324,0.859c0.104,0.276 0.208,0.566 0.312,0.87l0.048,-0c0.113,-0.304 0.225,-0.594 0.336,-0.87c0.112,-0.277 0.221,-0.563 0.324,-0.859l0.709,-1.8l1.847,-0l-2.364,5.04l-0,2.784l-1.763,0Z" style="fill:#404040;fill-rule:nonzero;"/><path id="SourceSans3-Bold-65" d="M148.26,137.65c-0.231,0 -0.457,0.078 -0.677,0.235c-0.22,0.156 -0.37,0.438 -0.45,0.845l2.111,0c0,-0.312 -0.076,-0.57 -0.228,-0.774c-0.152,-0.204 -0.404,-0.306 -0.756,-0.306Zm0.169,4.885c-0.569,-0 -1.082,-0.122 -1.538,-0.366c-0.455,-0.245 -0.815,-0.601 -1.08,-1.069c-0.264,-0.467 -0.395,-1.029 -0.395,-1.685c-0,-0.649 0.133,-1.205 0.401,-1.669c0.269,-0.464 0.619,-0.821 1.05,-1.073c0.432,-0.252 0.885,-0.378 1.357,-0.378c0.568,-0 1.04,0.126 1.416,0.378c0.376,0.252 0.656,0.592 0.84,1.02c0.184,0.428 0.276,0.914 0.276,1.457c-0,0.153 -0.009,0.303 -0.025,0.45c-0.015,0.148 -0.03,0.266 -0.047,0.355l-3.551,-0c0.095,0.463 0.291,0.783 0.587,0.96c0.296,0.176 0.612,0.264 0.949,0.264c0.44,0 0.872,-0.128 1.295,-0.384l0.576,1.08c-0.296,0.207 -0.634,0.369 -1.014,0.485c-0.38,0.117 -0.746,0.175 -1.097,0.175Z" style="fill:#404040;fill-rule:nonzero;"/><path id="SourceSans3-Bold-73" d="M153.732,142.535c-0.392,-0 -0.794,-0.076 -1.206,-0.227c-0.411,-0.153 -0.769,-0.373 -1.074,-0.662l0.744,-0.996c0.272,0.217 0.542,0.367 0.81,0.45c0.269,0.084 0.527,0.126 0.774,0.126c0.264,-0 0.456,-0.046 0.576,-0.137c0.12,-0.092 0.18,-0.215 0.18,-0.367c-0,-0.2 -0.114,-0.352 -0.343,-0.456c-0.228,-0.104 -0.501,-0.216 -0.821,-0.336c-0.28,-0.103 -0.542,-0.235 -0.786,-0.395c-0.244,-0.16 -0.44,-0.354 -0.589,-0.582c-0.147,-0.228 -0.221,-0.495 -0.221,-0.798c-0,-0.553 0.21,-1.001 0.63,-1.345c0.42,-0.343 0.97,-0.515 1.65,-0.515c0.432,-0 0.829,0.07 1.189,0.21c0.36,0.14 0.663,0.322 0.911,0.545l-0.756,0.985c-0.216,-0.16 -0.432,-0.272 -0.648,-0.336c-0.215,-0.065 -0.427,-0.097 -0.636,-0.097c-0.231,-0 -0.403,0.044 -0.516,0.133c-0.112,0.087 -0.168,0.199 -0.168,0.335c-0,0.177 0.09,0.313 0.27,0.409c0.18,0.095 0.458,0.203 0.834,0.323c0.456,0.152 0.844,0.368 1.164,0.648c0.32,0.28 0.48,0.668 0.48,1.165c0,0.536 -0.208,0.99 -0.624,1.363c-0.416,0.371 -1.024,0.557 -1.824,0.557Z" style="fill:#404040;fill-rule:nonzero;"/></g><g><path id="SourceSans3-Bold-37" d="M137.922,154.693c0.048,-0.848 0.145,-1.605 0.293,-2.273c0.148,-0.669 0.371,-1.311 0.667,-1.927c0.296,-0.617 0.693,-1.26 1.189,-1.932l-3.42,0l-0,-1.488l5.302,-0l0,1.08c-0.455,0.536 -0.822,1.042 -1.102,1.518c-0.28,0.475 -0.498,0.957 -0.654,1.446c-0.157,0.487 -0.271,1.019 -0.344,1.596c-0.071,0.576 -0.123,1.236 -0.155,1.98l-1.776,-0Z" style="fill:#404040;fill-rule:nonzero;"/><path id="SourceSans3-Bold-33" d="M145.374,154.837c-0.616,-0 -1.143,-0.1 -1.579,-0.3c-0.435,-0.2 -0.792,-0.46 -1.072,-0.78l0.815,-1.116c0.233,0.224 0.489,0.408 0.769,0.552c0.28,0.143 0.58,0.215 0.9,0.215c0.375,0 0.674,-0.077 0.898,-0.232c0.225,-0.157 0.338,-0.379 0.338,-0.668c-0,-0.224 -0.057,-0.417 -0.169,-0.581c-0.111,-0.164 -0.315,-0.289 -0.611,-0.377c-0.297,-0.089 -0.721,-0.133 -1.274,-0.133l0,-1.249c0.689,0 1.161,-0.094 1.416,-0.281c0.256,-0.189 0.384,-0.435 0.384,-0.739c0,-0.264 -0.08,-0.469 -0.24,-0.617c-0.16,-0.148 -0.391,-0.223 -0.695,-0.223c-0.271,0 -0.517,0.06 -0.737,0.18c-0.22,0.12 -0.45,0.285 -0.69,0.493l-0.889,-1.08c0.353,-0.305 0.725,-0.543 1.116,-0.714c0.392,-0.173 0.82,-0.259 1.284,-0.259c0.784,0 1.418,0.183 1.901,0.548c0.485,0.363 0.728,0.877 0.728,1.541c-0,0.391 -0.11,0.727 -0.33,1.007c-0.22,0.28 -0.534,0.508 -0.943,0.684l-0,0.049c0.44,0.127 0.802,0.346 1.085,0.654c0.285,0.308 0.428,0.71 0.428,1.206c-0,0.471 -0.13,0.873 -0.39,1.206c-0.26,0.332 -0.604,0.585 -1.033,0.757c-0.428,0.171 -0.898,0.257 -1.41,0.257Z" style="fill:#404040;fill-rule:nonzero;"/><path id="SourceSans3-Bold-25" d="M151.05,151.693c-0.56,-0 -1.025,-0.22 -1.393,-0.66c-0.368,-0.44 -0.552,-1.052 -0.552,-1.836c0,-0.785 0.184,-1.393 0.552,-1.824c0.368,-0.433 0.833,-0.649 1.393,-0.649c0.569,-0 1.037,0.216 1.404,0.649c0.368,0.431 0.551,1.039 0.551,1.824c0,0.784 -0.183,1.396 -0.551,1.836c-0.367,0.44 -0.835,0.66 -1.404,0.66Zm-0,-0.985c0.2,0 0.37,-0.112 0.51,-0.335c0.14,-0.224 0.21,-0.616 0.21,-1.176c-0,-0.56 -0.07,-0.948 -0.21,-1.164c-0.14,-0.217 -0.31,-0.325 -0.51,-0.325c-0.2,0 -0.37,0.108 -0.51,0.325c-0.14,0.216 -0.21,0.604 -0.21,1.164c-0,0.56 0.07,0.952 0.21,1.176c0.14,0.223 0.31,0.335 0.51,0.335Zm0.264,4.129l4.225,-8.113l1.02,-0l-4.225,8.113l-1.02,-0Zm5.509,-0c-0.56,-0 -1.024,-0.22 -1.393,-0.66c-0.368,-0.44 -0.551,-1.052 -0.551,-1.836c-0,-0.785 0.183,-1.393 0.551,-1.824c0.369,-0.433 0.833,-0.649 1.393,-0.649c0.567,0 1.035,0.216 1.402,0.649c0.369,0.431 0.554,1.039 0.554,1.824c-0,0.784 -0.185,1.396 -0.554,1.836c-0.367,0.44 -0.835,0.66 -1.402,0.66Zm-0,-0.984c0.2,-0 0.37,-0.112 0.51,-0.336c0.14,-0.224 0.21,-0.616 0.21,-1.176c-0,-0.56 -0.07,-0.948 -0.21,-1.164c-0.14,-0.216 -0.31,-0.324 -0.51,-0.324c-0.2,-0 -0.37,0.108 -0.51,0.324c-0.14,0.216 -0.21,0.604 -0.21,1.164c-0,0.56 0.07,0.952 0.21,1.176c0.14,0.224 0.31,0.336 0.51,0.336Z" style="fill:#404040;fill-rule:nonzero;"/></g></g><g id="legend_1"><g id="patch_5"><rect x="208.291" y="43.68" width="20" height="7" style="fill:#5cb8b2;fill-rule:nonzero;stroke:#fff;stroke-width:1px;"/></g><g id="text_3"><g><path id="SourceSans3-Regular-59" d="M238.25,50.68l0,-2.54l-1.969,-4.019l0.889,-0l0.85,1.85c0.108,0.24 0.213,0.476 0.316,0.709c0.103,0.234 0.208,0.474 0.314,0.721l0.041,-0c0.113,-0.247 0.226,-0.487 0.339,-0.721c0.113,-0.233 0.22,-0.469 0.32,-0.709l0.841,-1.85l0.87,-0l-1.97,4.019l-0,2.54l-0.841,0Z" style="fill:#404040;fill-rule:nonzero;"/><path id="SourceSans3-Regular-65" d="M243.71,46.371c-0.2,-0 -0.395,0.048 -0.584,0.145c-0.19,0.096 -0.354,0.251 -0.491,0.464c-0.136,0.214 -0.228,0.494 -0.275,0.841l2.531,-0c0,-0.474 -0.103,-0.834 -0.311,-1.08c-0.206,-0.247 -0.496,-0.37 -0.87,-0.37Zm0.131,4.43c-0.433,-0 -0.828,-0.1 -1.186,-0.3c-0.356,-0.2 -0.638,-0.492 -0.845,-0.875c-0.206,-0.384 -0.309,-0.842 -0.309,-1.375c-0,-0.527 0.104,-0.981 0.314,-1.36c0.21,-0.38 0.484,-0.673 0.82,-0.879c0.337,-0.208 0.693,-0.311 1.066,-0.311c0.627,-0 1.105,0.206 1.434,0.62c0.33,0.412 0.495,0.966 0.495,1.659c0,0.087 -0.003,0.17 -0.011,0.25c-0.006,0.081 -0.015,0.161 -0.028,0.241l-3.25,-0c0.04,0.546 0.214,0.959 0.524,1.239c0.31,0.28 0.669,0.42 1.076,0.42c0.234,0 0.452,-0.033 0.655,-0.1c0.203,-0.066 0.388,-0.156 0.555,-0.27l0.3,0.541c-0.214,0.147 -0.452,0.267 -0.716,0.361c-0.263,0.092 -0.56,0.139 -0.894,0.139Z" style="fill:#404040;fill-rule:nonzero;"/><path id="SourceSans3-Regular-73" d="M248.101,50.801c-0.354,-0 -0.688,-0.062 -1.001,-0.185c-0.313,-0.124 -0.583,-0.296 -0.81,-0.515l0.38,-0.48c0.214,0.173 0.435,0.306 0.666,0.4c0.23,0.093 0.495,0.139 0.795,0.139c0.32,0 0.559,-0.075 0.719,-0.225c0.16,-0.15 0.24,-0.328 0.24,-0.534c0,-0.167 -0.053,-0.305 -0.161,-0.414c-0.106,-0.111 -0.242,-0.205 -0.409,-0.282c-0.167,-0.077 -0.343,-0.149 -0.53,-0.215c-0.239,-0.087 -0.469,-0.188 -0.69,-0.305c-0.22,-0.117 -0.398,-0.263 -0.535,-0.439c-0.136,-0.177 -0.204,-0.399 -0.204,-0.666c-0,-0.393 0.148,-0.722 0.445,-0.984c0.297,-0.264 0.708,-0.395 1.234,-0.395c0.3,-0 0.58,0.051 0.839,0.154c0.261,0.103 0.485,0.235 0.672,0.396l-0.381,0.47c-0.167,-0.121 -0.342,-0.215 -0.525,-0.281c-0.183,-0.067 -0.385,-0.1 -0.605,-0.1c-0.306,-0 -0.531,0.07 -0.675,0.211c-0.142,0.139 -0.214,0.302 -0.214,0.489c0,0.221 0.097,0.388 0.289,0.501c0.194,0.113 0.441,0.223 0.741,0.33c0.253,0.086 0.495,0.19 0.725,0.309c0.23,0.12 0.417,0.272 0.559,0.455c0.144,0.183 0.216,0.422 0.216,0.716c-0,0.259 -0.069,0.499 -0.206,0.72c-0.137,0.22 -0.337,0.396 -0.6,0.53c-0.263,0.133 -0.587,0.2 -0.974,0.2Z" style="fill:#404040;fill-rule:nonzero;"/></g></g><g id="patch_6"><rect x="208.291" y="57.851" width="20" height="7" style="fill:#e9f4f3;fill-rule:nonzero;stroke:#fff;stroke-width:1px;"/></g><g id="patch_7"><rect x="208.291" y="72.021" width="20" height="7" style="fill:#e5e4e2;fill-rule:nonzero;stroke:#fff;stroke-width:1px;"/></g><g id="text_4"><g><path id="SourceSans3-Regular-4e" d="M237.191,79.021l-0,-6.559l0.909,-0l2.331,4.079c0.126,0.22 0.248,0.45 0.364,0.691c0.117,0.239 0.229,0.479 0.336,0.719l0.039,-0c-0.026,-0.34 -0.051,-0.686 -0.075,-1.039c-0.023,-0.355 -0.034,-0.701 -0.034,-1.041l-0,-3.409l0.8,-0l-0,6.559l-0.911,-0l-2.33,-4.08c-0.126,-0.22 -0.249,-0.449 -0.37,-0.689c-0.12,-0.24 -0.233,-0.481 -0.339,-0.722l-0.041,0c0.034,0.327 0.06,0.664 0.08,1.011c0.021,0.347 0.031,0.697 0.031,1.05l0,3.43l-0.79,-0Z" style="fill:#404040;fill-rule:nonzero;"/><path id="SourceSans3-Regular-6f" d="M245.47,79.141c-0.393,0 -0.761,-0.1 -1.105,-0.3c-0.342,-0.2 -0.619,-0.49 -0.829,-0.87c-0.211,-0.38 -0.316,-0.837 -0.316,-1.37c-0,-0.547 0.105,-1.01 0.316,-1.389c0.21,-0.381 0.487,-0.671 0.829,-0.871c0.344,-0.2 0.712,-0.3 1.105,-0.3c0.4,0 0.77,0.1 1.109,0.3c0.341,0.2 0.616,0.49 0.825,0.871c0.211,0.379 0.316,0.842 0.316,1.389c-0,0.533 -0.105,0.99 -0.316,1.37c-0.209,0.38 -0.484,0.67 -0.825,0.87c-0.339,0.2 -0.709,0.3 -1.109,0.3Zm-0,-0.679c0.421,-0 0.759,-0.172 1.016,-0.516c0.256,-0.344 0.384,-0.792 0.384,-1.345c-0,-0.56 -0.128,-1.013 -0.384,-1.36c-0.257,-0.347 -0.595,-0.52 -1.016,-0.52c-0.413,-0 -0.749,0.173 -1.009,0.52c-0.261,0.347 -0.391,0.8 -0.391,1.36c-0,0.553 0.13,1.001 0.391,1.345c0.26,0.344 0.596,0.516 1.009,0.516Z" style="fill:#404040;fill-rule:nonzero;"/></g></g></g></g><text x="52.084px" y="25.31px" style="font-family:'ArialMT', 'Arial', sans-serif;font-size:12px;">Data managed in a database system</text></g></svg>