<?xml version="1.0" encoding="UTF-8" standalone="no"?><!DOCTYPE svg PUBLIC "-//W3C//DTD SVG 1.1//EN" "http://www.w3.org/Graphics/SVG/1.1/DTD/svg11.dtd"><svg width="100%" height="100%" viewBox="0 0 288 288" version="1.1" xmlns="http://www.w3.org/2000/svg" xmlns:xlink="http://www.w3.org/1999/xlink" xml:space="preserve" xmlns:serif="http://www.serif.com/" style="fill-rule:evenodd;clip-rule:evenodd;"><g id="figure_1"><g id="patch_1"><rect x="0" y="0" width="288" height="288" style="fill:none;fill-rule:nonzero;"/></g><g id="axes_1"><g id="patch_2"><path d="M47.361,129.783c-2.216,14.183 -1.396,28.676 2.405,42.519c3.801,13.843 10.497,26.723 19.644,37.786c9.147,11.063 20.539,20.06 33.421,26.395c12.882,6.334 26.962,9.863 41.309,10.353c14.347,0.489 28.635,-2.072 41.919,-7.513c13.284,-5.442 25.262,-13.641 35.142,-24.055c9.88,-10.415 17.439,-22.808 22.174,-36.359c4.736,-13.552 6.542,-27.955 5.299,-42.256l-66.709,5.799c0.423,4.863 -0.191,9.76 -1.801,14.367c-1.61,4.608 -4.18,8.822 -7.539,12.362c-3.36,3.541 -7.432,6.329 -11.949,8.179c-4.516,1.85 -9.374,2.721 -14.252,2.554c-4.878,-0.166 -9.666,-1.366 -14.045,-3.52c-4.38,-2.153 -8.254,-5.212 -11.364,-8.974c-3.11,-3.761 -5.386,-8.14 -6.678,-12.847c-1.293,-4.707 -1.572,-9.634 -0.818,-14.456l-66.158,-10.334Z" style="fill:#e9f4f3;fill-rule:nonzero;stroke:#fff;stroke-width:1px;"/></g><g id="patch_3"><path d="M248.674,136.653c-2.147,-24.69 -13.267,-47.757 -31.246,-64.815c-17.979,-17.057 -41.6,-26.949 -66.368,-27.794l-2.284,66.921c8.422,0.288 16.453,3.651 22.565,9.45c6.113,5.8 9.894,13.643 10.624,22.037l66.709,-5.799Z" style="fill:#e5e4e2;fill-rule:nonzero;stroke:#fff;stroke-width:1px;"/></g><g id="patch_4"><path d="M151.06,44.044c-24.768,-0.845 -49.008,7.414 -68.108,23.206c-19.1,15.792 -31.767,38.047 -35.591,62.533l66.158,10.334c1.3,-8.326 5.607,-15.893 12.101,-21.262c6.494,-5.369 14.735,-8.177 23.156,-7.89l2.284,-66.921Z" style="fill:#5cb8b2;fill-rule:nonzero;stroke:#fff;stroke-width:1px;"/></g><g id="text_1"><g><path id="SourceSans3-Bold-59" d="M140.953,142.39l0,-2.784l-2.364,-5.04l1.896,-0l0.695,1.8c0.113,0.296 0.221,0.582 0.325,0.859c0.103,0.276 0.207,0.566 0.311,0.87l0.049,-0c0.112,-0.304 0.224,-0.594 0.335,-0.87c0.113,-0.277 0.221,-0.563 0.325,-0.859l0.708,-1.8l1.847,-0l-2.364,5.04l-0,2.784l-1.763,0Z" style="fill:#404040;fill-rule:nonzero;"/><path id="SourceSans3-Bold-65" d="M148.26,137.65c-0.231,0 -0.457,0.078 -0.677,0.235c-0.22,0.156 -0.37,0.438 -0.45,0.845l2.112,0c-0,-0.312 -0.077,-0.57 -0.229,-0.774c-0.151,-0.204 -0.403,-0.306 -0.756,-0.306Zm0.169,4.885c-0.569,-0 -1.081,-0.122 -1.538,-0.366c-0.455,-0.245 -0.815,-0.601 -1.08,-1.069c-0.263,-0.467 -0.395,-1.029 -0.395,-1.685c-0,-0.649 0.134,-1.205 0.401,-1.669c0.269,-0.464 0.619,-0.821 1.05,-1.073c0.433,-0.252 0.885,-0.378 1.358,-0.378c0.567,-0 1.039,0.126 1.415,0.378c0.376,0.252 0.656,0.592 0.84,1.02c0.184,0.428 0.276,0.913 0.276,1.457c-0,0.153 -0.008,0.303 -0.025,0.45c-0.015,0.148 -0.03,0.266 -0.046,0.355l-3.552,-0c0.095,0.463 0.291,0.783 0.587,0.96c0.296,0.176 0.613,0.264 0.949,0.264c0.44,-0 0.872,-0.128 1.296,-0.384l0.575,1.08c-0.296,0.207 -0.634,0.369 -1.014,0.485c-0.38,0.116 -0.746,0.175 -1.097,0.175Z" style="fill:#404040;fill-rule:nonzero;"/><path id="SourceSans3-Bold-73" d="M153.732,142.535c-0.391,-0 -0.793,-0.076 -1.206,-0.227c-0.411,-0.153 -0.769,-0.373 -1.074,-0.662l0.744,-0.996c0.273,0.216 0.543,0.366 0.81,0.45c0.269,0.084 0.527,0.126 0.775,0.126c0.263,-0 0.455,-0.046 0.575,-0.137c0.12,-0.093 0.18,-0.215 0.18,-0.368c0,-0.2 -0.114,-0.351 -0.343,-0.455c-0.227,-0.104 -0.501,-0.216 -0.821,-0.336c-0.28,-0.104 -0.542,-0.235 -0.786,-0.395c-0.244,-0.16 -0.44,-0.354 -0.589,-0.582c-0.147,-0.228 -0.221,-0.495 -0.221,-0.798c0,-0.553 0.21,-1.001 0.63,-1.345c0.42,-0.344 0.97,-0.515 1.65,-0.515c0.433,-0 0.829,0.07 1.189,0.21c0.36,0.14 0.664,0.321 0.911,0.545l-0.755,0.985c-0.217,-0.16 -0.433,-0.272 -0.649,-0.336c-0.215,-0.065 -0.427,-0.098 -0.636,-0.098c-0.231,0 -0.403,0.045 -0.515,0.134c-0.113,0.087 -0.169,0.199 -0.169,0.335c-0,0.176 0.09,0.313 0.27,0.409c0.18,0.095 0.458,0.202 0.834,0.322c0.456,0.153 0.845,0.369 1.165,0.649c0.32,0.28 0.48,0.668 0.48,1.165c-0,0.536 -0.209,0.99 -0.625,1.363c-0.416,0.371 -1.024,0.557 -1.824,0.557Z" style="fill:#404040;fill-rule:nonzero;"/></g><g><path id="SourceSans3-Bold-32" d="M136.567,154.692l-0,-1.091c0.64,-0.569 1.21,-1.1 1.71,-1.595c0.5,-0.497 0.892,-0.957 1.175,-1.38c0.284,-0.425 0.426,-0.814 0.426,-1.165c-0,-0.376 -0.098,-0.662 -0.294,-0.859c-0.195,-0.196 -0.457,-0.294 -0.786,-0.294c-0.271,0 -0.517,0.078 -0.737,0.234c-0.22,0.157 -0.426,0.339 -0.619,0.546l-0.924,-0.911c0.369,-0.416 0.747,-0.728 1.134,-0.936c0.388,-0.209 0.85,-0.313 1.386,-0.313c0.504,0 0.944,0.1 1.32,0.3c0.376,0.2 0.67,0.48 0.881,0.84c0.213,0.36 0.319,0.784 0.319,1.273c-0,0.455 -0.122,0.903 -0.366,1.343c-0.243,0.44 -0.563,0.874 -0.96,1.303c-0.396,0.427 -0.822,0.865 -1.278,1.314c0.2,-0.025 0.418,-0.047 0.654,-0.067c0.236,-0.02 0.442,-0.03 0.619,-0.03l1.704,-0l0,1.488l-5.364,0Z" style="fill:#404040;fill-rule:nonzero;"/><path id="SourceSans3-Bold-33" d="M145.374,154.837c-0.616,-0 -1.143,-0.1 -1.579,-0.3c-0.435,-0.2 -0.792,-0.46 -1.072,-0.78l0.815,-1.116c0.233,0.224 0.489,0.408 0.769,0.551c0.28,0.144 0.58,0.216 0.9,0.216c0.375,0 0.674,-0.077 0.898,-0.232c0.225,-0.157 0.338,-0.379 0.338,-0.668c-0,-0.224 -0.057,-0.417 -0.169,-0.581c-0.111,-0.164 -0.315,-0.29 -0.611,-0.377c-0.297,-0.089 -0.721,-0.133 -1.273,-0.133l-0,-1.249c0.688,0 1.16,-0.094 1.415,-0.281c0.256,-0.189 0.385,-0.435 0.385,-0.739c-0,-0.264 -0.08,-0.469 -0.24,-0.617c-0.16,-0.149 -0.392,-0.223 -0.696,-0.223c-0.271,0 -0.517,0.06 -0.737,0.18c-0.22,0.12 -0.45,0.284 -0.69,0.493l-0.889,-1.08c0.353,-0.305 0.725,-0.543 1.116,-0.714c0.392,-0.173 0.821,-0.259 1.284,-0.259c0.784,0 1.418,0.183 1.902,0.548c0.485,0.363 0.727,0.877 0.727,1.541c0,0.391 -0.11,0.727 -0.33,1.007c-0.22,0.28 -0.534,0.508 -0.943,0.684l-0,0.049c0.44,0.127 0.802,0.345 1.086,0.654c0.285,0.308 0.427,0.71 0.427,1.206c0,0.471 -0.13,0.873 -0.39,1.205c-0.26,0.333 -0.604,0.585 -1.033,0.758c-0.428,0.171 -0.898,0.257 -1.41,0.257Z" style="fill:#404040;fill-rule:nonzero;"/><path id="SourceSans3-Bold-25" d="M151.05,151.692c-0.56,0 -1.024,-0.22 -1.393,-0.66c-0.368,-0.44 -0.551,-1.051 -0.551,-1.835c-0,-0.785 0.183,-1.393 0.551,-1.825c0.369,-0.432 0.833,-0.648 1.393,-0.648c0.569,-0 1.037,0.216 1.404,0.648c0.368,0.432 0.552,1.04 0.552,1.825c-0,0.784 -0.184,1.395 -0.552,1.835c-0.367,0.44 -0.835,0.66 -1.404,0.66Zm-0,-0.984c0.2,0 0.37,-0.112 0.51,-0.336c0.14,-0.223 0.21,-0.615 0.21,-1.175c-0,-0.56 -0.07,-0.948 -0.21,-1.165c-0.14,-0.216 -0.31,-0.324 -0.51,-0.324c-0.2,0 -0.37,0.108 -0.51,0.324c-0.14,0.217 -0.21,0.605 -0.21,1.165c-0,0.56 0.07,0.952 0.21,1.175c0.14,0.224 0.31,0.336 0.51,0.336Zm0.264,4.129l4.225,-8.113l1.02,-0l-4.225,8.113l-1.02,-0Zm5.509,-0c-0.56,-0 -1.024,-0.22 -1.393,-0.66c-0.368,-0.44 -0.551,-1.052 -0.551,-1.836c-0,-0.785 0.183,-1.393 0.551,-1.824c0.369,-0.433 0.833,-0.649 1.393,-0.649c0.568,0 1.035,0.216 1.403,0.649c0.368,0.431 0.553,1.039 0.553,1.824c-0,0.784 -0.185,1.396 -0.553,1.836c-0.368,0.44 -0.835,0.66 -1.403,0.66Zm0,-0.985c0.2,0 0.37,-0.111 0.51,-0.335c0.14,-0.224 0.21,-0.616 0.21,-1.176c0,-0.56 -0.07,-0.948 -0.21,-1.164c-0.14,-0.216 -0.31,-0.325 -0.51,-0.325c-0.2,0 -0.37,0.109 -0.51,0.325c-0.14,0.216 -0.21,0.604 -0.21,1.164c0,0.56 0.07,0.952 0.21,1.176c0.14,0.224 0.31,0.335 0.51,0.335Z" style="fill:#404040;fill-rule:nonzero;"/></g></g><text x="49.298px" y="27.746px" style="font-family:'ArialMT', 'Arial', sans-serif;font-size:12px;">Interoperable with other systems</text><g id="legend_1"><g id="patch_5"><rect x="225.515" y="43.68" width="20" height="7" style="fill:#5cb8b2;fill-rule:nonzero;stroke:#fff;stroke-width:1px;"/></g><g id="patch_6"><rect x="225.515" y="57.851" width="20" height="7" style="fill:#e9f4f3;fill-rule:nonzero;stroke:#fff;stroke-width:1px;"/></g><g id="patch_7"><rect x="225.515" y="72.021" width="20" height="7" style="fill:#e5e4e2;fill-rule:nonzero;stroke:#fff;stroke-width:1px;"/></g><g id="text_4"><g><path id="SourceSans3-Regular-59" d="M254.648,50.56l0,-2.541l-1.968,-4.018l0.889,-0l0.85,1.85c0.107,0.239 0.212,0.476 0.315,0.709c0.103,0.233 0.208,0.473 0.314,0.72l0.041,0c0.113,-0.247 0.226,-0.487 0.339,-0.72c0.113,-0.233 0.22,-0.47 0.32,-0.709l0.841,-1.85l0.87,-0l-1.97,4.018l-0,2.541l-0.841,0Z" style="fill:#404040;fill-rule:nonzero;"/><path id="SourceSans3-Regular-65" d="M260.108,46.251c-0.2,-0 -0.395,0.048 -0.584,0.145c-0.19,0.096 -0.353,0.25 -0.491,0.464c-0.136,0.214 -0.228,0.494 -0.275,0.841l2.532,-0c-0,-0.474 -0.104,-0.834 -0.311,-1.08c-0.207,-0.247 -0.497,-0.37 -0.871,-0.37Zm0.132,4.429c-0.434,0 -0.829,-0.1 -1.186,-0.3c-0.357,-0.2 -0.638,-0.491 -0.846,-0.875c-0.206,-0.383 -0.309,-0.841 -0.309,-1.375c-0,-0.527 0.105,-0.98 0.314,-1.359c0.21,-0.38 0.484,-0.673 0.82,-0.88c0.338,-0.207 0.693,-0.311 1.066,-0.311c0.627,0 1.105,0.207 1.434,0.621c0.33,0.412 0.496,0.965 0.496,1.659c-0,0.086 -0.004,0.17 -0.011,0.25c-0.007,0.08 -0.016,0.16 -0.028,0.241l-3.25,-0c0.039,0.545 0.214,0.958 0.523,1.239c0.31,0.28 0.669,0.42 1.077,0.42c0.233,0 0.451,-0.033 0.654,-0.1c0.203,-0.067 0.388,-0.157 0.555,-0.27l0.3,0.54c-0.214,0.147 -0.452,0.268 -0.716,0.361c-0.262,0.093 -0.56,0.139 -0.893,0.139Z" style="fill:#404040;fill-rule:nonzero;"/><path id="SourceSans3-Regular-73" d="M264.5,50.68c-0.355,0 -0.689,-0.061 -1.002,-0.184c-0.313,-0.124 -0.582,-0.296 -0.809,-0.516l0.379,-0.479c0.214,0.173 0.436,0.306 0.666,0.4c0.23,0.092 0.495,0.139 0.795,0.139c0.32,-0 0.56,-0.075 0.719,-0.225c0.16,-0.15 0.241,-0.328 0.241,-0.535c-0,-0.166 -0.054,-0.304 -0.161,-0.414c-0.107,-0.11 -0.243,-0.204 -0.41,-0.281c-0.166,-0.077 -0.343,-0.149 -0.529,-0.216c-0.24,-0.086 -0.47,-0.188 -0.691,-0.304c-0.22,-0.117 -0.398,-0.263 -0.534,-0.439c-0.137,-0.177 -0.205,-0.399 -0.205,-0.666c-0,-0.394 0.148,-0.722 0.445,-0.984c0.297,-0.264 0.709,-0.396 1.235,-0.396c0.3,0 0.579,0.052 0.839,0.155c0.26,0.103 0.484,0.235 0.672,0.395l-0.382,0.471c-0.166,-0.121 -0.341,-0.215 -0.525,-0.282c-0.183,-0.066 -0.385,-0.1 -0.604,-0.1c-0.307,0 -0.532,0.071 -0.675,0.211c-0.143,0.14 -0.214,0.303 -0.214,0.489c-0,0.221 0.096,0.388 0.289,0.502c0.193,0.112 0.44,0.222 0.74,0.33c0.253,0.086 0.495,0.189 0.725,0.309c0.23,0.12 0.417,0.271 0.56,0.455c0.143,0.183 0.215,0.422 0.215,0.715c0,0.26 -0.069,0.5 -0.206,0.721c-0.137,0.219 -0.337,0.396 -0.6,0.529c-0.263,0.134 -0.587,0.2 -0.973,0.2Z" style="fill:#404040;fill-rule:nonzero;"/></g><g transform="matrix(9,0,0,9,264.184,64.728)"></g><text x="252.68px" y="64.728px" style="font-family:'ArialMT', 'Arial', sans-serif;font-size:9px;">No</text></g></g></g><g transform="matrix(9,0,0,9,275.188,79.5482)"></g><text x="252.68px" y="79.548px" style="font-family:'ArialMT', 'Arial', sans-serif;font-size:9px;">Other</text></g></svg>