<?xml version="1.0" encoding="utf-8" standalone="no"?>
<!DOCTYPE svg PUBLIC "-//W3C//DTD SVG 1.1//EN"
  "http://www.w3.org/Graphics/SVG/1.1/DTD/svg11.dtd">
<svg xmlns:xlink="http://www.w3.org/1999/xlink" width="288pt" height="288pt" viewBox="0 0 288 288" xmlns="http://www.w3.org/2000/svg" version="1.1">
 <metadata>
  <rdf:RDF xmlns:dc="http://purl.org/dc/elements/1.1/" xmlns:cc="http://creativecommons.org/ns#" xmlns:rdf="http://www.w3.org/1999/02/22-rdf-syntax-ns#">
   <cc:Work>
    <dc:type rdf:resource="http://purl.org/dc/dcmitype/StillImage"/>
    <dc:date>2025-11-10T09:43:04.950098</dc:date>
    <dc:format>image/svg+xml</dc:format>
    <dc:creator>
     <cc:Agent>
      <dc:title>Matplotlib v3.10.7, https://matplotlib.org/</dc:title>
     </cc:Agent>
    </dc:creator>
   </cc:Work>
  </rdf:RDF>
 </metadata>
 <defs>
  <style type="text/css">*{stroke-linejoin: round; stroke-linecap: butt}</style>
 </defs>
 <g id="figure_1">
  <g id="patch_1">
   <path d="M 0 288 
L 288 288 
L 288 0 
L 0 0 
L 0 288 
z
" style="fill: none"/>
  </g>
  <g id="axes_1">
   <g id="patch_2">
    <path d="M 147.600133 43.985316 
C 133.245096 43.985316 119.052173 47.032002 105.961817 52.923493 
C 92.871461 58.814984 81.179335 67.418214 71.660185 78.163114 
C 62.141035 88.908014 55.009863 101.551896 50.739196 115.25695 
C 46.468529 128.962003 45.154826 143.418682 46.885136 157.669054 
C 48.615445 171.919427 53.350686 185.641631 60.77709 197.926402 
C 68.203495 210.211173 78.153328 220.781045 89.967293 228.935634 
C 101.781257 237.090224 115.19252 242.645349 129.31242 245.232915 
C 143.43232 247.820481 157.941943 247.382045 171.879848 243.946658 
L 155.855236 178.932286 
C 151.116349 180.100317 146.183077 180.249386 141.382311 179.369613 
C 136.581545 178.489841 132.021715 176.601098 128.004967 173.828538 
C 123.988219 171.055977 120.605276 167.462221 118.080299 163.285399 
C 115.555321 159.108576 113.945339 154.443027 113.357034 149.597901 
C 112.768729 144.752774 113.215388 139.837503 114.667415 135.177785 
C 116.119441 130.518067 118.54404 126.219147 121.780551 122.565881 
C 125.017062 118.912615 128.992385 115.987517 133.443106 113.98441 
C 137.893827 111.981303 142.719421 110.94543 147.600133 110.94543 
z
" style="fill: #5cb8b2; stroke: #ffffff; stroke-linejoin: miter"/>
   </g>
   <g id="patch_3">
    <path d="M 171.879848 243.946657 
C 195.942526 238.015736 217.017512 223.468719 231.095752 203.072846 
C 245.173993 182.676976 251.302379 157.813123 248.31513 133.210996 
L 181.843232 141.282161 
C 182.858897 149.646884 180.775245 158.100594 175.988644 165.03519 
C 171.202042 171.969786 164.036547 176.915772 155.855236 178.932286 
z
" style="fill: #e9f4f3; stroke: #ffffff; stroke-linejoin: miter"/>
   </g>
   <g id="patch_4">
    <path d="M 248.31513 133.210996 
C 245.327887 108.608868 233.427258 85.934134 214.877049 69.500084 
C 196.326839 53.066034 172.382921 43.985304 147.600099 43.985316 
L 147.600122 110.94543 
C 156.026281 110.945425 164.167213 114.032874 170.474284 119.620451 
C 176.781356 125.208028 180.82757 132.917437 181.843232 141.282161 
z
" style="fill: #e5e4e2; stroke: #ffffff; stroke-linejoin: miter"/>
   </g>
   <g id="matplotlib.axis_1"/>
   <g id="matplotlib.axis_2"/>
   <g id="text_1">
    <!-- Yes -->
    <g style="fill: #404040" transform="translate(138.684508 142.390158) scale(0.12 -0.12)">
     <defs>
      <path id="SourceSans3-Bold-59" d="M 1210 0 
L 1210 1485 
L -51 4173 
L 960 4173 
L 1331 3213 
Q 1421 2976 1504 2755 
Q 1587 2534 1670 2291 
L 1696 2291 
Q 1786 2534 1875 2755 
Q 1965 2976 2048 3213 
L 2426 4173 
L 3411 4173 
L 2150 1485 
L 2150 0 
L 1210 0 
z
" transform="scale(0.015625)"/>
      <path id="SourceSans3-Bold-65" d="M 1747 2528 
Q 1562 2528 1386 2403 
Q 1210 2278 1146 1952 
L 2272 1952 
Q 2272 2202 2150 2365 
Q 2029 2528 1747 2528 
z
M 1837 -77 
Q 1382 -77 1017 118 
Q 653 314 441 688 
Q 230 1062 230 1587 
Q 230 2106 444 2477 
Q 659 2848 1004 3049 
Q 1350 3251 1728 3251 
Q 2182 3251 2483 3049 
Q 2784 2848 2931 2505 
Q 3078 2163 3078 1728 
Q 3078 1606 3065 1488 
Q 3053 1370 3040 1299 
L 1146 1299 
Q 1222 928 1459 787 
Q 1696 646 1965 646 
Q 2317 646 2656 851 
L 2963 275 
Q 2726 109 2422 16 
Q 2118 -77 1837 -77 
z
" transform="scale(0.015625)"/>
      <path id="SourceSans3-Bold-73" d="M 1350 -77 
Q 1037 -77 707 44 
Q 378 166 134 397 
L 531 928 
Q 749 755 963 688 
Q 1178 621 1376 621 
Q 1587 621 1683 694 
Q 1779 768 1779 890 
Q 1779 1050 1596 1133 
Q 1414 1216 1158 1312 
Q 934 1395 739 1523 
Q 544 1651 425 1833 
Q 307 2016 307 2259 
Q 307 2701 643 2976 
Q 979 3251 1523 3251 
Q 1869 3251 2157 3139 
Q 2445 3027 2643 2848 
L 2240 2323 
Q 2067 2451 1894 2502 
Q 1722 2554 1555 2554 
Q 1370 2554 1280 2483 
Q 1190 2413 1190 2304 
Q 1190 2163 1334 2086 
Q 1478 2010 1779 1914 
Q 2144 1792 2400 1568 
Q 2656 1344 2656 947 
Q 2656 518 2323 220 
Q 1990 -77 1350 -77 
z
" transform="scale(0.015625)"/>
     </defs>
     <use xlink:href="#SourceSans3-Bold-59"/>
     <use xlink:href="#SourceSans3-Bold-65" transform="translate(52.499985 0)"/>
     <use xlink:href="#SourceSans3-Bold-73" transform="translate(104.299973 0)"/>
    </g>
    <!-- 23% -->
    <g style="fill: #404040" transform="translate(136.122321 154.692408) scale(0.12 -0.12)">
     <defs>
      <path id="SourceSans3-Bold-32" d="M 237 0 
L 237 582 
Q 749 1037 1149 1433 
Q 1549 1830 1776 2169 
Q 2003 2509 2003 2790 
Q 2003 3091 1846 3248 
Q 1690 3405 1427 3405 
Q 1210 3405 1034 3280 
Q 858 3155 704 2989 
L 211 3475 
Q 506 3808 816 3974 
Q 1126 4141 1555 4141 
Q 1958 4141 2259 3981 
Q 2560 3821 2729 3533 
Q 2899 3245 2899 2854 
Q 2899 2490 2704 2138 
Q 2509 1786 2192 1443 
Q 1875 1101 1510 742 
Q 1670 762 1859 778 
Q 2048 794 2189 794 
L 3098 794 
L 3098 0 
L 237 0 
z
" transform="scale(0.015625)"/>
      <path id="SourceSans3-Bold-33" d="M 1555 -77 
Q 1062 -77 713 83 
Q 365 243 141 499 
L 576 1094 
Q 762 915 986 800 
Q 1210 685 1466 685 
Q 1766 685 1945 809 
Q 2125 934 2125 1165 
Q 2125 1344 2035 1475 
Q 1946 1606 1709 1676 
Q 1472 1747 1030 1747 
L 1030 2413 
Q 1581 2413 1785 2563 
Q 1990 2714 1990 2957 
Q 1990 3168 1862 3286 
Q 1734 3405 1491 3405 
Q 1274 3405 1098 3309 
Q 922 3213 730 3046 
L 256 3622 
Q 538 3866 851 4003 
Q 1165 4141 1536 4141 
Q 2163 4141 2550 3849 
Q 2938 3558 2938 3027 
Q 2938 2714 2762 2490 
Q 2586 2266 2259 2125 
L 2259 2099 
Q 2611 1997 2838 1750 
Q 3066 1504 3066 1107 
Q 3066 730 2858 464 
Q 2650 198 2307 60 
Q 1965 -77 1555 -77 
z
" transform="scale(0.015625)"/>
      <path id="SourceSans3-Bold-25" d="M 1203 1600 
Q 755 1600 460 1952 
Q 166 2304 166 2931 
Q 166 3559 460 3904 
Q 755 4250 1203 4250 
Q 1658 4250 1952 3904 
Q 2246 3559 2246 2931 
Q 2246 2304 1952 1952 
Q 1658 1600 1203 1600 
z
M 1203 2125 
Q 1363 2125 1475 2304 
Q 1587 2483 1587 2931 
Q 1587 3379 1475 3552 
Q 1363 3725 1203 3725 
Q 1043 3725 931 3552 
Q 819 3379 819 2931 
Q 819 2483 931 2304 
Q 1043 2125 1203 2125 
z
M 1344 -77 
L 3597 4250 
L 4141 4250 
L 1888 -77 
L 1344 -77 
z
M 4282 -77 
Q 3834 -77 3539 275 
Q 3245 627 3245 1254 
Q 3245 1882 3539 2227 
Q 3834 2573 4282 2573 
Q 4736 2573 5030 2227 
Q 5325 1882 5325 1254 
Q 5325 627 5030 275 
Q 4736 -77 4282 -77 
z
M 4282 448 
Q 4442 448 4554 627 
Q 4666 806 4666 1254 
Q 4666 1702 4554 1875 
Q 4442 2048 4282 2048 
Q 4122 2048 4010 1875 
Q 3898 1702 3898 1254 
Q 3898 806 4010 627 
Q 4122 448 4282 448 
z
" transform="scale(0.015625)"/>
     </defs>
     <use xlink:href="#SourceSans3-Bold-32"/>
     <use xlink:href="#SourceSans3-Bold-33" transform="translate(52.799988 0)"/>
     <use xlink:href="#SourceSans3-Bold-25" transform="translate(105.599976 0)"/>
    </g>
   </g>
   <g id="text_2">
    <!-- Is this system interoperable with other systems used in South Sudan (n = 13) -->
    <g style="fill: #404040" transform="translate(-42.346875 28.56) scale(0.12 -0.12)">
     <defs>
      <path id="SourceSans3-Regular-49" d="M 576 0 
L 576 4198 
L 1107 4198 
L 1107 0 
L 576 0 
z
" transform="scale(0.015625)"/>
      <path id="SourceSans3-Regular-73" d="M 1338 -77 
Q 998 -77 697 41 
Q 397 160 179 371 
L 422 678 
Q 627 512 848 422 
Q 1069 333 1357 333 
Q 1664 333 1817 477 
Q 1971 621 1971 819 
Q 1971 979 1868 1084 
Q 1766 1190 1606 1264 
Q 1446 1338 1267 1402 
Q 1037 1485 825 1597 
Q 614 1709 483 1878 
Q 352 2048 352 2304 
Q 352 2682 637 2934 
Q 922 3187 1427 3187 
Q 1715 3187 1964 3088 
Q 2214 2989 2394 2835 
L 2150 2534 
Q 1990 2650 1814 2714 
Q 1638 2778 1427 2778 
Q 1133 2778 995 2643 
Q 858 2509 858 2330 
Q 858 2118 1043 2009 
Q 1229 1901 1517 1798 
Q 1760 1715 1981 1600 
Q 2202 1485 2339 1309 
Q 2477 1133 2477 851 
Q 2477 602 2345 390 
Q 2214 179 1961 51 
Q 1709 -77 1338 -77 
z
" transform="scale(0.015625)"/>
      <path id="SourceSans3-Regular-20" transform="scale(0.015625)"/>
      <path id="SourceSans3-Regular-74" d="M 1504 -58 
Q 1005 -58 809 227 
Q 614 512 614 979 
L 614 2682 
L 154 2682 
L 154 3078 
L 640 3110 
L 704 4109 
L 1146 4109 
L 1146 3110 
L 1984 3110 
L 1984 2682 
L 1146 2682 
L 1146 966 
Q 1146 685 1251 528 
Q 1357 371 1626 371 
Q 1709 371 1798 387 
Q 1888 403 1978 448 
L 2086 77 
Q 1965 13 1814 -22 
Q 1664 -58 1504 -58 
z
" transform="scale(0.015625)"/>
      <path id="SourceSans3-Regular-68" d="M 525 0 
L 525 4557 
L 1050 4557 
L 1050 3315 
L 1030 2675 
Q 1254 2886 1500 3036 
Q 1747 3187 2067 3187 
Q 2560 3187 2787 2876 
Q 3014 2566 3014 1971 
L 3014 0 
L 2490 0 
L 2490 1901 
Q 2490 2336 2349 2534 
Q 2208 2733 1901 2733 
Q 1664 2733 1475 2611 
Q 1286 2490 1050 2253 
L 1050 0 
L 525 0 
z
" transform="scale(0.015625)"/>
      <path id="SourceSans3-Regular-69" d="M 525 0 
L 525 3110 
L 1050 3110 
L 1050 0 
L 525 0 
z
M 787 3750 
Q 634 3750 534 3843 
Q 435 3936 435 4096 
Q 435 4250 534 4346 
Q 634 4442 787 4442 
Q 941 4442 1040 4346 
Q 1139 4250 1139 4096 
Q 1139 3936 1040 3843 
Q 941 3750 787 3750 
z
" transform="scale(0.015625)"/>
      <path id="SourceSans3-Regular-79" d="M 576 -1338 
Q 474 -1338 381 -1318 
Q 288 -1299 211 -1274 
L 326 -864 
Q 442 -902 550 -902 
Q 813 -902 985 -713 
Q 1158 -525 1254 -237 
L 1325 -6 
L 77 3110 
L 621 3110 
L 1254 1389 
Q 1325 1190 1405 960 
Q 1485 730 1555 512 
L 1581 512 
Q 1651 723 1715 953 
Q 1779 1184 1843 1389 
L 2400 3110 
L 2912 3110 
L 1741 -256 
Q 1632 -563 1481 -806 
Q 1331 -1050 1110 -1194 
Q 890 -1338 576 -1338 
z
" transform="scale(0.015625)"/>
      <path id="SourceSans3-Regular-65" d="M 1702 2758 
Q 1510 2758 1328 2665 
Q 1146 2573 1014 2368 
Q 883 2163 838 1830 
L 2458 1830 
Q 2458 2285 2259 2521 
Q 2061 2758 1702 2758 
z
M 1786 -77 
Q 1370 -77 1027 115 
Q 685 307 486 675 
Q 288 1043 288 1555 
Q 288 2061 489 2425 
Q 691 2790 1014 2988 
Q 1338 3187 1696 3187 
Q 2298 3187 2614 2790 
Q 2931 2394 2931 1728 
Q 2931 1645 2924 1568 
Q 2918 1491 2906 1414 
L 826 1414 
Q 864 890 1161 621 
Q 1459 352 1850 352 
Q 2074 352 2269 416 
Q 2464 480 2624 589 
L 2816 243 
Q 2611 102 2358 12 
Q 2106 -77 1786 -77 
z
" transform="scale(0.015625)"/>
      <path id="SourceSans3-Regular-6d" d="M 525 0 
L 525 3110 
L 960 3110 
L 1005 2662 
L 1024 2662 
Q 1229 2886 1472 3036 
Q 1715 3187 1990 3187 
Q 2349 3187 2550 3030 
Q 2752 2874 2848 2592 
Q 3091 2854 3340 3020 
Q 3590 3187 3872 3187 
Q 4352 3187 4585 2876 
Q 4819 2566 4819 1971 
L 4819 0 
L 4294 0 
L 4294 1901 
Q 4294 2336 4153 2534 
Q 4013 2733 3718 2733 
Q 3373 2733 2938 2253 
L 2938 0 
L 2413 0 
L 2413 1901 
Q 2413 2336 2272 2534 
Q 2131 2733 1830 2733 
Q 1485 2733 1050 2253 
L 1050 0 
L 525 0 
z
" transform="scale(0.015625)"/>
      <path id="SourceSans3-Regular-6e" d="M 525 0 
L 525 3110 
L 960 3110 
L 1005 2662 
L 1024 2662 
Q 1248 2886 1497 3036 
Q 1747 3187 2067 3187 
Q 2560 3187 2787 2876 
Q 3014 2566 3014 1971 
L 3014 0 
L 2490 0 
L 2490 1901 
Q 2490 2336 2349 2534 
Q 2208 2733 1901 2733 
Q 1664 2733 1475 2611 
Q 1286 2490 1050 2253 
L 1050 0 
L 525 0 
z
" transform="scale(0.015625)"/>
      <path id="SourceSans3-Regular-72" d="M 525 0 
L 525 3110 
L 960 3110 
L 1005 2547 
L 1024 2547 
Q 1178 2842 1408 3014 
Q 1638 3187 1907 3187 
Q 2093 3187 2240 3123 
L 2125 2675 
Q 2054 2694 1993 2704 
Q 1933 2714 1837 2714 
Q 1638 2714 1424 2554 
Q 1210 2394 1050 1997 
L 1050 0 
L 525 0 
z
" transform="scale(0.015625)"/>
      <path id="SourceSans3-Regular-6f" d="M 1734 -77 
Q 1357 -77 1027 115 
Q 698 307 496 672 
Q 294 1037 294 1549 
Q 294 2074 496 2438 
Q 698 2803 1027 2995 
Q 1357 3187 1734 3187 
Q 2118 3187 2444 2995 
Q 2771 2803 2972 2438 
Q 3174 2074 3174 1549 
Q 3174 1037 2972 672 
Q 2771 307 2444 115 
Q 2118 -77 1734 -77 
z
M 1734 358 
Q 2138 358 2384 688 
Q 2630 1018 2630 1549 
Q 2630 2086 2384 2419 
Q 2138 2752 1734 2752 
Q 1338 2752 1088 2419 
Q 838 2086 838 1549 
Q 838 1018 1088 688 
Q 1338 358 1734 358 
z
" transform="scale(0.015625)"/>
      <path id="SourceSans3-Regular-70" d="M 525 -1312 
L 525 3110 
L 960 3110 
L 1005 2752 
L 1024 2752 
Q 1235 2931 1488 3059 
Q 1741 3187 2016 3187 
Q 2618 3187 2931 2755 
Q 3245 2323 3245 1600 
Q 3245 1075 3056 697 
Q 2867 320 2563 121 
Q 2259 -77 1901 -77 
Q 1683 -77 1468 19 
Q 1254 115 1037 282 
L 1050 -262 
L 1050 -1312 
L 525 -1312 
z
M 1811 365 
Q 2195 365 2448 694 
Q 2701 1024 2701 1600 
Q 2701 2112 2512 2429 
Q 2323 2746 1882 2746 
Q 1683 2746 1481 2637 
Q 1280 2528 1050 2323 
L 1050 691 
Q 1261 512 1459 438 
Q 1658 365 1811 365 
z
" transform="scale(0.015625)"/>
      <path id="SourceSans3-Regular-61" d="M 1242 -77 
Q 851 -77 588 153 
Q 326 384 326 806 
Q 326 1331 787 1600 
Q 1248 1869 2246 1978 
Q 2246 2176 2188 2349 
Q 2131 2522 1993 2634 
Q 1856 2746 1600 2746 
Q 1331 2746 1094 2643 
Q 858 2541 672 2426 
L 467 2784 
Q 685 2931 1001 3059 
Q 1318 3187 1690 3187 
Q 2259 3187 2515 2838 
Q 2771 2490 2771 1907 
L 2771 0 
L 2336 0 
L 2291 371 
L 2272 371 
Q 2042 186 1789 54 
Q 1536 -77 1242 -77 
z
M 1389 358 
Q 1613 358 1817 460 
Q 2022 563 2246 762 
L 2246 1600 
Q 1722 1542 1414 1440 
Q 1107 1338 976 1190 
Q 845 1043 845 838 
Q 845 582 1005 470 
Q 1165 358 1389 358 
z
" transform="scale(0.015625)"/>
      <path id="SourceSans3-Regular-62" d="M 1901 -77 
Q 1683 -77 1449 28 
Q 1216 134 1011 320 
L 992 320 
L 947 0 
L 525 0 
L 525 4557 
L 1050 4557 
L 1050 3315 
L 1037 2752 
Q 1248 2938 1501 3062 
Q 1754 3187 2010 3187 
Q 2618 3187 2931 2758 
Q 3245 2330 3245 1606 
Q 3245 1075 3056 697 
Q 2867 320 2563 121 
Q 2259 -77 1901 -77 
z
M 1811 365 
Q 2195 365 2448 694 
Q 2701 1024 2701 1600 
Q 2701 2112 2512 2429 
Q 2323 2746 1882 2746 
Q 1683 2746 1478 2637 
Q 1274 2528 1050 2323 
L 1050 691 
Q 1254 512 1456 438 
Q 1658 365 1811 365 
z
" transform="scale(0.015625)"/>
      <path id="SourceSans3-Regular-6c" d="M 1082 -58 
Q 787 -58 656 124 
Q 525 307 525 640 
L 525 4557 
L 1050 4557 
L 1050 602 
Q 1050 480 1094 429 
Q 1139 378 1203 378 
Q 1229 378 1251 381 
Q 1274 384 1312 390 
L 1382 -6 
Q 1267 -58 1082 -58 
z
" transform="scale(0.015625)"/>
      <path id="SourceSans3-Regular-77" d="M 1018 0 
L 154 3110 
L 704 3110 
L 1158 1312 
Q 1210 1101 1254 889 
Q 1299 678 1338 429 
L 1363 429 
Q 1414 678 1462 889 
Q 1510 1101 1562 1312 
L 2022 3110 
L 2598 3110 
L 3066 1312 
Q 3123 1101 3174 889 
Q 3226 678 3270 429 
L 3296 429 
Q 3347 678 3392 889 
Q 3437 1101 3482 1312 
L 3936 3110 
L 4448 3110 
L 3610 0 
L 2925 0 
L 2509 1664 
Q 2451 1882 2406 2096 
Q 2362 2310 2310 2586 
L 2285 2586 
Q 2240 2310 2192 2092 
Q 2144 1875 2086 1664 
L 1670 0 
L 1018 0 
z
" transform="scale(0.015625)"/>
      <path id="SourceSans3-Regular-75" d="M 1434 -77 
Q 941 -77 710 233 
Q 480 544 480 1139 
L 480 3110 
L 1011 3110 
L 1011 1210 
Q 1011 774 1148 576 
Q 1286 378 1594 378 
Q 1837 378 2025 502 
Q 2214 627 2432 902 
L 2432 3110 
L 2957 3110 
L 2957 0 
L 2522 0 
L 2477 486 
L 2458 486 
Q 2240 230 1997 76 
Q 1754 -77 1434 -77 
z
" transform="scale(0.015625)"/>
      <path id="SourceSans3-Regular-64" d="M 1587 -77 
Q 1005 -77 653 348 
Q 301 774 301 1549 
Q 301 2054 489 2422 
Q 678 2790 988 2988 
Q 1299 3187 1651 3187 
Q 1920 3187 2118 3091 
Q 2317 2995 2522 2829 
L 2496 3360 
L 2496 4557 
L 3027 4557 
L 3027 0 
L 2592 0 
L 2547 365 
L 2528 365 
Q 2349 186 2105 54 
Q 1862 -77 1587 -77 
z
M 1702 365 
Q 2112 365 2496 794 
L 2496 2419 
Q 2298 2598 2115 2672 
Q 1933 2746 1741 2746 
Q 1491 2746 1289 2595 
Q 1088 2445 966 2179 
Q 845 1914 845 1555 
Q 845 998 1069 681 
Q 1293 365 1702 365 
z
" transform="scale(0.015625)"/>
      <path id="SourceSans3-Regular-53" d="M 1741 -77 
Q 1293 -77 918 89 
Q 544 256 269 550 
L 570 896 
Q 794 659 1104 524 
Q 1414 390 1747 390 
Q 2163 390 2393 579 
Q 2624 768 2624 1075 
Q 2624 1293 2531 1421 
Q 2438 1549 2281 1638 
Q 2125 1728 1926 1818 
L 1325 2080 
Q 1126 2170 928 2304 
Q 730 2438 602 2649 
Q 474 2861 474 3162 
Q 474 3482 643 3734 
Q 813 3987 1110 4131 
Q 1408 4275 1792 4275 
Q 2176 4275 2496 4134 
Q 2816 3994 3034 3770 
L 2746 3424 
Q 2547 3597 2310 3702 
Q 2074 3808 1792 3808 
Q 1440 3808 1225 3641 
Q 1011 3475 1011 3194 
Q 1011 2995 1116 2864 
Q 1222 2733 1382 2649 
Q 1542 2566 1709 2496 
L 2304 2240 
Q 2682 2080 2925 1833 
Q 3168 1587 3168 1120 
Q 3168 787 2995 515 
Q 2822 243 2505 83 
Q 2189 -77 1741 -77 
z
" transform="scale(0.015625)"/>
      <path id="SourceSans3-Regular-28" d="M 1370 -1126 
Q 973 -480 749 227 
Q 525 934 525 1779 
Q 525 2624 749 3334 
Q 973 4045 1370 4685 
L 1696 4531 
Q 1325 3923 1142 3216 
Q 960 2509 960 1779 
Q 960 1050 1142 342 
Q 1325 -365 1696 -973 
L 1370 -1126 
z
" transform="scale(0.015625)"/>
      <path id="SourceSans3-Regular-3d" d="M 218 2599 
L 218 2995 
L 2963 2995 
L 2963 2599 
L 218 2599 
z
M 218 1229 
L 218 1625 
L 2963 1625 
L 2963 1229 
L 218 1229 
z
" transform="scale(0.015625)"/>
      <path id="SourceSans3-Regular-31" d="M 506 0 
L 506 435 
L 1440 435 
L 1440 3443 
L 698 3443 
L 698 3782 
Q 979 3834 1187 3907 
Q 1395 3981 1562 4083 
L 1965 4083 
L 1965 435 
L 2810 435 
L 2810 0 
L 506 0 
z
" transform="scale(0.015625)"/>
      <path id="SourceSans3-Regular-33" d="M 1510 -77 
Q 1024 -77 697 99 
Q 371 275 166 499 
L 435 845 
Q 621 653 870 505 
Q 1120 358 1478 358 
Q 1850 358 2086 563 
Q 2323 768 2323 1107 
Q 2323 1350 2198 1532 
Q 2074 1715 1789 1817 
Q 1504 1920 1018 1920 
L 1018 2323 
Q 1453 2323 1705 2425 
Q 1958 2528 2067 2701 
Q 2176 2874 2176 3085 
Q 2176 3386 1987 3558 
Q 1798 3731 1472 3731 
Q 1216 3731 1001 3616 
Q 787 3501 602 3315 
L 320 3648 
Q 557 3872 845 4016 
Q 1133 4160 1491 4160 
Q 2022 4160 2368 3888 
Q 2714 3616 2714 3123 
Q 2714 2752 2509 2515 
Q 2304 2278 1971 2150 
L 1971 2125 
Q 2342 2042 2598 1776 
Q 2854 1510 2854 1088 
Q 2854 730 2675 467 
Q 2496 205 2192 64 
Q 1888 -77 1510 -77 
z
" transform="scale(0.015625)"/>
      <path id="SourceSans3-Regular-29" d="M 570 -1126 
L 243 -973 
Q 614 -365 796 342 
Q 979 1050 979 1779 
Q 979 2509 796 3216 
Q 614 3923 243 4531 
L 570 4685 
Q 966 4045 1190 3334 
Q 1414 2624 1414 1779 
Q 1414 934 1190 227 
Q 966 -480 570 -1126 
z
" transform="scale(0.015625)"/>
     </defs>
     <use xlink:href="#SourceSans3-Regular-49"/>
     <use xlink:href="#SourceSans3-Regular-73" transform="translate(26.299988 0)"/>
     <use xlink:href="#SourceSans3-Regular-20" transform="translate(68.199982 0)"/>
     <use xlink:href="#SourceSans3-Regular-74" transform="translate(88.199966 0)"/>
     <use xlink:href="#SourceSans3-Regular-68" transform="translate(121.999954 0)"/>
     <use xlink:href="#SourceSans3-Regular-69" transform="translate(176.399948 0)"/>
     <use xlink:href="#SourceSans3-Regular-73" transform="translate(200.999939 0)"/>
     <use xlink:href="#SourceSans3-Regular-20" transform="translate(242.899933 0)"/>
     <use xlink:href="#SourceSans3-Regular-73" transform="translate(262.899918 0)"/>
     <use xlink:href="#SourceSans3-Regular-79" transform="translate(304.799911 0)"/>
     <use xlink:href="#SourceSans3-Regular-73" transform="translate(351.499908 0)"/>
     <use xlink:href="#SourceSans3-Regular-74" transform="translate(393.399902 0)"/>
     <use xlink:href="#SourceSans3-Regular-65" transform="translate(427.19989 0)"/>
     <use xlink:href="#SourceSans3-Regular-6d" transform="translate(476.799881 0)"/>
     <use xlink:href="#SourceSans3-Regular-20" transform="translate(559.699875 0)"/>
     <use xlink:href="#SourceSans3-Regular-69" transform="translate(579.69986 0)"/>
     <use xlink:href="#SourceSans3-Regular-6e" transform="translate(604.29985 0)"/>
     <use xlink:href="#SourceSans3-Regular-74" transform="translate(658.999847 0)"/>
     <use xlink:href="#SourceSans3-Regular-65" transform="translate(692.799835 0)"/>
     <use xlink:href="#SourceSans3-Regular-72" transform="translate(742.399826 0)"/>
     <use xlink:href="#SourceSans3-Regular-6f" transform="translate(777.099823 0)"/>
     <use xlink:href="#SourceSans3-Regular-70" transform="translate(831.29982 0)"/>
     <use xlink:href="#SourceSans3-Regular-65" transform="translate(886.799805 0)"/>
     <use xlink:href="#SourceSans3-Regular-72" transform="translate(936.399796 0)"/>
     <use xlink:href="#SourceSans3-Regular-61" transform="translate(971.099792 0)"/>
     <use xlink:href="#SourceSans3-Regular-62" transform="translate(1021.499786 0)"/>
     <use xlink:href="#SourceSans3-Regular-6c" transform="translate(1076.799774 0)"/>
     <use xlink:href="#SourceSans3-Regular-65" transform="translate(1102.299759 0)"/>
     <use xlink:href="#SourceSans3-Regular-20" transform="translate(1151.89975 0)"/>
     <use xlink:href="#SourceSans3-Regular-77" transform="translate(1171.899734 0)"/>
     <use xlink:href="#SourceSans3-Regular-69" transform="translate(1243.799728 0)"/>
     <use xlink:href="#SourceSans3-Regular-74" transform="translate(1268.399719 0)"/>
     <use xlink:href="#SourceSans3-Regular-68" transform="translate(1302.199707 0)"/>
     <use xlink:href="#SourceSans3-Regular-20" transform="translate(1356.599701 0)"/>
     <use xlink:href="#SourceSans3-Regular-6f" transform="translate(1376.599686 0)"/>
     <use xlink:href="#SourceSans3-Regular-74" transform="translate(1430.799683 0)"/>
     <use xlink:href="#SourceSans3-Regular-68" transform="translate(1464.59967 0)"/>
     <use xlink:href="#SourceSans3-Regular-65" transform="translate(1518.999664 0)"/>
     <use xlink:href="#SourceSans3-Regular-72" transform="translate(1568.599655 0)"/>
     <use xlink:href="#SourceSans3-Regular-20" transform="translate(1603.299652 0)"/>
     <use xlink:href="#SourceSans3-Regular-73" transform="translate(1623.299637 0)"/>
     <use xlink:href="#SourceSans3-Regular-79" transform="translate(1665.199631 0)"/>
     <use xlink:href="#SourceSans3-Regular-73" transform="translate(1711.899628 0)"/>
     <use xlink:href="#SourceSans3-Regular-74" transform="translate(1753.799622 0)"/>
     <use xlink:href="#SourceSans3-Regular-65" transform="translate(1787.599609 0)"/>
     <use xlink:href="#SourceSans3-Regular-6d" transform="translate(1837.1996 0)"/>
     <use xlink:href="#SourceSans3-Regular-73" transform="translate(1920.099594 0)"/>
     <use xlink:href="#SourceSans3-Regular-20" transform="translate(1961.999588 0)"/>
     <use xlink:href="#SourceSans3-Regular-75" transform="translate(1981.999573 0)"/>
     <use xlink:href="#SourceSans3-Regular-73" transform="translate(2036.399567 0)"/>
     <use xlink:href="#SourceSans3-Regular-65" transform="translate(2078.299561 0)"/>
     <use xlink:href="#SourceSans3-Regular-64" transform="translate(2127.899551 0)"/>
     <use xlink:href="#SourceSans3-Regular-20" transform="translate(2183.399536 0)"/>
     <use xlink:href="#SourceSans3-Regular-69" transform="translate(2203.399521 0)"/>
     <use xlink:href="#SourceSans3-Regular-6e" transform="translate(2227.999512 0)"/>
     <use xlink:href="#SourceSans3-Regular-20" transform="translate(2282.699509 0)"/>
     <use xlink:href="#SourceSans3-Regular-53" transform="translate(2302.699493 0)"/>
     <use xlink:href="#SourceSans3-Regular-6f" transform="translate(2356.099487 0)"/>
     <use xlink:href="#SourceSans3-Regular-75" transform="translate(2410.299484 0)"/>
     <use xlink:href="#SourceSans3-Regular-74" transform="translate(2464.699478 0)"/>
     <use xlink:href="#SourceSans3-Regular-68" transform="translate(2498.499466 0)"/>
     <use xlink:href="#SourceSans3-Regular-20" transform="translate(2552.89946 0)"/>
     <use xlink:href="#SourceSans3-Regular-53" transform="translate(2572.899445 0)"/>
     <use xlink:href="#SourceSans3-Regular-75" transform="translate(2626.299438 0)"/>
     <use xlink:href="#SourceSans3-Regular-64" transform="translate(2680.699432 0)"/>
     <use xlink:href="#SourceSans3-Regular-61" transform="translate(2736.199417 0)"/>
     <use xlink:href="#SourceSans3-Regular-6e" transform="translate(2786.599411 0)"/>
     <use xlink:href="#SourceSans3-Regular-20" transform="translate(2841.299408 0)"/>
     <use xlink:href="#SourceSans3-Regular-28" transform="translate(2861.299393 0)"/>
     <use xlink:href="#SourceSans3-Regular-6e" transform="translate(2891.59938 0)"/>
     <use xlink:href="#SourceSans3-Regular-20" transform="translate(2946.299377 0)"/>
     <use xlink:href="#SourceSans3-Regular-3d" transform="translate(2966.299362 0)"/>
     <use xlink:href="#SourceSans3-Regular-20" transform="translate(3015.999359 0)"/>
     <use xlink:href="#SourceSans3-Regular-31" transform="translate(3035.999344 0)"/>
     <use xlink:href="#SourceSans3-Regular-33" transform="translate(3085.699341 0)"/>
     <use xlink:href="#SourceSans3-Regular-29" transform="translate(3135.399338 0)"/>
    </g>
   </g>
   <g id="legend_1">
    <g id="patch_5">
     <path d="M 208.290625 50.680313 
L 228.290625 50.680313 
L 228.290625 43.680313 
L 208.290625 43.680313 
z
" style="fill: #5cb8b2; stroke: #ffffff; stroke-linejoin: miter"/>
    </g>
    <g id="text_3">
     <!-- No -->
     <g style="fill: #404040" transform="translate(236.290625 50.680313) scale(0.1 -0.1)">
      <defs>
       <path id="SourceSans3-Regular-4e" d="M 576 0 
L 576 4198 
L 1158 4198 
L 2650 1587 
Q 2771 1376 2883 1145 
Q 2995 915 3098 685 
L 3123 685 
Q 3098 1011 3075 1350 
Q 3053 1690 3053 2016 
L 3053 4198 
L 3565 4198 
L 3565 0 
L 2982 0 
L 1491 2611 
Q 1370 2822 1254 3052 
Q 1139 3283 1037 3514 
L 1011 3514 
Q 1043 3200 1062 2867 
Q 1082 2534 1082 2195 
L 1082 0 
L 576 0 
z
" transform="scale(0.015625)"/>
      </defs>
      <use xlink:href="#SourceSans3-Regular-4e"/>
      <use xlink:href="#SourceSans3-Regular-6f" transform="translate(64.699997 0)"/>
     </g>
    </g>
    <g id="patch_6">
     <path d="M 208.290625 64.850625 
L 228.290625 64.850625 
L 228.290625 57.850625 
L 208.290625 57.850625 
z
" style="fill: #e9f4f3; stroke: #ffffff; stroke-linejoin: miter"/>
    </g>
    <g id="patch_7">
     <path d="M 208.290625 79.020938 
L 228.290625 79.020938 
L 228.290625 72.020938 
L 208.290625 72.020938 
z
" style="fill: #e5e4e2; stroke: #ffffff; stroke-linejoin: miter"/>
    </g>
    <g id="text_4">
     <!-- Yes -->
     <g style="fill: #404040" transform="translate(236.290625 79.020938) scale(0.1 -0.1)">
      <defs>
       <path id="SourceSans3-Regular-59" d="M 1254 0 
L 1254 1626 
L -6 4198 
L 563 4198 
L 1107 3014 
Q 1210 2784 1309 2560 
Q 1408 2336 1510 2099 
L 1536 2099 
Q 1645 2336 1753 2560 
Q 1862 2784 1958 3014 
L 2496 4198 
L 3053 4198 
L 1792 1626 
L 1792 0 
L 1254 0 
z
" transform="scale(0.015625)"/>
      </defs>
      <use xlink:href="#SourceSans3-Regular-59"/>
      <use xlink:href="#SourceSans3-Regular-65" transform="translate(47.599991 0)"/>
      <use xlink:href="#SourceSans3-Regular-73" transform="translate(97.199982 0)"/>
     </g>
    </g>
   </g>
  </g>
 </g>
</svg>
