<?xml version="1.0" encoding="utf-8" standalone="no"?>
<!DOCTYPE svg PUBLIC "-//W3C//DTD SVG 1.1//EN"
  "http://www.w3.org/Graphics/SVG/1.1/DTD/svg11.dtd">
<svg xmlns:xlink="http://www.w3.org/1999/xlink" width="288pt" height="288pt" viewBox="0 0 288 288" xmlns="http://www.w3.org/2000/svg" version="1.1">
 <metadata>
  <rdf:RDF xmlns:dc="http://purl.org/dc/elements/1.1/" xmlns:cc="http://creativecommons.org/ns#" xmlns:rdf="http://www.w3.org/1999/02/22-rdf-syntax-ns#">
   <cc:Work>
    <dc:type rdf:resource="http://purl.org/dc/dcmitype/StillImage"/>
    <dc:date>2025-11-05T12:05:17.529535</dc:date>
    <dc:format>image/svg+xml</dc:format>
    <dc:creator>
     <cc:Agent>
      <dc:title>Matplotlib v3.10.7, https://matplotlib.org/</dc:title>
     </cc:Agent>
    </dc:creator>
   </cc:Work>
  </rdf:RDF>
 </metadata>
 <defs>
  <style type="text/css">*{stroke-linejoin: round; stroke-linecap: butt}</style>
 </defs>
 <g id="figure_1">
  <g id="patch_1">
   <path d="M 0 288 
L 288 288 
L 288 0 
L 0 0 
L 0 288 
z
" style="fill: none"/>
  </g>
  <g id="axes_1">
   <g id="patch_2">
    <path d="M 147.599817 43.985455 
C 127.536369 43.985455 107.916737 49.937005 91.23459 61.083659 
C 74.552442 72.230314 61.545819 88.07893 53.86787 106.615139 
C 46.18992 125.151348 44.180328 145.555084 48.094512 165.233019 
C 52.008697 184.910953 61.67349 202.99251 75.86049 217.17951 
C 90.04749 231.36651 108.129047 241.031303 127.806981 244.945488 
C 147.484916 248.859672 167.888652 246.85008 186.424861 239.17213 
C 204.96107 231.494181 220.809686 218.487558 231.956341 201.80541 
C 243.102995 185.123263 249.054545 165.503631 249.054545 145.440183 
L 182.094425 145.440183 
C 182.094425 152.261755 180.070897 158.93243 176.281035 164.60436 
C 172.491172 170.276291 167.102643 174.698543 160.800332 177.309045 
C 154.498021 179.919548 147.56075 180.602809 140.870253 179.271987 
C 134.179755 177.941164 128.032026 174.655134 123.208446 169.831554 
C 118.384866 165.007974 115.098836 158.860245 113.768013 152.169747 
C 112.437191 145.47925 113.120452 138.541979 115.730955 132.239668 
C 118.341457 125.937357 122.763709 120.548828 128.43564 116.758965 
C 134.10757 112.969103 140.778245 110.945575 147.599817 110.945575 
z
" style="fill: #5cb8b2; stroke: #ffffff; stroke-linejoin: miter"/>
   </g>
   <g id="patch_3">
    <path d="M 249.054545 145.440165 
C 249.054545 138.794646 248.401596 132.165149 247.105118 125.647322 
C 245.808641 119.129496 243.874894 112.754811 241.331767 106.615152 
L 179.46868 132.239673 
C 180.333343 134.327157 180.990817 136.494549 181.431619 138.71061 
C 181.872422 140.926672 182.094425 143.180701 182.094425 145.440177 
z
" style="fill: #e9f4f3; stroke: #ffffff; stroke-linejoin: miter"/>
   </g>
   <g id="patch_4">
    <path d="M 241.331767 106.615152 
C 233.653823 88.078943 220.647218 72.230343 203.965075 61.083679 
C 187.282933 49.937016 167.663279 43.985455 147.599831 43.985455 
L 147.599822 110.945575 
C 154.421394 110.945575 161.092076 112.969106 166.764005 116.758972 
C 172.435933 120.548837 176.858179 125.937362 179.46868 132.239673 
z
" style="fill: #e5e4e2; stroke: #ffffff; stroke-linejoin: miter"/>
   </g>
   <g id="matplotlib.axis_1"/>
   <g id="matplotlib.axis_2"/>
   <g id="text_1">
    <!-- Yes -->
    <g style="fill: #404040" transform="translate(138.684192 142.390308) scale(0.12 -0.12)">
     <defs>
      <path id="SourceSans3-Bold-59" d="M 1210 0 
L 1210 1485 
L -51 4173 
L 960 4173 
L 1331 3213 
Q 1421 2976 1504 2755 
Q 1587 2534 1670 2291 
L 1696 2291 
Q 1786 2534 1875 2755 
Q 1965 2976 2048 3213 
L 2426 4173 
L 3411 4173 
L 2150 1485 
L 2150 0 
L 1210 0 
z
" transform="scale(0.015625)"/>
      <path id="SourceSans3-Bold-65" d="M 1747 2528 
Q 1562 2528 1386 2403 
Q 1210 2278 1146 1952 
L 2272 1952 
Q 2272 2202 2150 2365 
Q 2029 2528 1747 2528 
z
M 1837 -77 
Q 1382 -77 1017 118 
Q 653 314 441 688 
Q 230 1062 230 1587 
Q 230 2106 444 2477 
Q 659 2848 1004 3049 
Q 1350 3251 1728 3251 
Q 2182 3251 2483 3049 
Q 2784 2848 2931 2505 
Q 3078 2163 3078 1728 
Q 3078 1606 3065 1488 
Q 3053 1370 3040 1299 
L 1146 1299 
Q 1222 928 1459 787 
Q 1696 646 1965 646 
Q 2317 646 2656 851 
L 2963 275 
Q 2726 109 2422 16 
Q 2118 -77 1837 -77 
z
" transform="scale(0.015625)"/>
      <path id="SourceSans3-Bold-73" d="M 1350 -77 
Q 1037 -77 707 44 
Q 378 166 134 397 
L 531 928 
Q 749 755 963 688 
Q 1178 621 1376 621 
Q 1587 621 1683 694 
Q 1779 768 1779 890 
Q 1779 1050 1596 1133 
Q 1414 1216 1158 1312 
Q 934 1395 739 1523 
Q 544 1651 425 1833 
Q 307 2016 307 2259 
Q 307 2701 643 2976 
Q 979 3251 1523 3251 
Q 1869 3251 2157 3139 
Q 2445 3027 2643 2848 
L 2240 2323 
Q 2067 2451 1894 2502 
Q 1722 2554 1555 2554 
Q 1370 2554 1280 2483 
Q 1190 2413 1190 2304 
Q 1190 2163 1334 2086 
Q 1478 2010 1779 1914 
Q 2144 1792 2400 1568 
Q 2656 1344 2656 947 
Q 2656 518 2323 220 
Q 1990 -77 1350 -77 
z
" transform="scale(0.015625)"/>
     </defs>
     <use xlink:href="#SourceSans3-Bold-59"/>
     <use xlink:href="#SourceSans3-Bold-65" transform="translate(52.499985 0)"/>
     <use xlink:href="#SourceSans3-Bold-73" transform="translate(104.299973 0)"/>
    </g>
    <!-- 75% -->
    <g style="fill: #404040" transform="translate(136.122004 154.692558) scale(0.12 -0.12)">
     <defs>
      <path id="SourceSans3-Bold-37" d="M 960 0 
Q 998 678 1116 1212 
Q 1235 1747 1472 2240 
Q 1709 2733 2106 3270 
L 282 3270 
L 282 4064 
L 3110 4064 
L 3110 3488 
Q 2746 3059 2522 2678 
Q 2298 2298 2173 1907 
Q 2048 1517 1990 1056 
Q 1933 595 1907 0 
L 960 0 
z
" transform="scale(0.015625)"/>
      <path id="SourceSans3-Bold-35" d="M 1581 -77 
Q 1082 -77 736 89 
Q 390 256 147 493 
L 570 1088 
Q 755 922 972 803 
Q 1190 685 1446 685 
Q 1760 685 1945 845 
Q 2131 1005 2131 1318 
Q 2131 1626 1952 1786 
Q 1773 1946 1491 1946 
Q 1312 1946 1193 1901 
Q 1075 1856 890 1741 
L 467 2010 
L 582 4064 
L 2886 4064 
L 2886 3270 
L 1395 3270 
L 1325 2509 
Q 1536 2605 1779 2605 
Q 2131 2605 2422 2470 
Q 2714 2336 2893 2057 
Q 3072 1779 3072 1344 
Q 3072 896 2864 576 
Q 2656 256 2317 89 
Q 1978 -77 1581 -77 
z
" transform="scale(0.015625)"/>
      <path id="SourceSans3-Bold-25" d="M 1203 1600 
Q 755 1600 460 1952 
Q 166 2304 166 2931 
Q 166 3559 460 3904 
Q 755 4250 1203 4250 
Q 1658 4250 1952 3904 
Q 2246 3559 2246 2931 
Q 2246 2304 1952 1952 
Q 1658 1600 1203 1600 
z
M 1203 2125 
Q 1363 2125 1475 2304 
Q 1587 2483 1587 2931 
Q 1587 3379 1475 3552 
Q 1363 3725 1203 3725 
Q 1043 3725 931 3552 
Q 819 3379 819 2931 
Q 819 2483 931 2304 
Q 1043 2125 1203 2125 
z
M 1344 -77 
L 3597 4250 
L 4141 4250 
L 1888 -77 
L 1344 -77 
z
M 4282 -77 
Q 3834 -77 3539 275 
Q 3245 627 3245 1254 
Q 3245 1882 3539 2227 
Q 3834 2573 4282 2573 
Q 4736 2573 5030 2227 
Q 5325 1882 5325 1254 
Q 5325 627 5030 275 
Q 4736 -77 4282 -77 
z
M 4282 448 
Q 4442 448 4554 627 
Q 4666 806 4666 1254 
Q 4666 1702 4554 1875 
Q 4442 2048 4282 2048 
Q 4122 2048 4010 1875 
Q 3898 1702 3898 1254 
Q 3898 806 4010 627 
Q 4122 448 4282 448 
z
" transform="scale(0.015625)"/>
     </defs>
     <use xlink:href="#SourceSans3-Bold-37"/>
     <use xlink:href="#SourceSans3-Bold-35" transform="translate(52.799988 0)"/>
     <use xlink:href="#SourceSans3-Bold-25" transform="translate(105.599976 0)"/>
    </g>
   </g>
   <g id="text_2">
    <!-- Is the registration or beneficiary personal data managed in a database system (n = 16) -->
    <g style="fill: #404040" transform="translate(-65.764688 28.56) scale(0.12 -0.12)">
     <defs>
      <path id="SourceSans3-Regular-49" d="M 576 0 
L 576 4198 
L 1107 4198 
L 1107 0 
L 576 0 
z
" transform="scale(0.015625)"/>
      <path id="SourceSans3-Regular-73" d="M 1338 -77 
Q 998 -77 697 41 
Q 397 160 179 371 
L 422 678 
Q 627 512 848 422 
Q 1069 333 1357 333 
Q 1664 333 1817 477 
Q 1971 621 1971 819 
Q 1971 979 1868 1084 
Q 1766 1190 1606 1264 
Q 1446 1338 1267 1402 
Q 1037 1485 825 1597 
Q 614 1709 483 1878 
Q 352 2048 352 2304 
Q 352 2682 637 2934 
Q 922 3187 1427 3187 
Q 1715 3187 1964 3088 
Q 2214 2989 2394 2835 
L 2150 2534 
Q 1990 2650 1814 2714 
Q 1638 2778 1427 2778 
Q 1133 2778 995 2643 
Q 858 2509 858 2330 
Q 858 2118 1043 2009 
Q 1229 1901 1517 1798 
Q 1760 1715 1981 1600 
Q 2202 1485 2339 1309 
Q 2477 1133 2477 851 
Q 2477 602 2345 390 
Q 2214 179 1961 51 
Q 1709 -77 1338 -77 
z
" transform="scale(0.015625)"/>
      <path id="SourceSans3-Regular-20" transform="scale(0.015625)"/>
      <path id="SourceSans3-Regular-74" d="M 1504 -58 
Q 1005 -58 809 227 
Q 614 512 614 979 
L 614 2682 
L 154 2682 
L 154 3078 
L 640 3110 
L 704 4109 
L 1146 4109 
L 1146 3110 
L 1984 3110 
L 1984 2682 
L 1146 2682 
L 1146 966 
Q 1146 685 1251 528 
Q 1357 371 1626 371 
Q 1709 371 1798 387 
Q 1888 403 1978 448 
L 2086 77 
Q 1965 13 1814 -22 
Q 1664 -58 1504 -58 
z
" transform="scale(0.015625)"/>
      <path id="SourceSans3-Regular-68" d="M 525 0 
L 525 4557 
L 1050 4557 
L 1050 3315 
L 1030 2675 
Q 1254 2886 1500 3036 
Q 1747 3187 2067 3187 
Q 2560 3187 2787 2876 
Q 3014 2566 3014 1971 
L 3014 0 
L 2490 0 
L 2490 1901 
Q 2490 2336 2349 2534 
Q 2208 2733 1901 2733 
Q 1664 2733 1475 2611 
Q 1286 2490 1050 2253 
L 1050 0 
L 525 0 
z
" transform="scale(0.015625)"/>
      <path id="SourceSans3-Regular-65" d="M 1702 2758 
Q 1510 2758 1328 2665 
Q 1146 2573 1014 2368 
Q 883 2163 838 1830 
L 2458 1830 
Q 2458 2285 2259 2521 
Q 2061 2758 1702 2758 
z
M 1786 -77 
Q 1370 -77 1027 115 
Q 685 307 486 675 
Q 288 1043 288 1555 
Q 288 2061 489 2425 
Q 691 2790 1014 2988 
Q 1338 3187 1696 3187 
Q 2298 3187 2614 2790 
Q 2931 2394 2931 1728 
Q 2931 1645 2924 1568 
Q 2918 1491 2906 1414 
L 826 1414 
Q 864 890 1161 621 
Q 1459 352 1850 352 
Q 2074 352 2269 416 
Q 2464 480 2624 589 
L 2816 243 
Q 2611 102 2358 12 
Q 2106 -77 1786 -77 
z
" transform="scale(0.015625)"/>
      <path id="SourceSans3-Regular-72" d="M 525 0 
L 525 3110 
L 960 3110 
L 1005 2547 
L 1024 2547 
Q 1178 2842 1408 3014 
Q 1638 3187 1907 3187 
Q 2093 3187 2240 3123 
L 2125 2675 
Q 2054 2694 1993 2704 
Q 1933 2714 1837 2714 
Q 1638 2714 1424 2554 
Q 1210 2394 1050 1997 
L 1050 0 
L 525 0 
z
" transform="scale(0.015625)"/>
      <path id="SourceSans3-Regular-67" d="M 1574 -1434 
Q 1005 -1434 646 -1216 
Q 288 -998 288 -595 
Q 288 -397 409 -214 
Q 531 -32 742 109 
L 742 134 
Q 627 205 547 333 
Q 467 461 467 640 
Q 467 838 576 985 
Q 685 1133 806 1216 
L 806 1242 
Q 653 1370 528 1587 
Q 403 1805 403 2080 
Q 403 2419 563 2668 
Q 723 2918 992 3052 
Q 1261 3187 1574 3187 
Q 1702 3187 1817 3164 
Q 1933 3142 2016 3110 
L 3098 3110 
L 3098 2707 
L 2451 2707 
L 2451 2682 
Q 2560 2579 2637 2425 
Q 2714 2272 2714 2061 
Q 2714 1734 2560 1491 
Q 2406 1248 2150 1117 
Q 1894 986 1574 986 
Q 1325 986 1107 1094 
Q 1024 1024 966 937 
Q 909 851 909 723 
Q 909 576 1027 480 
Q 1146 384 1459 384 
L 2061 384 
Q 2605 384 2877 208 
Q 3149 32 3149 -358 
Q 3149 -646 2957 -889 
Q 2765 -1133 2413 -1283 
Q 2061 -1434 1574 -1434 
z
M 1574 1338 
Q 1843 1338 2038 1539 
Q 2234 1741 2234 2080 
Q 2234 2419 2042 2611 
Q 1850 2803 1574 2803 
Q 1299 2803 1107 2611 
Q 915 2419 915 2080 
Q 915 1741 1110 1539 
Q 1306 1338 1574 1338 
z
M 1651 -1069 
Q 2099 -1069 2368 -873 
Q 2637 -678 2637 -435 
Q 2637 -218 2473 -134 
Q 2310 -51 2010 -51 
L 1472 -51 
Q 1382 -51 1276 -38 
Q 1171 -26 1069 0 
Q 902 -122 825 -256 
Q 749 -390 749 -525 
Q 749 -774 989 -921 
Q 1229 -1069 1651 -1069 
z
" transform="scale(0.015625)"/>
      <path id="SourceSans3-Regular-69" d="M 525 0 
L 525 3110 
L 1050 3110 
L 1050 0 
L 525 0 
z
M 787 3750 
Q 634 3750 534 3843 
Q 435 3936 435 4096 
Q 435 4250 534 4346 
Q 634 4442 787 4442 
Q 941 4442 1040 4346 
Q 1139 4250 1139 4096 
Q 1139 3936 1040 3843 
Q 941 3750 787 3750 
z
" transform="scale(0.015625)"/>
      <path id="SourceSans3-Regular-61" d="M 1242 -77 
Q 851 -77 588 153 
Q 326 384 326 806 
Q 326 1331 787 1600 
Q 1248 1869 2246 1978 
Q 2246 2176 2188 2349 
Q 2131 2522 1993 2634 
Q 1856 2746 1600 2746 
Q 1331 2746 1094 2643 
Q 858 2541 672 2426 
L 467 2784 
Q 685 2931 1001 3059 
Q 1318 3187 1690 3187 
Q 2259 3187 2515 2838 
Q 2771 2490 2771 1907 
L 2771 0 
L 2336 0 
L 2291 371 
L 2272 371 
Q 2042 186 1789 54 
Q 1536 -77 1242 -77 
z
M 1389 358 
Q 1613 358 1817 460 
Q 2022 563 2246 762 
L 2246 1600 
Q 1722 1542 1414 1440 
Q 1107 1338 976 1190 
Q 845 1043 845 838 
Q 845 582 1005 470 
Q 1165 358 1389 358 
z
" transform="scale(0.015625)"/>
      <path id="SourceSans3-Regular-6f" d="M 1734 -77 
Q 1357 -77 1027 115 
Q 698 307 496 672 
Q 294 1037 294 1549 
Q 294 2074 496 2438 
Q 698 2803 1027 2995 
Q 1357 3187 1734 3187 
Q 2118 3187 2444 2995 
Q 2771 2803 2972 2438 
Q 3174 2074 3174 1549 
Q 3174 1037 2972 672 
Q 2771 307 2444 115 
Q 2118 -77 1734 -77 
z
M 1734 358 
Q 2138 358 2384 688 
Q 2630 1018 2630 1549 
Q 2630 2086 2384 2419 
Q 2138 2752 1734 2752 
Q 1338 2752 1088 2419 
Q 838 2086 838 1549 
Q 838 1018 1088 688 
Q 1338 358 1734 358 
z
" transform="scale(0.015625)"/>
      <path id="SourceSans3-Regular-6e" d="M 525 0 
L 525 3110 
L 960 3110 
L 1005 2662 
L 1024 2662 
Q 1248 2886 1497 3036 
Q 1747 3187 2067 3187 
Q 2560 3187 2787 2876 
Q 3014 2566 3014 1971 
L 3014 0 
L 2490 0 
L 2490 1901 
Q 2490 2336 2349 2534 
Q 2208 2733 1901 2733 
Q 1664 2733 1475 2611 
Q 1286 2490 1050 2253 
L 1050 0 
L 525 0 
z
" transform="scale(0.015625)"/>
      <path id="SourceSans3-Regular-62" d="M 1901 -77 
Q 1683 -77 1449 28 
Q 1216 134 1011 320 
L 992 320 
L 947 0 
L 525 0 
L 525 4557 
L 1050 4557 
L 1050 3315 
L 1037 2752 
Q 1248 2938 1501 3062 
Q 1754 3187 2010 3187 
Q 2618 3187 2931 2758 
Q 3245 2330 3245 1606 
Q 3245 1075 3056 697 
Q 2867 320 2563 121 
Q 2259 -77 1901 -77 
z
M 1811 365 
Q 2195 365 2448 694 
Q 2701 1024 2701 1600 
Q 2701 2112 2512 2429 
Q 2323 2746 1882 2746 
Q 1683 2746 1478 2637 
Q 1274 2528 1050 2323 
L 1050 691 
Q 1254 512 1456 438 
Q 1658 365 1811 365 
z
" transform="scale(0.015625)"/>
      <path id="SourceSans3-Regular-66" d="M 614 0 
L 614 2682 
L 154 2682 
L 154 3078 
L 614 3110 
L 614 3603 
Q 614 4077 835 4355 
Q 1056 4634 1523 4634 
Q 1670 4634 1804 4605 
Q 1939 4576 2042 4531 
L 1926 4147 
Q 1734 4205 1574 4205 
Q 1139 4205 1139 3603 
L 1139 3110 
L 1798 3110 
L 1798 2682 
L 1139 2682 
L 1139 0 
L 614 0 
z
" transform="scale(0.015625)"/>
      <path id="SourceSans3-Regular-63" d="M 1760 -77 
Q 1344 -77 1011 115 
Q 678 307 486 672 
Q 294 1037 294 1549 
Q 294 2074 502 2438 
Q 710 2803 1052 2995 
Q 1395 3187 1792 3187 
Q 2099 3187 2320 3084 
Q 2541 2982 2701 2822 
L 2438 2502 
Q 2317 2611 2166 2681 
Q 2016 2752 1811 2752 
Q 1536 2752 1315 2601 
Q 1094 2451 966 2179 
Q 838 1907 838 1549 
Q 838 1018 1107 688 
Q 1376 358 1805 358 
Q 2016 358 2201 441 
Q 2387 525 2528 653 
L 2758 333 
Q 2566 147 2313 35 
Q 2061 -77 1760 -77 
z
" transform="scale(0.015625)"/>
      <path id="SourceSans3-Regular-79" d="M 576 -1338 
Q 474 -1338 381 -1318 
Q 288 -1299 211 -1274 
L 326 -864 
Q 442 -902 550 -902 
Q 813 -902 985 -713 
Q 1158 -525 1254 -237 
L 1325 -6 
L 77 3110 
L 621 3110 
L 1254 1389 
Q 1325 1190 1405 960 
Q 1485 730 1555 512 
L 1581 512 
Q 1651 723 1715 953 
Q 1779 1184 1843 1389 
L 2400 3110 
L 2912 3110 
L 1741 -256 
Q 1632 -563 1481 -806 
Q 1331 -1050 1110 -1194 
Q 890 -1338 576 -1338 
z
" transform="scale(0.015625)"/>
      <path id="SourceSans3-Regular-70" d="M 525 -1312 
L 525 3110 
L 960 3110 
L 1005 2752 
L 1024 2752 
Q 1235 2931 1488 3059 
Q 1741 3187 2016 3187 
Q 2618 3187 2931 2755 
Q 3245 2323 3245 1600 
Q 3245 1075 3056 697 
Q 2867 320 2563 121 
Q 2259 -77 1901 -77 
Q 1683 -77 1468 19 
Q 1254 115 1037 282 
L 1050 -262 
L 1050 -1312 
L 525 -1312 
z
M 1811 365 
Q 2195 365 2448 694 
Q 2701 1024 2701 1600 
Q 2701 2112 2512 2429 
Q 2323 2746 1882 2746 
Q 1683 2746 1481 2637 
Q 1280 2528 1050 2323 
L 1050 691 
Q 1261 512 1459 438 
Q 1658 365 1811 365 
z
" transform="scale(0.015625)"/>
      <path id="SourceSans3-Regular-6c" d="M 1082 -58 
Q 787 -58 656 124 
Q 525 307 525 640 
L 525 4557 
L 1050 4557 
L 1050 602 
Q 1050 480 1094 429 
Q 1139 378 1203 378 
Q 1229 378 1251 381 
Q 1274 384 1312 390 
L 1382 -6 
Q 1267 -58 1082 -58 
z
" transform="scale(0.015625)"/>
      <path id="SourceSans3-Regular-64" d="M 1587 -77 
Q 1005 -77 653 348 
Q 301 774 301 1549 
Q 301 2054 489 2422 
Q 678 2790 988 2988 
Q 1299 3187 1651 3187 
Q 1920 3187 2118 3091 
Q 2317 2995 2522 2829 
L 2496 3360 
L 2496 4557 
L 3027 4557 
L 3027 0 
L 2592 0 
L 2547 365 
L 2528 365 
Q 2349 186 2105 54 
Q 1862 -77 1587 -77 
z
M 1702 365 
Q 2112 365 2496 794 
L 2496 2419 
Q 2298 2598 2115 2672 
Q 1933 2746 1741 2746 
Q 1491 2746 1289 2595 
Q 1088 2445 966 2179 
Q 845 1914 845 1555 
Q 845 998 1069 681 
Q 1293 365 1702 365 
z
" transform="scale(0.015625)"/>
      <path id="SourceSans3-Regular-6d" d="M 525 0 
L 525 3110 
L 960 3110 
L 1005 2662 
L 1024 2662 
Q 1229 2886 1472 3036 
Q 1715 3187 1990 3187 
Q 2349 3187 2550 3030 
Q 2752 2874 2848 2592 
Q 3091 2854 3340 3020 
Q 3590 3187 3872 3187 
Q 4352 3187 4585 2876 
Q 4819 2566 4819 1971 
L 4819 0 
L 4294 0 
L 4294 1901 
Q 4294 2336 4153 2534 
Q 4013 2733 3718 2733 
Q 3373 2733 2938 2253 
L 2938 0 
L 2413 0 
L 2413 1901 
Q 2413 2336 2272 2534 
Q 2131 2733 1830 2733 
Q 1485 2733 1050 2253 
L 1050 0 
L 525 0 
z
" transform="scale(0.015625)"/>
      <path id="SourceSans3-Regular-28" d="M 1370 -1126 
Q 973 -480 749 227 
Q 525 934 525 1779 
Q 525 2624 749 3334 
Q 973 4045 1370 4685 
L 1696 4531 
Q 1325 3923 1142 3216 
Q 960 2509 960 1779 
Q 960 1050 1142 342 
Q 1325 -365 1696 -973 
L 1370 -1126 
z
" transform="scale(0.015625)"/>
      <path id="SourceSans3-Regular-3d" d="M 218 2599 
L 218 2995 
L 2963 2995 
L 2963 2599 
L 218 2599 
z
M 218 1229 
L 218 1625 
L 2963 1625 
L 2963 1229 
L 218 1229 
z
" transform="scale(0.015625)"/>
      <path id="SourceSans3-Regular-31" d="M 506 0 
L 506 435 
L 1440 435 
L 1440 3443 
L 698 3443 
L 698 3782 
Q 979 3834 1187 3907 
Q 1395 3981 1562 4083 
L 1965 4083 
L 1965 435 
L 2810 435 
L 2810 0 
L 506 0 
z
" transform="scale(0.015625)"/>
      <path id="SourceSans3-Regular-36" d="M 1670 2099 
Q 1472 2099 1241 1971 
Q 1011 1843 819 1562 
Q 870 966 1097 652 
Q 1325 339 1715 339 
Q 2016 339 2221 585 
Q 2426 832 2426 1235 
Q 2426 1632 2237 1865 
Q 2048 2099 1670 2099 
z
M 1715 -77 
Q 1318 -77 998 140 
Q 678 358 492 796 
Q 307 1235 307 1888 
Q 307 2707 528 3206 
Q 749 3706 1104 3933 
Q 1459 4160 1862 4160 
Q 2195 4160 2435 4035 
Q 2675 3910 2848 3725 
L 2554 3398 
Q 2432 3546 2253 3632 
Q 2074 3718 1882 3718 
Q 1594 3718 1357 3555 
Q 1120 3392 969 3011 
Q 819 2630 806 1984 
Q 998 2221 1254 2358 
Q 1510 2496 1760 2496 
Q 2291 2496 2608 2179 
Q 2925 1862 2925 1235 
Q 2925 845 2758 550 
Q 2592 256 2320 89 
Q 2048 -77 1715 -77 
z
" transform="scale(0.015625)"/>
      <path id="SourceSans3-Regular-29" d="M 570 -1126 
L 243 -973 
Q 614 -365 796 342 
Q 979 1050 979 1779 
Q 979 2509 796 3216 
Q 614 3923 243 4531 
L 570 4685 
Q 966 4045 1190 3334 
Q 1414 2624 1414 1779 
Q 1414 934 1190 227 
Q 966 -480 570 -1126 
z
" transform="scale(0.015625)"/>
     </defs>
     <use xlink:href="#SourceSans3-Regular-49"/>
     <use xlink:href="#SourceSans3-Regular-73" transform="translate(26.299988 0)"/>
     <use xlink:href="#SourceSans3-Regular-20" transform="translate(68.199982 0)"/>
     <use xlink:href="#SourceSans3-Regular-74" transform="translate(88.199966 0)"/>
     <use xlink:href="#SourceSans3-Regular-68" transform="translate(121.999954 0)"/>
     <use xlink:href="#SourceSans3-Regular-65" transform="translate(176.399948 0)"/>
     <use xlink:href="#SourceSans3-Regular-20" transform="translate(225.999939 0)"/>
     <use xlink:href="#SourceSans3-Regular-72" transform="translate(245.999924 0)"/>
     <use xlink:href="#SourceSans3-Regular-65" transform="translate(280.699921 0)"/>
     <use xlink:href="#SourceSans3-Regular-67" transform="translate(330.299911 0)"/>
     <use xlink:href="#SourceSans3-Regular-69" transform="translate(380.699905 0)"/>
     <use xlink:href="#SourceSans3-Regular-73" transform="translate(405.299896 0)"/>
     <use xlink:href="#SourceSans3-Regular-74" transform="translate(447.19989 0)"/>
     <use xlink:href="#SourceSans3-Regular-72" transform="translate(480.999878 0)"/>
     <use xlink:href="#SourceSans3-Regular-61" transform="translate(515.699875 0)"/>
     <use xlink:href="#SourceSans3-Regular-74" transform="translate(566.099869 0)"/>
     <use xlink:href="#SourceSans3-Regular-69" transform="translate(599.899857 0)"/>
     <use xlink:href="#SourceSans3-Regular-6f" transform="translate(624.499847 0)"/>
     <use xlink:href="#SourceSans3-Regular-6e" transform="translate(678.699844 0)"/>
     <use xlink:href="#SourceSans3-Regular-20" transform="translate(733.399841 0)"/>
     <use xlink:href="#SourceSans3-Regular-6f" transform="translate(753.399826 0)"/>
     <use xlink:href="#SourceSans3-Regular-72" transform="translate(807.599823 0)"/>
     <use xlink:href="#SourceSans3-Regular-20" transform="translate(842.29982 0)"/>
     <use xlink:href="#SourceSans3-Regular-62" transform="translate(862.299805 0)"/>
     <use xlink:href="#SourceSans3-Regular-65" transform="translate(917.599792 0)"/>
     <use xlink:href="#SourceSans3-Regular-6e" transform="translate(967.199783 0)"/>
     <use xlink:href="#SourceSans3-Regular-65" transform="translate(1021.89978 0)"/>
     <use xlink:href="#SourceSans3-Regular-66" transform="translate(1071.499771 0)"/>
     <use xlink:href="#SourceSans3-Regular-69" transform="translate(1100.699768 0)"/>
     <use xlink:href="#SourceSans3-Regular-63" transform="translate(1125.299759 0)"/>
     <use xlink:href="#SourceSans3-Regular-69" transform="translate(1170.89975 0)"/>
     <use xlink:href="#SourceSans3-Regular-61" transform="translate(1195.499741 0)"/>
     <use xlink:href="#SourceSans3-Regular-72" transform="translate(1245.899734 0)"/>
     <use xlink:href="#SourceSans3-Regular-79" transform="translate(1280.599731 0)"/>
     <use xlink:href="#SourceSans3-Regular-20" transform="translate(1327.299728 0)"/>
     <use xlink:href="#SourceSans3-Regular-70" transform="translate(1347.299713 0)"/>
     <use xlink:href="#SourceSans3-Regular-65" transform="translate(1402.799698 0)"/>
     <use xlink:href="#SourceSans3-Regular-72" transform="translate(1452.399689 0)"/>
     <use xlink:href="#SourceSans3-Regular-73" transform="translate(1487.099686 0)"/>
     <use xlink:href="#SourceSans3-Regular-6f" transform="translate(1528.99968 0)"/>
     <use xlink:href="#SourceSans3-Regular-6e" transform="translate(1583.199677 0)"/>
     <use xlink:href="#SourceSans3-Regular-61" transform="translate(1637.899673 0)"/>
     <use xlink:href="#SourceSans3-Regular-6c" transform="translate(1688.299667 0)"/>
     <use xlink:href="#SourceSans3-Regular-20" transform="translate(1713.799652 0)"/>
     <use xlink:href="#SourceSans3-Regular-64" transform="translate(1733.799637 0)"/>
     <use xlink:href="#SourceSans3-Regular-61" transform="translate(1789.299622 0)"/>
     <use xlink:href="#SourceSans3-Regular-74" transform="translate(1839.699615 0)"/>
     <use xlink:href="#SourceSans3-Regular-61" transform="translate(1873.499603 0)"/>
     <use xlink:href="#SourceSans3-Regular-20" transform="translate(1923.899597 0)"/>
     <use xlink:href="#SourceSans3-Regular-6d" transform="translate(1943.899582 0)"/>
     <use xlink:href="#SourceSans3-Regular-61" transform="translate(2026.799576 0)"/>
     <use xlink:href="#SourceSans3-Regular-6e" transform="translate(2077.19957 0)"/>
     <use xlink:href="#SourceSans3-Regular-61" transform="translate(2131.899567 0)"/>
     <use xlink:href="#SourceSans3-Regular-67" transform="translate(2182.299561 0)"/>
     <use xlink:href="#SourceSans3-Regular-65" transform="translate(2232.699554 0)"/>
     <use xlink:href="#SourceSans3-Regular-64" transform="translate(2282.299545 0)"/>
     <use xlink:href="#SourceSans3-Regular-20" transform="translate(2337.79953 0)"/>
     <use xlink:href="#SourceSans3-Regular-69" transform="translate(2357.799515 0)"/>
     <use xlink:href="#SourceSans3-Regular-6e" transform="translate(2382.399506 0)"/>
     <use xlink:href="#SourceSans3-Regular-20" transform="translate(2437.099503 0)"/>
     <use xlink:href="#SourceSans3-Regular-61" transform="translate(2457.099487 0)"/>
     <use xlink:href="#SourceSans3-Regular-20" transform="translate(2507.499481 0)"/>
     <use xlink:href="#SourceSans3-Regular-64" transform="translate(2527.499466 0)"/>
     <use xlink:href="#SourceSans3-Regular-61" transform="translate(2582.999451 0)"/>
     <use xlink:href="#SourceSans3-Regular-74" transform="translate(2633.399445 0)"/>
     <use xlink:href="#SourceSans3-Regular-61" transform="translate(2667.199432 0)"/>
     <use xlink:href="#SourceSans3-Regular-62" transform="translate(2717.599426 0)"/>
     <use xlink:href="#SourceSans3-Regular-61" transform="translate(2772.899414 0)"/>
     <use xlink:href="#SourceSans3-Regular-73" transform="translate(2823.299408 0)"/>
     <use xlink:href="#SourceSans3-Regular-65" transform="translate(2865.199402 0)"/>
     <use xlink:href="#SourceSans3-Regular-20" transform="translate(2914.799393 0)"/>
     <use xlink:href="#SourceSans3-Regular-73" transform="translate(2934.799377 0)"/>
     <use xlink:href="#SourceSans3-Regular-79" transform="translate(2976.699371 0)"/>
     <use xlink:href="#SourceSans3-Regular-73" transform="translate(3023.399368 0)"/>
     <use xlink:href="#SourceSans3-Regular-74" transform="translate(3065.299362 0)"/>
     <use xlink:href="#SourceSans3-Regular-65" transform="translate(3099.09935 0)"/>
     <use xlink:href="#SourceSans3-Regular-6d" transform="translate(3148.699341 0)"/>
     <use xlink:href="#SourceSans3-Regular-20" transform="translate(3231.599335 0)"/>
     <use xlink:href="#SourceSans3-Regular-28" transform="translate(3251.599319 0)"/>
     <use xlink:href="#SourceSans3-Regular-6e" transform="translate(3281.899307 0)"/>
     <use xlink:href="#SourceSans3-Regular-20" transform="translate(3336.599304 0)"/>
     <use xlink:href="#SourceSans3-Regular-3d" transform="translate(3356.599289 0)"/>
     <use xlink:href="#SourceSans3-Regular-20" transform="translate(3406.299286 0)"/>
     <use xlink:href="#SourceSans3-Regular-31" transform="translate(3426.299271 0)"/>
     <use xlink:href="#SourceSans3-Regular-36" transform="translate(3475.999268 0)"/>
     <use xlink:href="#SourceSans3-Regular-29" transform="translate(3525.699265 0)"/>
    </g>
   </g>
   <g id="legend_1">
    <g id="patch_5">
     <path d="M 198.309375 50.680313 
L 218.309375 50.680313 
L 218.309375 43.680313 
L 198.309375 43.680313 
z
" style="fill: #5cb8b2; stroke: #ffffff; stroke-linejoin: miter"/>
    </g>
    <g id="text_3">
     <!-- Yes -->
     <g style="fill: #404040" transform="translate(226.309375 50.680313) scale(0.1 -0.1)">
      <defs>
       <path id="SourceSans3-Regular-59" d="M 1254 0 
L 1254 1626 
L -6 4198 
L 563 4198 
L 1107 3014 
Q 1210 2784 1309 2560 
Q 1408 2336 1510 2099 
L 1536 2099 
Q 1645 2336 1753 2560 
Q 1862 2784 1958 3014 
L 2496 4198 
L 3053 4198 
L 1792 1626 
L 1792 0 
L 1254 0 
z
" transform="scale(0.015625)"/>
      </defs>
      <use xlink:href="#SourceSans3-Regular-59"/>
      <use xlink:href="#SourceSans3-Regular-65" transform="translate(47.599991 0)"/>
      <use xlink:href="#SourceSans3-Regular-73" transform="translate(97.199982 0)"/>
     </g>
    </g>
    <g id="patch_6">
     <path d="M 198.309375 64.850625 
L 218.309375 64.850625 
L 218.309375 57.850625 
L 198.309375 57.850625 
z
" style="fill: #e9f4f3; stroke: #ffffff; stroke-linejoin: miter"/>
    </g>
    <g id="text_4">
     <!-- No -->
     <g style="fill: #404040" transform="translate(226.309375 64.850625) scale(0.1 -0.1)">
      <defs>
       <path id="SourceSans3-Regular-4e" d="M 576 0 
L 576 4198 
L 1158 4198 
L 2650 1587 
Q 2771 1376 2883 1145 
Q 2995 915 3098 685 
L 3123 685 
Q 3098 1011 3075 1350 
Q 3053 1690 3053 2016 
L 3053 4198 
L 3565 4198 
L 3565 0 
L 2982 0 
L 1491 2611 
Q 1370 2822 1254 3052 
Q 1139 3283 1037 3514 
L 1011 3514 
Q 1043 3200 1062 2867 
Q 1082 2534 1082 2195 
L 1082 0 
L 576 0 
z
" transform="scale(0.015625)"/>
      </defs>
      <use xlink:href="#SourceSans3-Regular-4e"/>
      <use xlink:href="#SourceSans3-Regular-6f" transform="translate(64.699997 0)"/>
     </g>
    </g>
    <g id="patch_7">
     <path d="M 198.309375 79.020938 
L 218.309375 79.020938 
L 218.309375 72.020938 
L 198.309375 72.020938 
z
" style="fill: #e5e4e2; stroke: #ffffff; stroke-linejoin: miter"/>
    </g>
    <g id="text_5">
     <!-- Other -->
     <g style="fill: #404040" transform="translate(226.309375 79.020938) scale(0.1 -0.1)">
      <defs>
       <path id="SourceSans3-Regular-4f" d="M 2125 -77 
Q 1600 -77 1193 192 
Q 787 461 560 953 
Q 333 1446 333 2118 
Q 333 2790 560 3273 
Q 787 3757 1193 4016 
Q 1600 4275 2125 4275 
Q 2656 4275 3059 4016 
Q 3462 3757 3692 3273 
Q 3923 2790 3923 2118 
Q 3923 1446 3692 953 
Q 3462 461 3059 192 
Q 2656 -77 2125 -77 
z
M 2125 390 
Q 2502 390 2780 604 
Q 3059 819 3212 1206 
Q 3366 1594 3366 2118 
Q 3366 2899 3027 3353 
Q 2688 3808 2125 3808 
Q 1562 3808 1222 3353 
Q 883 2899 883 2118 
Q 883 1594 1036 1206 
Q 1190 819 1472 604 
Q 1754 390 2125 390 
z
" transform="scale(0.015625)"/>
      </defs>
      <use xlink:href="#SourceSans3-Regular-4f"/>
      <use xlink:href="#SourceSans3-Regular-74" transform="translate(66.399994 0)"/>
      <use xlink:href="#SourceSans3-Regular-68" transform="translate(100.199982 0)"/>
      <use xlink:href="#SourceSans3-Regular-65" transform="translate(154.599976 0)"/>
      <use xlink:href="#SourceSans3-Regular-72" transform="translate(204.199966 0)"/>
     </g>
    </g>
   </g>
  </g>
 </g>
</svg>
