<?xml version="1.0" encoding="utf-8" standalone="no"?>
<!DOCTYPE svg PUBLIC "-//W3C//DTD SVG 1.1//EN"
  "http://www.w3.org/Graphics/SVG/1.1/DTD/svg11.dtd">
<svg xmlns:xlink="http://www.w3.org/1999/xlink" width="312pt" height="316.394687pt" viewBox="0 0 312 316.394687" xmlns="http://www.w3.org/2000/svg" version="1.1">
 <metadata>
  <rdf:RDF xmlns:dc="http://purl.org/dc/elements/1.1/" xmlns:cc="http://creativecommons.org/ns#" xmlns:rdf="http://www.w3.org/1999/02/22-rdf-syntax-ns#">
   <cc:Work>
    <dc:type rdf:resource="http://purl.org/dc/dcmitype/StillImage"/>
    <dc:date>2025-11-10T09:43:00.127302</dc:date>
    <dc:format>image/svg+xml</dc:format>
    <dc:creator>
     <cc:Agent>
      <dc:title>Matplotlib v3.10.7, https://matplotlib.org/</dc:title>
     </cc:Agent>
    </dc:creator>
   </cc:Work>
  </rdf:RDF>
 </metadata>
 <defs>
  <style type="text/css">*{stroke-linejoin: round; stroke-linecap: butt}</style>
 </defs>
 <g id="figure_1">
  <g id="patch_1">
   <path d="M 0 316.394687 
L 312 316.394687 
L 312 0 
L 0 0 
L 0 316.394687 
z
" style="fill: none"/>
  </g>
  <g id="axes_1">
   <g id="patch_2">
    <path d="M 7.2 287.744375 
L 304.8 287.744375 
L 304.8 270.144375 
L 7.2 270.144375 
z
" clip-path="url(#p11ac51e897)" style="fill: #5cb8b2; fill-opacity: 0.05098"/>
   </g>
   <g id="patch_3">
    <path d="M 7.2 265.744375 
L 304.8 265.744375 
L 304.8 248.144375 
L 7.2 248.144375 
L 7.2 265.744375 
z
" clip-path="url(#p11ac51e897)" style="fill: none"/>
   </g>
   <g id="patch_4">
    <path d="M 7.2 243.744375 
L 304.8 243.744375 
L 304.8 226.144375 
L 7.2 226.144375 
z
" clip-path="url(#p11ac51e897)" style="fill: #5cb8b2; fill-opacity: 0.05098"/>
   </g>
   <g id="patch_5">
    <path d="M 7.2 221.744375 
L 304.8 221.744375 
L 304.8 204.144375 
L 7.2 204.144375 
L 7.2 221.744375 
z
" clip-path="url(#p11ac51e897)" style="fill: none"/>
   </g>
   <g id="patch_6">
    <path d="M 7.2 199.744375 
L 304.8 199.744375 
L 304.8 182.144375 
L 7.2 182.144375 
z
" clip-path="url(#p11ac51e897)" style="fill: #5cb8b2; fill-opacity: 0.05098"/>
   </g>
   <g id="matplotlib.axis_1"/>
   <g id="matplotlib.axis_2">
    <g id="ytick_1"/>
    <g id="ytick_2"/>
    <g id="ytick_3"/>
    <g id="ytick_4"/>
    <g id="ytick_5"/>
   </g>
  </g>
  <g id="axes_2">
   <g id="matplotlib.axis_3">
    <g id="ytick_6">
     <g id="line2d_1"/>
     <g id="text_1">
      <!-- Host communities -->
      <g transform="translate(78.164525 282.504531) scale(0.1 -0.1)">
       <defs>
        <path id="SourceSans3-Regular-48" d="M 576 0 
L 576 4198 
L 1107 4198 
L 1107 2438 
L 3059 2438 
L 3059 4198 
L 3597 4198 
L 3597 0 
L 3059 0 
L 3059 1978 
L 1107 1978 
L 1107 0 
L 576 0 
z
" transform="scale(0.015625)"/>
        <path id="SourceSans3-Regular-6f" d="M 1734 -77 
Q 1357 -77 1027 115 
Q 698 307 496 672 
Q 294 1037 294 1549 
Q 294 2074 496 2438 
Q 698 2803 1027 2995 
Q 1357 3187 1734 3187 
Q 2118 3187 2444 2995 
Q 2771 2803 2972 2438 
Q 3174 2074 3174 1549 
Q 3174 1037 2972 672 
Q 2771 307 2444 115 
Q 2118 -77 1734 -77 
z
M 1734 358 
Q 2138 358 2384 688 
Q 2630 1018 2630 1549 
Q 2630 2086 2384 2419 
Q 2138 2752 1734 2752 
Q 1338 2752 1088 2419 
Q 838 2086 838 1549 
Q 838 1018 1088 688 
Q 1338 358 1734 358 
z
" transform="scale(0.015625)"/>
        <path id="SourceSans3-Regular-73" d="M 1338 -77 
Q 998 -77 697 41 
Q 397 160 179 371 
L 422 678 
Q 627 512 848 422 
Q 1069 333 1357 333 
Q 1664 333 1817 477 
Q 1971 621 1971 819 
Q 1971 979 1868 1084 
Q 1766 1190 1606 1264 
Q 1446 1338 1267 1402 
Q 1037 1485 825 1597 
Q 614 1709 483 1878 
Q 352 2048 352 2304 
Q 352 2682 637 2934 
Q 922 3187 1427 3187 
Q 1715 3187 1964 3088 
Q 2214 2989 2394 2835 
L 2150 2534 
Q 1990 2650 1814 2714 
Q 1638 2778 1427 2778 
Q 1133 2778 995 2643 
Q 858 2509 858 2330 
Q 858 2118 1043 2009 
Q 1229 1901 1517 1798 
Q 1760 1715 1981 1600 
Q 2202 1485 2339 1309 
Q 2477 1133 2477 851 
Q 2477 602 2345 390 
Q 2214 179 1961 51 
Q 1709 -77 1338 -77 
z
" transform="scale(0.015625)"/>
        <path id="SourceSans3-Regular-74" d="M 1504 -58 
Q 1005 -58 809 227 
Q 614 512 614 979 
L 614 2682 
L 154 2682 
L 154 3078 
L 640 3110 
L 704 4109 
L 1146 4109 
L 1146 3110 
L 1984 3110 
L 1984 2682 
L 1146 2682 
L 1146 966 
Q 1146 685 1251 528 
Q 1357 371 1626 371 
Q 1709 371 1798 387 
Q 1888 403 1978 448 
L 2086 77 
Q 1965 13 1814 -22 
Q 1664 -58 1504 -58 
z
" transform="scale(0.015625)"/>
        <path id="SourceSans3-Regular-20" transform="scale(0.015625)"/>
        <path id="SourceSans3-Regular-63" d="M 1760 -77 
Q 1344 -77 1011 115 
Q 678 307 486 672 
Q 294 1037 294 1549 
Q 294 2074 502 2438 
Q 710 2803 1052 2995 
Q 1395 3187 1792 3187 
Q 2099 3187 2320 3084 
Q 2541 2982 2701 2822 
L 2438 2502 
Q 2317 2611 2166 2681 
Q 2016 2752 1811 2752 
Q 1536 2752 1315 2601 
Q 1094 2451 966 2179 
Q 838 1907 838 1549 
Q 838 1018 1107 688 
Q 1376 358 1805 358 
Q 2016 358 2201 441 
Q 2387 525 2528 653 
L 2758 333 
Q 2566 147 2313 35 
Q 2061 -77 1760 -77 
z
" transform="scale(0.015625)"/>
        <path id="SourceSans3-Regular-6d" d="M 525 0 
L 525 3110 
L 960 3110 
L 1005 2662 
L 1024 2662 
Q 1229 2886 1472 3036 
Q 1715 3187 1990 3187 
Q 2349 3187 2550 3030 
Q 2752 2874 2848 2592 
Q 3091 2854 3340 3020 
Q 3590 3187 3872 3187 
Q 4352 3187 4585 2876 
Q 4819 2566 4819 1971 
L 4819 0 
L 4294 0 
L 4294 1901 
Q 4294 2336 4153 2534 
Q 4013 2733 3718 2733 
Q 3373 2733 2938 2253 
L 2938 0 
L 2413 0 
L 2413 1901 
Q 2413 2336 2272 2534 
Q 2131 2733 1830 2733 
Q 1485 2733 1050 2253 
L 1050 0 
L 525 0 
z
" transform="scale(0.015625)"/>
        <path id="SourceSans3-Regular-75" d="M 1434 -77 
Q 941 -77 710 233 
Q 480 544 480 1139 
L 480 3110 
L 1011 3110 
L 1011 1210 
Q 1011 774 1148 576 
Q 1286 378 1594 378 
Q 1837 378 2025 502 
Q 2214 627 2432 902 
L 2432 3110 
L 2957 3110 
L 2957 0 
L 2522 0 
L 2477 486 
L 2458 486 
Q 2240 230 1997 76 
Q 1754 -77 1434 -77 
z
" transform="scale(0.015625)"/>
        <path id="SourceSans3-Regular-6e" d="M 525 0 
L 525 3110 
L 960 3110 
L 1005 2662 
L 1024 2662 
Q 1248 2886 1497 3036 
Q 1747 3187 2067 3187 
Q 2560 3187 2787 2876 
Q 3014 2566 3014 1971 
L 3014 0 
L 2490 0 
L 2490 1901 
Q 2490 2336 2349 2534 
Q 2208 2733 1901 2733 
Q 1664 2733 1475 2611 
Q 1286 2490 1050 2253 
L 1050 0 
L 525 0 
z
" transform="scale(0.015625)"/>
        <path id="SourceSans3-Regular-69" d="M 525 0 
L 525 3110 
L 1050 3110 
L 1050 0 
L 525 0 
z
M 787 3750 
Q 634 3750 534 3843 
Q 435 3936 435 4096 
Q 435 4250 534 4346 
Q 634 4442 787 4442 
Q 941 4442 1040 4346 
Q 1139 4250 1139 4096 
Q 1139 3936 1040 3843 
Q 941 3750 787 3750 
z
" transform="scale(0.015625)"/>
        <path id="SourceSans3-Regular-65" d="M 1702 2758 
Q 1510 2758 1328 2665 
Q 1146 2573 1014 2368 
Q 883 2163 838 1830 
L 2458 1830 
Q 2458 2285 2259 2521 
Q 2061 2758 1702 2758 
z
M 1786 -77 
Q 1370 -77 1027 115 
Q 685 307 486 675 
Q 288 1043 288 1555 
Q 288 2061 489 2425 
Q 691 2790 1014 2988 
Q 1338 3187 1696 3187 
Q 2298 3187 2614 2790 
Q 2931 2394 2931 1728 
Q 2931 1645 2924 1568 
Q 2918 1491 2906 1414 
L 826 1414 
Q 864 890 1161 621 
Q 1459 352 1850 352 
Q 2074 352 2269 416 
Q 2464 480 2624 589 
L 2816 243 
Q 2611 102 2358 12 
Q 2106 -77 1786 -77 
z
" transform="scale(0.015625)"/>
       </defs>
       <use xlink:href="#SourceSans3-Regular-48"/>
       <use xlink:href="#SourceSans3-Regular-6f" transform="translate(65.199997 0)"/>
       <use xlink:href="#SourceSans3-Regular-73" transform="translate(119.399994 0)"/>
       <use xlink:href="#SourceSans3-Regular-74" transform="translate(161.299988 0)"/>
       <use xlink:href="#SourceSans3-Regular-20" transform="translate(195.099976 0)"/>
       <use xlink:href="#SourceSans3-Regular-63" transform="translate(215.09996 0)"/>
       <use xlink:href="#SourceSans3-Regular-6f" transform="translate(260.699951 0)"/>
       <use xlink:href="#SourceSans3-Regular-6d" transform="translate(314.899948 0)"/>
       <use xlink:href="#SourceSans3-Regular-6d" transform="translate(397.799942 0)"/>
       <use xlink:href="#SourceSans3-Regular-75" transform="translate(480.699936 0)"/>
       <use xlink:href="#SourceSans3-Regular-6e" transform="translate(535.09993 0)"/>
       <use xlink:href="#SourceSans3-Regular-69" transform="translate(589.799927 0)"/>
       <use xlink:href="#SourceSans3-Regular-74" transform="translate(614.399918 0)"/>
       <use xlink:href="#SourceSans3-Regular-69" transform="translate(648.199905 0)"/>
       <use xlink:href="#SourceSans3-Regular-65" transform="translate(672.799896 0)"/>
       <use xlink:href="#SourceSans3-Regular-73" transform="translate(722.399887 0)"/>
      </g>
     </g>
    </g>
    <g id="ytick_7">
     <g id="line2d_2"/>
     <g id="text_2">
      <!-- IDPs -->
      <g transform="translate(135.966087 260.504531) scale(0.1 -0.1)">
       <defs>
        <path id="SourceSans3-Regular-49" d="M 576 0 
L 576 4198 
L 1107 4198 
L 1107 0 
L 576 0 
z
" transform="scale(0.015625)"/>
        <path id="SourceSans3-Regular-44" d="M 576 0 
L 576 4198 
L 1626 4198 
Q 2598 4198 3104 3657 
Q 3610 3117 3610 2118 
Q 3610 1114 3107 557 
Q 2605 0 1651 0 
L 576 0 
z
M 1107 435 
L 1587 435 
Q 2323 435 2691 880 
Q 3059 1325 3059 2118 
Q 3059 2912 2691 3337 
Q 2323 3763 1587 3763 
L 1107 3763 
L 1107 435 
z
" transform="scale(0.015625)"/>
        <path id="SourceSans3-Regular-50" d="M 576 0 
L 576 4198 
L 1773 4198 
Q 2246 4198 2598 4083 
Q 2950 3968 3148 3696 
Q 3347 3424 3347 2963 
Q 3347 2304 2918 1984 
Q 2490 1664 1798 1664 
L 1107 1664 
L 1107 0 
L 576 0 
z
M 1107 2099 
L 1734 2099 
Q 2285 2099 2550 2307 
Q 2816 2515 2816 2963 
Q 2816 3418 2537 3594 
Q 2259 3770 1709 3770 
L 1107 3770 
L 1107 2099 
z
" transform="scale(0.015625)"/>
       </defs>
       <use xlink:href="#SourceSans3-Regular-49"/>
       <use xlink:href="#SourceSans3-Regular-44" transform="translate(26.299988 0)"/>
       <use xlink:href="#SourceSans3-Regular-50" transform="translate(87.799973 0)"/>
       <use xlink:href="#SourceSans3-Regular-73" transform="translate(144.399963 0)"/>
      </g>
     </g>
    </g>
    <g id="ytick_8">
     <g id="line2d_3"/>
     <g id="text_3">
      <!-- IDP Returnees -->
      <g transform="translate(95.6364 238.504531) scale(0.1 -0.1)">
       <defs>
        <path id="SourceSans3-Regular-52" d="M 576 0 
L 576 4198 
L 1888 4198 
Q 2317 4198 2649 4086 
Q 2982 3974 3171 3715 
Q 3360 3456 3360 3021 
Q 3360 2534 3104 2236 
Q 2848 1939 2413 1830 
L 3482 0 
L 2880 0 
L 1869 1773 
L 1107 1773 
L 1107 0 
L 576 0 
z
M 1107 2208 
L 1811 2208 
Q 2304 2208 2566 2409 
Q 2829 2611 2829 3021 
Q 2829 3437 2566 3603 
Q 2304 3770 1811 3770 
L 1107 3770 
L 1107 2208 
z
" transform="scale(0.015625)"/>
        <path id="SourceSans3-Regular-72" d="M 525 0 
L 525 3110 
L 960 3110 
L 1005 2547 
L 1024 2547 
Q 1178 2842 1408 3014 
Q 1638 3187 1907 3187 
Q 2093 3187 2240 3123 
L 2125 2675 
Q 2054 2694 1993 2704 
Q 1933 2714 1837 2714 
Q 1638 2714 1424 2554 
Q 1210 2394 1050 1997 
L 1050 0 
L 525 0 
z
" transform="scale(0.015625)"/>
       </defs>
       <use xlink:href="#SourceSans3-Regular-49"/>
       <use xlink:href="#SourceSans3-Regular-44" transform="translate(26.299988 0)"/>
       <use xlink:href="#SourceSans3-Regular-50" transform="translate(87.799973 0)"/>
       <use xlink:href="#SourceSans3-Regular-20" transform="translate(144.399963 0)"/>
       <use xlink:href="#SourceSans3-Regular-52" transform="translate(164.399948 0)"/>
       <use xlink:href="#SourceSans3-Regular-65" transform="translate(221.299942 0)"/>
       <use xlink:href="#SourceSans3-Regular-74" transform="translate(270.899933 0)"/>
       <use xlink:href="#SourceSans3-Regular-75" transform="translate(304.699921 0)"/>
       <use xlink:href="#SourceSans3-Regular-72" transform="translate(359.099915 0)"/>
       <use xlink:href="#SourceSans3-Regular-6e" transform="translate(393.799911 0)"/>
       <use xlink:href="#SourceSans3-Regular-65" transform="translate(448.499908 0)"/>
       <use xlink:href="#SourceSans3-Regular-65" transform="translate(498.099899 0)"/>
       <use xlink:href="#SourceSans3-Regular-73" transform="translate(547.69989 0)"/>
      </g>
     </g>
    </g>
    <g id="ytick_9">
     <g id="line2d_4"/>
     <g id="text_4">
      <!-- Refugee Returnees -->
      <g transform="translate(76.10515 216.564687) scale(0.1 -0.1)">
       <defs>
        <path id="SourceSans3-Regular-66" d="M 614 0 
L 614 2682 
L 154 2682 
L 154 3078 
L 614 3110 
L 614 3603 
Q 614 4077 835 4355 
Q 1056 4634 1523 4634 
Q 1670 4634 1804 4605 
Q 1939 4576 2042 4531 
L 1926 4147 
Q 1734 4205 1574 4205 
Q 1139 4205 1139 3603 
L 1139 3110 
L 1798 3110 
L 1798 2682 
L 1139 2682 
L 1139 0 
L 614 0 
z
" transform="scale(0.015625)"/>
        <path id="SourceSans3-Regular-67" d="M 1574 -1434 
Q 1005 -1434 646 -1216 
Q 288 -998 288 -595 
Q 288 -397 409 -214 
Q 531 -32 742 109 
L 742 134 
Q 627 205 547 333 
Q 467 461 467 640 
Q 467 838 576 985 
Q 685 1133 806 1216 
L 806 1242 
Q 653 1370 528 1587 
Q 403 1805 403 2080 
Q 403 2419 563 2668 
Q 723 2918 992 3052 
Q 1261 3187 1574 3187 
Q 1702 3187 1817 3164 
Q 1933 3142 2016 3110 
L 3098 3110 
L 3098 2707 
L 2451 2707 
L 2451 2682 
Q 2560 2579 2637 2425 
Q 2714 2272 2714 2061 
Q 2714 1734 2560 1491 
Q 2406 1248 2150 1117 
Q 1894 986 1574 986 
Q 1325 986 1107 1094 
Q 1024 1024 966 937 
Q 909 851 909 723 
Q 909 576 1027 480 
Q 1146 384 1459 384 
L 2061 384 
Q 2605 384 2877 208 
Q 3149 32 3149 -358 
Q 3149 -646 2957 -889 
Q 2765 -1133 2413 -1283 
Q 2061 -1434 1574 -1434 
z
M 1574 1338 
Q 1843 1338 2038 1539 
Q 2234 1741 2234 2080 
Q 2234 2419 2042 2611 
Q 1850 2803 1574 2803 
Q 1299 2803 1107 2611 
Q 915 2419 915 2080 
Q 915 1741 1110 1539 
Q 1306 1338 1574 1338 
z
M 1651 -1069 
Q 2099 -1069 2368 -873 
Q 2637 -678 2637 -435 
Q 2637 -218 2473 -134 
Q 2310 -51 2010 -51 
L 1472 -51 
Q 1382 -51 1276 -38 
Q 1171 -26 1069 0 
Q 902 -122 825 -256 
Q 749 -390 749 -525 
Q 749 -774 989 -921 
Q 1229 -1069 1651 -1069 
z
" transform="scale(0.015625)"/>
       </defs>
       <use xlink:href="#SourceSans3-Regular-52"/>
       <use xlink:href="#SourceSans3-Regular-65" transform="translate(56.899994 0)"/>
       <use xlink:href="#SourceSans3-Regular-66" transform="translate(106.499985 0)"/>
       <use xlink:href="#SourceSans3-Regular-75" transform="translate(135.699982 0)"/>
       <use xlink:href="#SourceSans3-Regular-67" transform="translate(190.099976 0)"/>
       <use xlink:href="#SourceSans3-Regular-65" transform="translate(240.499969 0)"/>
       <use xlink:href="#SourceSans3-Regular-65" transform="translate(290.09996 0)"/>
       <use xlink:href="#SourceSans3-Regular-20" transform="translate(339.699951 0)"/>
       <use xlink:href="#SourceSans3-Regular-52" transform="translate(359.699936 0)"/>
       <use xlink:href="#SourceSans3-Regular-65" transform="translate(416.59993 0)"/>
       <use xlink:href="#SourceSans3-Regular-74" transform="translate(466.199921 0)"/>
       <use xlink:href="#SourceSans3-Regular-75" transform="translate(499.999908 0)"/>
       <use xlink:href="#SourceSans3-Regular-72" transform="translate(554.399902 0)"/>
       <use xlink:href="#SourceSans3-Regular-6e" transform="translate(589.099899 0)"/>
       <use xlink:href="#SourceSans3-Regular-65" transform="translate(643.799896 0)"/>
       <use xlink:href="#SourceSans3-Regular-65" transform="translate(693.399887 0)"/>
       <use xlink:href="#SourceSans3-Regular-73" transform="translate(742.999878 0)"/>
      </g>
     </g>
    </g>
    <g id="ytick_10">
     <g id="line2d_5"/>
     <g id="text_5">
      <!-- Refugees -->
      <g transform="translate(116.434837 194.564687) scale(0.1 -0.1)">
       <use xlink:href="#SourceSans3-Regular-52"/>
       <use xlink:href="#SourceSans3-Regular-65" transform="translate(56.899994 0)"/>
       <use xlink:href="#SourceSans3-Regular-66" transform="translate(106.499985 0)"/>
       <use xlink:href="#SourceSans3-Regular-75" transform="translate(135.699982 0)"/>
       <use xlink:href="#SourceSans3-Regular-67" transform="translate(190.099976 0)"/>
       <use xlink:href="#SourceSans3-Regular-65" transform="translate(240.499969 0)"/>
       <use xlink:href="#SourceSans3-Regular-65" transform="translate(290.09996 0)"/>
       <use xlink:href="#SourceSans3-Regular-73" transform="translate(339.699951 0)"/>
      </g>
     </g>
    </g>
   </g>
   <g id="LineCollection_1">
    <path d="M 170.321127 278.944375 
L 170.321127 212.944375 
" clip-path="url(#peb2f03a55a)" style="fill: none; stroke: #5cb8b2; stroke-width: 2"/>
    <path d="M 194.771831 278.944375 
L 194.771831 234.944375 
" clip-path="url(#peb2f03a55a)" style="fill: none; stroke: #5cb8b2; stroke-width: 2"/>
    <path d="M 219.222535 278.944375 
L 219.222535 212.944375 
" clip-path="url(#peb2f03a55a)" style="fill: none; stroke: #5cb8b2; stroke-width: 2"/>
    <path d="M 243.673239 278.944375 
L 243.673239 190.944375 
" clip-path="url(#peb2f03a55a)" style="fill: none; stroke: #5cb8b2; stroke-width: 2"/>
    <path d="M 268.123944 278.944375 
L 268.123944 190.944375 
" clip-path="url(#peb2f03a55a)" style="fill: none; stroke: #5cb8b2; stroke-width: 2"/>
    <path d="M 292.574648 278.944375 
L 292.574648 190.944375 
" clip-path="url(#peb2f03a55a)" style="fill: none; stroke: #5cb8b2; stroke-width: 2"/>
   </g>
   <g id="PathCollection_1">
    <defs>
     <path id="C0_0_7d89c0b1b0" d="M 0 5.6 
C 1.485137 5.6 2.909647 5.009949 3.959798 3.959798 
C 5.009949 2.909647 5.6 1.485137 5.6 -0 
C 5.6 -1.485137 5.009949 -2.909647 3.959798 -3.959798 
C 2.909647 -5.009949 1.485137 -5.6 0 -5.6 
C -1.485137 -5.6 -2.909647 -5.009949 -3.959798 -3.959798 
C -5.009949 -2.909647 -5.6 -1.485137 -5.6 0 
C -5.6 1.485137 -5.009949 2.909647 -3.959798 3.959798 
C -2.909647 5.009949 -1.485137 5.6 0 5.6 
z
"/>
    </defs>
    <g clip-path="url(#peb2f03a55a)">
     <use xlink:href="#C0_0_7d89c0b1b0" x="170.321127" y="278.944375" style="fill: #5cb8b2; stroke: #5cb8b2"/>
    </g>
    <g clip-path="url(#peb2f03a55a)">
     <use xlink:href="#C0_0_7d89c0b1b0" x="170.321127" y="256.944375" style="fill: #5cb8b2; fill-opacity: 0.180392"/>
    </g>
    <g clip-path="url(#peb2f03a55a)">
     <use xlink:href="#C0_0_7d89c0b1b0" x="170.321127" y="234.944375" style="fill: #5cb8b2; fill-opacity: 0.180392"/>
    </g>
    <g clip-path="url(#peb2f03a55a)">
     <use xlink:href="#C0_0_7d89c0b1b0" x="170.321127" y="212.944375" style="fill: #5cb8b2; stroke: #5cb8b2"/>
    </g>
    <g clip-path="url(#peb2f03a55a)">
     <use xlink:href="#C0_0_7d89c0b1b0" x="170.321127" y="190.944375" style="fill: #5cb8b2; fill-opacity: 0.180392"/>
    </g>
    <g clip-path="url(#peb2f03a55a)">
     <use xlink:href="#C0_0_7d89c0b1b0" x="194.771831" y="278.944375" style="fill: #5cb8b2; stroke: #5cb8b2"/>
    </g>
    <g clip-path="url(#peb2f03a55a)">
     <use xlink:href="#C0_0_7d89c0b1b0" x="194.771831" y="256.944375" style="fill: #5cb8b2; stroke: #5cb8b2"/>
    </g>
    <g clip-path="url(#peb2f03a55a)">
     <use xlink:href="#C0_0_7d89c0b1b0" x="194.771831" y="234.944375" style="fill: #5cb8b2; stroke: #5cb8b2"/>
    </g>
    <g clip-path="url(#peb2f03a55a)">
     <use xlink:href="#C0_0_7d89c0b1b0" x="194.771831" y="212.944375" style="fill: #5cb8b2; fill-opacity: 0.180392"/>
    </g>
    <g clip-path="url(#peb2f03a55a)">
     <use xlink:href="#C0_0_7d89c0b1b0" x="194.771831" y="190.944375" style="fill: #5cb8b2; fill-opacity: 0.180392"/>
    </g>
    <g clip-path="url(#peb2f03a55a)">
     <use xlink:href="#C0_0_7d89c0b1b0" x="219.222535" y="278.944375" style="fill: #5cb8b2; stroke: #5cb8b2"/>
    </g>
    <g clip-path="url(#peb2f03a55a)">
     <use xlink:href="#C0_0_7d89c0b1b0" x="219.222535" y="256.944375" style="fill: #5cb8b2; stroke: #5cb8b2"/>
    </g>
    <g clip-path="url(#peb2f03a55a)">
     <use xlink:href="#C0_0_7d89c0b1b0" x="219.222535" y="234.944375" style="fill: #5cb8b2; stroke: #5cb8b2"/>
    </g>
    <g clip-path="url(#peb2f03a55a)">
     <use xlink:href="#C0_0_7d89c0b1b0" x="219.222535" y="212.944375" style="fill: #5cb8b2; stroke: #5cb8b2"/>
    </g>
    <g clip-path="url(#peb2f03a55a)">
     <use xlink:href="#C0_0_7d89c0b1b0" x="219.222535" y="190.944375" style="fill: #5cb8b2; fill-opacity: 0.180392"/>
    </g>
    <g clip-path="url(#peb2f03a55a)">
     <use xlink:href="#C0_0_7d89c0b1b0" x="243.673239" y="278.944375" style="fill: #5cb8b2; stroke: #5cb8b2"/>
    </g>
    <g clip-path="url(#peb2f03a55a)">
     <use xlink:href="#C0_0_7d89c0b1b0" x="243.673239" y="256.944375" style="fill: #5cb8b2; stroke: #5cb8b2"/>
    </g>
    <g clip-path="url(#peb2f03a55a)">
     <use xlink:href="#C0_0_7d89c0b1b0" x="243.673239" y="234.944375" style="fill: #5cb8b2; stroke: #5cb8b2"/>
    </g>
    <g clip-path="url(#peb2f03a55a)">
     <use xlink:href="#C0_0_7d89c0b1b0" x="243.673239" y="212.944375" style="fill: #5cb8b2; fill-opacity: 0.180392"/>
    </g>
    <g clip-path="url(#peb2f03a55a)">
     <use xlink:href="#C0_0_7d89c0b1b0" x="243.673239" y="190.944375" style="fill: #5cb8b2; stroke: #5cb8b2"/>
    </g>
    <g clip-path="url(#peb2f03a55a)">
     <use xlink:href="#C0_0_7d89c0b1b0" x="268.123944" y="278.944375" style="fill: #5cb8b2; stroke: #5cb8b2"/>
    </g>
    <g clip-path="url(#peb2f03a55a)">
     <use xlink:href="#C0_0_7d89c0b1b0" x="268.123944" y="256.944375" style="fill: #5cb8b2; stroke: #5cb8b2"/>
    </g>
    <g clip-path="url(#peb2f03a55a)">
     <use xlink:href="#C0_0_7d89c0b1b0" x="268.123944" y="234.944375" style="fill: #5cb8b2; fill-opacity: 0.180392"/>
    </g>
    <g clip-path="url(#peb2f03a55a)">
     <use xlink:href="#C0_0_7d89c0b1b0" x="268.123944" y="212.944375" style="fill: #5cb8b2; stroke: #5cb8b2"/>
    </g>
    <g clip-path="url(#peb2f03a55a)">
     <use xlink:href="#C0_0_7d89c0b1b0" x="268.123944" y="190.944375" style="fill: #5cb8b2; stroke: #5cb8b2"/>
    </g>
    <g clip-path="url(#peb2f03a55a)">
     <use xlink:href="#C0_0_7d89c0b1b0" x="292.574648" y="278.944375" style="fill: #5cb8b2; stroke: #5cb8b2"/>
    </g>
    <g clip-path="url(#peb2f03a55a)">
     <use xlink:href="#C0_0_7d89c0b1b0" x="292.574648" y="256.944375" style="fill: #5cb8b2; stroke: #5cb8b2"/>
    </g>
    <g clip-path="url(#peb2f03a55a)">
     <use xlink:href="#C0_0_7d89c0b1b0" x="292.574648" y="234.944375" style="fill: #5cb8b2; stroke: #5cb8b2"/>
    </g>
    <g clip-path="url(#peb2f03a55a)">
     <use xlink:href="#C0_0_7d89c0b1b0" x="292.574648" y="212.944375" style="fill: #5cb8b2; stroke: #5cb8b2"/>
    </g>
    <g clip-path="url(#peb2f03a55a)">
     <use xlink:href="#C0_0_7d89c0b1b0" x="292.574648" y="190.944375" style="fill: #5cb8b2; stroke: #5cb8b2"/>
    </g>
   </g>
  </g>
  <g id="axes_3">
   <g id="patch_7">
    <path d="M 53.307042 284.444375 
L 7.2 284.444375 
L 7.2 273.444375 
L 53.307042 273.444375 
z
" clip-path="url(#p0bfd020aa0)" style="fill: #5cb8b2; stroke: #5cb8b2; stroke-linejoin: miter"/>
   </g>
   <g id="patch_8">
    <path d="M 53.307042 262.444375 
L 10.746696 262.444375 
L 10.746696 251.444375 
L 53.307042 251.444375 
z
" clip-path="url(#p0bfd020aa0)" style="fill: #5cb8b2; stroke: #5cb8b2; stroke-linejoin: miter"/>
   </g>
   <g id="patch_9">
    <path d="M 53.307042 240.444375 
L 14.293391 240.444375 
L 14.293391 229.444375 
L 53.307042 229.444375 
z
" clip-path="url(#p0bfd020aa0)" style="fill: #5cb8b2; stroke: #5cb8b2; stroke-linejoin: miter"/>
   </g>
   <g id="patch_10">
    <path d="M 53.307042 218.444375 
L 24.933478 218.444375 
L 24.933478 207.444375 
L 53.307042 207.444375 
z
" clip-path="url(#p0bfd020aa0)" style="fill: #5cb8b2; stroke: #5cb8b2; stroke-linejoin: miter"/>
   </g>
   <g id="patch_11">
    <path d="M 53.307042 196.444375 
L 35.573564 196.444375 
L 35.573564 185.444375 
L 53.307042 185.444375 
z
" clip-path="url(#p0bfd020aa0)" style="fill: #5cb8b2; stroke: #5cb8b2; stroke-linejoin: miter"/>
   </g>
   <g id="matplotlib.axis_4">
    <g id="xtick_1">
     <g id="line2d_6">
      <path d="M 53.307042 293.024375 
L 53.307042 176.864375 
" clip-path="url(#p0bfd020aa0)" style="fill: none; stroke: #b0b0b0; stroke-width: 0.8; stroke-linecap: square"/>
     </g>
     <g id="line2d_7">
      <defs>
       <path id="m15faa2456e" d="M 0 0 
L 0 3.5 
" style="stroke: #000000; stroke-width: 0.8"/>
      </defs>
      <g>
       <use xlink:href="#m15faa2456e" x="53.307042" y="293.024375" style="stroke: #000000; stroke-width: 0.8"/>
      </g>
     </g>
     <g id="text_6">
      <!-- 0 -->
      <g transform="translate(50.821886 307.144687) scale(0.1 -0.1)">
       <defs>
        <path id="SourceSans3-Regular-30" d="M 1594 -77 
Q 979 -77 630 476 
Q 282 1030 282 2054 
Q 282 3085 630 3622 
Q 979 4160 1594 4160 
Q 2202 4160 2550 3622 
Q 2899 3085 2899 2054 
Q 2899 1030 2550 476 
Q 2202 -77 1594 -77 
z
M 1594 346 
Q 1952 346 2169 752 
Q 2387 1158 2387 2054 
Q 2387 2950 2169 3344 
Q 1952 3738 1594 3738 
Q 1235 3738 1014 3344 
Q 794 2950 794 2054 
Q 794 1158 1014 752 
Q 1235 346 1594 346 
z
" transform="scale(0.015625)"/>
       </defs>
       <use xlink:href="#SourceSans3-Regular-30"/>
      </g>
     </g>
    </g>
    <g id="xtick_2">
     <g id="line2d_8">
      <path d="M 17.840087 293.024375 
L 17.840087 176.864375 
" clip-path="url(#p0bfd020aa0)" style="fill: none; stroke: #b0b0b0; stroke-width: 0.8; stroke-linecap: square"/>
     </g>
     <g id="line2d_9">
      <g>
       <use xlink:href="#m15faa2456e" x="17.840087" y="293.024375" style="stroke: #000000; stroke-width: 0.8"/>
      </g>
     </g>
     <g id="text_7">
      <!-- 10 -->
      <g transform="translate(12.869774 307.144687) scale(0.1 -0.1)">
       <defs>
        <path id="SourceSans3-Regular-31" d="M 506 0 
L 506 435 
L 1440 435 
L 1440 3443 
L 698 3443 
L 698 3782 
Q 979 3834 1187 3907 
Q 1395 3981 1562 4083 
L 1965 4083 
L 1965 435 
L 2810 435 
L 2810 0 
L 506 0 
z
" transform="scale(0.015625)"/>
       </defs>
       <use xlink:href="#SourceSans3-Regular-31"/>
       <use xlink:href="#SourceSans3-Regular-30" transform="translate(49.699997 0)"/>
      </g>
     </g>
    </g>
   </g>
   <g id="patch_12">
    <path d="M 7.2 293.024375 
L 53.307042 293.024375 
" style="fill: none; stroke: #000000; stroke-width: 0.8; stroke-linejoin: miter; stroke-linecap: square"/>
   </g>
  </g>
  <g id="axes_4">
   <g id="patch_13">
    <path d="M 158.095775 163.957708 
L 304.8 163.957708 
L 304.8 21.984375 
L 158.095775 21.984375 
L 158.095775 163.957708 
z
" style="fill: none"/>
   </g>
   <g id="matplotlib.axis_5">
    <g id="ytick_11">
     <g id="line2d_10">
      <path d="M 158.095775 163.957708 
L 304.8 163.957708 
" clip-path="url(#pab46684c1e)" style="fill: none; stroke: #b0b0b0; stroke-width: 0.8; stroke-linecap: square"/>
     </g>
     <g id="line2d_11">
      <defs>
       <path id="m3f35fde46c" d="M 0 0 
L -3.5 0 
" style="stroke: #000000; stroke-width: 0.8"/>
      </defs>
      <g>
       <use xlink:href="#m3f35fde46c" x="158.095775" y="163.957708" style="stroke: #000000; stroke-width: 0.8"/>
      </g>
     </g>
     <g id="text_8">
      <!-- 0 -->
      <g transform="translate(146.125462 167.517865) scale(0.1 -0.1)">
       <use xlink:href="#SourceSans3-Regular-30"/>
      </g>
     </g>
    </g>
    <g id="ytick_12">
     <g id="line2d_12">
      <path d="M 158.095775 130.154534 
L 304.8 130.154534 
" clip-path="url(#pab46684c1e)" style="fill: none; stroke: #b0b0b0; stroke-width: 0.8; stroke-linecap: square"/>
     </g>
     <g id="line2d_13">
      <g>
       <use xlink:href="#m3f35fde46c" x="158.095775" y="130.154534" style="stroke: #000000; stroke-width: 0.8"/>
      </g>
     </g>
     <g id="text_9">
      <!-- 1 -->
      <g transform="translate(146.125462 133.71469) scale(0.1 -0.1)">
       <use xlink:href="#SourceSans3-Regular-31"/>
      </g>
     </g>
    </g>
    <g id="ytick_13">
     <g id="line2d_14">
      <path d="M 158.095775 96.351359 
L 304.8 96.351359 
" clip-path="url(#pab46684c1e)" style="fill: none; stroke: #b0b0b0; stroke-width: 0.8; stroke-linecap: square"/>
     </g>
     <g id="line2d_15">
      <g>
       <use xlink:href="#m3f35fde46c" x="158.095775" y="96.351359" style="stroke: #000000; stroke-width: 0.8"/>
      </g>
     </g>
     <g id="text_10">
      <!-- 2 -->
      <g transform="translate(146.125462 99.911515) scale(0.1 -0.1)">
       <defs>
        <path id="SourceSans3-Regular-32" d="M 256 0 
L 256 320 
Q 870 922 1299 1386 
Q 1728 1850 1952 2227 
Q 2176 2605 2176 2931 
Q 2176 3283 1984 3507 
Q 1792 3731 1402 3731 
Q 1146 3731 928 3587 
Q 710 3443 531 3238 
L 237 3526 
Q 493 3814 784 3987 
Q 1075 4160 1466 4160 
Q 2035 4160 2361 3830 
Q 2688 3501 2688 2963 
Q 2688 2566 2467 2176 
Q 2246 1786 1862 1357 
Q 1478 928 979 416 
Q 1146 429 1325 441 
Q 1504 454 1664 454 
L 2893 454 
L 2893 0 
L 256 0 
z
" transform="scale(0.015625)"/>
       </defs>
       <use xlink:href="#SourceSans3-Regular-32"/>
      </g>
     </g>
    </g>
    <g id="ytick_14">
     <g id="line2d_16">
      <path d="M 158.095775 62.548185 
L 304.8 62.548185 
" clip-path="url(#pab46684c1e)" style="fill: none; stroke: #b0b0b0; stroke-width: 0.8; stroke-linecap: square"/>
     </g>
     <g id="line2d_17">
      <g>
       <use xlink:href="#m3f35fde46c" x="158.095775" y="62.548185" style="stroke: #000000; stroke-width: 0.8"/>
      </g>
     </g>
     <g id="text_11">
      <!-- 3 -->
      <g transform="translate(146.125462 66.108341) scale(0.1 -0.1)">
       <defs>
        <path id="SourceSans3-Regular-33" d="M 1510 -77 
Q 1024 -77 697 99 
Q 371 275 166 499 
L 435 845 
Q 621 653 870 505 
Q 1120 358 1478 358 
Q 1850 358 2086 563 
Q 2323 768 2323 1107 
Q 2323 1350 2198 1532 
Q 2074 1715 1789 1817 
Q 1504 1920 1018 1920 
L 1018 2323 
Q 1453 2323 1705 2425 
Q 1958 2528 2067 2701 
Q 2176 2874 2176 3085 
Q 2176 3386 1987 3558 
Q 1798 3731 1472 3731 
Q 1216 3731 1001 3616 
Q 787 3501 602 3315 
L 320 3648 
Q 557 3872 845 4016 
Q 1133 4160 1491 4160 
Q 2022 4160 2368 3888 
Q 2714 3616 2714 3123 
Q 2714 2752 2509 2515 
Q 2304 2278 1971 2150 
L 1971 2125 
Q 2342 2042 2598 1776 
Q 2854 1510 2854 1088 
Q 2854 730 2675 467 
Q 2496 205 2192 64 
Q 1888 -77 1510 -77 
z
" transform="scale(0.015625)"/>
       </defs>
       <use xlink:href="#SourceSans3-Regular-33"/>
      </g>
     </g>
    </g>
    <g id="ytick_15">
     <g id="line2d_18">
      <path d="M 158.095775 28.74501 
L 304.8 28.74501 
" clip-path="url(#pab46684c1e)" style="fill: none; stroke: #b0b0b0; stroke-width: 0.8; stroke-linecap: square"/>
     </g>
     <g id="line2d_19">
      <g>
       <use xlink:href="#m3f35fde46c" x="158.095775" y="28.74501" style="stroke: #000000; stroke-width: 0.8"/>
      </g>
     </g>
     <g id="text_12">
      <!-- 4 -->
      <g transform="translate(146.125462 32.305166) scale(0.1 -0.1)">
       <defs>
        <path id="SourceSans3-Regular-34" d="M 666 1549 
L 1946 1549 
L 1946 2733 
Q 1946 2899 1958 3129 
Q 1971 3360 1978 3520 
L 1952 3520 
Q 1875 3373 1792 3232 
Q 1709 3091 1619 2944 
L 666 1549 
z
M 1946 0 
L 1946 1126 
L 109 1126 
L 109 1472 
L 1856 4083 
L 2445 4083 
L 2445 1549 
L 3002 1549 
L 3002 1126 
L 2445 1126 
L 2445 0 
L 1946 0 
z
" transform="scale(0.015625)"/>
       </defs>
       <use xlink:href="#SourceSans3-Regular-34"/>
      </g>
     </g>
    </g>
    <g id="text_13">
     <!-- Intersection size -->
     <g transform="translate(140.075462 127.074948) rotate(-90) scale(0.1 -0.1)">
      <defs>
       <path id="SourceSans3-Regular-7a" d="M 198 0 
L 198 282 
L 1837 2682 
L 378 2682 
L 378 3110 
L 2502 3110 
L 2502 2829 
L 864 429 
L 2554 429 
L 2554 0 
L 198 0 
z
" transform="scale(0.015625)"/>
      </defs>
      <use xlink:href="#SourceSans3-Regular-49"/>
      <use xlink:href="#SourceSans3-Regular-6e" transform="translate(26.299988 0)"/>
      <use xlink:href="#SourceSans3-Regular-74" transform="translate(80.999985 0)"/>
      <use xlink:href="#SourceSans3-Regular-65" transform="translate(114.799973 0)"/>
      <use xlink:href="#SourceSans3-Regular-72" transform="translate(164.399963 0)"/>
      <use xlink:href="#SourceSans3-Regular-73" transform="translate(199.09996 0)"/>
      <use xlink:href="#SourceSans3-Regular-65" transform="translate(240.999954 0)"/>
      <use xlink:href="#SourceSans3-Regular-63" transform="translate(290.599945 0)"/>
      <use xlink:href="#SourceSans3-Regular-74" transform="translate(336.199936 0)"/>
      <use xlink:href="#SourceSans3-Regular-69" transform="translate(369.999924 0)"/>
      <use xlink:href="#SourceSans3-Regular-6f" transform="translate(394.599915 0)"/>
      <use xlink:href="#SourceSans3-Regular-6e" transform="translate(448.799911 0)"/>
      <use xlink:href="#SourceSans3-Regular-20" transform="translate(503.499908 0)"/>
      <use xlink:href="#SourceSans3-Regular-73" transform="translate(523.499893 0)"/>
      <use xlink:href="#SourceSans3-Regular-69" transform="translate(565.399887 0)"/>
      <use xlink:href="#SourceSans3-Regular-7a" transform="translate(589.999878 0)"/>
      <use xlink:href="#SourceSans3-Regular-65" transform="translate(632.499863 0)"/>
     </g>
    </g>
   </g>
   <g id="patch_14">
    <path d="M 158.095775 163.957708 
L 158.095775 21.984375 
" style="fill: none; stroke: #000000; stroke-width: 0.8; stroke-linejoin: miter; stroke-linecap: square"/>
   </g>
   <g id="text_14">
    <!-- Populations (n = 13) -->
    <g style="fill: #404040" transform="translate(181.634762 15.984375) scale(0.12 -0.12)">
     <defs>
      <path id="SourceSans3-Regular-70" d="M 525 -1312 
L 525 3110 
L 960 3110 
L 1005 2752 
L 1024 2752 
Q 1235 2931 1488 3059 
Q 1741 3187 2016 3187 
Q 2618 3187 2931 2755 
Q 3245 2323 3245 1600 
Q 3245 1075 3056 697 
Q 2867 320 2563 121 
Q 2259 -77 1901 -77 
Q 1683 -77 1468 19 
Q 1254 115 1037 282 
L 1050 -262 
L 1050 -1312 
L 525 -1312 
z
M 1811 365 
Q 2195 365 2448 694 
Q 2701 1024 2701 1600 
Q 2701 2112 2512 2429 
Q 2323 2746 1882 2746 
Q 1683 2746 1481 2637 
Q 1280 2528 1050 2323 
L 1050 691 
Q 1261 512 1459 438 
Q 1658 365 1811 365 
z
" transform="scale(0.015625)"/>
      <path id="SourceSans3-Regular-6c" d="M 1082 -58 
Q 787 -58 656 124 
Q 525 307 525 640 
L 525 4557 
L 1050 4557 
L 1050 602 
Q 1050 480 1094 429 
Q 1139 378 1203 378 
Q 1229 378 1251 381 
Q 1274 384 1312 390 
L 1382 -6 
Q 1267 -58 1082 -58 
z
" transform="scale(0.015625)"/>
      <path id="SourceSans3-Regular-61" d="M 1242 -77 
Q 851 -77 588 153 
Q 326 384 326 806 
Q 326 1331 787 1600 
Q 1248 1869 2246 1978 
Q 2246 2176 2188 2349 
Q 2131 2522 1993 2634 
Q 1856 2746 1600 2746 
Q 1331 2746 1094 2643 
Q 858 2541 672 2426 
L 467 2784 
Q 685 2931 1001 3059 
Q 1318 3187 1690 3187 
Q 2259 3187 2515 2838 
Q 2771 2490 2771 1907 
L 2771 0 
L 2336 0 
L 2291 371 
L 2272 371 
Q 2042 186 1789 54 
Q 1536 -77 1242 -77 
z
M 1389 358 
Q 1613 358 1817 460 
Q 2022 563 2246 762 
L 2246 1600 
Q 1722 1542 1414 1440 
Q 1107 1338 976 1190 
Q 845 1043 845 838 
Q 845 582 1005 470 
Q 1165 358 1389 358 
z
" transform="scale(0.015625)"/>
      <path id="SourceSans3-Regular-28" d="M 1370 -1126 
Q 973 -480 749 227 
Q 525 934 525 1779 
Q 525 2624 749 3334 
Q 973 4045 1370 4685 
L 1696 4531 
Q 1325 3923 1142 3216 
Q 960 2509 960 1779 
Q 960 1050 1142 342 
Q 1325 -365 1696 -973 
L 1370 -1126 
z
" transform="scale(0.015625)"/>
      <path id="SourceSans3-Regular-3d" d="M 218 2599 
L 218 2995 
L 2963 2995 
L 2963 2599 
L 218 2599 
z
M 218 1229 
L 218 1625 
L 2963 1625 
L 2963 1229 
L 218 1229 
z
" transform="scale(0.015625)"/>
      <path id="SourceSans3-Regular-29" d="M 570 -1126 
L 243 -973 
Q 614 -365 796 342 
Q 979 1050 979 1779 
Q 979 2509 796 3216 
Q 614 3923 243 4531 
L 570 4685 
Q 966 4045 1190 3334 
Q 1414 2624 1414 1779 
Q 1414 934 1190 227 
Q 966 -480 570 -1126 
z
" transform="scale(0.015625)"/>
     </defs>
     <use xlink:href="#SourceSans3-Regular-50"/>
     <use xlink:href="#SourceSans3-Regular-6f" transform="translate(56.599991 0)"/>
     <use xlink:href="#SourceSans3-Regular-70" transform="translate(110.799988 0)"/>
     <use xlink:href="#SourceSans3-Regular-75" transform="translate(166.299973 0)"/>
     <use xlink:href="#SourceSans3-Regular-6c" transform="translate(220.699966 0)"/>
     <use xlink:href="#SourceSans3-Regular-61" transform="translate(246.199951 0)"/>
     <use xlink:href="#SourceSans3-Regular-74" transform="translate(296.599945 0)"/>
     <use xlink:href="#SourceSans3-Regular-69" transform="translate(330.399933 0)"/>
     <use xlink:href="#SourceSans3-Regular-6f" transform="translate(354.999924 0)"/>
     <use xlink:href="#SourceSans3-Regular-6e" transform="translate(409.199921 0)"/>
     <use xlink:href="#SourceSans3-Regular-73" transform="translate(463.899918 0)"/>
     <use xlink:href="#SourceSans3-Regular-20" transform="translate(505.799911 0)"/>
     <use xlink:href="#SourceSans3-Regular-28" transform="translate(525.799896 0)"/>
     <use xlink:href="#SourceSans3-Regular-6e" transform="translate(556.099884 0)"/>
     <use xlink:href="#SourceSans3-Regular-20" transform="translate(610.799881 0)"/>
     <use xlink:href="#SourceSans3-Regular-3d" transform="translate(630.799866 0)"/>
     <use xlink:href="#SourceSans3-Regular-20" transform="translate(680.499863 0)"/>
     <use xlink:href="#SourceSans3-Regular-31" transform="translate(700.499847 0)"/>
     <use xlink:href="#SourceSans3-Regular-33" transform="translate(750.199844 0)"/>
     <use xlink:href="#SourceSans3-Regular-29" transform="translate(799.899841 0)"/>
    </g>
   </g>
   <g id="patch_15">
    <path d="M 164.208451 163.957708 
L 176.433803 163.957708 
L 176.433803 130.154534 
L 164.208451 130.154534 
z
" clip-path="url(#pab46684c1e)" style="fill: #5cb8b2; stroke: #5cb8b2; stroke-linejoin: miter"/>
   </g>
   <g id="patch_16">
    <path d="M 188.659155 163.957708 
L 200.884507 163.957708 
L 200.884507 62.548185 
L 188.659155 62.548185 
z
" clip-path="url(#pab46684c1e)" style="fill: #5cb8b2; stroke: #5cb8b2; stroke-linejoin: miter"/>
   </g>
   <g id="patch_17">
    <path d="M 213.109859 163.957708 
L 225.335211 163.957708 
L 225.335211 28.74501 
L 213.109859 28.74501 
z
" clip-path="url(#pab46684c1e)" style="fill: #5cb8b2; stroke: #5cb8b2; stroke-linejoin: miter"/>
   </g>
   <g id="patch_18">
    <path d="M 237.560563 163.957708 
L 249.785915 163.957708 
L 249.785915 96.351359 
L 237.560563 96.351359 
z
" clip-path="url(#pab46684c1e)" style="fill: #5cb8b2; stroke: #5cb8b2; stroke-linejoin: miter"/>
   </g>
   <g id="patch_19">
    <path d="M 262.011268 163.957708 
L 274.23662 163.957708 
L 274.23662 130.154534 
L 262.011268 130.154534 
z
" clip-path="url(#pab46684c1e)" style="fill: #5cb8b2; stroke: #5cb8b2; stroke-linejoin: miter"/>
   </g>
   <g id="patch_20">
    <path d="M 286.461972 163.957708 
L 298.687324 163.957708 
L 298.687324 96.351359 
L 286.461972 96.351359 
z
" clip-path="url(#pab46684c1e)" style="fill: #5cb8b2; stroke: #5cb8b2; stroke-linejoin: miter"/>
   </g>
  </g>
 </g>
 <defs>
  <clipPath id="p11ac51e897">
   <rect x="7.2" y="176.864375" width="297.6" height="116.16"/>
  </clipPath>
  <clipPath id="peb2f03a55a">
   <rect x="158.095775" y="176.864375" width="146.704225" height="116.16"/>
  </clipPath>
  <clipPath id="p0bfd020aa0">
   <rect x="7.2" y="176.864375" width="46.107042" height="116.16"/>
  </clipPath>
  <clipPath id="pab46684c1e">
   <rect x="158.095775" y="21.984375" width="146.704225" height="141.973333"/>
  </clipPath>
 </defs>
</svg>
