<?xml version="1.0" encoding="utf-8" standalone="no"?>
<!DOCTYPE svg PUBLIC "-//W3C//DTD SVG 1.1//EN"
  "http://www.w3.org/Graphics/SVG/1.1/DTD/svg11.dtd">
<svg xmlns:xlink="http://www.w3.org/1999/xlink" width="720pt" height="216pt" viewBox="0 0 720 216" xmlns="http://www.w3.org/2000/svg" version="1.1">
 <metadata>
  <rdf:RDF xmlns:dc="http://purl.org/dc/elements/1.1/" xmlns:cc="http://creativecommons.org/ns#" xmlns:rdf="http://www.w3.org/1999/02/22-rdf-syntax-ns#">
   <cc:Work>
    <dc:type rdf:resource="http://purl.org/dc/dcmitype/StillImage"/>
    <dc:date>2025-11-16T14:10:16.709371</dc:date>
    <dc:format>image/svg+xml</dc:format>
    <dc:creator>
     <cc:Agent>
      <dc:title>Matplotlib v3.10.7, https://matplotlib.org/</dc:title>
     </cc:Agent>
    </dc:creator>
   </cc:Work>
  </rdf:RDF>
 </metadata>
 <defs>
  <style type="text/css">*{stroke-linejoin: round; stroke-linecap: butt}</style>
 </defs>
 <g id="figure_1">
  <g id="patch_1">
   <path d="M 0 216 
L 720 216 
L 720 0 
L 0 0 
L 0 216 
z
" style="fill: none"/>
  </g>
  <g id="axes_1">
   <g id="patch_2">
    <path d="M 245.15 188.84 
L 709.2 188.84 
L 709.2 27.375 
L 245.15 27.375 
L 245.15 188.84 
z
" style="fill: none"/>
   </g>
   <g id="patch_3">
    <path d="M 245.15 34.714318 
L 285.327489 34.714318 
L 285.327489 76.653279 
L 245.15 76.653279 
z
" clip-path="url(#pc531d5cff0)" style="fill: #5cb8b2"/>
   </g>
   <g id="patch_4">
    <path d="M 245.15 87.138019 
L 285.327489 87.138019 
L 285.327489 129.076981 
L 245.15 129.076981 
z
" clip-path="url(#pc531d5cff0)" style="fill: #5cb8b2"/>
   </g>
   <g id="patch_5">
    <path d="M 245.15 139.561721 
L 687.102381 139.561721 
L 687.102381 181.500682 
L 245.15 181.500682 
z
" clip-path="url(#pc531d5cff0)" style="fill: #5cb8b2"/>
   </g>
   <g id="matplotlib.axis_1">
    <g id="xtick_1">
     <g id="line2d_1">
      <defs>
       <path id="mf43886a971" d="M 0 0 
L 0 3.5 
" style="stroke: #666a6d; stroke-width: 0.8"/>
      </defs>
      <g>
       <use xlink:href="#mf43886a971" x="245.15" y="188.84" style="fill: #666a6d; stroke: #666a6d; stroke-width: 0.8"/>
      </g>
     </g>
     <g id="text_1">
      <!-- 0% -->
      <g style="fill: #666a6d" transform="translate(238.544531 202.960313) scale(0.1 -0.1)">
       <defs>
        <path id="SourceSans3-Regular-30" d="M 1594 -77 
Q 979 -77 630 476 
Q 282 1030 282 2054 
Q 282 3085 630 3622 
Q 979 4160 1594 4160 
Q 2202 4160 2550 3622 
Q 2899 3085 2899 2054 
Q 2899 1030 2550 476 
Q 2202 -77 1594 -77 
z
M 1594 346 
Q 1952 346 2169 752 
Q 2387 1158 2387 2054 
Q 2387 2950 2169 3344 
Q 1952 3738 1594 3738 
Q 1235 3738 1014 3344 
Q 794 2950 794 2054 
Q 794 1158 1014 752 
Q 1235 346 1594 346 
z
" transform="scale(0.015625)"/>
        <path id="SourceSans3-Regular-25" d="M 1178 1625 
Q 749 1625 486 1970 
Q 224 2316 224 2956 
Q 224 3584 486 3929 
Q 749 4275 1178 4275 
Q 1606 4275 1868 3929 
Q 2131 3584 2131 2956 
Q 2131 2316 1868 1970 
Q 1606 1625 1178 1625 
z
M 1178 1952 
Q 1421 1952 1574 2204 
Q 1728 2457 1728 2956 
Q 1728 3456 1574 3702 
Q 1421 3948 1178 3948 
Q 928 3948 774 3702 
Q 621 3456 621 2956 
Q 621 2457 774 2204 
Q 928 1952 1178 1952 
z
M 1299 -77 
L 3616 4275 
L 3974 4275 
L 1658 -77 
L 1299 -77 
z
M 4102 -77 
Q 3674 -77 3411 268 
Q 3149 614 3149 1254 
Q 3149 1882 3411 2227 
Q 3674 2573 4102 2573 
Q 4531 2573 4793 2227 
Q 5056 1882 5056 1254 
Q 5056 614 4793 268 
Q 4531 -77 4102 -77 
z
M 4102 250 
Q 4346 250 4499 502 
Q 4653 755 4653 1254 
Q 4653 1754 4499 2000 
Q 4346 2246 4102 2246 
Q 3853 2246 3699 2000 
Q 3546 1754 3546 1254 
Q 3546 755 3699 502 
Q 3853 250 4102 250 
z
" transform="scale(0.015625)"/>
       </defs>
       <use xlink:href="#SourceSans3-Regular-30"/>
       <use xlink:href="#SourceSans3-Regular-25" transform="translate(49.699997 0)"/>
      </g>
     </g>
    </g>
    <g id="xtick_2">
     <g id="line2d_2">
      <g>
       <use xlink:href="#mf43886a971" x="297.380736" y="188.84" style="fill: #666a6d; stroke: #666a6d; stroke-width: 0.8"/>
      </g>
     </g>
     <g id="text_2">
      <!-- 10% -->
      <g style="fill: #666a6d" transform="translate(288.290111 202.960313) scale(0.1 -0.1)">
       <defs>
        <path id="SourceSans3-Regular-31" d="M 506 0 
L 506 435 
L 1440 435 
L 1440 3443 
L 698 3443 
L 698 3782 
Q 979 3834 1187 3907 
Q 1395 3981 1562 4083 
L 1965 4083 
L 1965 435 
L 2810 435 
L 2810 0 
L 506 0 
z
" transform="scale(0.015625)"/>
       </defs>
       <use xlink:href="#SourceSans3-Regular-31"/>
       <use xlink:href="#SourceSans3-Regular-30" transform="translate(49.699997 0)"/>
       <use xlink:href="#SourceSans3-Regular-25" transform="translate(99.399994 0)"/>
      </g>
     </g>
    </g>
    <g id="xtick_3">
     <g id="line2d_3">
      <g>
       <use xlink:href="#mf43886a971" x="349.611472" y="188.84" style="fill: #666a6d; stroke: #666a6d; stroke-width: 0.8"/>
      </g>
     </g>
     <g id="text_3">
      <!-- 20% -->
      <g style="fill: #666a6d" transform="translate(340.520847 202.960313) scale(0.1 -0.1)">
       <defs>
        <path id="SourceSans3-Regular-32" d="M 256 0 
L 256 320 
Q 870 922 1299 1386 
Q 1728 1850 1952 2227 
Q 2176 2605 2176 2931 
Q 2176 3283 1984 3507 
Q 1792 3731 1402 3731 
Q 1146 3731 928 3587 
Q 710 3443 531 3238 
L 237 3526 
Q 493 3814 784 3987 
Q 1075 4160 1466 4160 
Q 2035 4160 2361 3830 
Q 2688 3501 2688 2963 
Q 2688 2566 2467 2176 
Q 2246 1786 1862 1357 
Q 1478 928 979 416 
Q 1146 429 1325 441 
Q 1504 454 1664 454 
L 2893 454 
L 2893 0 
L 256 0 
z
" transform="scale(0.015625)"/>
       </defs>
       <use xlink:href="#SourceSans3-Regular-32"/>
       <use xlink:href="#SourceSans3-Regular-30" transform="translate(49.699997 0)"/>
       <use xlink:href="#SourceSans3-Regular-25" transform="translate(99.399994 0)"/>
      </g>
     </g>
    </g>
    <g id="xtick_4">
     <g id="line2d_4">
      <g>
       <use xlink:href="#mf43886a971" x="401.842208" y="188.84" style="fill: #666a6d; stroke: #666a6d; stroke-width: 0.8"/>
      </g>
     </g>
     <g id="text_4">
      <!-- 30% -->
      <g style="fill: #666a6d" transform="translate(392.751583 202.960313) scale(0.1 -0.1)">
       <defs>
        <path id="SourceSans3-Regular-33" d="M 1510 -77 
Q 1024 -77 697 99 
Q 371 275 166 499 
L 435 845 
Q 621 653 870 505 
Q 1120 358 1478 358 
Q 1850 358 2086 563 
Q 2323 768 2323 1107 
Q 2323 1350 2198 1532 
Q 2074 1715 1789 1817 
Q 1504 1920 1018 1920 
L 1018 2323 
Q 1453 2323 1705 2425 
Q 1958 2528 2067 2701 
Q 2176 2874 2176 3085 
Q 2176 3386 1987 3558 
Q 1798 3731 1472 3731 
Q 1216 3731 1001 3616 
Q 787 3501 602 3315 
L 320 3648 
Q 557 3872 845 4016 
Q 1133 4160 1491 4160 
Q 2022 4160 2368 3888 
Q 2714 3616 2714 3123 
Q 2714 2752 2509 2515 
Q 2304 2278 1971 2150 
L 1971 2125 
Q 2342 2042 2598 1776 
Q 2854 1510 2854 1088 
Q 2854 730 2675 467 
Q 2496 205 2192 64 
Q 1888 -77 1510 -77 
z
" transform="scale(0.015625)"/>
       </defs>
       <use xlink:href="#SourceSans3-Regular-33"/>
       <use xlink:href="#SourceSans3-Regular-30" transform="translate(49.699997 0)"/>
       <use xlink:href="#SourceSans3-Regular-25" transform="translate(99.399994 0)"/>
      </g>
     </g>
    </g>
    <g id="xtick_5">
     <g id="line2d_5">
      <g>
       <use xlink:href="#mf43886a971" x="454.072944" y="188.84" style="fill: #666a6d; stroke: #666a6d; stroke-width: 0.8"/>
      </g>
     </g>
     <g id="text_5">
      <!-- 40% -->
      <g style="fill: #666a6d" transform="translate(444.982319 202.960313) scale(0.1 -0.1)">
       <defs>
        <path id="SourceSans3-Regular-34" d="M 666 1549 
L 1946 1549 
L 1946 2733 
Q 1946 2899 1958 3129 
Q 1971 3360 1978 3520 
L 1952 3520 
Q 1875 3373 1792 3232 
Q 1709 3091 1619 2944 
L 666 1549 
z
M 1946 0 
L 1946 1126 
L 109 1126 
L 109 1472 
L 1856 4083 
L 2445 4083 
L 2445 1549 
L 3002 1549 
L 3002 1126 
L 2445 1126 
L 2445 0 
L 1946 0 
z
" transform="scale(0.015625)"/>
       </defs>
       <use xlink:href="#SourceSans3-Regular-34"/>
       <use xlink:href="#SourceSans3-Regular-30" transform="translate(49.699997 0)"/>
       <use xlink:href="#SourceSans3-Regular-25" transform="translate(99.399994 0)"/>
      </g>
     </g>
    </g>
    <g id="xtick_6">
     <g id="line2d_6">
      <g>
       <use xlink:href="#mf43886a971" x="506.30368" y="188.84" style="fill: #666a6d; stroke: #666a6d; stroke-width: 0.8"/>
      </g>
     </g>
     <g id="text_6">
      <!-- 50% -->
      <g style="fill: #666a6d" transform="translate(497.213055 202.960313) scale(0.1 -0.1)">
       <defs>
        <path id="SourceSans3-Regular-35" d="M 1498 -77 
Q 1011 -77 691 96 
Q 371 269 160 480 
L 416 826 
Q 602 646 845 502 
Q 1088 358 1446 358 
Q 1824 358 2083 611 
Q 2342 864 2342 1293 
Q 2342 1715 2105 1952 
Q 1869 2189 1472 2189 
Q 1261 2189 1110 2125 
Q 960 2061 774 1939 
L 493 2118 
L 627 4083 
L 2669 4083 
L 2669 3629 
L 1088 3629 
L 979 2419 
Q 1126 2496 1273 2541 
Q 1421 2586 1606 2586 
Q 1958 2586 2243 2448 
Q 2528 2310 2701 2028 
Q 2874 1747 2874 1306 
Q 2874 864 2678 553 
Q 2483 243 2169 83 
Q 1856 -77 1498 -77 
z
" transform="scale(0.015625)"/>
       </defs>
       <use xlink:href="#SourceSans3-Regular-35"/>
       <use xlink:href="#SourceSans3-Regular-30" transform="translate(49.699997 0)"/>
       <use xlink:href="#SourceSans3-Regular-25" transform="translate(99.399994 0)"/>
      </g>
     </g>
    </g>
    <g id="xtick_7">
     <g id="line2d_7">
      <g>
       <use xlink:href="#mf43886a971" x="558.534416" y="188.84" style="fill: #666a6d; stroke: #666a6d; stroke-width: 0.8"/>
      </g>
     </g>
     <g id="text_7">
      <!-- 60% -->
      <g style="fill: #666a6d" transform="translate(549.443791 202.960313) scale(0.1 -0.1)">
       <defs>
        <path id="SourceSans3-Regular-36" d="M 1670 2099 
Q 1472 2099 1241 1971 
Q 1011 1843 819 1562 
Q 870 966 1097 652 
Q 1325 339 1715 339 
Q 2016 339 2221 585 
Q 2426 832 2426 1235 
Q 2426 1632 2237 1865 
Q 2048 2099 1670 2099 
z
M 1715 -77 
Q 1318 -77 998 140 
Q 678 358 492 796 
Q 307 1235 307 1888 
Q 307 2707 528 3206 
Q 749 3706 1104 3933 
Q 1459 4160 1862 4160 
Q 2195 4160 2435 4035 
Q 2675 3910 2848 3725 
L 2554 3398 
Q 2432 3546 2253 3632 
Q 2074 3718 1882 3718 
Q 1594 3718 1357 3555 
Q 1120 3392 969 3011 
Q 819 2630 806 1984 
Q 998 2221 1254 2358 
Q 1510 2496 1760 2496 
Q 2291 2496 2608 2179 
Q 2925 1862 2925 1235 
Q 2925 845 2758 550 
Q 2592 256 2320 89 
Q 2048 -77 1715 -77 
z
" transform="scale(0.015625)"/>
       </defs>
       <use xlink:href="#SourceSans3-Regular-36"/>
       <use xlink:href="#SourceSans3-Regular-30" transform="translate(49.699997 0)"/>
       <use xlink:href="#SourceSans3-Regular-25" transform="translate(99.399994 0)"/>
      </g>
     </g>
    </g>
    <g id="xtick_8">
     <g id="line2d_8">
      <g>
       <use xlink:href="#mf43886a971" x="610.765152" y="188.84" style="fill: #666a6d; stroke: #666a6d; stroke-width: 0.8"/>
      </g>
     </g>
     <g id="text_8">
      <!-- 70% -->
      <g style="fill: #666a6d" transform="translate(601.674527 202.960313) scale(0.1 -0.1)">
       <defs>
        <path id="SourceSans3-Regular-37" d="M 1094 0 
Q 1133 768 1261 1376 
Q 1389 1984 1648 2525 
Q 1907 3066 2323 3629 
L 282 3629 
L 282 4083 
L 2912 4083 
L 2912 3757 
Q 2541 3290 2304 2867 
Q 2067 2445 1932 2009 
Q 1798 1574 1731 1084 
Q 1664 595 1638 0 
L 1094 0 
z
" transform="scale(0.015625)"/>
       </defs>
       <use xlink:href="#SourceSans3-Regular-37"/>
       <use xlink:href="#SourceSans3-Regular-30" transform="translate(49.699997 0)"/>
       <use xlink:href="#SourceSans3-Regular-25" transform="translate(99.399994 0)"/>
      </g>
     </g>
    </g>
    <g id="xtick_9">
     <g id="line2d_9">
      <g>
       <use xlink:href="#mf43886a971" x="662.995887" y="188.84" style="fill: #666a6d; stroke: #666a6d; stroke-width: 0.8"/>
      </g>
     </g>
     <g id="text_9">
      <!-- 80% -->
      <g style="fill: #666a6d" transform="translate(653.905262 202.960313) scale(0.1 -0.1)">
       <defs>
        <path id="SourceSans3-Regular-38" d="M 1600 -77 
Q 1216 -77 915 67 
Q 614 211 438 467 
Q 262 723 262 1043 
Q 262 1312 374 1520 
Q 486 1728 662 1885 
Q 838 2042 1030 2144 
L 1030 2170 
Q 806 2330 633 2560 
Q 461 2790 461 3110 
Q 461 3424 614 3661 
Q 768 3898 1030 4029 
Q 1293 4160 1619 4160 
Q 2150 4160 2460 3853 
Q 2771 3546 2771 3072 
Q 2771 2861 2681 2672 
Q 2592 2483 2464 2332 
Q 2336 2182 2208 2086 
L 2208 2061 
Q 2394 1958 2554 1817 
Q 2714 1677 2816 1481 
Q 2918 1286 2918 1011 
Q 2918 710 2755 460 
Q 2592 211 2294 67 
Q 1997 -77 1600 -77 
z
M 1888 2227 
Q 2093 2413 2205 2617 
Q 2317 2822 2317 3046 
Q 2317 3347 2131 3558 
Q 1946 3770 1606 3770 
Q 1325 3770 1136 3590 
Q 947 3411 947 3110 
Q 947 2867 1078 2707 
Q 1210 2547 1427 2435 
Q 1645 2323 1888 2227 
z
M 1613 314 
Q 1971 314 2192 515 
Q 2413 717 2413 1030 
Q 2413 1293 2259 1459 
Q 2106 1626 1853 1747 
Q 1600 1869 1306 1984 
Q 1062 1824 899 1600 
Q 736 1376 736 1094 
Q 736 755 989 534 
Q 1242 314 1613 314 
z
" transform="scale(0.015625)"/>
       </defs>
       <use xlink:href="#SourceSans3-Regular-38"/>
       <use xlink:href="#SourceSans3-Regular-30" transform="translate(49.699997 0)"/>
       <use xlink:href="#SourceSans3-Regular-25" transform="translate(99.399994 0)"/>
      </g>
     </g>
    </g>
   </g>
   <g id="matplotlib.axis_2">
    <g id="ytick_1">
     <g id="line2d_10"/>
     <g id="text_10">
      <!-- Organizational ethics and best practices policy -->
      <g transform="translate(47.429688 59.243955) scale(0.1 -0.1)">
       <defs>
        <path id="SourceSans3-Regular-4f" d="M 2125 -77 
Q 1600 -77 1193 192 
Q 787 461 560 953 
Q 333 1446 333 2118 
Q 333 2790 560 3273 
Q 787 3757 1193 4016 
Q 1600 4275 2125 4275 
Q 2656 4275 3059 4016 
Q 3462 3757 3692 3273 
Q 3923 2790 3923 2118 
Q 3923 1446 3692 953 
Q 3462 461 3059 192 
Q 2656 -77 2125 -77 
z
M 2125 390 
Q 2502 390 2780 604 
Q 3059 819 3212 1206 
Q 3366 1594 3366 2118 
Q 3366 2899 3027 3353 
Q 2688 3808 2125 3808 
Q 1562 3808 1222 3353 
Q 883 2899 883 2118 
Q 883 1594 1036 1206 
Q 1190 819 1472 604 
Q 1754 390 2125 390 
z
" transform="scale(0.015625)"/>
        <path id="SourceSans3-Regular-72" d="M 525 0 
L 525 3110 
L 960 3110 
L 1005 2547 
L 1024 2547 
Q 1178 2842 1408 3014 
Q 1638 3187 1907 3187 
Q 2093 3187 2240 3123 
L 2125 2675 
Q 2054 2694 1993 2704 
Q 1933 2714 1837 2714 
Q 1638 2714 1424 2554 
Q 1210 2394 1050 1997 
L 1050 0 
L 525 0 
z
" transform="scale(0.015625)"/>
        <path id="SourceSans3-Regular-67" d="M 1574 -1434 
Q 1005 -1434 646 -1216 
Q 288 -998 288 -595 
Q 288 -397 409 -214 
Q 531 -32 742 109 
L 742 134 
Q 627 205 547 333 
Q 467 461 467 640 
Q 467 838 576 985 
Q 685 1133 806 1216 
L 806 1242 
Q 653 1370 528 1587 
Q 403 1805 403 2080 
Q 403 2419 563 2668 
Q 723 2918 992 3052 
Q 1261 3187 1574 3187 
Q 1702 3187 1817 3164 
Q 1933 3142 2016 3110 
L 3098 3110 
L 3098 2707 
L 2451 2707 
L 2451 2682 
Q 2560 2579 2637 2425 
Q 2714 2272 2714 2061 
Q 2714 1734 2560 1491 
Q 2406 1248 2150 1117 
Q 1894 986 1574 986 
Q 1325 986 1107 1094 
Q 1024 1024 966 937 
Q 909 851 909 723 
Q 909 576 1027 480 
Q 1146 384 1459 384 
L 2061 384 
Q 2605 384 2877 208 
Q 3149 32 3149 -358 
Q 3149 -646 2957 -889 
Q 2765 -1133 2413 -1283 
Q 2061 -1434 1574 -1434 
z
M 1574 1338 
Q 1843 1338 2038 1539 
Q 2234 1741 2234 2080 
Q 2234 2419 2042 2611 
Q 1850 2803 1574 2803 
Q 1299 2803 1107 2611 
Q 915 2419 915 2080 
Q 915 1741 1110 1539 
Q 1306 1338 1574 1338 
z
M 1651 -1069 
Q 2099 -1069 2368 -873 
Q 2637 -678 2637 -435 
Q 2637 -218 2473 -134 
Q 2310 -51 2010 -51 
L 1472 -51 
Q 1382 -51 1276 -38 
Q 1171 -26 1069 0 
Q 902 -122 825 -256 
Q 749 -390 749 -525 
Q 749 -774 989 -921 
Q 1229 -1069 1651 -1069 
z
" transform="scale(0.015625)"/>
        <path id="SourceSans3-Regular-61" d="M 1242 -77 
Q 851 -77 588 153 
Q 326 384 326 806 
Q 326 1331 787 1600 
Q 1248 1869 2246 1978 
Q 2246 2176 2188 2349 
Q 2131 2522 1993 2634 
Q 1856 2746 1600 2746 
Q 1331 2746 1094 2643 
Q 858 2541 672 2426 
L 467 2784 
Q 685 2931 1001 3059 
Q 1318 3187 1690 3187 
Q 2259 3187 2515 2838 
Q 2771 2490 2771 1907 
L 2771 0 
L 2336 0 
L 2291 371 
L 2272 371 
Q 2042 186 1789 54 
Q 1536 -77 1242 -77 
z
M 1389 358 
Q 1613 358 1817 460 
Q 2022 563 2246 762 
L 2246 1600 
Q 1722 1542 1414 1440 
Q 1107 1338 976 1190 
Q 845 1043 845 838 
Q 845 582 1005 470 
Q 1165 358 1389 358 
z
" transform="scale(0.015625)"/>
        <path id="SourceSans3-Regular-6e" d="M 525 0 
L 525 3110 
L 960 3110 
L 1005 2662 
L 1024 2662 
Q 1248 2886 1497 3036 
Q 1747 3187 2067 3187 
Q 2560 3187 2787 2876 
Q 3014 2566 3014 1971 
L 3014 0 
L 2490 0 
L 2490 1901 
Q 2490 2336 2349 2534 
Q 2208 2733 1901 2733 
Q 1664 2733 1475 2611 
Q 1286 2490 1050 2253 
L 1050 0 
L 525 0 
z
" transform="scale(0.015625)"/>
        <path id="SourceSans3-Regular-69" d="M 525 0 
L 525 3110 
L 1050 3110 
L 1050 0 
L 525 0 
z
M 787 3750 
Q 634 3750 534 3843 
Q 435 3936 435 4096 
Q 435 4250 534 4346 
Q 634 4442 787 4442 
Q 941 4442 1040 4346 
Q 1139 4250 1139 4096 
Q 1139 3936 1040 3843 
Q 941 3750 787 3750 
z
" transform="scale(0.015625)"/>
        <path id="SourceSans3-Regular-7a" d="M 198 0 
L 198 282 
L 1837 2682 
L 378 2682 
L 378 3110 
L 2502 3110 
L 2502 2829 
L 864 429 
L 2554 429 
L 2554 0 
L 198 0 
z
" transform="scale(0.015625)"/>
        <path id="SourceSans3-Regular-74" d="M 1504 -58 
Q 1005 -58 809 227 
Q 614 512 614 979 
L 614 2682 
L 154 2682 
L 154 3078 
L 640 3110 
L 704 4109 
L 1146 4109 
L 1146 3110 
L 1984 3110 
L 1984 2682 
L 1146 2682 
L 1146 966 
Q 1146 685 1251 528 
Q 1357 371 1626 371 
Q 1709 371 1798 387 
Q 1888 403 1978 448 
L 2086 77 
Q 1965 13 1814 -22 
Q 1664 -58 1504 -58 
z
" transform="scale(0.015625)"/>
        <path id="SourceSans3-Regular-6f" d="M 1734 -77 
Q 1357 -77 1027 115 
Q 698 307 496 672 
Q 294 1037 294 1549 
Q 294 2074 496 2438 
Q 698 2803 1027 2995 
Q 1357 3187 1734 3187 
Q 2118 3187 2444 2995 
Q 2771 2803 2972 2438 
Q 3174 2074 3174 1549 
Q 3174 1037 2972 672 
Q 2771 307 2444 115 
Q 2118 -77 1734 -77 
z
M 1734 358 
Q 2138 358 2384 688 
Q 2630 1018 2630 1549 
Q 2630 2086 2384 2419 
Q 2138 2752 1734 2752 
Q 1338 2752 1088 2419 
Q 838 2086 838 1549 
Q 838 1018 1088 688 
Q 1338 358 1734 358 
z
" transform="scale(0.015625)"/>
        <path id="SourceSans3-Regular-6c" d="M 1082 -58 
Q 787 -58 656 124 
Q 525 307 525 640 
L 525 4557 
L 1050 4557 
L 1050 602 
Q 1050 480 1094 429 
Q 1139 378 1203 378 
Q 1229 378 1251 381 
Q 1274 384 1312 390 
L 1382 -6 
Q 1267 -58 1082 -58 
z
" transform="scale(0.015625)"/>
        <path id="SourceSans3-Regular-20" transform="scale(0.015625)"/>
        <path id="SourceSans3-Regular-65" d="M 1702 2758 
Q 1510 2758 1328 2665 
Q 1146 2573 1014 2368 
Q 883 2163 838 1830 
L 2458 1830 
Q 2458 2285 2259 2521 
Q 2061 2758 1702 2758 
z
M 1786 -77 
Q 1370 -77 1027 115 
Q 685 307 486 675 
Q 288 1043 288 1555 
Q 288 2061 489 2425 
Q 691 2790 1014 2988 
Q 1338 3187 1696 3187 
Q 2298 3187 2614 2790 
Q 2931 2394 2931 1728 
Q 2931 1645 2924 1568 
Q 2918 1491 2906 1414 
L 826 1414 
Q 864 890 1161 621 
Q 1459 352 1850 352 
Q 2074 352 2269 416 
Q 2464 480 2624 589 
L 2816 243 
Q 2611 102 2358 12 
Q 2106 -77 1786 -77 
z
" transform="scale(0.015625)"/>
        <path id="SourceSans3-Regular-68" d="M 525 0 
L 525 4557 
L 1050 4557 
L 1050 3315 
L 1030 2675 
Q 1254 2886 1500 3036 
Q 1747 3187 2067 3187 
Q 2560 3187 2787 2876 
Q 3014 2566 3014 1971 
L 3014 0 
L 2490 0 
L 2490 1901 
Q 2490 2336 2349 2534 
Q 2208 2733 1901 2733 
Q 1664 2733 1475 2611 
Q 1286 2490 1050 2253 
L 1050 0 
L 525 0 
z
" transform="scale(0.015625)"/>
        <path id="SourceSans3-Regular-63" d="M 1760 -77 
Q 1344 -77 1011 115 
Q 678 307 486 672 
Q 294 1037 294 1549 
Q 294 2074 502 2438 
Q 710 2803 1052 2995 
Q 1395 3187 1792 3187 
Q 2099 3187 2320 3084 
Q 2541 2982 2701 2822 
L 2438 2502 
Q 2317 2611 2166 2681 
Q 2016 2752 1811 2752 
Q 1536 2752 1315 2601 
Q 1094 2451 966 2179 
Q 838 1907 838 1549 
Q 838 1018 1107 688 
Q 1376 358 1805 358 
Q 2016 358 2201 441 
Q 2387 525 2528 653 
L 2758 333 
Q 2566 147 2313 35 
Q 2061 -77 1760 -77 
z
" transform="scale(0.015625)"/>
        <path id="SourceSans3-Regular-73" d="M 1338 -77 
Q 998 -77 697 41 
Q 397 160 179 371 
L 422 678 
Q 627 512 848 422 
Q 1069 333 1357 333 
Q 1664 333 1817 477 
Q 1971 621 1971 819 
Q 1971 979 1868 1084 
Q 1766 1190 1606 1264 
Q 1446 1338 1267 1402 
Q 1037 1485 825 1597 
Q 614 1709 483 1878 
Q 352 2048 352 2304 
Q 352 2682 637 2934 
Q 922 3187 1427 3187 
Q 1715 3187 1964 3088 
Q 2214 2989 2394 2835 
L 2150 2534 
Q 1990 2650 1814 2714 
Q 1638 2778 1427 2778 
Q 1133 2778 995 2643 
Q 858 2509 858 2330 
Q 858 2118 1043 2009 
Q 1229 1901 1517 1798 
Q 1760 1715 1981 1600 
Q 2202 1485 2339 1309 
Q 2477 1133 2477 851 
Q 2477 602 2345 390 
Q 2214 179 1961 51 
Q 1709 -77 1338 -77 
z
" transform="scale(0.015625)"/>
        <path id="SourceSans3-Regular-64" d="M 1587 -77 
Q 1005 -77 653 348 
Q 301 774 301 1549 
Q 301 2054 489 2422 
Q 678 2790 988 2988 
Q 1299 3187 1651 3187 
Q 1920 3187 2118 3091 
Q 2317 2995 2522 2829 
L 2496 3360 
L 2496 4557 
L 3027 4557 
L 3027 0 
L 2592 0 
L 2547 365 
L 2528 365 
Q 2349 186 2105 54 
Q 1862 -77 1587 -77 
z
M 1702 365 
Q 2112 365 2496 794 
L 2496 2419 
Q 2298 2598 2115 2672 
Q 1933 2746 1741 2746 
Q 1491 2746 1289 2595 
Q 1088 2445 966 2179 
Q 845 1914 845 1555 
Q 845 998 1069 681 
Q 1293 365 1702 365 
z
" transform="scale(0.015625)"/>
        <path id="SourceSans3-Regular-62" d="M 1901 -77 
Q 1683 -77 1449 28 
Q 1216 134 1011 320 
L 992 320 
L 947 0 
L 525 0 
L 525 4557 
L 1050 4557 
L 1050 3315 
L 1037 2752 
Q 1248 2938 1501 3062 
Q 1754 3187 2010 3187 
Q 2618 3187 2931 2758 
Q 3245 2330 3245 1606 
Q 3245 1075 3056 697 
Q 2867 320 2563 121 
Q 2259 -77 1901 -77 
z
M 1811 365 
Q 2195 365 2448 694 
Q 2701 1024 2701 1600 
Q 2701 2112 2512 2429 
Q 2323 2746 1882 2746 
Q 1683 2746 1478 2637 
Q 1274 2528 1050 2323 
L 1050 691 
Q 1254 512 1456 438 
Q 1658 365 1811 365 
z
" transform="scale(0.015625)"/>
        <path id="SourceSans3-Regular-70" d="M 525 -1312 
L 525 3110 
L 960 3110 
L 1005 2752 
L 1024 2752 
Q 1235 2931 1488 3059 
Q 1741 3187 2016 3187 
Q 2618 3187 2931 2755 
Q 3245 2323 3245 1600 
Q 3245 1075 3056 697 
Q 2867 320 2563 121 
Q 2259 -77 1901 -77 
Q 1683 -77 1468 19 
Q 1254 115 1037 282 
L 1050 -262 
L 1050 -1312 
L 525 -1312 
z
M 1811 365 
Q 2195 365 2448 694 
Q 2701 1024 2701 1600 
Q 2701 2112 2512 2429 
Q 2323 2746 1882 2746 
Q 1683 2746 1481 2637 
Q 1280 2528 1050 2323 
L 1050 691 
Q 1261 512 1459 438 
Q 1658 365 1811 365 
z
" transform="scale(0.015625)"/>
        <path id="SourceSans3-Regular-79" d="M 576 -1338 
Q 474 -1338 381 -1318 
Q 288 -1299 211 -1274 
L 326 -864 
Q 442 -902 550 -902 
Q 813 -902 985 -713 
Q 1158 -525 1254 -237 
L 1325 -6 
L 77 3110 
L 621 3110 
L 1254 1389 
Q 1325 1190 1405 960 
Q 1485 730 1555 512 
L 1581 512 
Q 1651 723 1715 953 
Q 1779 1184 1843 1389 
L 2400 3110 
L 2912 3110 
L 1741 -256 
Q 1632 -563 1481 -806 
Q 1331 -1050 1110 -1194 
Q 890 -1338 576 -1338 
z
" transform="scale(0.015625)"/>
       </defs>
       <use xlink:href="#SourceSans3-Regular-4f"/>
       <use xlink:href="#SourceSans3-Regular-72" transform="translate(66.399994 0)"/>
       <use xlink:href="#SourceSans3-Regular-67" transform="translate(101.099991 0)"/>
       <use xlink:href="#SourceSans3-Regular-61" transform="translate(151.499985 0)"/>
       <use xlink:href="#SourceSans3-Regular-6e" transform="translate(201.899979 0)"/>
       <use xlink:href="#SourceSans3-Regular-69" transform="translate(256.599976 0)"/>
       <use xlink:href="#SourceSans3-Regular-7a" transform="translate(281.199966 0)"/>
       <use xlink:href="#SourceSans3-Regular-61" transform="translate(323.699951 0)"/>
       <use xlink:href="#SourceSans3-Regular-74" transform="translate(374.099945 0)"/>
       <use xlink:href="#SourceSans3-Regular-69" transform="translate(407.899933 0)"/>
       <use xlink:href="#SourceSans3-Regular-6f" transform="translate(432.499924 0)"/>
       <use xlink:href="#SourceSans3-Regular-6e" transform="translate(486.699921 0)"/>
       <use xlink:href="#SourceSans3-Regular-61" transform="translate(541.399918 0)"/>
       <use xlink:href="#SourceSans3-Regular-6c" transform="translate(591.799911 0)"/>
       <use xlink:href="#SourceSans3-Regular-20" transform="translate(617.299896 0)"/>
       <use xlink:href="#SourceSans3-Regular-65" transform="translate(637.299881 0)"/>
       <use xlink:href="#SourceSans3-Regular-74" transform="translate(686.899872 0)"/>
       <use xlink:href="#SourceSans3-Regular-68" transform="translate(720.69986 0)"/>
       <use xlink:href="#SourceSans3-Regular-69" transform="translate(775.099854 0)"/>
       <use xlink:href="#SourceSans3-Regular-63" transform="translate(799.699844 0)"/>
       <use xlink:href="#SourceSans3-Regular-73" transform="translate(845.299835 0)"/>
       <use xlink:href="#SourceSans3-Regular-20" transform="translate(887.199829 0)"/>
       <use xlink:href="#SourceSans3-Regular-61" transform="translate(907.199814 0)"/>
       <use xlink:href="#SourceSans3-Regular-6e" transform="translate(957.599808 0)"/>
       <use xlink:href="#SourceSans3-Regular-64" transform="translate(1012.299805 0)"/>
       <use xlink:href="#SourceSans3-Regular-20" transform="translate(1067.799789 0)"/>
       <use xlink:href="#SourceSans3-Regular-62" transform="translate(1087.799774 0)"/>
       <use xlink:href="#SourceSans3-Regular-65" transform="translate(1143.099762 0)"/>
       <use xlink:href="#SourceSans3-Regular-73" transform="translate(1192.699753 0)"/>
       <use xlink:href="#SourceSans3-Regular-74" transform="translate(1234.599747 0)"/>
       <use xlink:href="#SourceSans3-Regular-20" transform="translate(1268.399734 0)"/>
       <use xlink:href="#SourceSans3-Regular-70" transform="translate(1288.399719 0)"/>
       <use xlink:href="#SourceSans3-Regular-72" transform="translate(1343.899704 0)"/>
       <use xlink:href="#SourceSans3-Regular-61" transform="translate(1378.599701 0)"/>
       <use xlink:href="#SourceSans3-Regular-63" transform="translate(1428.999695 0)"/>
       <use xlink:href="#SourceSans3-Regular-74" transform="translate(1474.599686 0)"/>
       <use xlink:href="#SourceSans3-Regular-69" transform="translate(1508.399673 0)"/>
       <use xlink:href="#SourceSans3-Regular-63" transform="translate(1532.999664 0)"/>
       <use xlink:href="#SourceSans3-Regular-65" transform="translate(1578.599655 0)"/>
       <use xlink:href="#SourceSans3-Regular-73" transform="translate(1628.199646 0)"/>
       <use xlink:href="#SourceSans3-Regular-20" transform="translate(1670.09964 0)"/>
       <use xlink:href="#SourceSans3-Regular-70" transform="translate(1690.099625 0)"/>
       <use xlink:href="#SourceSans3-Regular-6f" transform="translate(1745.599609 0)"/>
       <use xlink:href="#SourceSans3-Regular-6c" transform="translate(1799.799606 0)"/>
       <use xlink:href="#SourceSans3-Regular-69" transform="translate(1825.299591 0)"/>
       <use xlink:href="#SourceSans3-Regular-63" transform="translate(1849.899582 0)"/>
       <use xlink:href="#SourceSans3-Regular-79" transform="translate(1895.499573 0)"/>
      </g>
     </g>
    </g>
    <g id="ytick_2">
     <g id="line2d_11"/>
     <g id="text_11">
      <!-- IASC Guidance on data responsibility -->
      <g transform="translate(88.21875 111.667656) scale(0.1 -0.1)">
       <defs>
        <path id="SourceSans3-Regular-49" d="M 576 0 
L 576 4198 
L 1107 4198 
L 1107 0 
L 576 0 
z
" transform="scale(0.015625)"/>
        <path id="SourceSans3-Regular-41" d="M 1299 2349 
L 1101 1709 
L 2362 1709 
L 2163 2349 
Q 2048 2701 1945 3049 
Q 1843 3398 1741 3763 
L 1715 3763 
Q 1619 3398 1516 3049 
Q 1414 2701 1299 2349 
z
M 19 0 
L 1440 4198 
L 2042 4198 
L 3462 0 
L 2893 0 
L 2496 1280 
L 966 1280 
L 563 0 
L 19 0 
z
" transform="scale(0.015625)"/>
        <path id="SourceSans3-Regular-53" d="M 1741 -77 
Q 1293 -77 918 89 
Q 544 256 269 550 
L 570 896 
Q 794 659 1104 524 
Q 1414 390 1747 390 
Q 2163 390 2393 579 
Q 2624 768 2624 1075 
Q 2624 1293 2531 1421 
Q 2438 1549 2281 1638 
Q 2125 1728 1926 1818 
L 1325 2080 
Q 1126 2170 928 2304 
Q 730 2438 602 2649 
Q 474 2861 474 3162 
Q 474 3482 643 3734 
Q 813 3987 1110 4131 
Q 1408 4275 1792 4275 
Q 2176 4275 2496 4134 
Q 2816 3994 3034 3770 
L 2746 3424 
Q 2547 3597 2310 3702 
Q 2074 3808 1792 3808 
Q 1440 3808 1225 3641 
Q 1011 3475 1011 3194 
Q 1011 2995 1116 2864 
Q 1222 2733 1382 2649 
Q 1542 2566 1709 2496 
L 2304 2240 
Q 2682 2080 2925 1833 
Q 3168 1587 3168 1120 
Q 3168 787 2995 515 
Q 2822 243 2505 83 
Q 2189 -77 1741 -77 
z
" transform="scale(0.015625)"/>
        <path id="SourceSans3-Regular-43" d="M 2170 -77 
Q 1645 -77 1229 182 
Q 813 442 573 928 
Q 333 1414 333 2099 
Q 333 2778 576 3264 
Q 819 3750 1241 4012 
Q 1664 4275 2195 4275 
Q 2573 4275 2870 4124 
Q 3168 3974 3347 3757 
L 3059 3430 
Q 2893 3610 2678 3709 
Q 2464 3808 2202 3808 
Q 1811 3808 1513 3600 
Q 1216 3392 1049 3014 
Q 883 2637 883 2112 
Q 883 1587 1046 1200 
Q 1210 813 1507 601 
Q 1805 390 2208 390 
Q 2502 390 2736 502 
Q 2970 614 3168 832 
L 3443 525 
Q 3187 237 2883 80 
Q 2579 -77 2170 -77 
z
" transform="scale(0.015625)"/>
        <path id="SourceSans3-Regular-47" d="M 2227 -77 
Q 1677 -77 1248 182 
Q 819 442 576 928 
Q 333 1414 333 2099 
Q 333 2778 582 3264 
Q 832 3750 1267 4012 
Q 1702 4275 2259 4275 
Q 2694 4275 2992 4115 
Q 3290 3955 3469 3757 
L 3174 3424 
Q 3014 3590 2803 3699 
Q 2592 3808 2272 3808 
Q 1850 3808 1536 3600 
Q 1222 3392 1052 3014 
Q 883 2637 883 2112 
Q 883 1318 1244 854 
Q 1606 390 2278 390 
Q 2502 390 2707 457 
Q 2912 525 3034 640 
L 3034 1734 
L 2144 1734 
L 2144 2176 
L 3520 2176 
L 3520 410 
Q 3322 198 2986 60 
Q 2650 -77 2227 -77 
z
" transform="scale(0.015625)"/>
        <path id="SourceSans3-Regular-75" d="M 1434 -77 
Q 941 -77 710 233 
Q 480 544 480 1139 
L 480 3110 
L 1011 3110 
L 1011 1210 
Q 1011 774 1148 576 
Q 1286 378 1594 378 
Q 1837 378 2025 502 
Q 2214 627 2432 902 
L 2432 3110 
L 2957 3110 
L 2957 0 
L 2522 0 
L 2477 486 
L 2458 486 
Q 2240 230 1997 76 
Q 1754 -77 1434 -77 
z
" transform="scale(0.015625)"/>
       </defs>
       <use xlink:href="#SourceSans3-Regular-49"/>
       <use xlink:href="#SourceSans3-Regular-41" transform="translate(26.299988 0)"/>
       <use xlink:href="#SourceSans3-Regular-53" transform="translate(80.699982 0)"/>
       <use xlink:href="#SourceSans3-Regular-43" transform="translate(134.099976 0)"/>
       <use xlink:href="#SourceSans3-Regular-20" transform="translate(191.199966 0)"/>
       <use xlink:href="#SourceSans3-Regular-47" transform="translate(211.199951 0)"/>
       <use xlink:href="#SourceSans3-Regular-75" transform="translate(272.899948 0)"/>
       <use xlink:href="#SourceSans3-Regular-69" transform="translate(327.299942 0)"/>
       <use xlink:href="#SourceSans3-Regular-64" transform="translate(351.899933 0)"/>
       <use xlink:href="#SourceSans3-Regular-61" transform="translate(407.399918 0)"/>
       <use xlink:href="#SourceSans3-Regular-6e" transform="translate(457.799911 0)"/>
       <use xlink:href="#SourceSans3-Regular-63" transform="translate(512.499908 0)"/>
       <use xlink:href="#SourceSans3-Regular-65" transform="translate(558.099899 0)"/>
       <use xlink:href="#SourceSans3-Regular-20" transform="translate(607.69989 0)"/>
       <use xlink:href="#SourceSans3-Regular-6f" transform="translate(627.699875 0)"/>
       <use xlink:href="#SourceSans3-Regular-6e" transform="translate(681.899872 0)"/>
       <use xlink:href="#SourceSans3-Regular-20" transform="translate(736.599869 0)"/>
       <use xlink:href="#SourceSans3-Regular-64" transform="translate(756.599854 0)"/>
       <use xlink:href="#SourceSans3-Regular-61" transform="translate(812.099838 0)"/>
       <use xlink:href="#SourceSans3-Regular-74" transform="translate(862.499832 0)"/>
       <use xlink:href="#SourceSans3-Regular-61" transform="translate(896.29982 0)"/>
       <use xlink:href="#SourceSans3-Regular-20" transform="translate(946.699814 0)"/>
       <use xlink:href="#SourceSans3-Regular-72" transform="translate(966.699799 0)"/>
       <use xlink:href="#SourceSans3-Regular-65" transform="translate(1001.399796 0)"/>
       <use xlink:href="#SourceSans3-Regular-73" transform="translate(1050.999786 0)"/>
       <use xlink:href="#SourceSans3-Regular-70" transform="translate(1092.89978 0)"/>
       <use xlink:href="#SourceSans3-Regular-6f" transform="translate(1148.399765 0)"/>
       <use xlink:href="#SourceSans3-Regular-6e" transform="translate(1202.599762 0)"/>
       <use xlink:href="#SourceSans3-Regular-73" transform="translate(1257.299759 0)"/>
       <use xlink:href="#SourceSans3-Regular-69" transform="translate(1299.199753 0)"/>
       <use xlink:href="#SourceSans3-Regular-62" transform="translate(1323.799744 0)"/>
       <use xlink:href="#SourceSans3-Regular-69" transform="translate(1379.099731 0)"/>
       <use xlink:href="#SourceSans3-Regular-6c" transform="translate(1403.699722 0)"/>
       <use xlink:href="#SourceSans3-Regular-69" transform="translate(1429.199707 0)"/>
       <use xlink:href="#SourceSans3-Regular-74" transform="translate(1453.799698 0)"/>
       <use xlink:href="#SourceSans3-Regular-79" transform="translate(1487.599686 0)"/>
      </g>
     </g>
    </g>
    <g id="ytick_3">
     <g id="line2d_12"/>
     <g id="text_12">
      <!-- Organizational Data Protection/data governance Policy -->
      <g transform="translate(11.2375 164.091358) scale(0.1 -0.1)">
       <defs>
        <path id="SourceSans3-Regular-44" d="M 576 0 
L 576 4198 
L 1626 4198 
Q 2598 4198 3104 3657 
Q 3610 3117 3610 2118 
Q 3610 1114 3107 557 
Q 2605 0 1651 0 
L 576 0 
z
M 1107 435 
L 1587 435 
Q 2323 435 2691 880 
Q 3059 1325 3059 2118 
Q 3059 2912 2691 3337 
Q 2323 3763 1587 3763 
L 1107 3763 
L 1107 435 
z
" transform="scale(0.015625)"/>
        <path id="SourceSans3-Regular-50" d="M 576 0 
L 576 4198 
L 1773 4198 
Q 2246 4198 2598 4083 
Q 2950 3968 3148 3696 
Q 3347 3424 3347 2963 
Q 3347 2304 2918 1984 
Q 2490 1664 1798 1664 
L 1107 1664 
L 1107 0 
L 576 0 
z
M 1107 2099 
L 1734 2099 
Q 2285 2099 2550 2307 
Q 2816 2515 2816 2963 
Q 2816 3418 2537 3594 
Q 2259 3770 1709 3770 
L 1107 3770 
L 1107 2099 
z
" transform="scale(0.015625)"/>
        <path id="SourceSans3-Regular-2f" d="M 64 -1024 
L 1773 4544 
L 2157 4544 
L 448 -1024 
L 64 -1024 
z
" transform="scale(0.015625)"/>
        <path id="SourceSans3-Regular-76" d="M 1197 0 
L 77 3110 
L 621 3110 
L 1210 1344 
Q 1280 1114 1353 883 
Q 1427 653 1498 429 
L 1523 429 
Q 1594 653 1667 883 
Q 1741 1114 1805 1344 
L 2394 3110 
L 2912 3110 
L 1811 0 
L 1197 0 
z
" transform="scale(0.015625)"/>
       </defs>
       <use xlink:href="#SourceSans3-Regular-4f"/>
       <use xlink:href="#SourceSans3-Regular-72" transform="translate(66.399994 0)"/>
       <use xlink:href="#SourceSans3-Regular-67" transform="translate(101.099991 0)"/>
       <use xlink:href="#SourceSans3-Regular-61" transform="translate(151.499985 0)"/>
       <use xlink:href="#SourceSans3-Regular-6e" transform="translate(201.899979 0)"/>
       <use xlink:href="#SourceSans3-Regular-69" transform="translate(256.599976 0)"/>
       <use xlink:href="#SourceSans3-Regular-7a" transform="translate(281.199966 0)"/>
       <use xlink:href="#SourceSans3-Regular-61" transform="translate(323.699951 0)"/>
       <use xlink:href="#SourceSans3-Regular-74" transform="translate(374.099945 0)"/>
       <use xlink:href="#SourceSans3-Regular-69" transform="translate(407.899933 0)"/>
       <use xlink:href="#SourceSans3-Regular-6f" transform="translate(432.499924 0)"/>
       <use xlink:href="#SourceSans3-Regular-6e" transform="translate(486.699921 0)"/>
       <use xlink:href="#SourceSans3-Regular-61" transform="translate(541.399918 0)"/>
       <use xlink:href="#SourceSans3-Regular-6c" transform="translate(591.799911 0)"/>
       <use xlink:href="#SourceSans3-Regular-20" transform="translate(617.299896 0)"/>
       <use xlink:href="#SourceSans3-Regular-44" transform="translate(637.299881 0)"/>
       <use xlink:href="#SourceSans3-Regular-61" transform="translate(698.799866 0)"/>
       <use xlink:href="#SourceSans3-Regular-74" transform="translate(749.19986 0)"/>
       <use xlink:href="#SourceSans3-Regular-61" transform="translate(782.999847 0)"/>
       <use xlink:href="#SourceSans3-Regular-20" transform="translate(833.399841 0)"/>
       <use xlink:href="#SourceSans3-Regular-50" transform="translate(853.399826 0)"/>
       <use xlink:href="#SourceSans3-Regular-72" transform="translate(909.999817 0)"/>
       <use xlink:href="#SourceSans3-Regular-6f" transform="translate(944.699814 0)"/>
       <use xlink:href="#SourceSans3-Regular-74" transform="translate(998.899811 0)"/>
       <use xlink:href="#SourceSans3-Regular-65" transform="translate(1032.699799 0)"/>
       <use xlink:href="#SourceSans3-Regular-63" transform="translate(1082.299789 0)"/>
       <use xlink:href="#SourceSans3-Regular-74" transform="translate(1127.89978 0)"/>
       <use xlink:href="#SourceSans3-Regular-69" transform="translate(1161.699768 0)"/>
       <use xlink:href="#SourceSans3-Regular-6f" transform="translate(1186.299759 0)"/>
       <use xlink:href="#SourceSans3-Regular-6e" transform="translate(1240.499756 0)"/>
       <use xlink:href="#SourceSans3-Regular-2f" transform="translate(1295.199753 0)"/>
       <use xlink:href="#SourceSans3-Regular-64" transform="translate(1330.199738 0)"/>
       <use xlink:href="#SourceSans3-Regular-61" transform="translate(1385.699722 0)"/>
       <use xlink:href="#SourceSans3-Regular-74" transform="translate(1436.099716 0)"/>
       <use xlink:href="#SourceSans3-Regular-61" transform="translate(1469.899704 0)"/>
       <use xlink:href="#SourceSans3-Regular-20" transform="translate(1520.299698 0)"/>
       <use xlink:href="#SourceSans3-Regular-67" transform="translate(1540.299683 0)"/>
       <use xlink:href="#SourceSans3-Regular-6f" transform="translate(1590.699677 0)"/>
       <use xlink:href="#SourceSans3-Regular-76" transform="translate(1644.899673 0)"/>
       <use xlink:href="#SourceSans3-Regular-65" transform="translate(1691.59967 0)"/>
       <use xlink:href="#SourceSans3-Regular-72" transform="translate(1741.199661 0)"/>
       <use xlink:href="#SourceSans3-Regular-6e" transform="translate(1775.899658 0)"/>
       <use xlink:href="#SourceSans3-Regular-61" transform="translate(1830.599655 0)"/>
       <use xlink:href="#SourceSans3-Regular-6e" transform="translate(1880.999649 0)"/>
       <use xlink:href="#SourceSans3-Regular-63" transform="translate(1935.699646 0)"/>
       <use xlink:href="#SourceSans3-Regular-65" transform="translate(1981.299637 0)"/>
       <use xlink:href="#SourceSans3-Regular-20" transform="translate(2030.899628 0)"/>
       <use xlink:href="#SourceSans3-Regular-50" transform="translate(2050.899612 0)"/>
       <use xlink:href="#SourceSans3-Regular-6f" transform="translate(2107.499603 0)"/>
       <use xlink:href="#SourceSans3-Regular-6c" transform="translate(2161.6996 0)"/>
       <use xlink:href="#SourceSans3-Regular-69" transform="translate(2187.199585 0)"/>
       <use xlink:href="#SourceSans3-Regular-63" transform="translate(2211.799576 0)"/>
       <use xlink:href="#SourceSans3-Regular-79" transform="translate(2257.399567 0)"/>
      </g>
     </g>
    </g>
   </g>
   <g id="text_13">
    <!-- 1 (8%) -->
    <g style="fill: #ffffff" transform="translate(250.327489 57.965439) scale(0.09 -0.09)">
     <defs>
      <path id="SourceSans3-Regular-28" d="M 1370 -1126 
Q 973 -480 749 227 
Q 525 934 525 1779 
Q 525 2624 749 3334 
Q 973 4045 1370 4685 
L 1696 4531 
Q 1325 3923 1142 3216 
Q 960 2509 960 1779 
Q 960 1050 1142 342 
Q 1325 -365 1696 -973 
L 1370 -1126 
z
" transform="scale(0.015625)"/>
      <path id="SourceSans3-Regular-29" d="M 570 -1126 
L 243 -973 
Q 614 -365 796 342 
Q 979 1050 979 1779 
Q 979 2509 796 3216 
Q 614 3923 243 4531 
L 570 4685 
Q 966 4045 1190 3334 
Q 1414 2624 1414 1779 
Q 1414 934 1190 227 
Q 966 -480 570 -1126 
z
" transform="scale(0.015625)"/>
     </defs>
     <use xlink:href="#SourceSans3-Regular-31"/>
     <use xlink:href="#SourceSans3-Regular-20" transform="translate(49.699997 0)"/>
     <use xlink:href="#SourceSans3-Regular-28" transform="translate(69.699982 0)"/>
     <use xlink:href="#SourceSans3-Regular-38" transform="translate(99.999969 0)"/>
     <use xlink:href="#SourceSans3-Regular-25" transform="translate(149.699966 0)"/>
     <use xlink:href="#SourceSans3-Regular-29" transform="translate(232.09996 0)"/>
    </g>
   </g>
   <g id="text_14">
    <!-- 1 (8%) -->
    <g style="fill: #ffffff" transform="translate(250.327489 110.389141) scale(0.09 -0.09)">
     <use xlink:href="#SourceSans3-Regular-31"/>
     <use xlink:href="#SourceSans3-Regular-20" transform="translate(49.699997 0)"/>
     <use xlink:href="#SourceSans3-Regular-28" transform="translate(69.699982 0)"/>
     <use xlink:href="#SourceSans3-Regular-38" transform="translate(99.999969 0)"/>
     <use xlink:href="#SourceSans3-Regular-25" transform="translate(149.699966 0)"/>
     <use xlink:href="#SourceSans3-Regular-29" transform="translate(232.09996 0)"/>
    </g>
   </g>
   <g id="text_15">
    <!-- 11 (85%) -->
    <g style="fill: #ffffff" transform="translate(652.102381 162.812842) scale(0.09 -0.09)">
     <use xlink:href="#SourceSans3-Regular-31"/>
     <use xlink:href="#SourceSans3-Regular-31" transform="translate(49.699997 0)"/>
     <use xlink:href="#SourceSans3-Regular-20" transform="translate(99.399994 0)"/>
     <use xlink:href="#SourceSans3-Regular-28" transform="translate(119.399979 0)"/>
     <use xlink:href="#SourceSans3-Regular-38" transform="translate(149.699966 0)"/>
     <use xlink:href="#SourceSans3-Regular-35" transform="translate(199.399963 0)"/>
     <use xlink:href="#SourceSans3-Regular-25" transform="translate(249.09996 0)"/>
     <use xlink:href="#SourceSans3-Regular-29" transform="translate(331.499954 0)"/>
    </g>
   </g>
   <g id="text_16">
    <!-- Primary Policy for PI collection (n = 13) -->
    <g style="fill: #404040" transform="translate(365.001094 21.375) scale(0.14 -0.14)">
     <defs>
      <path id="SourceSans3-Regular-6d" d="M 525 0 
L 525 3110 
L 960 3110 
L 1005 2662 
L 1024 2662 
Q 1229 2886 1472 3036 
Q 1715 3187 1990 3187 
Q 2349 3187 2550 3030 
Q 2752 2874 2848 2592 
Q 3091 2854 3340 3020 
Q 3590 3187 3872 3187 
Q 4352 3187 4585 2876 
Q 4819 2566 4819 1971 
L 4819 0 
L 4294 0 
L 4294 1901 
Q 4294 2336 4153 2534 
Q 4013 2733 3718 2733 
Q 3373 2733 2938 2253 
L 2938 0 
L 2413 0 
L 2413 1901 
Q 2413 2336 2272 2534 
Q 2131 2733 1830 2733 
Q 1485 2733 1050 2253 
L 1050 0 
L 525 0 
z
" transform="scale(0.015625)"/>
      <path id="SourceSans3-Regular-66" d="M 614 0 
L 614 2682 
L 154 2682 
L 154 3078 
L 614 3110 
L 614 3603 
Q 614 4077 835 4355 
Q 1056 4634 1523 4634 
Q 1670 4634 1804 4605 
Q 1939 4576 2042 4531 
L 1926 4147 
Q 1734 4205 1574 4205 
Q 1139 4205 1139 3603 
L 1139 3110 
L 1798 3110 
L 1798 2682 
L 1139 2682 
L 1139 0 
L 614 0 
z
" transform="scale(0.015625)"/>
      <path id="SourceSans3-Regular-3d" d="M 218 2599 
L 218 2995 
L 2963 2995 
L 2963 2599 
L 218 2599 
z
M 218 1229 
L 218 1625 
L 2963 1625 
L 2963 1229 
L 218 1229 
z
" transform="scale(0.015625)"/>
     </defs>
     <use xlink:href="#SourceSans3-Regular-50"/>
     <use xlink:href="#SourceSans3-Regular-72" transform="translate(56.599991 0)"/>
     <use xlink:href="#SourceSans3-Regular-69" transform="translate(91.299988 0)"/>
     <use xlink:href="#SourceSans3-Regular-6d" transform="translate(115.899979 0)"/>
     <use xlink:href="#SourceSans3-Regular-61" transform="translate(198.799973 0)"/>
     <use xlink:href="#SourceSans3-Regular-72" transform="translate(249.199966 0)"/>
     <use xlink:href="#SourceSans3-Regular-79" transform="translate(283.899963 0)"/>
     <use xlink:href="#SourceSans3-Regular-20" transform="translate(330.59996 0)"/>
     <use xlink:href="#SourceSans3-Regular-50" transform="translate(350.599945 0)"/>
     <use xlink:href="#SourceSans3-Regular-6f" transform="translate(407.199936 0)"/>
     <use xlink:href="#SourceSans3-Regular-6c" transform="translate(461.399933 0)"/>
     <use xlink:href="#SourceSans3-Regular-69" transform="translate(486.899918 0)"/>
     <use xlink:href="#SourceSans3-Regular-63" transform="translate(511.499908 0)"/>
     <use xlink:href="#SourceSans3-Regular-79" transform="translate(557.099899 0)"/>
     <use xlink:href="#SourceSans3-Regular-20" transform="translate(603.799896 0)"/>
     <use xlink:href="#SourceSans3-Regular-66" transform="translate(623.799881 0)"/>
     <use xlink:href="#SourceSans3-Regular-6f" transform="translate(652.999878 0)"/>
     <use xlink:href="#SourceSans3-Regular-72" transform="translate(707.199875 0)"/>
     <use xlink:href="#SourceSans3-Regular-20" transform="translate(741.899872 0)"/>
     <use xlink:href="#SourceSans3-Regular-50" transform="translate(761.899857 0)"/>
     <use xlink:href="#SourceSans3-Regular-49" transform="translate(818.499847 0)"/>
     <use xlink:href="#SourceSans3-Regular-20" transform="translate(844.799835 0)"/>
     <use xlink:href="#SourceSans3-Regular-63" transform="translate(864.79982 0)"/>
     <use xlink:href="#SourceSans3-Regular-6f" transform="translate(910.399811 0)"/>
     <use xlink:href="#SourceSans3-Regular-6c" transform="translate(964.599808 0)"/>
     <use xlink:href="#SourceSans3-Regular-6c" transform="translate(990.099792 0)"/>
     <use xlink:href="#SourceSans3-Regular-65" transform="translate(1015.599777 0)"/>
     <use xlink:href="#SourceSans3-Regular-63" transform="translate(1065.199768 0)"/>
     <use xlink:href="#SourceSans3-Regular-74" transform="translate(1110.799759 0)"/>
     <use xlink:href="#SourceSans3-Regular-69" transform="translate(1144.599747 0)"/>
     <use xlink:href="#SourceSans3-Regular-6f" transform="translate(1169.199738 0)"/>
     <use xlink:href="#SourceSans3-Regular-6e" transform="translate(1223.399734 0)"/>
     <use xlink:href="#SourceSans3-Regular-20" transform="translate(1278.099731 0)"/>
     <use xlink:href="#SourceSans3-Regular-28" transform="translate(1298.099716 0)"/>
     <use xlink:href="#SourceSans3-Regular-6e" transform="translate(1328.399704 0)"/>
     <use xlink:href="#SourceSans3-Regular-20" transform="translate(1383.099701 0)"/>
     <use xlink:href="#SourceSans3-Regular-3d" transform="translate(1403.099686 0)"/>
     <use xlink:href="#SourceSans3-Regular-20" transform="translate(1452.799683 0)"/>
     <use xlink:href="#SourceSans3-Regular-31" transform="translate(1472.799667 0)"/>
     <use xlink:href="#SourceSans3-Regular-33" transform="translate(1522.499664 0)"/>
     <use xlink:href="#SourceSans3-Regular-29" transform="translate(1572.199661 0)"/>
    </g>
   </g>
  </g>
 </g>
 <defs>
  <clipPath id="pc531d5cff0">
   <rect x="245.15" y="27.375" width="464.05" height="161.465"/>
  </clipPath>
 </defs>
</svg>
